<svg width="1365" height="2946" fill="none" xmlns="http://www.w3.org/2000/svg"><g filter="url(#a)"><path d="M1611.06 643.804c-215.61-42.085-579.72 645.836-583.32 658.536-179.816 464.19 504.57 133.52 524.59 126.18-348.06-424.05 97.57-625.125 58.73-784.716Z" fill="#3B37FF"/><path d="M1793.17 768.617c-203.82-32.901-526.14 623.353-529.16 635.373-155.58 440.82 444.81 276.5 463.4 269.02-201.59-387.66-80.06-609.55 65.76-904.393Z" fill="#37E7FF"/><path d="M1677.91 833.272c-246.15 152.815-255.65 535.478-180.98 635.188 243.37 175.33 601.84 476.97 310.48 91.43-326.4-431.91 240.26-956.172-129.5-726.618Z" fill="#FF37D3"/></g><g style="mix-blend-mode:color-dodge" filter="url(#b)"><path d="M1742.45 626.662c-158.53 54.03-664.27 1139.458-890.833 1005.688-274.605 708.9 770.563 203.9 801.133 192.71 88.8 160.26 528.22-741.17 89.7-1198.398Z" fill="#3B37FF"/><path d="M1659.46 740.291c-203.82-32.901-526.14 623.349-529.16 635.369-155.585 440.82 444.81 276.51 463.4 269.02-201.59-387.66-80.06-609.55 65.76-904.389Z" fill="#37E7FF"/></g><defs><filter id="a" x="897.662" y="541.949" width="1118.72" height="1305.13" filterUnits="userSpaceOnUse" color-interpolation-filters="sRGB"><feFlood flood-opacity="0" result="BackgroundImageFix"/><feBlend in="SourceGraphic" in2="BackgroundImageFix" result="shape"/><feGaussianBlur stdDeviation="50" result="effect1_foregroundBlur_0_3411"/></filter><filter id="b" x="705.687" y="526.662" width="1451.02" height="1668.16" filterUnits="userSpaceOnUse" color-interpolation-filters="sRGB"><feFlood flood-opacity="0" result="BackgroundImageFix"/><feBlend in="SourceGraphic" in2="BackgroundImageFix" result="shape"/><feGaussianBlur stdDeviation="50" result="effect1_foregroundBlur_0_3411"/></filter></defs></svg>