<svg width="1227" height="1379" fill="none" xmlns="http://www.w3.org/2000/svg"><g filter="url(#a)"><path d="M246.065 1005.35c96.607 116.94 592.366-90.569 599.855-95.767 299.37-168.894-210.731-292.365-224.625-297.225-.112 378.804-326.019 290.809-375.23 392.992Z" fill="#3B37FF"/><path d="M203.59 858.943c94.337 106.874 553.919-102.053 560.798-107.144 276.202-167.037-116.175-342.469-129.38-346.625-62.313 295.2-224.401 360.343-431.418 453.769Z" fill="#37E7FF"/><path d="M293.43 874.954c198.314 26.328 371.079-173.702 374.929-259.626-53.03-200.211-112.12-518.264-125.606-184.855C527.644 803.983-4.473 835.405 293.43 874.954Z" fill="#FF37D3"/><path d="M285.502 830.045c-9.21 62.868 278.187-38.254 404.967-136.792 155.52-197.993 21.058-411.412-99.329-181.865-36.462 69.524-37.568 180.976-212.597 244.766-37.828 13.786-90.561 56.961-93.041 73.891Z" fill="#FCFCFD"/></g><g style="mix-blend-mode:color-dodge" filter="url(#b)"><path d="M168.439 956.914c108.265 40.639 853.801-316.915 916.071-146.25 457.2-257.928-321.815-446.488-343.034-453.91 22.849-124.43-606.666 164.006-573.037 600.16Z" fill="#3B37FF"/><path d="M262.517 932.65c94.336 106.87 553.918-102.053 560.798-107.144 276.205-167.037-116.176-342.469-129.38-346.625-62.313 295.2-224.402 360.343-431.418 453.769Z" fill="#37E7FF"/><path d="M370.93 627.897c198.314 26.328 371.08-173.701 374.93-259.626-53.031-200.211-112.12-518.264-125.607-184.855C605.145 556.927 73.028 588.348 370.93 627.897Z" fill="#FF37D3"/></g><defs><filter id="a" x="102.984" y="185.279" width="936.948" height="955.75" filterUnits="userSpaceOnUse" color-interpolation-filters="sRGB"><feFlood flood-opacity="0" result="BackgroundImageFix"/><feBlend in="SourceGraphic" in2="BackgroundImageFix" result="shape"/><feGaussianBlur stdDeviation="50" result="effect1_foregroundBlur_0_3508"/></filter><filter id="b" x="67.138" y="-61.777" width="1260.95" height="1124.82" filterUnits="userSpaceOnUse" color-interpolation-filters="sRGB"><feFlood flood-opacity="0" result="BackgroundImageFix"/><feBlend in="SourceGraphic" in2="BackgroundImageFix" result="shape"/><feGaussianBlur stdDeviation="50" result="effect1_foregroundBlur_0_3508"/></filter></defs></svg>