<svg width="530" height="1261" fill="none" xmlns="http://www.w3.org/2000/svg"><g filter="url(#a)"><path d="M292.179 873.662c195.563 56.669 588.544-548.299 592.92-559.726 204.361-413.662-539.74-64.195-558.825-59.081 338.104 134.07-56.765 468.269-34.095 618.807Z" fill="#3B37FF"/><path d="M482.306 987.465c32.417 120.005 280.916-102.726 401.114-229.09 70.466-194.503-374.031-345.505-347.24-189.804 41.966 243.896-94.395 268.892-53.874 418.894Z" fill="#37E7FF"/><path d="M496.143 928.139c32.337 136.821 311.755-134.982 447.423-287.983 135.214-152.251-509.665-347.32-350.648-214.697 159.018 132.622-137.196 331.659-96.775 502.68Z" fill="#FF37D3"/><path d="M518.652 921.357c108.836 31.401 327.801-304.725 330.241-311.073 113.902-229.81-300.413-35.455-311.038-32.608 188.151 74.336-31.768 260.084-19.203 343.681Z" fill="#EB1B1B"/><path d="M491.359 824.236c13.886 78.204 225.438-142.501 329.478-262.629 43.836-49.398-67.626-73.3-195.587-149.238-127.961-75.937-130.954 35.497-89.007 171.022 41.948 135.524-62.241 143.091-44.884 240.845Z" fill="#FFF500"/><path d="M507.894 811.995c15.974 24.495 217.604-198.177 316.421-312.575-115.181-44.016-334.28-110.969-289.227-26.649 56.316 105.399 26.145 194.476 6.496 228.224-19.648 33.748-53.658 80.381-33.69 111Z" fill="#FCFCFD"/></g><g style="mix-blend-mode:color-dodge" filter="url(#b)"><path d="M335.614 963.877c203.287 11.425 450.778-666.195 452.483-678.312 106.51-448.924-540.405 58.332-557.859 67.591 359.543 54.932 49.563 469.085 105.376 610.721Z" fill="#3B37FF"/><path d="M513.632 1003.92c32.417 120 280.916-102.728 401.113-229.092 70.466-194.504-374.03-345.505-347.24-189.804 41.967 243.896-94.395 268.892-53.873 418.896Z" fill="#37E7FF"/><path d="M361.999 933.638c-13.186 71.052 255.777-215.842 447.423-287.983 135.218-152.251-509.665-347.32-350.647-214.697 159.017 132.622-64.712 329.897-96.776 502.68Z" fill="#FF37D3"/><path d="M592.529 1018.05c113.249 2.43 238.664-378.62 239.394-385.382 51.139-251.339-299.455 42.793-308.995 48.271 200.924 23.584 36.013 259.53 69.601 337.111Z" fill="#EB1B1B"/><path d="M406.527 721.275c-26.731 74.793 266.433-11.923 416.357-64.63 62.564-21.151-22.366-97.191-95.813-226.597-73.448-129.406-131.317-34.129-162.113 104.356-30.795 138.485-125.017 93.379-158.431 186.871Z" fill="#FFF500"/><path d="M454.492 806.134c15.59 24.741 220.67-194.757 321.26-307.599-114.48-45.809-332.507-116.172-288.776-31.16 54.665 106.265 23.107 194.86 2.934 228.298-20.172 33.437-54.905 79.534-35.418 110.461Z" fill="#FCFCFD"/></g><defs><filter id="a" x="191.232" y="12.09" width="871.11" height="1109.76" filterUnits="userSpaceOnUse" color-interpolation-filters="sRGB"><feFlood flood-opacity="0" result="BackgroundImageFix"/><feBlend in="SourceGraphic" in2="BackgroundImageFix" result="shape"/><feGaussianBlur stdDeviation="50" result="effect1_foregroundBlur_0_3493"/></filter><filter id="b" x="130.238" y=".385" width="892.091" height="1137.92" filterUnits="userSpaceOnUse" color-interpolation-filters="sRGB"><feFlood flood-opacity="0" result="BackgroundImageFix"/><feBlend in="SourceGraphic" in2="BackgroundImageFix" result="shape"/><feGaussianBlur stdDeviation="50" result="effect1_foregroundBlur_0_3493"/></filter></defs></svg>