<svg width="1769" height="1859" fill="none" xmlns="http://www.w3.org/2000/svg"><g filter="url(#a)"><path d="M1601.95 1096.55c-55.51-54.71-298.04 77.36-301.6 80.41-144.17 102.03 123.05 138.39 130.41 140.15-19.81-193.64 151.39-165.75 171.19-220.56Z" fill="#3B37FF"/><path d="M1631.34 1169.16c-53.83-49.68-277.79 81.21-281.04 84.18-132.42 99.86 77.35 168.96 84.31 170.39 16.37-154.16 95.81-195.96 196.73-254.57Zm-1321.137 0c-53.826-49.68-277.788 81.21-281.037 84.18-132.423 99.86 77.344 168.96 84.311 170.39 16.371-154.16 95.807-195.96 196.726-254.57Z" fill="#37E7FF"/><path d="M310.202 1191.46c-53.825-49.69-277.787 81.21-281.037 84.17-132.422 99.87 77.345 168.97 84.312 170.4 16.371-154.16 95.807-195.96 196.725-254.57Z" fill="#37E7FF"/><path d="M310.203 1306.46c-53.825-49.69-277.787 81.21-281.037 84.17-132.422 99.87 77.345 168.97 84.312 170.4 16.371-154.16 95.807-195.96 196.725-254.57Z" fill="#37E7FF"/><path d="M310.202 1377.46c-53.825-49.69-277.787 81.21-281.037 84.17-132.422 99.87 77.345 168.97 84.312 170.4 16.371-154.16 95.807-195.96 196.725-254.57Z" fill="#37E7FF"/></g><g style="mix-blend-mode:color-dodge" filter="url(#b)"><path d="M1542.93 223.299c-57.47-15.095-419.8 206.77-460.58 122.799-220.174 155.818 187.91 211.348 199.15 214.029-5.16 64.802 301.5-115.649 261.43-336.828Z" fill="#3B37FF"/><path d="M1359.49 356.145c-102.75-3.057-180.57 108.25-178.03 152.373 37.61 99.558 84.49 259.034 73.9 87.903-11.86-191.715 258.48-235.683 104.13-240.276Z" fill="#FF37D3"/></g><defs><filter id="a" x="-114.583" y="983.289" width="1845.92" height="748.739" filterUnits="userSpaceOnUse" color-interpolation-filters="sRGB"><feFlood flood-opacity="0" result="BackgroundImageFix"/><feBlend in="SourceGraphic" in2="BackgroundImageFix" result="shape"/><feGaussianBlur stdDeviation="50" result="effect1_foregroundBlur_0_3376"/></filter><filter id="b" x="917.259" y="122.559" width="729.286" height="649.383" filterUnits="userSpaceOnUse" color-interpolation-filters="sRGB"><feFlood flood-opacity="0" result="BackgroundImageFix"/><feBlend in="SourceGraphic" in2="BackgroundImageFix" result="shape"/><feGaussianBlur stdDeviation="50" result="effect1_foregroundBlur_0_3376"/></filter></defs></svg>