<svg width="1122" height="3580" fill="none" xmlns="http://www.w3.org/2000/svg"><g filter="url(#a)"><path d="M-350.313 2680.13c-250.19 15.59-561.86-815.65-564.084-830.54-135.743-551.13 570.289-281.37 591.876-270.12-289.577 444.54-169.033 727.08-27.792 1100.66Z" fill="#37E7FF"/><path d="M-481.926 2588.33c-279.326-213.85-245.424-677.39-143.371-789.02 314.887-183.01 783.835-505.01 386.035-73.67-445.645 483.22 176.932 1183.94-242.664 862.69Z" fill="#FF37D3"/></g><g style="mix-blend-mode:color-dodge" filter="url(#b)"><path d="M-428.429 2845.65c-185.15-84.08-667.581-1455.7-957.221-1320.92-247.77-889.195 955.333-155.01 990.946-137.86 126.309-183.13 550.414 958.27-33.725 1458.78Z" fill="#3B37FF"/><path d="M-271.109 2184.76c-279.326-213.85-245.424-677.39-143.371-789.02 314.887-183.01 783.835-505.012 386.035-73.67-445.646 483.21 176.931 1183.93-242.664 862.69Z" fill="#FF37D3"/></g><defs><filter id="a" x="-1317.96" y="1385.1" width="1331.47" height="1524.8" filterUnits="userSpaceOnUse" color-interpolation-filters="sRGB"><feFlood flood-opacity="0" result="BackgroundImageFix"/><feBlend in="SourceGraphic" in2="BackgroundImageFix" result="shape"/><feGaussianBlur stdDeviation="50" result="effect1_foregroundBlur_0_3400"/></filter><filter id="b" x="-1519.24" y="985.828" width="1743.57" height="1959.83" filterUnits="userSpaceOnUse" color-interpolation-filters="sRGB"><feFlood flood-opacity="0" result="BackgroundImageFix"/><feBlend in="SourceGraphic" in2="BackgroundImageFix" result="shape"/><feGaussianBlur stdDeviation="50" result="effect1_foregroundBlur_0_3400"/></filter></defs></svg>