<svg width="980" height="602" fill="none" xmlns="http://www.w3.org/2000/svg"><g filter="url(#a)"><path d="M650.489 277.87c-23.117 16.826-493.543 140.467-411.601-472.937C350.879-272.45 559.951 87.981 650.489 277.87Z" fill="#37E7FF"/><path d="M379.427-240.629c-88.485 87.924-129.065 279.36 165.811 455.606 335.827 200.722 62.486-289.544-165.811-455.606Z" fill="#3B37FF"/></g><g style="mix-blend-mode:color-dodge" filter="url(#b)"><path d="M560.829 165.786c-25.917 13.156-472.443 102.281-175.821-396.421 124.031-60.361 168.894 239.13 175.821 396.421Z" fill="#37E7FF"/><path d="M153-241.685C80.013-116.811 95.91 127.48 492.46 292.1 944.081 479.582 469.689-77.588 153-241.685Z" fill="#3B37FF"/></g><defs><filter id="a" x="129.316" y="-340.629" width="672.934" height="739.82" filterUnits="userSpaceOnUse" color-interpolation-filters="sRGB"><feFlood flood-opacity="0" result="BackgroundImageFix"/><feBlend in="SourceGraphic" in2="BackgroundImageFix" result="shape"/><feGaussianBlur stdDeviation="50" result="effect1_foregroundBlur_0_3519"/></filter><filter id="b" x="19.001" y="-341.686" width="759.207" height="771.866" filterUnits="userSpaceOnUse" color-interpolation-filters="sRGB"><feFlood flood-opacity="0" result="BackgroundImageFix"/><feBlend in="SourceGraphic" in2="BackgroundImageFix" result="shape"/><feGaussianBlur stdDeviation="50" result="effect1_foregroundBlur_0_3519"/></filter></defs></svg>