<svg width="679" height="1154" fill="none" xmlns="http://www.w3.org/2000/svg"><g filter="url(#a)"><path d="M513.416 462.988C353.607 336.825-238.318 749.19-246.677 758.126c-345.13 306.204 475.797 262.784 495.403 265.244-262.693-251.563 228.982-412.393 264.69-560.382Z" fill="#3B37FF"/><path d="M380.167 285.948c15.176-123.373-298.92-10.664-457.864 61.112-138.545 153.63 216.324 460.952 250.16 306.628 53.002-241.737 188.734-213.524 207.704-367.74Z" fill="#37E7FF"/><path d="M345 335.691c21.585-138.919-339.637 7.598-522.947 98.221-182.611 90.099 341.283 513.728 243.94 330.972C-31.353 582.129 318.02 509.34 345 335.691Z" fill="#FF37D3"/><path d="M321.595 333.494c-88.989-70.087-418.444 158.792-423.096 163.753-192.081 169.974 264.927 146.011 275.842 147.376C28.053 504.886 301.743 415.665 321.595 333.494Z" fill="#EB1B1B"/><path d="M310.296 433.742c16.597-77.673-262.511 47.08-404.14 119.166-59.215 29.246 35.031 93.376 124.96 211.923s134.679 16.449 146.875-124.893c12.195-141.343 111.559-109.104 132.305-206.196Z" fill="#FFF500"/><path d="M290.362 438.852c-5.57-28.708-276.227 101.606-410.86 170.351 90.115 84.163 267.852 228.719 257.882 133.64-12.463-118.849 49.041-189.999 79.955-213.859 30.915-23.86 79.986-54.246 73.023-90.132Z" fill="#FCFCFD"/></g><g style="mix-blend-mode:color-dodge" filter="url(#b)"><path d="M507.171 363.058c-184.007-87.163-668.528 447.308-674.673 457.89-267.775 375.732 522.569 149.538 542.226 147.537-312.364-186.328 130.794-453.2 132.447-605.427Z" fill="#3B37FF"/><path d="M357.351 258.907c15.176-123.373-298.92-10.664-457.864 61.112-138.545 153.63 216.324 460.952 250.16 306.628 53.001-241.737 188.734-213.524 207.704-367.74Z" fill="#37E7FF"/><path d="M471.338 381.132c38.981-60.853-318.243 103.589-522.947 98.221C-234.22 569.452 289.674 993.08 192.33 810.325 94.986 627.57 376.549 529.108 471.338 381.132Z" fill="#FF37D3"/><path d="M289.587 216.099C185.597 171.185-74.122 476.918-77.345 482.907c-142.052 213.559 293.516 73.165 304.416 71.685-177.238-97.536 64.407-253.978 62.516-338.493Z" fill="#EB1B1B"/><path d="M350.094 561.076c52.937-59.214-251.297-89.322-410.031-96.975-65.924-3.975-15.895 98.456 3.394 245.998 19.29 147.541 108.787 81.083 189.482-35.6 80.694-116.683 150.984-39.405 217.155-113.423Z" fill="#FFF500"/><path d="M337.627 464.399c-5.121-28.792-277.779 97.283-413.467 163.919 88.79 85.559 264.25 232.871 255.765 137.648-10.608-119.03 52-189.21 83.282-212.585 31.283-23.376 80.822-52.992 74.42-88.982Z" fill="#FCFCFD"/></g><defs><filter id="a" x="-431.289" y="130.955" width="1044.71" height="993.28" filterUnits="userSpaceOnUse" color-interpolation-filters="sRGB"><feFlood flood-opacity="0" result="BackgroundImageFix"/><feBlend in="SourceGraphic" in2="BackgroundImageFix" result="shape"/><feGaussianBlur stdDeviation="50" result="effect1_foregroundBlur_0_3478"/></filter><filter id="b" x="-322.819" y="103.914" width="929.99" height="1033.89" filterUnits="userSpaceOnUse" color-interpolation-filters="sRGB"><feFlood flood-opacity="0" result="BackgroundImageFix"/><feBlend in="SourceGraphic" in2="BackgroundImageFix" result="shape"/><feGaussianBlur stdDeviation="50" result="effect1_foregroundBlur_0_3478"/></filter></defs></svg>