<svg width="1920" height="1625" fill="none" xmlns="http://www.w3.org/2000/svg"><g filter="url(#a)"><path d="M221.313 175.821c-55.369-111.29-255.25 155.931-348.268 303.453-30.866 204.558 434.638 265.258 377.77 117.859-89.081-230.891-136.326-216.017-29.502-421.312Z" fill="#3B37FF"/><path d="M118.567 100.933c41.935 83.067 136.791 433.324 60.924 449.57 120.671 226.329 203.591-223.731 207.456-234.03-169.913 109.8-193.073-177.132-268.38-215.54Z" fill="#EB1B1B"/></g><g filter="url(#b)"><path d="M1409.51 1254.1c-68.69 103.6 262.67 143.09 436.93 149.89 192.59-75.55 12.41-509.042-86.81-386.09-155.42 192.59-118.92 226.07-350.12 236.2Z" fill="#3B37FF"/><path d="M1396.03 1380.53c50.97-77.85 306.88-335.13 358.88-277.55 135.67-217.668-295.55-64.45-306.41-62.65 180.05 92.25-56.86 255.78-52.47 340.2Z" fill="#EB1B1B"/></g><g style="mix-blend-mode:color-dodge" filter="url(#c)"><path d="M350.313 188.821C294.944 77.531 95.063 344.752 2.045 492.274c-30.866 204.558 434.638 265.258 377.77 117.859-89.081-230.891-136.326-216.017-29.502-421.312Z" fill="#3B37FF"/><path d="M147.07 207.502c24.305 48.145 79.283 251.152 35.311 260.568 69.94 131.18 118-129.673 120.24-135.642-98.48 63.64-111.904-102.665-155.551-124.926Zm1327 1095.058c29.54-45.12 177.86-194.24 208-160.87 78.64-126.16-171.3-37.35-177.59-36.31 104.36 53.47-32.96 148.25-30.41 197.18Z" fill="#EB1B1B"/></g><defs><filter id="a" x="-228.427" y=".933" width="715.374" height="777.621" filterUnits="userSpaceOnUse" color-interpolation-filters="sRGB"><feFlood flood-opacity="0" result="BackgroundImageFix"/><feBlend in="SourceGraphic" in2="BackgroundImageFix" result="shape"/><feGaussianBlur stdDeviation="50" result="effect1_foregroundBlur_0_3526"/></filter><filter id="b" x="1295.97" y="886.28" width="735.71" height="617.705" filterUnits="userSpaceOnUse" color-interpolation-filters="sRGB"><feFlood flood-opacity="0" result="BackgroundImageFix"/><feBlend in="SourceGraphic" in2="BackgroundImageFix" result="shape"/><feGaussianBlur stdDeviation="50" result="effect1_foregroundBlur_0_3526"/></filter><filter id="c" x="-99.427" y="62.409" width="1896.79" height="1340.15" filterUnits="userSpaceOnUse" color-interpolation-filters="sRGB"><feFlood flood-opacity="0" result="BackgroundImageFix"/><feBlend in="SourceGraphic" in2="BackgroundImageFix" result="shape"/><feGaussianBlur stdDeviation="50" result="effect1_foregroundBlur_0_3526"/></filter></defs></svg>