<svg width="1409" height="1441" fill="none" xmlns="http://www.w3.org/2000/svg"><g opacity=".8"><g filter="url(#a)"><path d="M562.626 1117.02c102.965 38.37 338.823-271.381 341.638-277.355 126.636-214.392-238.1-107.09-248.577-105.106 137.135 237.687-99.199 300.531-93.061 382.461Z" fill="#3B37FF"/><path d="M482.952 1040.55c97.894 32.88 310.542-264.656 313.014-270.341 112.777-204.835-196.928-172.772-206.717-170.597 67.83 207.767-10.263 307.345-106.297 440.938Z" fill="#37E7FF"/><path d="M545.111 1018.06c133.951-55.317 169.885-243.384 141.178-298.685C580.501 612.979 428.23 434.847 540.532 648.9c125.81 239.798-196.638 452.25 4.579 369.16Z" fill="#FF37D3"/><path d="M523.874 992.753c16.994 42.777 160.668-124.759 204.514-232.5C754.24 579.71 592.582 494.522 600.2 682.136c2.307 56.823 41.982 127.145-44.72 230.561-18.738 22.351-36.182 68.537-31.606 80.056Z" fill="#FCFCFD"/></g><g style="mix-blend-mode:color-dodge" filter="url(#b)"><path d="M496.387 1114.75c82.641-13.72 420.853-508.077 521.733-423.564 193.4-327.412-363.614-163.544-379.614-160.514-30.735-86.339-321.195 322.629-142.119 584.078Z" fill="#3B37FF"/><path d="M546.622 1065.45c97.894 32.88 310.542-264.66 313.014-270.346C972.413 590.27 662.708 622.332 652.919 624.508c67.83 207.767-10.263 307.344-106.297 440.942Z" fill="#37E7FF"/><path d="M504.251 834.99c133.951-55.314 169.885-243.382 141.178-298.682C539.642 429.911 387.37 251.78 499.673 465.833c125.809 239.798-196.639 452.247 4.578 369.157Z" fill="#FF37D3"/></g></g><defs><filter id="a" x="365.683" y="436.823" width="676.777" height="795" filterUnits="userSpaceOnUse" color-interpolation-filters="sRGB"><feFlood flood-opacity="0" result="BackgroundImageFix"/><feBlend in="SourceGraphic" in2="BackgroundImageFix" result="shape"/><feGaussianBlur stdDeviation="55.758" result="effect1_foregroundBlur_0_3433"/></filter><filter id="b" x="324.824" y="253.756" width="845.561" height="972.506" filterUnits="userSpaceOnUse" color-interpolation-filters="sRGB"><feFlood flood-opacity="0" result="BackgroundImageFix"/><feBlend in="SourceGraphic" in2="BackgroundImageFix" result="shape"/><feGaussianBlur stdDeviation="55.758" result="effect1_foregroundBlur_0_3433"/></filter></defs></svg>