<svg width="1504" height="3580" fill="none" xmlns="http://www.w3.org/2000/svg"><g filter="url(#a)"><path d="M-385.515 2809.36c265.533 25.29 623.948-849.18 626.797-864.95 162.241-582.26-625.561-101.51-648.881-90.27 470.875 471.15-43.781 766.98 22.084 955.22Z" fill="#3B37FF"/><path d="M-604.372 2680.13c250.19 15.59 561.86-815.65 564.084-830.54 135.739-551.13-570.29-281.37-591.876-270.12 289.576 444.54 169.032 727.08 27.792 1100.66Z" fill="#37E7FF"/><path d="M-472.759 2588.33c279.325-213.85 245.424-677.39 143.37-789.02-314.886-183.01-783.831-505.01-386.035-73.67 445.646 483.22-176.931 1183.94 242.665 862.69Z" fill="#FF37D3"/></g><g style="mix-blend-mode:color-dodge" filter="url(#b)"><path d="M-526.257 2845.65c185.151-84.08 667.58-1455.7 957.22-1320.92 247.769-889.195-955.332-155.01-990.945-137.86-126.309-183.13-550.418 958.27 33.725 1458.78Z" fill="#3B37FF"/><path d="M-484.324 2698.5c250.19 15.59 561.86-815.65 564.084-830.53 135.739-551.14-570.289-281.38-591.876-270.13 289.577 444.54 169.033 727.08 27.792 1100.66Z" fill="#37E7FF"/></g><defs><filter id="a" x="-968.199" y="1385.1" width="1331.47" height="1524.8" filterUnits="userSpaceOnUse" color-interpolation-filters="sRGB"><feFlood flood-opacity="0" result="BackgroundImageFix"/><feBlend in="SourceGraphic" in2="BackgroundImageFix" result="shape"/><feGaussianBlur stdDeviation="50" result="effect1_foregroundBlur_0_3389"/></filter><filter id="b" x="-1179.02" y="985.828" width="1743.57" height="1959.83" filterUnits="userSpaceOnUse" color-interpolation-filters="sRGB"><feFlood flood-opacity="0" result="BackgroundImageFix"/><feBlend in="SourceGraphic" in2="BackgroundImageFix" result="shape"/><feGaussianBlur stdDeviation="50" result="effect1_foregroundBlur_0_3389"/></filter></defs></svg>