<svg width="1065" height="2880" fill="none" xmlns="http://www.w3.org/2000/svg"><g filter="url(#a)"><path d="M1124.22 2233.13c205.85 76.72 677.37-542.54 683-554.48 253.18-428.61-476.01-214.09-496.95-210.13 274.16 475.19-198.32 600.82-186.05 764.61Z" fill="#3B37FF"/><path d="M964.935 2080.26c195.705 65.73 620.835-529.1 625.775-540.46 225.46-409.51-393.7-345.41-413.27-341.06 135.61 415.37-20.51 614.44-212.505 881.52Z" fill="#37E7FF"/><path d="M1089.2 2035.29c267.8-110.58 339.64-486.56 282.24-597.12-211.48-212.71-515.904-568.826-291.39-140.89 251.52 479.4-393.118 904.13 9.15 738.01Z" fill="#FF37D3"/><path d="M1046.75 1984.7c33.97 85.52 321.21-249.41 408.86-464.81 51.69-360.94-271.5-531.245-256.27-156.17 4.61 113.6 83.93 254.19-89.4 460.94-37.46 44.68-72.34 137.01-63.19 160.04Z" fill="#FCFCFD"/></g><g style="mix-blend-mode:color-dodge" filter="url(#b)"><path d="M991.798 2228.59c165.212-27.42 841.372-1015.73 1043.052-846.78 386.64-654.555-726.94-326.95-758.93-320.9-61.44-172.603-642.128 645-284.122 1167.68Z" fill="#3B37FF"/><path d="M1092.22 2130.03c195.71 65.74 620.84-529.1 625.78-540.46 225.46-409.51-393.7-345.41-413.27-341.06 135.61 415.37-20.51 614.44-212.51 881.52Z" fill="#37E7FF"/><path d="M1007.52 1669.31c267.79-110.59 339.63-486.57 282.24-597.13-211.49-212.704-515.907-568.822-291.393-140.89 251.513 479.4-393.119 904.13 9.153 738.02Z" fill="#FF37D3"/></g><defs><filter id="a" x="853.434" y="996.235" width="1107.13" height="1343.47" filterUnits="userSpaceOnUse" color-interpolation-filters="sRGB"><feFlood flood-opacity="0" result="BackgroundImageFix"/><feBlend in="SourceGraphic" in2="BackgroundImageFix" result="shape"/><feGaussianBlur stdDeviation="50" result="effect1_foregroundBlur_0_3422"/></filter><filter id="b" x="771.751" y="630.249" width="1444.56" height="1698.34" filterUnits="userSpaceOnUse" color-interpolation-filters="sRGB"><feFlood flood-opacity="0" result="BackgroundImageFix"/><feBlend in="SourceGraphic" in2="BackgroundImageFix" result="shape"/><feGaussianBlur stdDeviation="50" result="effect1_foregroundBlur_0_3422"/></filter></defs></svg>