<svg width="1920" height="7253" fill="none" xmlns="http://www.w3.org/2000/svg"><g filter="url(#a)"><path d="M-581.619 5331.37c-298.356 86.05-312.958 1186.13-309.304 1204.43 73.02 699.85 720.798-157.29 741.254-179.42-711.184-309.08-280.212-849.28-431.95-1025.01Z" fill="#3B37FF"/><path d="M-272.083 5371c-277.598 89.99-260.042 1123.3-256.092 1140.37 88.426 654.82 737.778 61.11 756.349 39.7-503.482-357.71-493.633-715.18-500.257-1180.07Z" fill="#37E7FF"/><path d="M-375.4 5526.63c-211.141 350.91 23.58 838.41 181.779 915.7 419.175 63.68 1064.561 212.07 449.52-85.12-689.017-332.93-314.127-1357.7-631.299-830.58Z" fill="#FF37D3"/><path d="M-284.616 5548.37c-110.537-68.55-155.005 553.54-73.357 871.95 244.958 453.46 755.332 375 422.477-38.22-100.812-125.15-309.183-218.11-286.241-598.77 4.958-82.28-33.112-216.5-62.879-234.96Z" fill="#FCFCFD"/></g><g style="mix-blend-mode:color-dodge" filter="url(#b)"><path d="M-427.393 5225.12c-164.586 170.16-101.124 1861.59-472.358 1839.36 111.514 1068.78 1100.777-240.21 1132.015-274 215.01 144.36 186.724-1272.86-659.657-1565.36Z" fill="#3B37FF"/><path d="M-458.544 5421.56c-277.598 89.99-260.042 1123.3-256.092 1140.37 88.427 654.82 737.778 61.11 756.35 39.7-503.483-357.71-493.634-715.18-500.258-1180.07Z" fill="#37E7FF"/><path d="M25.284 5873.63c-211.142 350.9 23.579 838.4 181.779 915.7 419.175 63.67 1064.557 212.06 449.519-85.12-689.016-332.93-314.127-1357.7-631.298-830.58Z" fill="#FF37D3"/></g><g filter="url(#c)"><path d="M1719.83 6140.48c-298.36 86.04-312.96 1186.13-309.3 1204.43 73.02 699.84 720.79-157.29 741.25-179.42-711.18-309.08-280.21-849.29-431.95-1025.01Z" fill="#3B37FF"/><path d="M2029.37 6180.11c-277.6 89.99-260.05 1123.3-256.1 1140.37 88.43 654.82 737.78 61.11 756.35 39.7-503.48-357.71-493.63-715.18-500.25-1180.07Z" fill="#37E7FF"/><path d="M1926.05 6335.74c-211.14 350.9 23.58 838.41 181.78 915.7 419.17 63.68 1064.56 212.07 449.52-85.12-689.02-332.93-314.13-1357.7-631.3-830.58Z" fill="#FF37D3"/><path d="M2016.83 6357.48c-110.53-68.55-155 553.54-73.35 871.94 244.95 453.46 755.33 375.01 422.47-38.21-100.81-125.16-309.18-218.11-286.24-598.78 4.96-82.27-33.11-216.49-62.88-234.95Z" fill="#FCFCFD"/></g><g style="mix-blend-mode:color-dodge" filter="url(#d)"><path d="M1874.06 6034.23c-164.59 170.15-101.13 1861.59-472.36 1839.36 111.51 1068.78 1100.78-240.21 1132.02-274 215.01 144.36 186.72-1272.86-659.66-1565.36Z" fill="#3B37FF"/><path d="M1842.91 6230.67c-277.6 89.99-260.04 1123.3-256.09 1140.37 88.42 654.82 737.77 61.11 756.34 39.7-503.48-357.71-493.63-715.18-500.25-1180.07Z" fill="#37E7FF"/></g><defs><filter id="a" x="-1096.04" y="5126.67" width="1810.06" height="1896.23" filterUnits="userSpaceOnUse" color-interpolation-filters="sRGB"><feFlood flood-opacity="0" result="BackgroundImageFix"/><feBlend in="SourceGraphic" in2="BackgroundImageFix" result="shape"/><feGaussianBlur stdDeviation="102.355" result="effect1_foregroundBlur_0_3444"/></filter><filter id="b" x="-1104.46" y="5020.41" width="2219.16" height="2667.8" filterUnits="userSpaceOnUse" color-interpolation-filters="sRGB"><feFlood flood-opacity="0" result="BackgroundImageFix"/><feBlend in="SourceGraphic" in2="BackgroundImageFix" result="shape"/><feGaussianBlur stdDeviation="102.355" result="effect1_foregroundBlur_0_3444"/></filter><filter id="c" x="1205.41" y="5935.77" width="1810.06" height="1896.23" filterUnits="userSpaceOnUse" color-interpolation-filters="sRGB"><feFlood flood-opacity="0" result="BackgroundImageFix"/><feBlend in="SourceGraphic" in2="BackgroundImageFix" result="shape"/><feGaussianBlur stdDeviation="102.355" result="effect1_foregroundBlur_0_3444"/></filter><filter id="d" x="1196.99" y="5829.52" width="2219.16" height="2667.8" filterUnits="userSpaceOnUse" color-interpolation-filters="sRGB"><feFlood flood-opacity="0" result="BackgroundImageFix"/><feBlend in="SourceGraphic" in2="BackgroundImageFix" result="shape"/><feGaussianBlur stdDeviation="102.355" result="effect1_foregroundBlur_0_3444"/></filter></defs></svg>