<svg width="15" height="16" viewBox="0 0 15 16" fill="none" xmlns="http://www.w3.org/2000/svg">
<path d="M7.5 0.5C6.44187 0.5 5.51069 1.02863 4.94507 1.83301C3.97632 1.66426 2.94539 1.94914 2.19727 2.69727C1.44914 3.44539 1.16426 4.47694 1.33301 5.44507C0.528633 6.01069 0 6.94187 0 8C0 9.05812 0.528633 9.98931 1.33301 10.5549C1.16426 11.5237 1.44914 12.5546 2.19727 13.3027C2.94539 14.0509 3.97694 14.3357 4.94507 14.167C5.51069 14.9714 6.44187 15.5 7.5 15.5C8.55812 15.5 9.48931 14.9714 10.0549 14.167C11.0237 14.3357 12.0546 14.0509 12.8027 13.3027C13.5509 12.5546 13.8357 11.5231 13.667 10.5549C14.4714 9.98931 15 9.05812 15 8C15 6.94187 14.4714 6.01069 13.667 5.44507C13.8357 4.47632 13.5509 3.44539 12.8027 2.69727C12.0546 1.94914 11.0231 1.66426 10.0549 1.83301C9.48931 1.02863 8.55812 0.5 7.5 0.5ZM11.25 4.875C11.4098 4.875 11.5697 4.93592 11.6919 5.05811C11.9363 5.30248 11.9363 5.69752 11.6919 5.94189L6.96655 10.6672C6.84905 10.7847 6.69028 10.8503 6.52466 10.8503C6.35903 10.8503 6.19964 10.7847 6.08276 10.6672L3.92456 8.50903C3.68019 8.26466 3.68019 7.86962 3.92456 7.62524C4.16894 7.38087 4.56397 7.38087 4.80835 7.62524L6.52466 9.34155L10.8081 5.05811C10.9303 4.93592 11.0902 4.875 11.25 4.875Z" fill="#4C9AE4"/>
</svg>
