<svg width="116" height="30" viewBox="0 0 116 30" fill="none" xmlns="http://www.w3.org/2000/svg">
<path d="M10.2571 29.015C6.74504 29.015 3.51658 24.7261 2.09937 22.5404C1.5819 21.7423 1.40488 20.784 1.52189 19.8401C1.63148 18.956 1.46799 18.064 1.11203 17.2474C0.931361 16.8329 0.785167 16.453 0.813296 16.3657C0.968687 15.883 1.69518 15.7376 1.58937 15.2417C1.17719 13.3102 0.975528 11.2678 0.907972 10.4804C0.888765 10.2565 0.87619 9.9196 1.09883 9.94993C1.49844 10.0044 2.35362 10.8009 2.92797 11.0982C3.67805 11.4865 3.6645 1.68135 4.55013 0.727031C5.18389 0.0441211 6.64139 6.03759 7.41916 9.50191C7.67889 10.6588 8.21466 11.5782 9.37723 11.3451C10.5523 11.1095 12.8413 10.6284 13.1038 9.45907C13.8828 5.98844 15.3296 0.0469277 15.964 0.727031C16.8541 1.68135 16.8361 11.4865 17.5861 11.0982C18.1605 10.8009 19.0158 10.0043 19.4153 9.94992C19.6379 9.91964 19.6253 10.2565 19.6061 10.4803C19.5385 11.267 19.3369 13.3066 18.9248 15.237C18.8189 15.7329 19.5454 15.8784 19.7008 16.361C20.1611 17.7907 18.9227 19.2746 19.1075 20.7652L19.1721 21.287C19.1721 21.2963 14.9699 29.015 10.2571 29.015Z" fill="url(#paint0_linear_0_4261)"/>
<path d="M27.7816 20.3442V10.1412H29.3192L32.8477 17.3684L36.3763 10.1412H37.9138V20.3442H36.3196V13.8044L33.1878 20.3442H32.5076L29.3829 13.8044V20.3442H27.7816ZM44.2194 20.5568C43.1991 20.5568 42.3252 20.3348 41.5978 19.8908C40.8703 19.442 40.3106 18.8185 39.9185 18.0202C39.5312 17.2219 39.3375 16.2961 39.3375 15.2427C39.3375 14.1894 39.5312 13.2635 39.9185 12.4652C40.3106 11.667 40.8703 11.0458 41.5978 10.6018C42.3252 10.153 43.1991 9.92866 44.2194 9.92866C45.2397 9.92866 46.1136 10.153 46.841 10.6018C47.5732 11.0458 48.1329 11.667 48.5202 12.4652C48.9123 13.2635 49.1083 14.1894 49.1083 15.2427C49.1083 16.2961 48.9123 17.2219 48.5202 18.0202C48.1329 18.8185 47.5732 19.442 46.841 19.8908C46.1136 20.3348 45.2397 20.5568 44.2194 20.5568ZM44.2194 18.9484C44.9043 18.9531 45.4735 18.802 45.927 18.4949C46.3852 18.1879 46.7276 17.7557 46.9544 17.1983C47.1858 16.6409 47.3015 15.9891 47.3015 15.2427C47.3015 14.4964 47.1858 13.8493 46.9544 13.3013C46.7276 12.7487 46.3852 12.3188 45.927 12.0118C45.4735 11.7047 44.9043 11.5465 44.2194 11.5371C43.5345 11.5323 42.9653 11.6835 42.5118 11.9905C42.0583 12.2976 41.7159 12.7298 41.4844 13.2872C41.2577 13.8445 41.1443 14.4964 41.1443 15.2427C41.1443 15.9891 41.2577 16.6386 41.4844 17.1912C41.7111 17.7392 42.0512 18.1667 42.5047 18.4737C42.9629 18.7807 43.5345 18.939 44.2194 18.9484ZM50.5187 20.3442V10.1412H52.2475L56.9806 17.3329V10.1412H58.7094V20.3442H56.9806L52.2475 13.1525V20.3442H50.5187ZM60.9735 20.3442V18.5941H62.7236V20.3442H60.9735ZM65.1357 20.3442V9.92866H66.8433V20.3442H65.1357ZM71.1055 20.5568C70.5528 20.5568 70.0852 20.4529 69.7026 20.245C69.32 20.0325 69.0294 19.7514 68.8311 19.4019C68.6374 19.0523 68.5406 18.6674 68.5406 18.247C68.5406 17.8785 68.602 17.5479 68.7248 17.255C68.8476 16.9574 69.0365 16.7023 69.2916 16.4898C69.5467 16.2725 69.8773 16.0953 70.2836 15.9584C70.5906 15.8592 70.9496 15.7694 71.3606 15.6891C71.7762 15.6088 72.225 15.5356 72.7068 15.4695C73.1933 15.3986 73.7011 15.323 74.2302 15.2427L73.6208 15.5899C73.6255 15.0609 73.5074 14.6712 73.2665 14.4208C73.0256 14.1705 72.6194 14.0453 72.0478 14.0453C71.703 14.0453 71.37 14.1256 71.0488 14.2862C70.7276 14.4468 70.5032 14.7231 70.3757 15.1152L68.8169 14.6263C69.0058 13.9792 69.3648 13.4596 69.8939 13.0675C70.4276 12.6754 71.1456 12.4794 72.0478 12.4794C72.728 12.4794 73.3256 12.5904 73.8405 12.8124C74.3601 13.0344 74.745 13.3982 74.9954 13.9036C75.1324 14.1728 75.215 14.4492 75.2434 14.7326C75.2717 15.0113 75.2859 15.3159 75.2859 15.6466V20.3442H73.7909V18.6862L74.0388 18.9555C73.694 19.5082 73.2902 19.9144 72.8272 20.1742C72.369 20.4293 71.7951 20.5568 71.1055 20.5568ZM71.4456 19.1964C71.8329 19.1964 72.1636 19.1279 72.4375 18.9909C72.7115 18.8539 72.9288 18.6862 73.0894 18.4879C73.2547 18.2895 73.3657 18.1029 73.4224 17.9281C73.5122 17.7108 73.5618 17.4628 73.5712 17.1841C73.5854 16.9007 73.5925 16.6716 73.5925 16.4969L74.1168 16.6527C73.6019 16.733 73.1603 16.8039 72.7918 16.8653C72.4234 16.9267 72.1069 16.9857 71.8424 17.0424C71.5778 17.0944 71.344 17.1534 71.1409 17.2196C70.9425 17.2904 70.7748 17.3731 70.6378 17.4676C70.5009 17.562 70.3946 17.6707 70.319 17.7935C70.2481 17.9163 70.2127 18.0604 70.2127 18.2257C70.2127 18.4146 70.26 18.5823 70.3544 18.7288C70.4489 18.8705 70.5859 18.9838 70.7654 19.0689C70.9496 19.1539 71.1763 19.1964 71.4456 19.1964ZM82.4233 20.3442V16.6598C82.4233 16.4189 82.4068 16.152 82.3737 15.8592C82.3407 15.5663 82.2627 15.2852 82.1399 15.016C82.0218 14.742 81.8423 14.5177 81.6014 14.3429C81.3652 14.1681 81.044 14.0807 80.6378 14.0807C80.4205 14.0807 80.2056 14.1161 79.993 14.187C79.7805 14.2579 79.5868 14.3807 79.412 14.5554C79.242 14.7255 79.105 14.9617 79.0011 15.264C78.8972 15.5616 78.8452 15.9442 78.8452 16.4118L77.832 15.9796C77.832 15.3278 77.9572 14.7373 78.2075 14.2083C78.4626 13.6792 78.8358 13.2588 79.327 12.9471C79.8183 12.6306 80.4229 12.4723 81.1409 12.4723C81.7077 12.4723 82.1753 12.5668 82.5438 12.7557C82.9122 12.9447 83.2051 13.1856 83.4224 13.4785C83.6397 13.7713 83.8003 14.0831 83.9042 14.4137C84.0081 14.7444 84.0742 15.0585 84.1026 15.3561C84.1357 15.649 84.1522 15.8875 84.1522 16.0717V20.3442H82.4233ZM77.1164 20.3442V12.692H78.6397V15.0656H78.8452V20.3442H77.1164ZM88.9446 20.5568C88.2408 20.5568 87.6267 20.3797 87.1024 20.0254C86.5781 19.6711 86.1718 19.1893 85.8837 18.58C85.5955 17.9706 85.4515 17.2833 85.4515 16.5181C85.4515 15.7434 85.5955 15.0538 85.8837 14.4492C86.1766 13.8398 86.5899 13.3604 87.1236 13.0108C87.6574 12.6565 88.2856 12.4794 89.0084 12.4794C89.7358 12.4794 90.3451 12.6565 90.8364 13.0108C91.3324 13.3604 91.7079 13.8398 91.963 14.4492C92.2181 15.0585 92.3456 15.7482 92.3456 16.5181C92.3456 17.2786 92.2181 17.9659 91.963 18.58C91.7079 19.1893 91.3277 19.6711 90.8222 20.0254C90.3168 20.3797 89.6909 20.5568 88.9446 20.5568ZM89.2068 19.0263C89.6649 19.0263 90.0334 18.9224 90.3121 18.7146C90.5955 18.502 90.801 18.2068 90.9285 17.8289C91.0608 17.451 91.1269 17.0141 91.1269 16.5181C91.1269 16.0174 91.0608 15.5805 90.9285 15.2073C90.801 14.8294 90.6002 14.5365 90.3263 14.3287C90.0523 14.1161 89.698 14.0099 89.2634 14.0099C88.8052 14.0099 88.4274 14.1232 88.1298 14.35C87.8322 14.572 87.6125 14.8743 87.4708 15.2569C87.3291 15.6348 87.2583 16.0552 87.2583 16.5181C87.2583 16.9857 87.3268 17.4109 87.4637 17.7935C87.6054 18.1714 87.8204 18.4713 88.1085 18.6933C88.3967 18.9153 88.7627 19.0263 89.2068 19.0263ZM91.1269 20.3442V14.9735H90.9143V10.1412H92.6361V20.3442H91.1269Z" fill="#FCFCFD"/>
<path d="M105.598 7.28662C104.532 7.28662 103.593 7.81933 103.023 8.6299C102.047 8.45985 101.008 8.74693 100.254 9.50082C99.5006 10.2547 99.2135 11.2942 99.3836 12.2698C98.573 12.8398 98.0403 13.7781 98.0403 14.8444C98.0403 15.9107 98.573 16.849 99.3836 17.419C99.2135 18.3952 99.5006 19.4341 100.254 20.188C101.008 20.9419 102.048 21.229 103.023 21.0589C103.593 21.8695 104.532 22.4022 105.598 22.4022C106.664 22.4022 107.603 21.8695 108.173 21.0589C109.149 21.229 110.188 20.9419 110.942 20.188C111.696 19.4341 111.983 18.3946 111.813 17.419C112.623 16.849 113.156 15.9107 113.156 14.8444C113.156 13.7781 112.623 12.8398 111.813 12.2698C111.983 11.2936 111.696 10.2547 110.942 9.50082C110.188 8.74693 109.148 8.45985 108.173 8.6299C107.603 7.81933 106.664 7.28662 105.598 7.28662ZM109.377 11.6953C109.538 11.6953 109.699 11.7567 109.822 11.8798C110.069 12.1261 110.069 12.5242 109.822 12.7704L105.061 17.5322C104.942 17.6506 104.782 17.7167 104.615 17.7167C104.448 17.7167 104.288 17.6506 104.17 17.5322L101.995 15.3574C101.749 15.1111 101.749 14.713 101.995 14.4668C102.241 14.2205 102.639 14.2205 102.886 14.4668L104.615 16.1963L108.932 11.8798C109.055 11.7567 109.216 11.6953 109.377 11.6953Z" fill="#4C9AE4"/>
<defs>
<linearGradient id="paint0_linear_0_4261" x1="0.809814" y1="14.8442" x2="19.7043" y2="14.8442" gradientUnits="userSpaceOnUse">
<stop stop-color="#CF64FF"/>
<stop offset="1" stop-color="#FF6F26"/>
</linearGradient>
</defs>
</svg>
