<svg width="129" height="34" fill="none" xmlns="http://www.w3.org/2000/svg"><g clip-path="url(#a)"><path d="M53.312 13.353c-.37-1.365-1.236-2.361-2.951-2.361-2.552 0-3.618 2.243-3.618 4.52 0 2.277 1.066 4.525 3.618 4.525 1.844 0 2.87-1.38 3.036-3.108h2.036c-.166 2.843-2.184 4.804-5.065 4.804-3.57 0-5.702-2.83-5.702-6.22 0-3.392 2.117-6.236 5.677-6.236 2.685 0 4.794 1.498 5.053 4.047l-2.084.03Zm3.333 3.785c0-2.626 1.583-4.52 4.353-4.52 2.77 0 4.352 1.894 4.352 4.52 0 2.626-1.582 4.54-4.352 4.54-2.77 0-4.352-1.895-4.352-4.54Zm6.802 0c0-1.471-.738-3.027-2.45-3.027-1.71 0-2.448 1.545-2.448 3.027 0 1.482.737 3.046 2.449 3.046 1.711 0 2.449-1.549 2.449-3.046Zm3.537-7.567h1.9v1.795h-1.9V9.571Zm0 3.278h1.9v8.596h-1.9V12.85Zm3.969 0h1.8v1.265l.033.034a3.082 3.082 0 0 1 2.686-1.53c1.866 0 3.05.996 3.05 2.942v5.904h-1.9v-5.422c-.033-1.346-.568-1.928-1.682-1.928-1.269 0-2.084.997-2.084 2.263v5.072h-1.9l-.003-8.6Zm20.228 8.597h-1.335l-.317-1.398c-1.107 1.265-2.136 1.677-3.582 1.677-3.567 0-5.706-2.832-5.706-6.22s2.14-6.228 5.706-6.228c2.582 0 4.795 1.38 5.101 4.047h-2.036c-.199-1.564-1.567-2.362-3.069-2.362-2.552 0-3.618 2.244-3.618 4.52 0 2.278 1.066 4.525 3.618 4.525 2.133.034 3.302-1.247 3.32-3.259h-3.168V15.17h5.064l.022 6.276Zm3.486-3.808c0 1.346.738 2.546 2.316 2.546 1.107 0 1.767-.482 2.099-1.431h1.804c-.417 1.88-2.018 2.943-3.903 2.943-2.7 0-4.22-1.88-4.22-4.525 0-2.446 1.605-4.54 4.169-4.54 2.718 0 4.385 2.443 4.057 5.022l-6.322-.015Zm4.426-1.247c-.066-1.199-.885-2.277-2.169-2.277a2.259 2.259 0 0 0-2.104 1.405 2.243 2.243 0 0 0-.164.872h4.437Zm9.18-.666c-.151-1.048-.919-1.61-1.97-1.61-.988 0-2.368.514-2.368 3.126 0 1.43.635 2.943 2.283 2.943 1.107 0 1.867-.736 2.051-1.965h1.9c-.369 2.23-1.73 3.458-3.954 3.458-2.7 0-4.187-1.913-4.187-4.44 0-2.593 1.417-4.624 4.253-4.624 2.003 0 3.689.997 3.888 3.109l-1.896.003Zm3.508-6.154h1.899v6.754l3.434-3.476h2.332l-3.32 3.16 3.618 5.44h-2.323l-2.634-4.175-1.132 1.104v3.078h-1.896l.022-11.885Zm8.502 7.567c0-2.626 1.583-4.52 4.353-4.52 2.77 0 4.352 1.894 4.352 4.52 0 2.626-1.586 4.54-4.352 4.54-2.767 0-4.353-1.895-4.353-4.54Zm6.805 0c0-1.471-.737-3.027-2.452-3.027-1.716 0-2.45 1.545-2.45 3.027 0 1.482.738 3.046 2.45 3.046 1.711 0 2.449-1.549 2.449-3.046h.003Z" fill="#FCFCFD"/><path d="M34.083 16.928a16.97 16.97 0 0 1-2.828 9.46 17.037 17.037 0 0 1-7.622 6.298 17.091 17.091 0 0 1-9.847 1.013 17.063 17.063 0 0 1-8.75-4.614A16.988 16.988 0 0 1 .33 20.401a16.959 16.959 0 0 1 .926-9.829 17.011 17.011 0 0 1 6.246-7.658 17.08 17.08 0 0 1 21.533 2.018 16.979 16.979 0 0 1 5.048 11.996Z" fill="#8DC63F"/><path d="M32.804 16.932a15.69 15.69 0 0 1-2.618 8.746 15.755 15.755 0 0 1-7.048 5.822 15.805 15.805 0 0 1-9.104.935 15.778 15.778 0 0 1-8.09-4.266 15.709 15.709 0 0 1-4.351-8.03 15.682 15.682 0 0 1 .855-9.086A15.73 15.73 0 0 1 8.22 3.97a15.795 15.795 0 0 1 19.914 1.865 15.704 15.704 0 0 1 4.67 11.096Z" fill="#F9E988"/><path d="M17.327 2.288a8.691 8.691 0 0 1 3.032 0 9.238 9.238 0 0 1 2.895.967c.87.521 1.689 1.12 2.45 1.788a35.804 35.804 0 0 1 2.275 1.971c.748.691 1.4 1.478 1.94 2.34.556.855 1.012 1.77 1.358 2.73.68 1.93.871 3.999.557 6.02h-.096a27.533 27.533 0 0 0-1.475-5.62 21.871 21.871 0 0 0-1.166-2.619 25.705 25.705 0 0 0-1.534-2.453 8.917 8.917 0 0 0-2.055-2.071 11.988 11.988 0 0 0-2.611-1.288c-.89-.368-1.774-.713-2.704-.978a34.117 34.117 0 0 0-2.859-.659l-.007-.128Z" fill="#FCFCFD"/><path d="M25.02 11.385c-1.143-.33-2.33-.798-3.53-1.272a2.41 2.41 0 0 0-.873-1.133c-.786-.681-2.258-.663-3.53-.368a8.839 8.839 0 0 0-4.127-.122c-10.904 2.995-4.722 10.3-8.724 17.657.568 1.206 6.71 8.236 15.591 6.349 0 0-3.039-7.28 3.818-10.774 5.566-2.851 9.583-8.111 1.376-10.337Z" fill="#8BC53F"/><path d="M26.378 16.163a.657.657 0 0 1-.785.65.66.66 0 0 1-.486-.895.659.659 0 0 1 1.075-.22.659.659 0 0 1 .196.465Z" fill="#FCFCFD"/><path d="M17.095 8.615c.793.055 3.666.986 4.407 1.494-.615-1.788-2.696-2.024-4.407-1.494Z" fill="#009345"/><path d="M17.85 13.132a3.037 3.037 0 0 1-1.88 2.813 3.058 3.058 0 0 1-3.325-.657 3.04 3.04 0 0 1-.663-3.316 3.044 3.044 0 0 1 2.818-1.878 3.053 3.053 0 0 1 2.818 1.875c.154.368.233.764.233 1.163Z" fill="#FCFCFD"/><path d="M16.947 13.158a2.134 2.134 0 0 1-1.323 1.974 2.148 2.148 0 0 1-2.335-.463 2.136 2.136 0 0 1 1.515-3.649c.569 0 1.114.226 1.516.627.401.4.627.944.627 1.51Z" fill="#58595B"/><path d="M28.85 17.505c-2.472 1.736-5.279 3.053-9.266 3.053-1.866 0-2.242-1.971-3.474-1.008-.635.5-2.881 1.619-4.659 1.534C9.673 21 6.785 19.96 5.981 16.17c-.317 3.789-.483 6.58-1.907 9.781 2.84 4.535 9.616 8.037 15.765 6.53-.66-4.603 3.37-9.109 5.643-11.404.863-.872 2.508-2.299 3.371-3.56l-.003-.012Z" fill="#8BC53F"/><path d="M28.75 17.616a11.074 11.074 0 0 1-2.607 1.67c-.94.445-1.921.8-2.929 1.063a9.22 9.22 0 0 1-3.124.368 4.28 4.28 0 0 1-2.859-1.255l.034-.036c.86.519 1.849.79 2.854.783 1.007.03 2.015-.052 3.003-.246a16.383 16.383 0 0 0 2.918-.898 10.86 10.86 0 0 0 2.677-1.471l.034.022Z" fill="#58595B"/></g><defs><clipPath id="a"><path fill="#fff" d="M0 0h129v34H0z"/></clipPath></defs></svg>