<svg width="140" height="34" fill="none" xmlns="http://www.w3.org/2000/svg"><g clip-path="url(#a)" fill="#F7F7F7"><path fill-rule="evenodd" clip-rule="evenodd" d="m29.56 5.247.176 1.09a19.92 19.92 0 0 1 .176 3.033c0 2.247-.264 4.473-.79 6.654a25.67 25.67 0 0 1-3.622 8.29c-1.953 2.88-4.785 5.694-8.89 8.006l-.504.284-.505-.284c-4.104-2.268-6.936-5.105-8.889-8.006a25.008 25.008 0 0 1-3.622-8.29A28.293 28.293 0 0 1 2.3 9.37c0-1.003.044-2.029.176-3.032l.154-1.091a.529.529 0 0 0 0-.262.486.486 0 0 0-.11-.24.666.666 0 0 0-.176-.174c-.066-.044-.153-.066-.22-.088a.538.538 0 0 0-.263 0 .814.814 0 0 0-.241.11.666.666 0 0 0-.176.174 1.167 1.167 0 0 0-.087.262l-.176 1.09A26.65 26.65 0 0 0 .983 9.37c0 2.356.286 4.69.834 6.981a27.542 27.542 0 0 0 1.515 4.538 25.981 25.981 0 0 0 2.305 4.189c2.063 3.054 5.048 6.043 9.35 8.399l.812.458a.9.9 0 0 0 .329.065c.11 0 .22-.022.33-.065l.811-.458c4.28-2.378 7.287-5.367 9.35-8.4a26.286 26.286 0 0 0 3.82-8.726 29.93 29.93 0 0 0 .812-6.98c0-1.092-.066-2.182-.198-3.273l-.175-1.09a1.222 1.222 0 0 0-.088-.263.665.665 0 0 0-.176-.174.813.813 0 0 0-.241-.11.538.538 0 0 0-.264 0c-.087.022-.175.044-.263.088a.667.667 0 0 0-.176.174.803.803 0 0 0-.11.24v.284Z"/><path fill-rule="evenodd" clip-rule="evenodd" d="m6.314 4.505 9.833-3.076 10.03 3.141c.088.022.176.022.264.022a.587.587 0 0 0 .263-.065.556.556 0 0 0 .22-.175.35.35 0 0 0 .11-.24c.021-.087.021-.174.021-.262a.578.578 0 0 0-.066-.261.783.783 0 0 0-.153-.218.353.353 0 0 0-.242-.11L16.344.033a.613.613 0 0 0-.395 0L5.94 3.174c-.087.022-.153.066-.241.11-.066.065-.132.13-.154.217a.578.578 0 0 0-.066.262c0 .087 0 .175.022.262a.804.804 0 0 0 .11.24c.044.065.132.13.22.175a.47.47 0 0 0 .263.065c.044.022.132.022.22 0Z"/><path fill-rule="evenodd" clip-rule="evenodd" d="m1.467 5.444 14.07 28.186a.63.63 0 0 0 .219.262c.22.13.482.13.702 0a.755.755 0 0 0 .263-.262l8.582-16.471.022-.022 5.488-11.715a.578.578 0 0 0 .065-.262c0-.087 0-.174-.044-.261a.519.519 0 0 0-.131-.24.755.755 0 0 0-.198-.175.47.47 0 0 0-.263-.065c-.088 0-.176 0-.264.021a.525.525 0 0 0-.241.131c-.066.066-.132.131-.154.219l-5.487 11.715-7.99 15.336L2.63 4.789c-.044-.065-.11-.152-.153-.218a.524.524 0 0 0-.242-.13.37.37 0 0 0-.263-.022.587.587 0 0 0-.264.065.756.756 0 0 0-.197.175.804.804 0 0 0-.11.24c-.022.087-.044.174-.022.261.022.11.044.197.088.284Z"/><path fill-rule="evenodd" clip-rule="evenodd" d="M8.204 18.01h15.671c.088 0 .175-.023.263-.045a.35.35 0 0 0 .198-.152.453.453 0 0 0 .132-.218.72.72 0 0 0 0-.524c-.022-.087-.088-.153-.132-.218a1.2 1.2 0 0 0-.198-.153 1.094 1.094 0 0 0-.263-.043H8.204c-.088 0-.176.021-.264.043a.35.35 0 0 0-.197.153.452.452 0 0 0-.132.218.719.719 0 0 0 0 .524.452.452 0 0 0 .132.218c.065.065.131.109.197.152.088.022.176.022.264.044Zm43.678-5.87H41.697c-.087 0-.175.022-.263.044a.35.35 0 0 0-.198.153.453.453 0 0 0-.131.218 1.09 1.09 0 0 0-.044.262v8.399c0 .087.022.175.044.262a.453.453 0 0 0 .131.218 1.2 1.2 0 0 0 .198.153c.088.021.176.043.263.043h10.185v1.418H41.697c-.131 0-.263-.021-.395-.043a2.657 2.657 0 0 1-.395-.11 1.751 1.751 0 0 1-.351-.174c-.11-.087-.197-.174-.307-.262a2.146 2.146 0 0 1-.44-.654 2.627 2.627 0 0 1-.109-.393 2.376 2.376 0 0 1-.044-.392v-8.443c0-.131.022-.262.044-.393.022-.13.066-.262.11-.393.044-.13.11-.261.175-.37a1.15 1.15 0 0 1 .264-.306c.087-.087.197-.174.307-.262.11-.065.22-.13.351-.174a2.81 2.81 0 0 1 .395-.11c.132-.021.264-.043.395-.043h10.185v1.353Zm19.117-1.417v1.418h-9.811v4.167h7.88v1.44h-7.88v4.166h9.811v1.418H59.827v-12.61H71Z"/><path d="M91.211 12.86v3.687a2.388 2.388 0 0 1-.154.785 1.92 1.92 0 0 1-.175.371c-.088.11-.154.219-.263.306-.088.087-.198.174-.308.262-.11.065-.22.13-.35.174l-.396.131a2.435 2.435 0 0 1-.395.044h-1.866l3.841 4.69h-1.843l-3.82-4.69h-4.477a3.33 3.33 0 0 1-.658-.066v4.756h-1.383V10.744h10.228c.132 0 .263.022.395.044s.263.065.395.109c.132.043.242.109.351.196.22.153.395.35.549.567.066.11.132.24.176.371.043.131.087.262.11.393.021.153.043.305.043.436Zm-10.228 4.363h8.187c.088 0 .176-.021.263-.043a.279.279 0 0 0 .198-.153.453.453 0 0 0 .132-.218c.021-.087.043-.175.043-.262V12.86a.76.76 0 0 0-.175-.48.619.619 0 0 0-.461-.218h-8.187c-.088 0-.175.022-.263.044a.35.35 0 0 0-.198.152.453.453 0 0 0-.132.219c-.021.087-.043.174-.043.261v3.687c0 .175.066.35.22.48a.529.529 0 0 0 .416.218Z"/><path fill-rule="evenodd" clip-rule="evenodd" d="M98.542 10.723h12.247v1.418h-5.421v11.17h-1.383V12.14h-5.443v-1.418Zm19.71 12.61V10.744h1.383v12.587h-1.383Zm19.798-12.61h1.778l-5.114 6.304 5.136 6.305h-1.8l-4.566-5.585h-3.95v5.585h-1.383V10.744h1.405v5.585h3.95l4.544-5.606Z"/></g><defs><clipPath id="a"><path fill="#fff" transform="translate(.996)" d="M0 0h139v34H0z"/></clipPath></defs></svg>