<svg width="116" height="30" fill="none" xmlns="http://www.w3.org/2000/svg"><path d="M10.257 29.015c-3.512 0-6.74-4.289-8.158-6.475-.517-.798-.694-1.756-.577-2.7.11-.884-.054-1.776-.41-2.593-.18-.414-.327-.794-.299-.881.156-.483.882-.628.776-1.124-.412-1.932-.613-3.974-.681-4.762-.02-.223-.032-.56.19-.53.4.054 1.256.85 1.83 1.148.75.388.736-9.417 1.622-10.371.634-.683 2.091 5.31 2.87 8.775.259 1.157.795 2.076 1.957 1.843 1.175-.236 3.464-.717 3.727-1.886.779-3.47 2.226-9.412 2.86-8.732.89.954.872 10.76 1.622 10.371.575-.297 1.43-1.094 1.83-1.148.222-.03.21.307.19.53-.068.787-.27 2.827-.681 4.757-.106.496.62.641.776 1.124.46 1.43-.778 2.914-.593 4.404l.064.522c0 .01-4.202 7.728-8.915 7.728Z" fill="url(#a)"/><path d="M27.782 20.344V10.141h1.537l3.529 7.227 3.528-7.227h1.538v10.203H36.32v-6.54l-3.132 6.54h-.68l-3.125-6.54v6.54h-1.601Zm16.437.213c-1.02 0-1.894-.222-2.621-.666a4.45 4.45 0 0 1-1.68-1.87c-.387-.8-.58-1.725-.58-2.778 0-1.054.193-1.98.58-2.778a4.404 4.404 0 0 1 1.68-1.863c.727-.449 1.601-.673 2.621-.673s1.895.224 2.622.673a4.343 4.343 0 0 1 1.68 1.863c.391.799.587 1.724.587 2.778 0 1.053-.196 1.979-.588 2.777a4.389 4.389 0 0 1-1.679 1.87c-.727.445-1.601.667-2.622.667Zm0-1.609c.685.005 1.255-.146 1.708-.453.458-.307.8-.74 1.027-1.297.232-.557.347-1.209.347-1.955 0-.747-.115-1.394-.347-1.942a2.779 2.779 0 0 0-1.027-1.29c-.453-.306-1.023-.464-1.708-.474-.684-.005-1.254.146-1.707.454-.454.307-.796.739-1.028 1.296-.226.557-.34 1.21-.34 1.956s.114 1.396.34 1.948c.227.548.567.976 1.02 1.283.459.307 1.03.465 1.715.474Zm6.3 1.396V10.141h1.729l4.733 7.192V10.14h1.728v10.203h-1.728l-4.733-7.192v7.192h-1.73Zm10.455 0v-1.75h1.75v1.75h-1.75Zm4.162 0V9.93h1.707v10.415h-1.707Zm5.97.213c-.553 0-1.02-.104-1.403-.312a2.204 2.204 0 0 1-.872-.843 2.343 2.343 0 0 1-.29-1.155c0-.369.061-.7.184-.992.123-.298.312-.553.567-.765.255-.217.585-.395.992-.532a9.382 9.382 0 0 1 1.077-.269c.415-.08.864-.153 1.346-.22.486-.07.994-.146 1.523-.226l-.61.347c.005-.53-.113-.919-.354-1.17-.24-.25-.647-.375-1.218-.375-.345 0-.678.08-1 .241-.32.16-.545.437-.672.83l-1.56-.49a2.896 2.896 0 0 1 1.078-1.558c.534-.393 1.252-.589 2.154-.589.68 0 1.278.111 1.793.333.52.222.904.586 1.154 1.092.137.269.22.545.248.829.029.278.043.583.043.914v4.697H73.79v-1.658l.248.27c-.345.552-.749.958-1.212 1.218-.458.255-1.032.383-1.721.383Zm.34-1.36c.387 0 .718-.07.992-.206a1.95 1.95 0 0 0 .651-.503c.166-.198.277-.385.333-.56.09-.217.14-.465.15-.744.013-.283.02-.512.02-.687l.525.156c-.515.08-.957.15-1.325.212-.369.062-.685.12-.95.177a6.038 6.038 0 0 0-.701.178c-.199.07-.366.153-.503.248a1.098 1.098 0 0 0-.319.326.85.85 0 0 0-.106.432c0 .189.047.356.141.503a.987.987 0 0 0 .411.34c.185.085.411.127.68.127Zm10.977 1.147V16.66c0-.241-.016-.508-.05-.8a2.766 2.766 0 0 0-.233-.844 1.599 1.599 0 0 0-.539-.673c-.236-.175-.557-.262-.963-.262-.218 0-.432.035-.645.106-.212.07-.406.194-.581.368-.17.17-.307.407-.41.709-.105.298-.157.68-.157 1.148l-1.013-.432c0-.652.125-1.243.376-1.772.255-.529.628-.95 1.119-1.26.491-.317 1.096-.476 1.814-.476.567 0 1.034.095 1.403.284.368.189.661.43.878.723.218.292.378.604.482.935.104.33.17.645.199.942.033.293.05.531.05.716v4.272h-1.73Zm-5.307 0v-7.652h1.524v2.374h.205v5.278h-1.729Zm11.829.213c-.704 0-1.318-.177-1.843-.532a3.518 3.518 0 0 1-1.218-1.445c-.288-.61-.433-1.297-.433-2.062 0-.775.145-1.464.433-2.069a3.48 3.48 0 0 1 1.24-1.438c.533-.354 1.162-.532 1.884-.532.728 0 1.337.178 1.828.532.496.35.872.829 1.127 1.438.255.61.383 1.3.383 2.07 0 .76-.128 1.447-.383 2.061a3.253 3.253 0 0 1-1.14 1.445c-.506.355-1.132.532-1.878.532Zm.262-1.53c.458 0 .826-.105 1.105-.312.284-.213.489-.508.617-.886a3.97 3.97 0 0 0 .198-1.31c0-.502-.066-.938-.198-1.312-.128-.378-.329-.67-.603-.878-.274-.213-.628-.32-1.063-.32-.458 0-.836.114-1.133.341a1.94 1.94 0 0 0-.66.907 3.569 3.569 0 0 0-.212 1.261c0 .468.069.893.206 1.276.141.377.356.677.645.9.288.221.654.332 1.098.332Zm1.92 1.317v-5.37h-.213V10.14h1.722v10.203h-1.51Z" fill="#FCFCFD"/><path d="M105.598 7.287a3.143 3.143 0 0 0-2.575 1.343 3.14 3.14 0 0 0-3.64 3.64 3.142 3.142 0 0 0-1.343 2.574 3.14 3.14 0 0 0 1.344 2.575 3.14 3.14 0 0 0 3.639 3.64 3.143 3.143 0 0 0 2.575 1.343 3.143 3.143 0 0 0 2.575-1.343 3.14 3.14 0 0 0 3.64-3.64 3.143 3.143 0 0 0 1.343-2.575 3.143 3.143 0 0 0-1.343-2.574 3.14 3.14 0 0 0-3.64-3.64 3.143 3.143 0 0 0-2.575-1.343Zm3.779 4.408a.628.628 0 0 1 .445 1.075l-4.761 4.762a.632.632 0 0 1-.891 0l-2.175-2.175a.63.63 0 1 1 .891-.89l1.729 1.73 4.317-4.317a.627.627 0 0 1 .445-.185Z" fill="#4C9AE4"/><defs><linearGradient id="a" x1=".81" y1="14.844" x2="19.704" y2="14.844" gradientUnits="userSpaceOnUse"><stop stop-color="#CF64FF"/><stop offset="1" stop-color="#FF6F26"/></linearGradient></defs></svg>