<svg width="679" height="1154" viewBox="0 0 679 1154" fill="none" xmlns="http://www.w3.org/2000/svg">
<g filter="url(#filter0_f_0_3478)">
<path d="M513.416 462.988C353.607 336.825 -238.318 749.19 -246.677 758.126C-591.807 1064.33 229.12 1020.91 248.726 1023.37C-13.9666 771.807 477.708 610.977 513.416 462.988Z" fill="#3B37FF"/>
<path d="M380.167 285.948C395.343 162.575 81.2479 275.284 -77.6968 347.06C-216.242 500.69 138.627 808.012 172.463 653.688C225.465 411.951 361.197 440.164 380.167 285.948Z" fill="#37E7FF"/>
<path d="M345 335.691C366.585 196.772 5.36253 343.289 -177.947 433.912C-360.558 524.011 163.336 947.64 65.9921 764.884C-31.3518 582.129 318.02 509.34 345 335.691Z" fill="#FF37D3"/>
<path d="M321.595 333.494C232.606 263.407 -96.8489 492.286 -101.501 497.247C-293.582 667.221 163.426 643.258 174.341 644.623C28.0531 504.886 301.743 415.665 321.595 333.494Z" fill="#EB1B1B"/>
<path d="M310.296 433.742C326.893 356.069 47.7847 480.822 -93.8442 552.908C-153.059 582.154 -58.8125 646.284 31.1162 764.831C121.045 883.378 165.795 781.28 177.991 639.938C190.186 498.595 289.55 530.834 310.296 433.742Z" fill="#FFF500"/>
<path d="M290.362 438.852C284.792 410.144 14.1348 540.458 -120.498 609.203C-30.3827 693.366 147.354 837.922 137.384 742.843C124.921 623.994 186.425 552.844 217.339 528.984C248.254 505.124 297.325 474.738 290.362 438.852Z" fill="#FCFCFD"/>
</g>
<g style="mix-blend-mode:color-dodge" filter="url(#filter1_f_0_3478)">
<path d="M507.171 363.058C323.164 275.895 -161.357 810.366 -167.502 820.948C-435.277 1196.68 355.067 970.486 374.724 968.485C62.3597 782.157 505.518 515.285 507.171 363.058Z" fill="#3B37FF"/>
<path d="M357.351 258.907C372.527 135.534 58.4315 248.243 -100.513 320.019C-239.058 473.649 115.811 780.971 149.647 626.647C202.648 384.91 338.381 413.123 357.351 258.907Z" fill="#37E7FF"/>
<path d="M471.338 381.132C510.319 320.279 153.095 484.721 -51.6087 479.353C-234.22 569.452 289.674 993.08 192.33 810.325C94.9863 627.57 376.549 529.108 471.338 381.132Z" fill="#FF37D3"/>
<path d="M289.587 216.099C185.597 171.185 -74.1216 476.918 -77.3451 482.907C-219.397 696.466 216.171 556.072 227.071 554.592C49.833 457.056 291.478 300.614 289.587 216.099Z" fill="#EB1B1B"/>
<path d="M350.094 561.076C403.031 501.862 98.797 471.754 -59.9373 464.101C-125.861 460.126 -75.8319 562.557 -56.5426 710.099C-37.2534 857.64 52.2441 791.182 132.939 674.499C213.633 557.816 283.923 635.094 350.094 561.076Z" fill="#FFF500"/>
<path d="M337.627 464.399C332.506 435.607 59.8483 561.682 -75.8404 628.318C12.9503 713.877 188.41 861.189 179.925 765.966C169.317 646.936 231.925 576.756 263.207 553.381C294.49 530.005 344.029 500.389 337.627 464.399Z" fill="#FCFCFD"/>
</g>
<defs>
<filter id="filter0_f_0_3478" x="-431.289" y="130.955" width="1044.71" height="993.28" filterUnits="userSpaceOnUse" color-interpolation-filters="sRGB">
<feFlood flood-opacity="0" result="BackgroundImageFix"/>
<feBlend mode="normal" in="SourceGraphic" in2="BackgroundImageFix" result="shape"/>
<feGaussianBlur stdDeviation="50" result="effect1_foregroundBlur_0_3478"/>
</filter>
<filter id="filter1_f_0_3478" x="-322.819" y="103.914" width="929.99" height="1033.89" filterUnits="userSpaceOnUse" color-interpolation-filters="sRGB">
<feFlood flood-opacity="0" result="BackgroundImageFix"/>
<feBlend mode="normal" in="SourceGraphic" in2="BackgroundImageFix" result="shape"/>
<feGaussianBlur stdDeviation="50" result="effect1_foregroundBlur_0_3478"/>
</filter>
</defs>
</svg>
