<svg width="530" height="1261" viewBox="0 0 530 1261" fill="none" xmlns="http://www.w3.org/2000/svg">
<g filter="url(#filter0_f_0_3493)">
<path d="M292.179 873.662C487.742 930.331 880.723 325.363 885.099 313.936C1089.46 -99.726 345.359 249.741 326.274 254.855C664.378 388.925 269.509 723.124 292.179 873.662Z" fill="#3B37FF"/>
<path d="M482.306 987.465C514.723 1107.47 763.222 884.739 883.42 758.375C953.886 563.872 509.389 412.87 536.18 568.571C578.146 812.467 441.785 837.463 482.306 987.465Z" fill="#37E7FF"/>
<path d="M496.143 928.139C528.48 1064.96 807.898 793.157 943.566 640.156C1078.78 487.905 433.901 292.836 592.918 425.459C751.936 558.081 455.722 757.118 496.143 928.139Z" fill="#FF37D3"/>
<path d="M518.652 921.357C627.488 952.758 846.453 616.632 848.893 610.284C962.795 380.474 548.48 574.829 537.855 577.676C726.006 652.012 506.087 837.76 518.652 921.357Z" fill="#EB1B1B"/>
<path d="M491.359 824.236C505.245 902.44 716.797 681.735 820.837 561.607C864.673 512.209 753.211 488.307 625.25 412.369C497.289 336.432 494.296 447.866 536.243 583.391C578.191 718.915 474.002 726.482 491.359 824.236Z" fill="#FFF500"/>
<path d="M507.894 811.995C523.868 836.49 725.498 613.818 824.315 499.42C709.134 455.404 490.035 388.451 535.088 472.771C591.404 578.17 561.233 667.247 541.584 700.995C521.936 734.743 487.926 781.376 507.894 811.995Z" fill="#FCFCFD"/>
</g>
<g style="mix-blend-mode:color-dodge" filter="url(#filter1_f_0_3493)">
<path d="M335.614 963.877C538.901 975.302 786.392 297.682 788.097 285.565C894.607 -163.359 247.692 343.897 230.238 353.156C589.781 408.088 279.801 822.241 335.614 963.877Z" fill="#3B37FF"/>
<path d="M513.632 1003.92C546.049 1123.92 794.548 901.192 914.745 774.828C985.211 580.324 540.715 429.323 567.505 585.024C609.472 828.92 473.11 853.916 513.632 1003.92Z" fill="#37E7FF"/>
<path d="M361.999 933.638C348.813 1004.69 617.776 717.796 809.422 645.655C944.64 493.404 299.757 298.335 458.775 430.958C617.792 563.58 394.063 760.855 361.999 933.638Z" fill="#FF37D3"/>
<path d="M592.529 1018.05C705.778 1020.48 831.193 639.43 831.923 632.668C883.062 381.329 532.468 675.461 522.928 680.939C723.852 704.523 558.941 940.469 592.529 1018.05Z" fill="#EB1B1B"/>
<path d="M406.527 721.275C379.796 796.068 672.96 709.352 822.884 656.645C885.448 635.494 800.518 559.454 727.071 430.048C653.623 300.642 595.754 395.919 564.958 534.404C534.163 672.889 439.941 627.783 406.527 721.275Z" fill="#FFF500"/>
<path d="M454.492 806.134C470.082 830.875 675.162 611.377 775.752 498.535C661.272 452.726 443.245 382.363 486.976 467.375C541.641 573.64 510.083 662.235 489.91 695.673C469.738 729.11 435.005 775.207 454.492 806.134Z" fill="#FCFCFD"/>
</g>
<defs>
<filter id="filter0_f_0_3493" x="191.232" y="12.0903" width="871.11" height="1109.76" filterUnits="userSpaceOnUse" color-interpolation-filters="sRGB">
<feFlood flood-opacity="0" result="BackgroundImageFix"/>
<feBlend mode="normal" in="SourceGraphic" in2="BackgroundImageFix" result="shape"/>
<feGaussianBlur stdDeviation="50" result="effect1_foregroundBlur_0_3493"/>
</filter>
<filter id="filter1_f_0_3493" x="130.238" y="0.385254" width="892.091" height="1137.92" filterUnits="userSpaceOnUse" color-interpolation-filters="sRGB">
<feFlood flood-opacity="0" result="BackgroundImageFix"/>
<feBlend mode="normal" in="SourceGraphic" in2="BackgroundImageFix" result="shape"/>
<feGaussianBlur stdDeviation="50" result="effect1_foregroundBlur_0_3493"/>
</filter>
</defs>
</svg>
