<svg width="1769" height="1859" viewBox="0 0 1769 1859" fill="none" xmlns="http://www.w3.org/2000/svg">
<g filter="url(#filter0_f_0_3376)">
<path d="M1601.95 1096.55C1546.44 1041.84 1303.91 1173.91 1300.35 1176.96C1156.18 1278.99 1423.4 1315.35 1430.76 1317.11C1410.95 1123.47 1582.15 1151.36 1601.95 1096.55Z" fill="#3B37FF"/>
<path d="M1631.34 1169.16C1577.51 1119.48 1353.55 1250.37 1350.3 1253.34C1217.88 1353.2 1427.65 1422.3 1434.61 1423.73C1450.98 1269.57 1530.42 1227.77 1631.34 1169.16Z" fill="#37E7FF"/>
<path d="M310.203 1169.16C256.377 1119.48 32.4153 1250.37 29.1657 1253.34C-103.257 1353.2 106.51 1422.3 113.477 1423.73C129.848 1269.57 209.284 1227.77 310.203 1169.16Z" fill="#37E7FF"/>
<path d="M310.202 1191.46C256.377 1141.77 32.415 1272.67 29.1654 1275.63C-103.257 1375.5 106.51 1444.6 113.477 1446.03C129.848 1291.87 209.284 1250.07 310.202 1191.46Z" fill="#37E7FF"/>
<path d="M310.203 1306.46C256.378 1256.77 32.416 1387.67 29.1664 1390.63C-103.256 1490.5 106.511 1559.6 113.478 1561.03C129.849 1406.87 209.285 1365.07 310.203 1306.46Z" fill="#37E7FF"/>
<path d="M310.202 1377.46C256.377 1327.77 32.415 1458.67 29.1654 1461.63C-103.257 1561.5 106.51 1630.6 113.477 1632.03C129.848 1477.87 209.284 1436.07 310.202 1377.46Z" fill="#37E7FF"/>
</g>
<g style="mix-blend-mode:color-dodge" filter="url(#filter1_f_0_3376)">
<path d="M1542.93 223.299C1485.46 208.204 1123.13 430.069 1082.35 346.098C862.176 501.916 1270.26 557.446 1281.5 560.127C1276.34 624.929 1583 444.478 1542.93 223.299Z" fill="#3B37FF"/>
<path d="M1359.49 356.145C1256.74 353.088 1178.92 464.395 1181.46 508.518C1219.07 608.076 1265.95 767.552 1255.36 596.421C1243.5 404.706 1513.84 360.738 1359.49 356.145Z" fill="#FF37D3"/>
</g>
<defs>
<filter id="filter0_f_0_3376" x="-114.583" y="983.289" width="1845.92" height="748.739" filterUnits="userSpaceOnUse" color-interpolation-filters="sRGB">
<feFlood flood-opacity="0" result="BackgroundImageFix"/>
<feBlend mode="normal" in="SourceGraphic" in2="BackgroundImageFix" result="shape"/>
<feGaussianBlur stdDeviation="50" result="effect1_foregroundBlur_0_3376"/>
</filter>
<filter id="filter1_f_0_3376" x="917.259" y="122.559" width="729.286" height="649.383" filterUnits="userSpaceOnUse" color-interpolation-filters="sRGB">
<feFlood flood-opacity="0" result="BackgroundImageFix"/>
<feBlend mode="normal" in="SourceGraphic" in2="BackgroundImageFix" result="shape"/>
<feGaussianBlur stdDeviation="50" result="effect1_foregroundBlur_0_3376"/>
</filter>
</defs>
</svg>
