<svg width="71" height="73" fill="none" xmlns="http://www.w3.org/2000/svg"><mask id="c" style="mask-type:alpha" maskUnits="userSpaceOnUse" x="4" y="14" width="59" height="49"><mask id="b" style="mask-type:alpha" maskUnits="userSpaceOnUse" x="4" y="14" width="59" height="49"><path d="M21.462 62.456c-3.264 0-6.144-.693-8.64-2.08a15.147 15.147 0 0 1-5.856-5.856c-1.386-2.496-2.08-5.376-2.08-8.64V31.032c0-3.264.694-6.144 2.08-8.64 1.408-2.496 3.36-4.437 5.856-5.824 2.496-1.408 5.376-2.112 8.64-2.112 3.264 0 6.134.704 8.608 2.112 2.496 1.387 4.448 3.328 5.856 5.824 1.408 2.496 2.112 5.376 2.112 8.64V45.88c0 3.264-.704 6.144-2.112 8.64a15.147 15.147 0 0 1-5.856 5.856c-2.474 1.387-5.344 2.08-8.608 2.08Zm0-7.328c1.622 0 3.094-.384 4.416-1.152a8.834 8.834 0 0 0 3.136-3.136c.768-1.323 1.152-2.795 1.152-4.416V30.456c0-1.643-.384-3.115-1.152-4.416a8.506 8.506 0 0 0-3.136-3.136c-1.322-.79-2.794-1.184-4.416-1.184-1.621 0-3.093.395-4.416 1.184a8.505 8.505 0 0 0-3.136 3.136c-.768 1.301-1.152 2.773-1.152 4.416v15.968c0 1.621.384 3.093 1.152 4.416a8.833 8.833 0 0 0 3.136 3.136c1.323.768 2.795 1.152 4.416 1.152Zm33.55 6.368V23.832l-8.64 5.28V20.6l8.64-5.184h7.871v46.08h-7.872Z" fill="url(#a)"/></mask><g mask="url(#b)"><path d="M65.026-81.982C32.483-94.111-42.064 3.798-42.954 5.687c-40.028 67.767 75.252 33.847 78.563 33.22C-7.73-36.22 66.965-56.086 65.026-81.983Z" fill="#3B37FF"/><path d="M90.21-57.813C59.27-68.205-7.942 25.844-8.723 27.64-44.37 92.387 53.517 82.25 56.61 81.562c-21.436-65.671 3.246-97.147 33.6-139.375Z" fill="#37E7FF"/><path d="M70.559-50.703C28.222-33.218 16.863 26.228 25.936 43.708c33.434 33.63 81.559 89.934 46.066 22.275C32.242-9.813 134.156-76.969 70.56-50.703Z" fill="#FF37D3"/><path d="M77.268-42.706C71.898-56.228 26.489-3.27 12.632 30.787 4.46 87.856 55.549 114.781 53.143 55.478c-.729-17.961-13.267-40.19 14.135-72.879 5.922-7.065 11.436-21.664 9.99-25.305Z" fill="#23262F"/><g style="mix-blend-mode:color-dodge"><path d="M85.964-81.265C59.845-76.928-47.054 79.332-78.938 52.62c-61.129 103.491 114.922 51.69 119.98 50.732 9.712 27.29 101.518-101.98 44.922-184.617Z" fill="#3B37FF"/><path d="M70.086-65.683c-30.94-10.391-98.152 83.658-98.933 85.455-35.646 64.746 62.24 54.609 65.333 53.921-21.436-65.671 3.246-97.147 33.6-139.376Z" fill="#37E7FF"/><path d="M83.475 7.164C41.14 24.649 29.78 84.096 38.852 101.575c33.434 33.63 81.559 89.934 46.067 22.275C45.158 48.054 147.072-19.102 83.475 7.164Z" fill="#FF37D3"/></g></g></mask><g mask="url(#c)"><path fill="#2955BF" d="M-12 3h83v64h-83z"/></g><defs><linearGradient id="a" x1="0" y1="29" x2="73.953" y2="97.325" gradientUnits="userSpaceOnUse"><stop stop-color="#FF3CEF"/><stop offset=".585" stop-color="#3E2DF7"/><stop offset=".677" stop-color="#002560"/><stop offset="1" stop-color="#1A2545"/></linearGradient></defs></svg>