<svg width="71" height="73" fill="none" xmlns="http://www.w3.org/2000/svg"><mask id="b" style="mask-type:alpha" maskUnits="userSpaceOnUse" x="4" y="14" width="59" height="49"><path d="M21.462 62.456c-3.264 0-6.144-.693-8.64-2.08a15.147 15.147 0 0 1-5.856-5.856c-1.386-2.496-2.08-5.376-2.08-8.64V31.032c0-3.264.694-6.144 2.08-8.64 1.408-2.496 3.36-4.437 5.856-5.824 2.496-1.408 5.376-2.112 8.64-2.112 3.264 0 6.134.704 8.608 2.112 2.496 1.387 4.448 3.328 5.856 5.824 1.408 2.496 2.112 5.376 2.112 8.64V45.88c0 3.264-.704 6.144-2.112 8.64a15.147 15.147 0 0 1-5.856 5.856c-2.474 1.387-5.344 2.08-8.608 2.08Zm0-7.328c1.622 0 3.094-.384 4.416-1.152a8.834 8.834 0 0 0 3.136-3.136c.768-1.323 1.152-2.795 1.152-4.416V30.456c0-1.643-.384-3.115-1.152-4.416a8.506 8.506 0 0 0-3.136-3.136c-1.322-.79-2.794-1.184-4.416-1.184-1.621 0-3.093.395-4.416 1.184a8.505 8.505 0 0 0-3.136 3.136c-.768 1.301-1.152 2.773-1.152 4.416v15.968c0 1.621.384 3.093 1.152 4.416a8.833 8.833 0 0 0 3.136 3.136c1.323.768 2.795 1.152 4.416 1.152Zm33.55 6.368V23.832l-8.64 5.28V20.6l8.64-5.184h7.871v46.08h-7.872Z" fill="url(#a)"/></mask><g mask="url(#b)"><g filter="url(#c)"><path d="M89.671-55.164C65.37-64.222 9.697 8.897 9.032 10.307c-29.893 50.609 56.199 25.277 58.672 24.81C35.337-20.99 91.12-35.826 89.67-55.165Z" fill="#3B37FF"/><path d="M108.479-37.114c-23.106-7.76-73.3 62.475-73.883 63.817-26.62 48.353 46.48 40.782 48.79 40.269-16.008-49.044 2.425-72.55 25.093-104.086Z" fill="#37E7FF"/><path d="M93.803-31.803c-31.617 13.058-40.1 57.452-33.324 70.506 24.968 25.115 60.908 67.162 34.403 16.635C65.188-1.267 141.298-51.42 93.803-31.804Z" fill="#FF37D3"/><path d="M98.814-25.832c-4.01-10.097-37.921 29.452-48.27 54.885-6.103 42.619 32.05 62.727 30.254 18.44-.545-13.414-9.908-30.014 10.556-54.427 4.422-5.276 8.54-16.178 7.46-18.898Z" fill="#FCFCFD"/></g><g style="mix-blend-mode:color-dodge" filter="url(#d)"><path d="M105.313-54.628C85.808-51.389 5.975 65.306-17.836 45.358c-45.65 77.287 85.824 38.602 89.6 37.886 7.255 20.381 75.815-76.159 33.549-137.872Z" fill="#3B37FF"/><path d="M93.456-42.99c-23.106-7.761-73.3 62.474-73.884 63.817-26.62 48.352 46.48 40.781 48.791 40.268-16.008-49.044 2.425-72.55 25.093-104.086Z" fill="#37E7FF"/><path d="M103.456 11.41c-31.617 13.059-40.1 57.453-33.325 70.507 24.969 25.115 60.908 67.163 34.403 16.635C74.84 41.947 150.95-8.205 103.456 11.411Z" fill="#FF37D3"/></g><g filter="url(#e)"><path fill="#141416" fill-opacity=".05" d="M-29.813-72.122h166v217.027h-166z"/></g></g><defs><filter id="c" x="-8.091" y="-66.766" width="128.749" height="156.667" filterUnits="userSpaceOnUse" color-interpolation-filters="sRGB"><feFlood flood-opacity="0" result="BackgroundImageFix"/><feBlend in="SourceGraphic" in2="BackgroundImageFix" result="shape"/><feGaussianBlur stdDeviation="5.413" result="effect1_foregroundBlur_0_3872"/></filter><filter id="d" x="-38.279" y="-65.453" width="168.59" height="198.569" filterUnits="userSpaceOnUse" color-interpolation-filters="sRGB"><feFlood flood-opacity="0" result="BackgroundImageFix"/><feBlend in="SourceGraphic" in2="BackgroundImageFix" result="shape"/><feGaussianBlur stdDeviation="5.413" result="effect1_foregroundBlur_0_3872"/></filter><filter id="e" x="-56.813" y="-99.122" width="220" height="271.026" filterUnits="userSpaceOnUse" color-interpolation-filters="sRGB"><feFlood flood-opacity="0" result="BackgroundImageFix"/><feGaussianBlur in="BackgroundImageFix" stdDeviation="13.5"/><feComposite in2="SourceAlpha" operator="in" result="effect1_backgroundBlur_0_3872"/><feBlend in="SourceGraphic" in2="effect1_backgroundBlur_0_3872" result="shape"/></filter><linearGradient id="a" x1="0" y1="29" x2="73.953" y2="97.325" gradientUnits="userSpaceOnUse"><stop stop-color="#FF3CEF"/><stop offset=".585" stop-color="#3E2DF7"/><stop offset=".677" stop-color="#002560"/><stop offset="1" stop-color="#1A2545"/></linearGradient></defs></svg>