<svg width="81" height="73" fill="none" xmlns="http://www.w3.org/2000/svg"><mask id="b" style="mask-type:alpha" maskUnits="userSpaceOnUse" x="4" y="14" width="74" height="49"><path d="M21.431 62.51c-3.264 0-6.144-.693-8.64-2.08a15.147 15.147 0 0 1-5.856-5.855c-1.387-2.496-2.08-5.376-2.08-8.64V31.087c0-3.264.693-6.144 2.08-8.64 1.408-2.496 3.36-4.438 5.856-5.824 2.496-1.408 5.376-2.112 8.64-2.112 3.264 0 6.133.704 8.608 2.112 2.496 1.386 4.448 3.328 5.856 5.824 1.408 2.496 2.112 5.376 2.112 8.64v14.848c0 3.264-.704 6.144-2.112 8.64a15.147 15.147 0 0 1-5.856 5.856c-2.475 1.386-5.344 2.08-8.608 2.08Zm0-7.327c1.621 0 3.093-.384 4.416-1.152a8.834 8.834 0 0 0 3.136-3.136c.768-1.323 1.152-2.795 1.152-4.416V30.51c0-1.643-.384-3.115-1.152-4.416a8.505 8.505 0 0 0-3.136-3.136c-1.323-.79-2.795-1.184-4.416-1.184-1.621 0-3.093.394-4.416 1.184a8.505 8.505 0 0 0-3.136 3.136c-.768 1.301-1.152 2.773-1.152 4.416v15.968c0 1.621.384 3.093 1.152 4.416a8.834 8.834 0 0 0 3.136 3.136c1.323.768 2.795 1.152 4.416 1.152ZM45.7 61.487v-6.72l19.712-17.568c1.536-1.366 2.603-2.656 3.2-3.872.597-1.216.896-2.39.896-3.52 0-1.536-.33-2.902-.992-4.096a7.442 7.442 0 0 0-2.752-2.88c-1.152-.704-2.485-1.056-4-1.056-1.6 0-3.019.373-4.256 1.12a7.77 7.77 0 0 0-2.848 2.912 7.433 7.433 0 0 0-.96 3.936h-7.936c0-3.072.683-5.75 2.048-8.032 1.387-2.283 3.285-4.054 5.696-5.312 2.432-1.259 5.237-1.888 8.416-1.888 2.944 0 5.59.661 7.936 1.984a14.28 14.28 0 0 1 5.536 5.44c1.344 2.304 2.016 4.96 2.016 7.968 0 2.197-.299 4.042-.896 5.536-.597 1.493-1.493 2.87-2.688 4.128-1.173 1.258-2.635 2.656-4.384 4.192L55.46 56.143l-.704-1.92h22.656v7.264H45.7Z" fill="url(#a)"/></mask><g mask="url(#b)"><g filter="url(#c)"><path d="M89.671-55.164C65.37-64.222 9.697 8.897 9.032 10.307c-29.893 50.609 56.199 25.277 58.672 24.81C35.337-20.99 91.12-35.826 89.67-55.165Z" fill="#3B37FF"/><path d="M108.479-37.114c-23.106-7.76-73.3 62.475-73.883 63.817-26.62 48.353 46.48 40.782 48.79 40.269-16.008-49.044 2.425-72.55 25.093-104.086Z" fill="#37E7FF"/><path d="M93.803-31.803c-31.617 13.058-40.1 57.452-33.324 70.506 24.968 25.115 60.908 67.162 34.403 16.635C65.188-1.267 141.298-51.42 93.803-31.804Z" fill="#FF37D3"/><path d="M98.814-25.832c-4.01-10.097-37.921 29.452-48.27 54.885-6.103 42.619 32.05 62.727 30.254 18.44-.545-13.414-9.908-30.014 10.556-54.427 4.422-5.276 8.54-16.178 7.46-18.898Z" fill="#FCFCFD"/></g><g style="mix-blend-mode:color-dodge" filter="url(#d)"><path d="M105.313-54.628C85.807-51.389 5.975 65.306-17.837 45.358c-45.65 77.287 85.825 38.602 89.602 37.886 7.254 20.381 75.814-76.159 33.548-137.872Z" fill="#3B37FF"/><path d="M93.456-42.99c-23.106-7.761-73.3 62.474-73.884 63.817-26.62 48.352 46.48 40.781 48.791 40.268-16.009-49.044 2.424-72.55 25.093-104.086Z" fill="#37E7FF"/><path d="M103.456 11.41c-31.618 13.059-40.1 57.453-33.325 70.507 24.969 25.115 60.908 67.163 34.403 16.635C74.84 41.947 150.95-8.205 103.456 11.411Z" fill="#FF37D3"/></g><g filter="url(#e)"><path fill="#141416" fill-opacity=".05" d="M-29.813-72.122h166v217.027h-166z"/></g></g><defs><filter id="c" x="-8.091" y="-66.766" width="128.749" height="156.667" filterUnits="userSpaceOnUse" color-interpolation-filters="sRGB"><feFlood flood-opacity="0" result="BackgroundImageFix"/><feBlend in="SourceGraphic" in2="BackgroundImageFix" result="shape"/><feGaussianBlur stdDeviation="5.413" result="effect1_foregroundBlur_0_3902"/></filter><filter id="d" x="-38.279" y="-65.453" width="168.59" height="198.569" filterUnits="userSpaceOnUse" color-interpolation-filters="sRGB"><feFlood flood-opacity="0" result="BackgroundImageFix"/><feBlend in="SourceGraphic" in2="BackgroundImageFix" result="shape"/><feGaussianBlur stdDeviation="5.413" result="effect1_foregroundBlur_0_3902"/></filter><filter id="e" x="-56.813" y="-99.122" width="220" height="271.026" filterUnits="userSpaceOnUse" color-interpolation-filters="sRGB"><feFlood flood-opacity="0" result="BackgroundImageFix"/><feGaussianBlur in="BackgroundImageFix" stdDeviation="13.5"/><feComposite in2="SourceAlpha" operator="in" result="effect1_backgroundBlur_0_3902"/><feBlend in="SourceGraphic" in2="effect1_backgroundBlur_0_3902" result="shape"/></filter><linearGradient id="a" x1="0" y1="29.054" x2="74.082" y2="107.139" gradientUnits="userSpaceOnUse"><stop stop-color="#FF3CEF"/><stop offset=".585" stop-color="#3E2DF7"/><stop offset=".677" stop-color="#002560"/><stop offset="1" stop-color="#1A2545"/></linearGradient></defs></svg>