<svg width="20" height="20" fill="none" xmlns="http://www.w3.org/2000/svg"><path d="M6.001 6.001c.66-.117 1.433-.168 2.333-.168 4.536 0 5.833 1.297 5.833 5.834 0 .898-.053 1.67-.173 2.329M6.001 6.001c.336-1.889 1.213-2.858 2.987-3.263.732-.167 1.617-.238 2.679-.238 4.537 0 5.833 1.296 5.833 5.833 0 1.06-.073 1.944-.244 2.675-.412 1.773-1.39 2.65-3.262 2.988M6.001 6.001a9.596 9.596 0 0 0-.346.07C3.26 6.618 2.5 8.191 2.5 11.667c0 4.537 1.347 5.833 5.834 5.833 3.438 0 5.032-.761 5.59-3.158.025-.112.049-.227.07-.346" stroke="#FCFCFD" stroke-width="1.6" stroke-linecap="round" stroke-linejoin="round"/></svg>