<svg width="40" height="40" fill="none" xmlns="http://www.w3.org/2000/svg"><path d="M13.85 24.529c4.783 1.867 8.854 2.23 13.467-.675-.033.05-.946 1.402-3.346 2.095a26.55 26.55 0 0 0 1.2 1.487c1.538 0 3.042-.44 4.343-1.284a3.295 3.295 0 0 0 1.47-3.059 22.595 22.595 0 0 0-1.453-6.05 7.094 7.094 0 0 0-5.965-4.546c-.237-.017-.406-.017-.507-.017l-.27.27c3.092.88 4.63 2.248 4.664 2.299a17.04 17.04 0 0 0-15.143-.101s1.521-1.505 4.885-2.299l-.203-.203c-.355 0-.693.034-1.048.085a7.123 7.123 0 0 0-5.459 4.478 23.247 23.247 0 0 0-1.47 6.32 3.262 3.262 0 0 0 1.386 2.941 7.707 7.707 0 0 0 4.242 1.268s.608-.795 1.216-1.504c-2.281-.676-3.21-2.028-3.227-2.079l.429.22c.257.13.52.25.788.354Zm2.652-1.47c-1.099-.034-1.96-.963-1.927-2.078a1.994 1.994 0 0 1 1.927-1.927c1.098.034 1.96.963 1.926 2.079-.05 1.048-.879 1.893-1.926 1.926Zm6.895 0c-1.099-.034-1.96-.963-1.927-2.078a1.994 1.994 0 0 1 1.927-1.927c1.098.034 1.96.963 1.926 2.079a1.994 1.994 0 0 1-1.926 1.926Z" fill="#B1B5C3"/></svg>