<svg width="40" height="40" fill="none" xmlns="http://www.w3.org/2000/svg"><g clip-path="url(#a)" fill="#777E90"><path d="M24.254 15.746A6.052 6.052 0 0 0 20 13.968a5.92 5.92 0 0 0-4.254 1.778A6.052 6.052 0 0 0 13.968 20c0 1.65.699 3.174 1.778 4.253A6.052 6.052 0 0 0 20 26.031c1.65 0 3.175-.666 4.254-1.777a6.053 6.053 0 0 0 1.778-4.255 5.92 5.92 0 0 0-1.778-4.253Zm-1.143 7.365A4.39 4.39 0 0 1 20 24.38a4.391 4.391 0 0 1-3.111-1.27 4.39 4.39 0 0 1-1.27-3.11c0-1.207.476-2.318 1.27-3.112A4.391 4.391 0 0 1 20 15.618c1.206 0 2.317.477 3.111 1.27A4.391 4.391 0 0 1 24.381 20a4.39 4.39 0 0 1-1.27 3.112Zm8.064-3.936H28.73a.84.84 0 0 0-.825.825c0 .445.38.826.825.826h2.445A.84.84 0 0 0 32 20a.84.84 0 0 0-.825-.825ZM20 27.904a.84.84 0 0 0-.825.826v2.444A.84.84 0 0 0 20 32a.84.84 0 0 0 .826-.826V28.73a.84.84 0 0 0-.826-.826Zm8.476-.57-1.746-1.746c-.286-.318-.825-.318-1.143 0a.805.805 0 0 0 0 1.143l1.746 1.746a.805.805 0 0 0 1.143 0 .805.805 0 0 0 0-1.143ZM20 8a.84.84 0 0 0-.825.825v2.445a.84.84 0 0 0 .825.825.84.84 0 0 0 .826-.825V8.825A.84.84 0 0 0 20 8Zm8.508 3.524a.805.805 0 0 0-1.143 0l-1.746 1.746a.805.805 0 0 0 0 1.143c.286.318.825.318 1.143 0l1.746-1.746a.805.805 0 0 0 0-1.143ZM11.27 19.175H8.825A.84.84 0 0 0 8 20c0 .445.35.826.825.826h2.445a.84.84 0 0 0 .825-.826.84.84 0 0 0-.825-.825Zm3.11 6.413c-.285-.318-.825-.318-1.142 0l-1.746 1.746a.805.805 0 0 0 0 1.143.805.805 0 0 0 1.143 0l1.746-1.746a.805.805 0 0 0 0-1.143Zm0-12.318-1.745-1.746a.805.805 0 0 0-1.143 0 .805.805 0 0 0 0 1.143l1.746 1.746a.805.805 0 0 0 1.143 0 .805.805 0 0 0 0-1.143Z"/></g><defs><clipPath id="a"><path fill="#fff" transform="translate(8 8)" d="M0 0h24v24H0z"/></clipPath></defs></svg>