<svg width="78" height="32" fill="none" xmlns="http://www.w3.org/2000/svg"><g clip-path="url(#a)"><path d="M10.07 27.119c-4.669 0-8.832-7.39-8.832-7.39l.345-2.686s-.936-1.826-.869-2.028c.068-.201 1.012-.09 1.012-.09-.707-2.569-.944-5.863-.944-5.863.067-.645 1.284.542 2.027.913.743.372.73-9.01 1.607-9.924.878-.913 3.348 10.65 3.348 10.65s2.35-1.317 4.61 0c0 0 2.467-11.563 3.35-10.65.88.914.863 10.296 1.606 9.924.743-.371 1.96-1.558 2.028-.913 0 0-.238 3.29-.945 5.86 0 0 .945-.113 1.012.089.067.201-.869 2.028-.869 2.028l.345 2.685c0 .01-4.163 7.395-8.831 7.395Z" fill="url(#b)"/></g><path d="M40.4 8h2.06v14h-2.28v-9.8l-4.42 6.64H34.4l-4.42-6.66V22H27.7V8h2.06l5.32 8.02L40.4 8Zm6.024 9.7a7.921 7.921 0 0 1-.46-2.7c0-.947.153-1.847.46-2.7.32-.853.773-1.62 1.36-2.3.587-.693 1.36-1.24 2.32-1.64.96-.413 2.033-.62 3.22-.62 1.187 0 2.253.207 3.2.62.96.4 1.733.947 2.32 1.64a7.05 7.05 0 0 1 1.36 2.3c.32.853.48 1.753.48 2.7 0 .947-.16 1.847-.48 2.7a7.281 7.281 0 0 1-1.36 2.32c-.587.68-1.36 1.227-2.32 1.64-.947.4-2.013.6-3.2.6-1.187 0-2.26-.2-3.22-.6-.96-.413-1.733-.96-2.32-1.64a7.81 7.81 0 0 1-1.36-2.32Zm10.62.94c.88-.987 1.32-2.2 1.32-3.64s-.44-2.653-1.32-3.64c-.867-.987-2.107-1.48-3.72-1.48-1.6 0-2.84.493-3.72 1.48-.88.987-1.32 2.2-1.32 3.64s.44 2.653 1.32 3.64c.88.987 2.12 1.48 3.72 1.48 1.613 0 2.853-.493 3.72-1.48ZM66.472 22h-2.28V8h2.14l7.54 10.24c-.013-.32-.02-.833-.02-1.54V8h2.28v14h-2.14l-7.54-10.24c.014.32.02.827.02 1.52V22Z" fill="#FCFCFD"/><defs><linearGradient id="b" x1=".711" y1="13.559" x2="19.428" y2="13.559" gradientUnits="userSpaceOnUse"><stop stop-color="#CF64FF"/><stop offset="1" stop-color="#FF6F26"/></linearGradient><clipPath id="a"><path fill="#fff" transform="translate(.385)" d="M0 0h19.038v27.5H0z"/></clipPath></defs></svg>