<svg width="1077" height="1077" fill="none" xmlns="http://www.w3.org/2000/svg"><circle cx="538.2" cy="538.2" r="275.919" transform="rotate(-150 538.2 538.2)" stroke="url(#a)" stroke-width="1.263"/><circle cx="538.2" cy="538.2" r="393.358" transform="rotate(-30 538.2 538.2)" stroke="url(#b)" stroke-width="1.263"/><rect x="287" y="165" width="145" height="42" rx="21" fill="url(#c)"/><path d="M314.48 175a.643.643 0 0 0-.316.097.719.719 0 0 0-.243.247l-5.599 9.216a.883.883 0 0 0-.1.641c.025.109.071.21.134.297a.707.707 0 0 0 .231.209l5.599 3.138a.646.646 0 0 0 .313.083.643.643 0 0 0 .313-.083l5.6-3.138a.717.717 0 0 0 .231-.209.863.863 0 0 0 .034-.938l-5.599-9.216a.735.735 0 0 0-.26-.257.635.635 0 0 0-.338-.087Zm.019 2.179v5.678l4.563 1.851-4.563 2.556v-4.407l-4.496 1.723 4.496-7.401Zm-5.625 10.392a.648.648 0 0 0-.364.132.777.777 0 0 0-.247.326.873.873 0 0 0 .09.819l5.599 7.857a.721.721 0 0 0 .244.217.639.639 0 0 0 .607 0 .728.728 0 0 0 .243-.217l5.599-7.857c.1-.14.155-.314.154-.493a.846.846 0 0 0-.155-.492.69.69 0 0 0-.397-.274.63.63 0 0 0-.461.065l-5.287 2.968-5.286-2.968a.637.637 0 0 0-.339-.083Zm2.564 3.089 2.748 1.542a.635.635 0 0 0 .313.083v2.67l-3.061-4.295ZM332.59 193v-12.96h8.28v1.773h-6.399v3.636h5.319v1.773h-5.319v4.005h6.399V193h-8.28Zm16.003 0a8.053 8.053 0 0 1-1.8.153 4.074 4.074 0 0 1-1.575-.342c-.462-.21-.81-.54-1.044-.99a2.895 2.895 0 0 1-.342-1.224c-.012-.42-.018-.894-.018-1.422v-8.595h1.89v8.505c0 .39.003.729.009 1.017.012.288.075.531.189.729.216.372.558.585 1.026.639.474.048 1.029.027 1.665-.063V193Zm-6.642-8.208v-1.512h6.642v1.512h-6.642ZM357.465 193v-4.779c0-.378-.033-.765-.099-1.161a3.48 3.48 0 0 0-.36-1.116 2.112 2.112 0 0 0-.747-.828c-.318-.21-.735-.315-1.251-.315-.336 0-.654.057-.954.171-.3.108-.564.285-.792.531-.222.246-.399.57-.531.972-.126.402-.189.891-.189 1.467l-1.17-.441c0-.882.165-1.659.495-2.331a3.72 3.72 0 0 1 1.422-1.584c.618-.378 1.365-.567 2.241-.567.672 0 1.236.108 1.692.324.456.216.825.501 1.107.855.288.348.507.729.657 1.143.15.414.252.819.306 1.215.054.396.081.744.081 1.044v5.4h-1.908Zm-6.831 0v-12.96h1.683v6.993h.225V193h-1.908Zm15.394.27c-.966 0-1.815-.21-2.547-.63a4.48 4.48 0 0 1-1.701-1.773c-.402-.762-.603-1.644-.603-2.646 0-1.062.198-1.983.594-2.763.402-.78.96-1.383 1.674-1.809.714-.426 1.545-.639 2.493-.639.99 0 1.833.231 2.529.693.696.456 1.215 1.107 1.557 1.953.348.846.486 1.851.414 3.015h-1.881v-.684c-.012-1.128-.228-1.962-.648-2.502-.414-.54-1.047-.81-1.899-.81-.942 0-1.65.297-2.124.891-.474.594-.711 1.452-.711 2.574 0 1.068.237 1.896.711 2.484.474.582 1.158.873 2.052.873.588 0 1.095-.132 1.521-.396.432-.27.768-.654 1.008-1.152l1.845.585c-.378.87-.951 1.545-1.719 2.025a4.786 4.786 0 0 1-2.565.711Zm-3.465-4.599v-1.467h6.939v1.467h-6.939Zm9.894 4.329v-9.72h1.674v2.358l-.234-.306c.12-.312.276-.597.468-.855.192-.264.414-.48.666-.648.246-.18.519-.318.819-.414.306-.102.618-.162.936-.18.318-.024.624-.009.918.045v1.764a3.049 3.049 0 0 0-1.062-.072 2.324 2.324 0 0 0-1.062.369 2.386 2.386 0 0 0-.729.72c-.174.282-.3.597-.378.945a4.887 4.887 0 0 0-.117 1.089V193h-1.899Zm11.096.27c-.966 0-1.815-.21-2.547-.63a4.48 4.48 0 0 1-1.701-1.773c-.402-.762-.603-1.644-.603-2.646 0-1.062.198-1.983.594-2.763.402-.78.96-1.383 1.674-1.809.714-.426 1.545-.639 2.493-.639.99 0 1.833.231 2.529.693.696.456 1.215 1.107 1.557 1.953.348.846.486 1.851.414 3.015h-1.881v-.684c-.012-1.128-.228-1.962-.648-2.502-.414-.54-1.047-.81-1.899-.81-.942 0-1.65.297-2.124.891-.474.594-.711 1.452-.711 2.574 0 1.068.237 1.896.711 2.484.474.582 1.158.873 2.052.873.588 0 1.095-.132 1.521-.396.432-.27.768-.654 1.008-1.152l1.845.585c-.378.87-.951 1.545-1.719 2.025a4.786 4.786 0 0 1-2.565.711Zm-3.465-4.599v-1.467h6.939v1.467h-6.939Zm13.558 4.59c-.672 0-1.236-.108-1.692-.324a3.2 3.2 0 0 1-1.116-.846 4.058 4.058 0 0 1-.648-1.152 5.913 5.913 0 0 1-.306-1.215 7.844 7.844 0 0 1-.081-1.044v-5.4h1.908v4.779c0 .378.03.768.09 1.17.066.396.186.765.36 1.107.18.342.429.618.747.828.324.21.744.315 1.26.315.336 0 .654-.054.954-.162a2 2 0 0 0 .783-.54c.228-.246.405-.57.531-.972.132-.402.198-.891.198-1.467l1.17.441c0 .882-.165 1.662-.495 2.34a3.73 3.73 0 0 1-1.422 1.575c-.618.378-1.365.567-2.241.567Zm3.213-.261v-2.808h-.225v-6.912h1.899V193h-1.674Zm15.844 0 .009-6.057c0-.702-.18-1.248-.54-1.638-.36-.396-.834-.594-1.422-.594-.36 0-.69.084-.99.252a1.855 1.855 0 0 0-.72.738c-.18.324-.27.732-.27 1.224l-.909-.459c-.012-.684.132-1.284.432-1.8.306-.516.72-.915 1.242-1.197a3.572 3.572 0 0 1 1.755-.432c1.05 0 1.863.315 2.439.945.576.63.864 1.467.864 2.511l-.009 6.507h-1.881Zm-11.655 0v-9.72h1.674v2.808h.216V193h-1.89Zm5.832 0 .009-6.021c0-.708-.18-1.263-.54-1.665-.354-.402-.831-.603-1.431-.603-.594 0-1.074.204-1.44.612-.36.408-.54.942-.54 1.602l-.9-.576c0-.636.153-1.203.459-1.701.306-.498.72-.891 1.242-1.179.522-.288 1.113-.432 1.773-.432.69 0 1.278.147 1.764.441.486.288.855.693 1.107 1.215.258.522.387 1.128.387 1.818l-.009 6.489h-1.881Z" fill="#FCFCFD"/><rect x="649" y="160" width="96" height="42" rx="21" fill="url(#d)" fill-opacity=".9"/><path d="m677.18 176.74 2.787 2.787c.1.1.262.1.363 0l1.468-1.469a.255.255 0 0 0 0-.363l-4.618-4.62c-.1-.1-.263-.1-.363 0l-4.617 4.618c-.1.1-.1.263 0 .363l1.469 1.469c.1.1.263.1.363 0l2.785-2.785a.255.255 0 0 1 .363 0Zm-6.636 2.61-1.469 1.469c-.1.1-.1.262 0 .363l1.469 1.469c.1.1.263.1.363 0l1.469-1.469c.1-.101.1-.263 0-.363l-1.469-1.469a.255.255 0 0 0-.363 0Zm6.638 9.575 4.62-4.62c.1-.1.1-.263-.001-.363l-1.469-1.468a.255.255 0 0 0-.363 0l-2.787 2.787c-.1.1-.262.1-.363 0l-2.785-2.786c-.1-.1-.262-.1-.363 0l-1.471 1.467c-.1.1-.1.263 0 .363l4.619 4.62c.101.1.263.1.363 0Zm5.909-9.574-1.469 1.469c-.1.1-.1.262 0 .363l1.469 1.469c.1.1.263.1.363 0l1.469-1.469c.1-.101.1-.263 0-.363l-1.469-1.469a.255.255 0 0 0-.363 0Z" fill="#23262F"/><path d="m678.678 180.818-1.497-1.497c-.1-.1-.263-.1-.363 0l-1.497 1.497c-.1.101-.1.263 0 .363l1.497 1.497c.1.101.263.101.363 0l1.497-1.497c.1-.1.1-.262 0-.363ZM694.656 188v-12.96h5.094c.822 0 1.512.168 2.07.504.558.336.978.771 1.26 1.305.282.528.423 1.086.423 1.674 0 .714-.177 1.326-.531 1.836-.348.51-.819.858-1.413 1.044l-.018-.441c.828.204 1.464.603 1.908 1.197.444.588.666 1.275.666 2.061 0 .762-.153 1.425-.459 1.989a3.195 3.195 0 0 1-1.323 1.323c-.576.312-1.275.468-2.097.468h-5.58Zm1.908-1.791h3.384a2.6 2.6 0 0 0 1.143-.243c.342-.162.609-.393.801-.693.198-.306.297-.669.297-1.089 0-.39-.087-.741-.261-1.053a1.806 1.806 0 0 0-.738-.747c-.318-.186-.693-.279-1.125-.279h-3.501v4.104Zm0-5.877h3.159c.348 0 .66-.069.936-.207a1.64 1.64 0 0 0 .666-.612c.168-.27.252-.594.252-.972 0-.504-.168-.918-.504-1.242-.336-.324-.786-.486-1.35-.486h-3.159v3.519Zm9.342 7.668v-12.96h1.908l6.381 9.63v-9.63h1.908V188h-1.908l-6.381-9.639V188h-1.908Zm12.708 0v-12.96h5.094c.822 0 1.512.168 2.07.504.558.336.978.771 1.26 1.305.282.528.423 1.086.423 1.674 0 .714-.177 1.326-.531 1.836-.348.51-.819.858-1.413 1.044l-.018-.441c.828.204 1.464.603 1.908 1.197.444.588.666 1.275.666 2.061 0 .762-.153 1.425-.459 1.989a3.195 3.195 0 0 1-1.323 1.323c-.576.312-1.275.468-2.097.468h-5.58Zm1.908-1.791h3.384a2.6 2.6 0 0 0 1.143-.243c.342-.162.609-.393.801-.693.198-.306.297-.669.297-1.089 0-.39-.087-.741-.261-1.053a1.806 1.806 0 0 0-.738-.747c-.318-.186-.693-.279-1.125-.279h-3.501v4.104Zm0-5.877h3.159c.348 0 .66-.069.936-.207a1.64 1.64 0 0 0 .666-.612c.168-.27.252-.594.252-.972 0-.504-.168-.918-.504-1.242-.336-.324-.786-.486-1.35-.486h-3.159v3.519Z" fill="#23262F"/><rect x="192" y="403" width="137" height="42" rx="21" fill="url(#e)"/><path d="M223.12 423.295a1.36 1.36 0 0 1 2.3-1.449l2.32 3.613c.413.644.633 1.392.634 2.156v.069l-.013-8.528a.645.645 0 0 0-.298-.512l-7.464-4.293a.658.658 0 0 0-.637.041l-.026.016-7.245 4.199-.029.013a.644.644 0 0 0-.374.545c.003 2.046 2.67 2.829 3.779 1.11l.094-.146c.486-.794 1.546-1.049 2.529-1.036a.662.662 0 0 1 .544 1.011l-5.938 9.522a.459.459 0 1 0 .782.481l6.268-10.343a1.312 1.312 0 0 1 2.252 1.346l-4.017 6.814a3.264 3.264 0 0 0 1.185 4.488l.341.197c.291.118.598-.07.869-.227l7.162-4.15a1.721 1.721 0 0 1-2.327-.584l-2.691-4.353Zm1.434 7.013a1.543 1.543 0 0 1-2.074-.506l-1.585-2.488a1.545 1.545 0 1 1 2.608-1.658l1.58 2.491c.47.74.229 1.722-.529 2.161Z" fill="url(#f)"/><path d="m220.386 426.515 2.889 4.535 2.669-1.547-3.795-5.981-1.763 2.993Zm7.989 1.168-.002-1.239-4.146-6.458-1.539 2.61 4.003 6.473 1.447-.838a.642.642 0 0 0 .237-.467v-.081ZM211 428.852l2.044 1.178 6.8-10.906-1.154-.031c-.983-.014-2.042.242-2.529 1.036l-3.862 5.985-1.299 1.997v.741Zm12.77-9.729-3.042.011-6.882 11.357 2.405 1.385.654-1.11 6.865-11.643Z" fill="#FCFCFD"/><path d="M229.656 419.108a1.938 1.938 0 0 0-.91-1.557l-7.562-4.349a1.966 1.966 0 0 0-1.735 0c-.063.031-7.354 4.26-7.354 4.26a1.926 1.926 0 0 0-1.095 1.642v9.007l1.299-1.997-.011-6.949c.001-.025.005-.05.009-.075a.643.643 0 0 1 .258-.408c.035-.024 7.45-4.317 7.474-4.329a.658.658 0 0 1 .57-.002l7.464 4.293a.641.641 0 0 1 .297.512v8.608a.63.63 0 0 1-.223.468l-1.447.838-.747.433-2.668 1.546-2.707 1.569a.654.654 0 0 1-.461-.009l-3.202-1.842-.654 1.11 2.877 1.656.25.142c.108.06.181.1.207.113.205.099.499.157.764.157.243 0 .48-.045.705-.132l7.861-4.553c.451-.35.717-.877.741-1.448v-8.704ZM236.839 431l4.212-12.96h2.709l4.212 12.96h-1.953l-3.879-11.826h.486L238.792 431h-1.953Zm2.187-2.925v-1.764h6.768v1.764h-6.768Zm10.56 2.925v-9.72h1.674v2.358l-.234-.306c.12-.312.276-.597.468-.855.192-.264.414-.48.666-.648.246-.18.519-.318.819-.414.306-.102.618-.162.936-.18.318-.024.624-.009.918.045v1.764a3.049 3.049 0 0 0-1.062-.072 2.324 2.324 0 0 0-1.062.369 2.386 2.386 0 0 0-.729.72c-.174.282-.3.597-.378.945a4.887 4.887 0 0 0-.117 1.089V431h-1.899Zm11.524.27c-.93 0-1.71-.225-2.34-.675-.63-.456-1.107-1.071-1.431-1.845-.324-.774-.486-1.647-.486-2.619 0-.972.159-1.845.477-2.619.324-.774.798-1.383 1.422-1.827.63-.45 1.404-.675 2.322-.675.912 0 1.698.225 2.358.675.666.444 1.179 1.053 1.539 1.827.36.768.54 1.641.54 2.619 0 .972-.18 1.848-.54 2.628-.354.774-.861 1.386-1.521 1.836-.654.45-1.434.675-2.34.675Zm-4.572-.27v-12.96h1.89v5.967h-.216V431h-1.674Zm4.311-1.431c.6 0 1.095-.153 1.485-.459.396-.306.69-.717.882-1.233a4.89 4.89 0 0 0 .297-1.746 4.79 4.79 0 0 0-.297-1.728 2.684 2.684 0 0 0-.891-1.233c-.402-.306-.915-.459-1.539-.459-.588 0-1.074.144-1.458.432-.378.288-.66.69-.846 1.206-.18.516-.27 1.11-.27 1.782 0 .672.09 1.266.27 1.782.18.516.465.921.855 1.215.39.294.894.441 1.512.441Zm6.829-9.882v-1.827h1.881v1.827h-1.881Zm0 11.313v-9.72h1.881V431h-1.881Zm10.146 0a8.053 8.053 0 0 1-1.8.153 4.074 4.074 0 0 1-1.575-.342c-.462-.21-.81-.54-1.044-.99a2.895 2.895 0 0 1-.342-1.224c-.012-.42-.018-.894-.018-1.422v-8.595h1.89v8.505c0 .39.003.729.009 1.017.012.288.075.531.189.729.216.372.558.585 1.026.639.474.048 1.029.027 1.665-.063V431Zm-6.642-8.208v-1.512h6.642v1.512h-6.642Zm8.691 8.208v-9.72h1.674v2.358l-.234-.306c.12-.312.276-.597.468-.855.192-.264.414-.48.666-.648.246-.18.519-.318.819-.414.306-.102.618-.162.936-.18.318-.024.624-.009.918.045v1.764a3.049 3.049 0 0 0-1.062-.072 2.324 2.324 0 0 0-1.062.369 2.386 2.386 0 0 0-.729.72c-.174.282-.3.597-.378.945a4.887 4.887 0 0 0-.117 1.089V431h-1.899Zm10.624.261c-.672 0-1.236-.108-1.692-.324a3.2 3.2 0 0 1-1.116-.846 4.058 4.058 0 0 1-.648-1.152 5.913 5.913 0 0 1-.306-1.215 7.844 7.844 0 0 1-.081-1.044v-5.4h1.908v4.779c0 .378.03.768.09 1.17.066.396.186.765.36 1.107.18.342.429.618.747.828.324.21.744.315 1.26.315.336 0 .654-.054.954-.162a2 2 0 0 0 .783-.54c.228-.246.405-.57.531-.972.132-.402.198-.891.198-1.467l1.17.441c0 .882-.165 1.662-.495 2.34a3.73 3.73 0 0 1-1.422 1.575c-.618.378-1.365.567-2.241.567Zm3.213-.261v-2.808h-.225v-6.912h1.899V431h-1.674Zm15.844 0 .009-6.057c0-.702-.18-1.248-.54-1.638-.36-.396-.834-.594-1.422-.594-.36 0-.69.084-.99.252a1.855 1.855 0 0 0-.72.738c-.18.324-.27.732-.27 1.224l-.909-.459c-.012-.684.132-1.284.432-1.8.306-.516.72-.915 1.242-1.197a3.572 3.572 0 0 1 1.755-.432c1.05 0 1.863.315 2.439.945.576.63.864 1.467.864 2.511l-.009 6.507h-1.881Zm-11.655 0v-9.72h1.674v2.808h.216V431h-1.89Zm5.832 0 .009-6.021c0-.708-.18-1.263-.54-1.665-.354-.402-.831-.603-1.431-.603-.594 0-1.074.204-1.44.612-.36.408-.54.942-.54 1.602l-.9-.576c0-.636.153-1.203.459-1.701.306-.498.72-.891 1.242-1.179.522-.288 1.113-.432 1.773-.432.69 0 1.278.147 1.764.441.486.288.855.693 1.107 1.215.258.522.387 1.128.387 1.818l-.009 6.489h-1.881Z" fill="#FCFCFD"/><rect x="720" y="282" width="149" height="42" rx="21" fill="url(#g)"/><g clip-path="url(#h)"><path d="M757 293.664h-18.016v16.374H757v-16.374Z" fill="#FCFCFD"/><path fill-rule="evenodd" clip-rule="evenodd" d="M762 303c0 7.732-6.268 14-14 14s-14-6.268-14-14 6.268-14 14-14 14 6.268 14 14Zm-17.967 5.571h-2.717c-.571 0-.853 0-1.025-.11a.69.69 0 0 1-.313-.54c-.01-.203.131-.45.413-.946l6.708-11.824c.286-.503.43-.754.612-.846.196-.1.43-.1.626 0 .183.092.327.343.613.846l1.379 2.407.007.012c.308.539.464.812.533 1.099a2.06 2.06 0 0 1 0 .956c-.069.289-.224.564-.537 1.111l-3.524 6.229-.009.016c-.31.543-.467.819-.685 1.026a2.057 2.057 0 0 1-.836.485c-.286.079-.605.079-1.245.079Zm6.861 0h3.893c.575 0 .864 0 1.036-.113a.69.69 0 0 0 .313-.543c.01-.197-.128-.435-.399-.901l-.028-.049-1.95-3.336-.022-.037c-.274-.464-.413-.698-.59-.788a.684.684 0 0 0-.623 0c-.179.093-.323.337-.608.829l-1.944 3.336-.006.011c-.285.491-.427.737-.417.938.014.22.128.423.313.543.169.11.458.11 1.032.11Z" fill="#E84142"/></g><path d="m764.598 310 4.212-12.96h2.709l4.212 12.96h-1.953l-3.879-11.826h.486L766.551 310h-1.953Zm2.187-2.925v-1.764h6.768v1.764h-6.768ZM779.253 310l-3.528-9.72h1.899l2.583 7.362 2.583-7.362h1.899l-3.528 9.72h-1.908Zm9.258.27c-.72 0-1.323-.132-1.809-.396a2.821 2.821 0 0 1-1.107-1.062 2.958 2.958 0 0 1-.369-1.458c0-.492.087-.924.261-1.296.174-.372.432-.687.774-.945a4.14 4.14 0 0 1 1.26-.639c.432-.126.921-.237 1.467-.333a49.86 49.86 0 0 1 1.719-.27l1.8-.252-.684.378c.012-.762-.15-1.326-.486-1.692-.33-.372-.9-.558-1.71-.558-.51 0-.978.12-1.404.36-.426.234-.723.624-.891 1.17l-1.755-.54c.24-.834.696-1.497 1.368-1.989.678-.492 1.578-.738 2.7-.738.87 0 1.626.15 2.268.45a2.797 2.797 0 0 1 1.422 1.404c.156.318.252.654.288 1.008.036.354.054.735.054 1.143V310h-1.665v-2.223l.324.288c-.402.744-.915 1.299-1.539 1.665-.618.36-1.38.54-2.286.54Zm.333-1.539c.534 0 .993-.093 1.377-.279a2.71 2.71 0 0 0 .927-.729c.234-.294.387-.6.459-.918.102-.288.159-.612.171-.972.018-.36.027-.648.027-.864l.612.225-1.62.243c-.486.072-.927.144-1.323.216-.39.066-.738.147-1.044.243-.258.09-.489.198-.693.324a1.587 1.587 0 0 0-.477.459c-.114.18-.171.399-.171.657 0 .252.063.486.189.702.126.21.318.378.576.504.258.126.588.189.99.189Zm7.35 1.269v-13.23h1.881V310h-1.881Zm7.329.27c-.72 0-1.323-.132-1.809-.396a2.821 2.821 0 0 1-1.107-1.062 2.958 2.958 0 0 1-.369-1.458c0-.492.087-.924.261-1.296.174-.372.432-.687.774-.945a4.14 4.14 0 0 1 1.26-.639c.432-.126.921-.237 1.467-.333a49.86 49.86 0 0 1 1.719-.27l1.8-.252-.684.378c.012-.762-.15-1.326-.486-1.692-.33-.372-.9-.558-1.71-.558-.51 0-.978.12-1.404.36-.426.234-.723.624-.891 1.17l-1.755-.54c.24-.834.696-1.497 1.368-1.989.678-.492 1.578-.738 2.7-.738.87 0 1.626.15 2.268.45a2.797 2.797 0 0 1 1.422 1.404c.156.318.252.654.288 1.008.036.354.054.735.054 1.143V310h-1.665v-2.223l.324.288c-.402.744-.915 1.299-1.539 1.665-.618.36-1.38.54-2.286.54Zm.333-1.539c.534 0 .993-.093 1.377-.279a2.71 2.71 0 0 0 .927-.729c.234-.294.387-.6.459-.918.102-.288.159-.612.171-.972.018-.36.027-.648.027-.864l.612.225-1.62.243c-.486.072-.927.144-1.323.216-.39.066-.738.147-1.044.243-.258.09-.489.198-.693.324a1.587 1.587 0 0 0-.477.459c-.114.18-.171.399-.171.657 0 .252.063.486.189.702.126.21.318.378.576.504.258.126.588.189.99.189ZM817.848 310v-4.779c0-.378-.033-.765-.099-1.161a3.48 3.48 0 0 0-.36-1.116 2.112 2.112 0 0 0-.747-.828c-.318-.21-.735-.315-1.251-.315-.336 0-.654.057-.954.171-.3.108-.564.285-.792.531-.222.246-.399.57-.531.972-.126.402-.189.891-.189 1.467l-1.17-.441c0-.882.165-1.659.495-2.331a3.72 3.72 0 0 1 1.422-1.584c.618-.378 1.365-.567 2.241-.567.672 0 1.236.108 1.692.324.456.216.825.501 1.107.855.288.348.507.729.657 1.143.15.414.252.819.306 1.215.054.396.081.744.081 1.044v5.4h-1.908Zm-6.831 0v-9.72h1.683v2.808h.225V310h-1.908Zm15.118.27c-.996 0-1.842-.222-2.538-.666a4.354 4.354 0 0 1-1.602-1.827c-.366-.774-.552-1.653-.558-2.637.006-1.002.198-1.887.576-2.655a4.333 4.333 0 0 1 1.62-1.818c.702-.438 1.545-.657 2.529-.657 1.062 0 1.968.264 2.718.792.756.528 1.254 1.251 1.494 2.169l-1.872.54c-.186-.546-.492-.969-.918-1.269a2.397 2.397 0 0 0-1.449-.459c-.618 0-1.125.147-1.521.441-.396.288-.69.684-.882 1.188-.192.504-.291 1.08-.297 1.728.006 1.002.234 1.812.684 2.43.456.618 1.128.927 2.016.927.606 0 1.095-.138 1.467-.414.378-.282.666-.684.864-1.206l1.908.45c-.318.948-.843 1.677-1.575 2.187-.732.504-1.62.756-2.664.756Zm12.894-.27v-4.779c0-.378-.033-.765-.099-1.161a3.48 3.48 0 0 0-.36-1.116 2.112 2.112 0 0 0-.747-.828c-.318-.21-.735-.315-1.251-.315-.336 0-.654.057-.954.171-.3.108-.564.285-.792.531-.222.246-.399.57-.531.972-.126.402-.189.891-.189 1.467l-1.17-.441c0-.882.165-1.659.495-2.331a3.72 3.72 0 0 1 1.422-1.584c.618-.378 1.365-.567 2.241-.567.672 0 1.236.108 1.692.324.456.216.825.501 1.107.855.288.348.507.729.657 1.143.15.414.252.819.306 1.215.054.396.081.744.081 1.044v5.4h-1.908Zm-6.831 0v-12.96h1.683v6.993h.225V310h-1.908Zm15.394.27c-.966 0-1.815-.21-2.547-.63a4.48 4.48 0 0 1-1.701-1.773c-.402-.762-.603-1.644-.603-2.646 0-1.062.198-1.983.594-2.763.402-.78.96-1.383 1.674-1.809.714-.426 1.545-.639 2.493-.639.99 0 1.833.231 2.529.693.696.456 1.215 1.107 1.557 1.953.348.846.486 1.851.414 3.015h-1.881v-.684c-.012-1.128-.228-1.962-.648-2.502-.414-.54-1.047-.81-1.899-.81-.942 0-1.65.297-2.124.891-.474.594-.711 1.452-.711 2.574 0 1.068.237 1.896.711 2.484.474.582 1.158.873 2.052.873.588 0 1.095-.132 1.521-.396.432-.27.768-.654 1.008-1.152l1.845.585c-.378.87-.951 1.545-1.719 2.025a4.786 4.786 0 0 1-2.565.711Zm-3.465-4.599v-1.467h6.939v1.467h-6.939Z" fill="#FCFCFD"/><rect x="235" y="663" width="125" height="42" rx="21" fill="url(#i)"/><g clip-path="url(#j)"><path fill-rule="evenodd" clip-rule="evenodd" d="m264 681.548 3-1.689v3.377l-3-1.688Zm3 7.236-4 2.251-4-2.251v-3.94l4 2.251 4-2.251v3.94Zm-8-8.925 3 1.689-3 1.688v-3.377Zm4.5 2.493 3 1.688-3 1.689v-3.377Zm-1 3.377-3-1.689 3-1.688v3.377Zm4-6.674-3.5 1.93-3.5-1.93 3.5-2.01 3.5 2.01Zm-8.5-.321v10.532l5 2.734 5-2.734v-10.532L263 676l-5 2.734Z" fill="#FCFCFD"/></g><path d="M280.618 691v-12.96h7.677v1.881h-5.796v3.654h4.716v1.89h-4.716V691h-1.881Zm11.693.27c-.72 0-1.323-.132-1.809-.396a2.821 2.821 0 0 1-1.107-1.062 2.958 2.958 0 0 1-.369-1.458c0-.492.087-.924.261-1.296.174-.372.432-.687.774-.945a4.14 4.14 0 0 1 1.26-.639c.432-.126.921-.237 1.467-.333a49.86 49.86 0 0 1 1.719-.27l1.8-.252-.684.378c.012-.762-.15-1.326-.486-1.692-.33-.372-.9-.558-1.71-.558-.51 0-.978.12-1.404.36-.426.234-.723.624-.891 1.17l-1.755-.54c.24-.834.696-1.497 1.368-1.989.678-.492 1.578-.738 2.7-.738.87 0 1.626.15 2.268.45a2.797 2.797 0 0 1 1.422 1.404c.156.318.252.654.288 1.008.036.354.054.735.054 1.143V691h-1.665v-2.223l.324.288c-.402.744-.915 1.299-1.539 1.665-.618.36-1.38.54-2.286.54Zm.333-1.539c.534 0 .993-.093 1.377-.279a2.71 2.71 0 0 0 .927-.729c.234-.294.387-.6.459-.918.102-.288.159-.612.171-.972.018-.36.027-.648.027-.864l.612.225-1.62.243c-.486.072-.927.144-1.323.216-.39.066-.738.147-1.044.243-.258.09-.489.198-.693.324a1.587 1.587 0 0 0-.477.459c-.114.18-.171.399-.171.657 0 .252.063.486.189.702.126.21.318.378.576.504.258.126.588.189.99.189ZM306.636 691v-4.779c0-.378-.033-.765-.099-1.161a3.48 3.48 0 0 0-.36-1.116 2.112 2.112 0 0 0-.747-.828c-.318-.21-.735-.315-1.251-.315-.336 0-.654.057-.954.171-.3.108-.564.285-.792.531-.222.246-.399.57-.531.972-.126.402-.189.891-.189 1.467l-1.17-.441c0-.882.165-1.659.495-2.331a3.72 3.72 0 0 1 1.422-1.584c.618-.378 1.365-.567 2.241-.567.672 0 1.236.108 1.692.324.456.216.825.501 1.107.855.288.348.507.729.657 1.143.15.414.252.819.306 1.215.054.396.081.744.081 1.044v5.4h-1.908Zm-6.831 0v-9.72h1.683v2.808h.225V691h-1.908Zm16.645 0a8.053 8.053 0 0 1-1.8.153 4.074 4.074 0 0 1-1.575-.342c-.462-.21-.81-.54-1.044-.99a2.895 2.895 0 0 1-.342-1.224c-.012-.42-.018-.894-.018-1.422v-8.595h1.89v8.505c0 .39.003.729.009 1.017.012.288.075.531.189.729.216.372.558.585 1.026.639.474.048 1.029.027 1.665-.063V691Zm-6.642-8.208v-1.512h6.642v1.512h-6.642Zm12.473 8.478c-.972 0-1.815-.219-2.529-.657a4.428 4.428 0 0 1-1.656-1.809c-.384-.774-.576-1.665-.576-2.673 0-1.014.198-1.905.594-2.673a4.354 4.354 0 0 1 1.665-1.8c.714-.432 1.548-.648 2.502-.648.972 0 1.815.219 2.529.657a4.428 4.428 0 0 1 1.656 1.809c.39.768.585 1.653.585 2.655 0 1.014-.198 1.908-.594 2.682a4.428 4.428 0 0 1-1.656 1.809c-.714.432-1.554.648-2.52.648Zm0-1.773c.93 0 1.623-.312 2.079-.936.462-.63.693-1.44.693-2.43 0-1.014-.234-1.824-.702-2.43-.462-.612-1.152-.918-2.07-.918-.63 0-1.149.144-1.557.432a2.503 2.503 0 0 0-.909 1.179c-.198.498-.297 1.077-.297 1.737 0 1.02.234 1.836.702 2.448.468.612 1.155.918 2.061.918ZM340.675 691l.009-6.057c0-.702-.18-1.248-.54-1.638-.36-.396-.834-.594-1.422-.594-.36 0-.69.084-.99.252a1.855 1.855 0 0 0-.72.738c-.18.324-.27.732-.27 1.224l-.909-.459c-.012-.684.132-1.284.432-1.8.306-.516.72-.915 1.242-1.197a3.572 3.572 0 0 1 1.755-.432c1.05 0 1.863.315 2.439.945.576.63.864 1.467.864 2.511l-.009 6.507h-1.881Zm-11.655 0v-9.72h1.674v2.808h.216V691h-1.89Zm5.832 0 .009-6.021c0-.708-.18-1.263-.54-1.665-.354-.402-.831-.603-1.431-.603-.594 0-1.074.204-1.44.612-.36.408-.54.942-.54 1.602l-.9-.576c0-.636.153-1.203.459-1.701.306-.498.72-.891 1.242-1.179.522-.288 1.113-.432 1.773-.432.69 0 1.278.147 1.764.441.486.288.855.693 1.107 1.215.258.522.387 1.128.387 1.818l-.009 6.489h-1.881Z" fill="#FCFCFD"/><rect x="106" y="517" width="130" height="42" rx="21" fill="url(#k)"/><g clip-path="url(#l)"><path d="M138.083 535.25c-.291-.167-.666-.167-1 0l-2.333 1.375-1.583.875-2.292 1.375c-.292.166-.667.166-1 0l-1.792-1.084c-.291-.166-.5-.5-.5-.875v-2.083c0-.333.167-.667.5-.875l1.792-1.042c.292-.166.667-.166 1 0l1.792 1.084c.291.166.5.5.5.875v1.375l1.583-.917v-1.417a1.03 1.03 0 0 0-.5-.875l-3.333-1.958c-.292-.167-.667-.167-1 0l-3.417 2c-.333.167-.5.5-.5.833v3.917c0 .333.167.667.5.875l3.375 1.958c.292.167.667.167 1 0l2.292-1.333 1.583-.917 2.292-1.333c.291-.167.666-.167 1 0l1.791 1.042c.292.166.5.5.5.875v2.083c0 .333-.166.667-.5.875l-1.75 1.042c-.291.166-.666.166-1 0l-1.791-1.042c-.292-.167-.5-.5-.5-.875v-1.333l-1.584.916v1.375c0 .334.167.667.5.875l3.375 1.959c.292.166.667.166 1 0l3.375-1.959c.292-.166.5-.5.5-.875v-3.958c0-.333-.166-.667-.5-.875l-3.375-1.958Z" fill="#FCFCFD"/></g><path d="M151.526 545v-12.96h5.238c.126 0 .282.006.468.018.186.006.363.024.531.054.72.114 1.32.36 1.8.738.486.378.849.855 1.089 1.431.24.576.36 1.212.36 1.908 0 .702-.12 1.341-.36 1.917a3.474 3.474 0 0 1-1.089 1.431c-.48.378-1.08.624-1.8.738a6.847 6.847 0 0 1-.54.054 7.393 7.393 0 0 1-.459.018h-3.357V545h-1.881Zm1.881-6.435h3.285c.12 0 .252-.006.396-.018.15-.012.291-.033.423-.063.384-.09.693-.255.927-.495a2.18 2.18 0 0 0 .504-.846 3.024 3.024 0 0 0 0-1.899 2.104 2.104 0 0 0-.504-.837c-.234-.246-.543-.414-.927-.504a2.304 2.304 0 0 0-.423-.072 4.798 4.798 0 0 0-.396-.018h-3.285v4.752Zm13.502 6.705c-.972 0-1.815-.219-2.529-.657a4.428 4.428 0 0 1-1.656-1.809c-.384-.774-.576-1.665-.576-2.673 0-1.014.198-1.905.594-2.673a4.354 4.354 0 0 1 1.665-1.8c.714-.432 1.548-.648 2.502-.648.972 0 1.815.219 2.529.657a4.428 4.428 0 0 1 1.656 1.809c.39.768.585 1.653.585 2.655 0 1.014-.198 1.908-.594 2.682a4.428 4.428 0 0 1-1.656 1.809c-.714.432-1.554.648-2.52.648Zm0-1.773c.93 0 1.623-.312 2.079-.936.462-.63.693-1.44.693-2.43 0-1.014-.234-1.824-.702-2.43-.462-.612-1.152-.918-2.07-.918-.63 0-1.149.144-1.557.432a2.503 2.503 0 0 0-.909 1.179c-.198.498-.297 1.077-.297 1.737 0 1.02.234 1.836.702 2.448.468.612 1.155.918 2.061.918Zm6.927 1.503v-13.23h1.881V545h-1.881Zm5.898 4.32 1.881-5.121.027 1.512-4.239-10.431h1.962l3.168 8.055h-.576l3.024-8.055h1.908l-5.364 14.04h-1.791Zm12.271.27a4.832 4.832 0 0 1-1.521-.243 4.346 4.346 0 0 1-1.332-.72 3.9 3.9 0 0 1-.999-1.161l1.737-.882c.21.414.51.717.9.909.39.192.801.288 1.233.288.534 0 .99-.096 1.368-.288.378-.186.663-.468.855-.846.198-.378.294-.846.288-1.404v-2.718h.225v-7.245h1.665v9.981c0 .258-.009.504-.027.738a5.645 5.645 0 0 1-.099.702c-.138.654-.402 1.194-.792 1.62-.384.426-.876.744-1.476.954-.594.21-1.269.315-2.025.315Zm-.144-4.32c-.906 0-1.689-.225-2.349-.675-.654-.45-1.161-1.062-1.521-1.836-.354-.78-.531-1.656-.531-2.628 0-.978.18-1.851.54-2.619.36-.774.87-1.383 1.53-1.827.666-.45 1.455-.675 2.367-.675.918 0 1.689.225 2.313.675.63.444 1.104 1.053 1.422 1.827.324.774.486 1.647.486 2.619 0 .972-.162 1.845-.486 2.619-.324.774-.801 1.389-1.431 1.845-.63.45-1.41.675-2.34.675Zm.261-1.701c.618 0 1.122-.147 1.512-.441.39-.294.675-.699.855-1.215.18-.516.27-1.11.27-1.782 0-.672-.093-1.266-.279-1.782-.18-.516-.462-.918-.846-1.206-.378-.288-.861-.432-1.449-.432-.624 0-1.137.153-1.539.459a2.744 2.744 0 0 0-.9 1.233 4.924 4.924 0 0 0-.288 1.728c0 .642.096 1.224.288 1.746.198.516.492.927.882 1.233.396.306.894.459 1.494.459Zm11.05 1.701c-.972 0-1.815-.219-2.529-.657a4.428 4.428 0 0 1-1.656-1.809c-.384-.774-.576-1.665-.576-2.673 0-1.014.198-1.905.594-2.673a4.354 4.354 0 0 1 1.665-1.8c.714-.432 1.548-.648 2.502-.648.972 0 1.815.219 2.529.657a4.428 4.428 0 0 1 1.656 1.809c.39.768.585 1.653.585 2.655 0 1.014-.198 1.908-.594 2.682a4.428 4.428 0 0 1-1.656 1.809c-.714.432-1.554.648-2.52.648Zm0-1.773c.93 0 1.623-.312 2.079-.936.462-.63.693-1.44.693-2.43 0-1.014-.234-1.824-.702-2.43-.462-.612-1.152-.918-2.07-.918-.63 0-1.149.144-1.557.432a2.503 2.503 0 0 0-.909 1.179c-.198.498-.297 1.077-.297 1.737 0 1.02.234 1.836.702 2.448.468.612 1.155.918 2.061.918Zm13.57 1.503v-4.779c0-.378-.033-.765-.099-1.161a3.48 3.48 0 0 0-.36-1.116 2.112 2.112 0 0 0-.747-.828c-.318-.21-.735-.315-1.251-.315-.336 0-.654.057-.954.171-.3.108-.564.285-.792.531-.222.246-.399.57-.531.972-.126.402-.189.891-.189 1.467l-1.17-.441c0-.882.165-1.659.495-2.331a3.72 3.72 0 0 1 1.422-1.584c.618-.378 1.365-.567 2.241-.567.672 0 1.236.108 1.692.324.456.216.825.501 1.107.855.288.348.507.729.657 1.143.15.414.252.819.306 1.215.054.396.081.744.081 1.044v5.4h-1.908Zm-6.831 0v-9.72h1.683v2.808h.225V545h-1.908Z" fill="#FCFCFD"/><g filter="url(#m)" transform="rotate(-180 216 311)" shape-rendering="crispEdges"><circle cx="216" cy="311" r="12" fill="url(#n)" fill-opacity=".04"/><circle cx="216" cy="311" r="11.5" stroke="url(#o)"/></g><g filter="url(#p)" transform="rotate(15 256.697 817.697)" shape-rendering="crispEdges"><circle cx="256.697" cy="817.697" r="12" fill="url(#q)" fill-opacity=".04"/><circle cx="256.697" cy="817.697" r="11.5" stroke="url(#r)" stroke-opacity=".5"/></g><g opacity=".5" filter="url(#s)" shape-rendering="crispEdges"><circle cx="751" cy="716" r="8" fill="url(#t)" fill-opacity=".04"/><circle cx="751" cy="716" r="7.5" stroke="url(#u)" stroke-opacity=".5"/></g><g filter="url(#v)" shape-rendering="crispEdges"><circle cx="693.199" cy="310" r="8" fill="url(#w)" fill-opacity=".04"/><circle cx="693.199" cy="310" r="7.5" stroke="url(#x)" stroke-opacity=".5"/></g><defs><linearGradient id="a" x1="722.567" y1="323.253" x2="331.674" y2="806.329" gradientUnits="userSpaceOnUse"><stop stop-color="#545454"/><stop offset="1" stop-color="#545454" stop-opacity="0"/></linearGradient><linearGradient id="b" x1="800.86" y1="231.974" x2="243.97" y2="920.193" gradientUnits="userSpaceOnUse"><stop stop-color="#545454"/><stop offset="1" stop-color="#545454" stop-opacity="0"/></linearGradient><linearGradient id="c" x1="307.372" y1="92.667" x2="391.191" y2="261.319" gradientUnits="userSpaceOnUse"><stop stop-color="#fff"/><stop offset="1" stop-color="#AAA" stop-opacity="0"/></linearGradient><linearGradient id="d" x1="639.4" y1="157.083" x2="753.858" y2="227.797" gradientUnits="userSpaceOnUse"><stop stop-color="#FAFF00"/><stop offset="1" stop-color="#F90"/></linearGradient><linearGradient id="e" x1="471.219" y1="498.667" x2="200.954" y2="380.731" gradientUnits="userSpaceOnUse"><stop stop-color="#28A0F0"/><stop offset="1" stop-color="#2D374B"/></linearGradient><linearGradient id="f" x1="245.073" y1="456.126" x2="207.808" y2="451.76" gradientUnits="userSpaceOnUse"><stop stop-color="#28A0F0"/><stop offset="1" stop-color="#2D374B"/></linearGradient><linearGradient id="g" x1="720" y1="282" x2="861.881" y2="345.012" gradientUnits="userSpaceOnUse"><stop stop-color="#E84142"/><stop offset="1" stop-color="#E84B41"/></linearGradient><linearGradient id="i" x1="239.089" y1="667.083" x2="409.004" y2="734.322" gradientUnits="userSpaceOnUse"><stop stop-color="#0083FF"/><stop offset="1"/></linearGradient><linearGradient id="k" x1="106" y1="517" x2="235.904" y2="559.294" gradientUnits="userSpaceOnUse"><stop stop-color="#9757D7"/><stop offset="1" stop-color="#BD00FF"/></linearGradient><linearGradient id="n" x1="221.595" y1="306.067" x2="217.789" y2="339.338" gradientUnits="userSpaceOnUse"><stop stop-color="#A4C8FF"/><stop offset="1" stop-color="#A4C8FF" stop-opacity="0"/></linearGradient><linearGradient id="q" x1="262.292" y1="812.764" x2="258.486" y2="846.035" gradientUnits="userSpaceOnUse"><stop stop-color="#A4C8FF"/><stop offset="1" stop-color="#A4C8FF" stop-opacity="0"/></linearGradient><linearGradient id="t" x1="754.73" y1="712.711" x2="752.193" y2="734.892" gradientUnits="userSpaceOnUse"><stop stop-color="#A4C8FF"/><stop offset="1" stop-color="#A4C8FF" stop-opacity="0"/></linearGradient><linearGradient id="w" x1="696.929" y1="306.711" x2="694.392" y2="328.892" gradientUnits="userSpaceOnUse"><stop stop-color="#A4C8FF"/><stop offset="1" stop-color="#A4C8FF" stop-opacity="0"/></linearGradient><radialGradient id="o" cx="0" cy="0" r="1" gradientUnits="userSpaceOnUse" gradientTransform="matrix(-15.31204 -16.6628 12.92627 -11.8784 216 311)"><stop stop-color="#fff"/><stop offset="1" stop-color="#fff" stop-opacity="0"/></radialGradient><radialGradient id="r" cx="0" cy="0" r="1" gradientUnits="userSpaceOnUse" gradientTransform="rotate(-132.581 307.901 352.482) scale(22.6298 17.5552)"><stop stop-color="#fff"/><stop offset="1" stop-color="#fff" stop-opacity="0"/></radialGradient><radialGradient id="u" cx="0" cy="0" r="1" gradientUnits="userSpaceOnUse" gradientTransform="matrix(-10.208 -11.10851 8.61754 -7.91896 751 716)"><stop stop-color="#fff"/><stop offset="1" stop-color="#fff" stop-opacity="0"/></radialGradient><radialGradient id="x" cx="0" cy="0" r="1" gradientUnits="userSpaceOnUse" gradientTransform="rotate(-132.581 414.67 2.785) scale(15.0865 11.7035)"><stop stop-color="#fff"/><stop offset="1" stop-color="#fff" stop-opacity="0"/></radialGradient><filter id="m" x="154" y="249" width="124" height="124" filterUnits="userSpaceOnUse" color-interpolation-filters="sRGB"><feFlood flood-opacity="0" result="BackgroundImageFix"/><feGaussianBlur in="BackgroundImageFix" stdDeviation="25"/><feComposite in2="SourceAlpha" operator="in" result="effect1_backgroundBlur_0_3538"/><feColorMatrix in="SourceAlpha" values="0 0 0 0 0 0 0 0 0 0 0 0 0 0 0 0 0 0 127 0" result="hardAlpha"/><feOffset dy="2"/><feGaussianBlur stdDeviation="1"/><feComposite in2="hardAlpha" operator="out"/><feColorMatrix values="0 0 0 0 0 0 0 0 0 0 0 0 0 0 0 0 0 0 0.25 0"/><feBlend in2="effect1_backgroundBlur_0_3538" result="effect2_dropShadow_0_3538"/><feBlend in="SourceGraphic" in2="effect2_dropShadow_0_3538" result="shape"/></filter><filter id="p" x="194.694" y="755.694" width="124.006" height="124.006" filterUnits="userSpaceOnUse" color-interpolation-filters="sRGB"><feFlood flood-opacity="0" result="BackgroundImageFix"/><feGaussianBlur in="BackgroundImageFix" stdDeviation="25"/><feComposite in2="SourceAlpha" operator="in" result="effect1_backgroundBlur_0_3538"/><feColorMatrix in="SourceAlpha" values="0 0 0 0 0 0 0 0 0 0 0 0 0 0 0 0 0 0 127 0" result="hardAlpha"/><feOffset dy="2"/><feGaussianBlur stdDeviation="1"/><feComposite in2="hardAlpha" operator="out"/><feColorMatrix values="0 0 0 0 0 0 0 0 0 0 0 0 0 0 0 0 0 0 0.25 0"/><feBlend in2="effect1_backgroundBlur_0_3538" result="effect2_dropShadow_0_3538"/><feBlend in="SourceGraphic" in2="effect2_dropShadow_0_3538" result="shape"/></filter><filter id="s" x="693" y="658" width="116" height="116" filterUnits="userSpaceOnUse" color-interpolation-filters="sRGB"><feFlood flood-opacity="0" result="BackgroundImageFix"/><feGaussianBlur in="BackgroundImageFix" stdDeviation="25"/><feComposite in2="SourceAlpha" operator="in" result="effect1_backgroundBlur_0_3538"/><feColorMatrix in="SourceAlpha" values="0 0 0 0 0 0 0 0 0 0 0 0 0 0 0 0 0 0 127 0" result="hardAlpha"/><feOffset dy="2"/><feGaussianBlur stdDeviation="1"/><feComposite in2="hardAlpha" operator="out"/><feColorMatrix values="0 0 0 0 0 0 0 0 0 0 0 0 0 0 0 0 0 0 0.25 0"/><feBlend in2="effect1_backgroundBlur_0_3538" result="effect2_dropShadow_0_3538"/><feBlend in="SourceGraphic" in2="effect2_dropShadow_0_3538" result="shape"/></filter><filter id="v" x="635.199" y="252" width="116" height="116" filterUnits="userSpaceOnUse" color-interpolation-filters="sRGB"><feFlood flood-opacity="0" result="BackgroundImageFix"/><feGaussianBlur in="BackgroundImageFix" stdDeviation="25"/><feComposite in2="SourceAlpha" operator="in" result="effect1_backgroundBlur_0_3538"/><feColorMatrix in="SourceAlpha" values="0 0 0 0 0 0 0 0 0 0 0 0 0 0 0 0 0 0 127 0" result="hardAlpha"/><feOffset dy="2"/><feGaussianBlur stdDeviation="1"/><feComposite in2="hardAlpha" operator="out"/><feColorMatrix values="0 0 0 0 0 0 0 0 0 0 0 0 0 0 0 0 0 0 0.25 0"/><feBlend in2="effect1_backgroundBlur_0_3538" result="effect2_dropShadow_0_3538"/><feBlend in="SourceGraphic" in2="effect2_dropShadow_0_3538" result="shape"/></filter><clipPath id="h"><path fill="#fff" transform="translate(736 291)" d="M0 0h24v24H0z"/></clipPath><clipPath id="j"><path fill="#fff" transform="translate(255 676)" d="M0 0h16v16H0z"/></clipPath><clipPath id="l"><path fill="#fff" transform="translate(126 531)" d="M0 0h16v13.958H0z"/></clipPath></defs></svg>