<svg width="40" height="40" fill="none" xmlns="http://www.w3.org/2000/svg"><g clip-path="url(#a)" fill="#B1B5C3"><path d="M21.537 20c0 3.764-3.03 6.815-6.768 6.815C11.03 26.815 8 23.764 8 20c0-3.764 3.03-6.815 6.769-6.815 3.738 0 6.768 3.05 6.768 6.815Zm7.425 0c0 3.542-1.515 6.414-3.384 6.414S22.194 23.542 22.194 20s1.515-6.415 3.384-6.415c1.87 0 3.384 2.872 3.384 6.415ZM32 20c0 3.174-.533 5.747-1.19 5.747-.657 0-1.19-2.573-1.19-5.747 0-3.175.532-5.748 1.19-5.748.657 0 1.19 2.573 1.19 5.748Z"/></g><defs><clipPath id="a"><path fill="#fff" transform="translate(8 8)" d="M0 0h24v24H0z"/></clipPath></defs></svg>