<svg width="40" height="40" fill="none" xmlns="http://www.w3.org/2000/svg"><g clip-path="url(#a)"><path d="M31.433 21.653a.844.844 0 0 0-.706.153 8.995 8.995 0 0 1-2.73 1.595c-.95.368-1.993.552-3.097.552a9.02 9.02 0 0 1-6.38-2.638 9.02 9.02 0 0 1-2.637-6.38c0-1.042.184-2.054.49-2.974a8.236 8.236 0 0 1 1.472-2.638.783.783 0 0 0-.122-1.104c-.215-.153-.46-.215-.706-.153-2.607.705-4.876 2.27-6.502 4.355C8.951 14.476 8 17.02 8 19.813c0 3.343 1.35 6.38 3.558 8.587a12.101 12.101 0 0 0 8.588 3.558c2.822 0 5.428-.981 7.514-2.607a12.093 12.093 0 0 0 4.294-6.717c.153-.46-.092-.89-.521-.981Zm-4.693 6.41a10.481 10.481 0 0 1-6.533 2.27 10.525 10.525 0 0 1-7.453-3.098 10.525 10.525 0 0 1-3.098-7.453c0-2.423.798-4.632 2.178-6.41a10.543 10.543 0 0 1 3.527-2.945c-.153.338-.307.675-.43 1.043-.398 1.104-.582 2.27-.582 3.496 0 2.914 1.196 5.583 3.098 7.484a10.597 10.597 0 0 0 7.483 3.098c1.289 0 2.515-.215 3.65-.644.399-.154.798-.307 1.166-.49-.736 1.41-1.748 2.667-3.006 3.649Z" fill="#B1B5C3"/></g><defs><clipPath id="a"><path fill="#fff" transform="translate(8 8)" d="M0 0h24v24H0z"/></clipPath></defs></svg>