<svg width="80" height="83" fill="none" xmlns="http://www.w3.org/2000/svg"><g filter="url(#a)"><path d="M19.668 45.865c-4.235-11.388 1.564-24.054 12.952-28.288l3.75-1.395c6.211-2.31 13.12.854 15.43 7.065l4.88 13.123c2.31 6.211-.854 13.12-7.066 15.43l-13.122 4.88c-6.212 2.31-13.12-.854-15.43-7.066l-1.394-3.749Z" fill="#FFB028"/></g><path d="m34.916 46.892-2.783-1.26 8.827-19.477 2.79 1.284-8.834 19.453Zm10.908-3.72a4.222 4.222 0 0 1-2.235.226 4.55 4.55 0 0 1-2.01-.91 4.177 4.177 0 0 1-1.32-1.838 4.07 4.07 0 0 1-.198-2.233 4.583 4.583 0 0 1 .928-2.029 4.089 4.089 0 0 1 1.793-1.302 4.155 4.155 0 0 1 2.24-.215 4.29 4.29 0 0 1 2.009.91 4.115 4.115 0 0 1 1.315 1.826c.282.75.355 1.5.219 2.252a4.416 4.416 0 0 1-.91 2.01 4.221 4.221 0 0 1-1.83 1.303Zm-.972-2.583c.262-.099.477-.256.643-.473a1.69 1.69 0 0 0 .34-.73c.05-.276.027-.544-.072-.806a1.428 1.428 0 0 0-.473-.643 1.655 1.655 0 0 0-.742-.337 1.429 1.429 0 0 0-.794.069 1.49 1.49 0 0 0-.654.477 1.69 1.69 0 0 0-.325.737c-.053.268-.03.533.068.795s.257.48.477.654c.216.167.458.276.726.33.276.05.544.026.806-.073Zm-11.758-2.627a4.22 4.22 0 0 1-2.236.226 4.516 4.516 0 0 1-2.02-.907 4.243 4.243 0 0 1-1.309-1.84 4.071 4.071 0 0 1-.2-2.234 4.584 4.584 0 0 1 .93-2.029 4.09 4.09 0 0 1 1.792-1.303 4.092 4.092 0 0 1 2.229-.21c.749.128 1.422.43 2.02.906a4.114 4.114 0 0 1 1.316 1.826c.281.749.354 1.5.218 2.251a4.516 4.516 0 0 1-.922 2.014 4.157 4.157 0 0 1-1.818 1.3Zm-.972-2.583c.262-.099.476-.256.642-.473a1.69 1.69 0 0 0 .34-.73 1.48 1.48 0 0 0-.072-.807 1.428 1.428 0 0 0-.472-.642 1.654 1.654 0 0 0-.742-.337 1.428 1.428 0 0 0-.795.069 1.49 1.49 0 0 0-.654.476 1.691 1.691 0 0 0-.325.738 1.496 1.496 0 0 0 .545 1.449c.217.166.459.276.727.33.275.05.544.025.806-.073Z" fill="#23262F"/><g filter="url(#b)"><path d="M30.476 18.477c-5.5 2.5-12 9-12 17 9-1 15.5-12.5 12-17Z" fill="url(#c)"/></g><defs><filter id="a" x=".282" y=".427" width="79.153" height="82.008" filterUnits="userSpaceOnUse" color-interpolation-filters="sRGB"><feFlood flood-opacity="0" result="BackgroundImageFix"/><feColorMatrix in="SourceAlpha" values="0 0 0 0 0 0 0 0 0 0 0 0 0 0 0 0 0 0 127 0" result="hardAlpha"/><feOffset dx="2" dy="5"/><feGaussianBlur stdDeviation="10"/><feColorMatrix values="0 0 0 0 0.886275 0 0 0 0 0.704 0 0 0 0 0.235294 0 0 0 0.46 0"/><feBlend in2="BackgroundImageFix" result="effect1_dropShadow_0_4751"/><feBlend in="SourceGraphic" in2="effect1_dropShadow_0_4751" result="shape"/></filter><filter id="b" x="14.477" y="18.477" width="20.963" height="25" filterUnits="userSpaceOnUse" color-interpolation-filters="sRGB"><feFlood flood-opacity="0" result="BackgroundImageFix"/><feColorMatrix in="SourceAlpha" values="0 0 0 0 0 0 0 0 0 0 0 0 0 0 0 0 0 0 127 0" result="hardAlpha"/><feOffset dy="4"/><feGaussianBlur stdDeviation="2"/><feColorMatrix values="0 0 0 0 0 0 0 0 0 0 0 0 0 0 0 0 0 0 0.25 0"/><feBlend in2="BackgroundImageFix" result="effect1_dropShadow_0_4751"/><feBlend in="SourceGraphic" in2="effect1_dropShadow_0_4751" result="shape"/></filter><linearGradient id="c" x1="9.977" y1="23.977" x2="27.477" y2="32.977" gradientUnits="userSpaceOnUse"><stop stop-color="#A3A3A3"/><stop offset="1" stop-color="#fff"/></linearGradient></defs></svg>