<svg width="24" height="24" fill="none" xmlns="http://www.w3.org/2000/svg"><g clip-path="url(#a)" fill="#777E90"><path d="M16.254 7.746A6.052 6.052 0 0 0 12 5.968c-1.65 0-3.175.666-4.254 1.778a6.052 6.052 0 0 0-1.778 4.253c0 1.651.699 3.175 1.778 4.254A6.052 6.052 0 0 0 12 18.031c1.65 0 3.175-.666 4.254-1.777a6.053 6.053 0 0 0 1.778-4.255 5.92 5.92 0 0 0-1.778-4.253Zm-1.143 7.365A4.39 4.39 0 0 1 12 16.38a4.391 4.391 0 0 1-3.111-1.27 4.39 4.39 0 0 1-1.27-3.112c0-1.206.476-2.317 1.27-3.11A4.391 4.391 0 0 1 12 7.618a4.39 4.39 0 0 1 3.111 1.27 4.391 4.391 0 0 1 1.27 3.11 4.39 4.39 0 0 1-1.27 3.112Zm8.064-3.936H20.73a.84.84 0 0 0-.825.825c0 .445.38.826.825.826h2.445A.84.84 0 0 0 24 12a.84.84 0 0 0-.825-.825ZM12 19.904a.84.84 0 0 0-.825.826v2.444A.84.84 0 0 0 12 24a.84.84 0 0 0 .826-.826V20.73a.84.84 0 0 0-.826-.826Zm8.476-.57-1.746-1.746c-.286-.318-.825-.318-1.143 0a.805.805 0 0 0 0 1.143l1.746 1.746a.805.805 0 0 0 1.143 0 .805.805 0 0 0 0-1.143ZM12 0a.84.84 0 0 0-.825.825V3.27a.84.84 0 0 0 .825.825.84.84 0 0 0 .826-.825V.825A.84.84 0 0 0 12 0Zm8.508 3.524a.805.805 0 0 0-1.143 0L17.619 5.27a.805.805 0 0 0 0 1.143c.286.318.825.318 1.143 0l1.746-1.746a.805.805 0 0 0 0-1.143ZM3.27 11.175H.825A.84.84 0 0 0 0 12c0 .445.35.826.825.826H3.27A.84.84 0 0 0 4.095 12a.84.84 0 0 0-.825-.825Zm3.11 6.413c-.285-.318-.825-.318-1.142 0l-1.746 1.746a.805.805 0 0 0 0 1.143.805.805 0 0 0 1.143 0L6.38 18.73a.805.805 0 0 0 0-1.143Zm0-12.318L4.636 3.524a.805.805 0 0 0-1.143 0 .805.805 0 0 0 0 1.143l1.746 1.746a.805.805 0 0 0 1.143 0 .805.805 0 0 0 0-1.143Z"/></g><defs><clipPath id="a"><path fill="#fff" d="M0 0h24v24H0z"/></clipPath></defs></svg>