<svg width="720" height="1295" fill="none" xmlns="http://www.w3.org/2000/svg"><g opacity=".5" filter="url(#a)"><path d="M1147.29 499.203c6.6 12.112 5.42 27.806-2.52 45.908-7.94 18.093-22.61 38.504-42.83 59.961-40.44 42.909-103.026 89.916-178.175 130.832-75.15 40.916-148.597 67.975-206.585 78.657-28.997 5.341-54.1 6.582-73.605 3.431-19.514-3.153-33.334-10.683-39.929-22.796-6.595-12.112-5.42-27.806 2.523-45.907 7.938-18.094 22.603-38.505 42.826-59.962 40.441-42.909 103.028-89.916 178.177-130.832 75.15-40.916 148.597-67.975 206.588-78.656 28.99-5.342 54.1-6.582 73.6-3.431 19.52 3.152 33.34 10.682 39.93 22.795Z" stroke="url(#b)" shape-rendering="crispEdges"/></g><g opacity=".5" filter="url(#c)"><path d="M1292.16 420.329c10.16 18.661 8.32 42.802-3.86 70.569-12.18 27.76-34.67 59.057-65.66 91.942-61.99 65.766-157.9 137.801-273.053 200.497-115.153 62.697-227.708 104.166-316.586 120.537-44.441 8.187-82.934 10.093-112.86 5.258-29.934-4.836-51.204-16.398-61.365-35.06-10.16-18.661-8.329-42.801 3.855-70.569 12.179-27.759 34.669-59.056 65.663-91.942 61.984-65.766 157.897-137.801 273.05-200.497 115.154-62.697 227.706-104.165 316.586-120.537 44.44-8.186 82.93-10.092 112.86-5.258 29.93 4.836 51.2 16.398 61.37 35.06Z" stroke="url(#d)" shape-rendering="crispEdges"/></g><g opacity=".5" filter="url(#e)"><path d="M1455.66 331.306c14.19 26.054 11.61 59.726-5.36 98.403-16.96 38.669-48.28 82.253-91.44 128.037-86.29 91.564-219.82 191.845-380.123 279.125C818.433 924.15 661.74 981.882 538 1004.68c-61.873 11.39-115.478 14.05-157.165 7.31-41.696-6.73-71.375-22.844-85.56-48.897-14.185-26.053-11.612-59.726 5.358-98.403 16.966-38.669 48.288-82.252 91.439-128.036C478.369 645.09 611.896 544.808 772.2 457.529c160.303-87.28 317-145.012 440.74-167.805 61.87-11.397 115.47-14.054 157.16-7.319 41.7 6.736 71.38 22.848 85.56 48.901Z" stroke="url(#f)" shape-rendering="crispEdges"/></g><g opacity=".5" filter="url(#g)"><path d="M1617.33 243.284c18.16 33.361 14.86 76.46-6.84 125.924-21.7 49.456-61.76 105.188-116.93 163.726-110.34 117.072-281.06 245.285-486 356.871C802.608 1001.39 602.272 1075.2 444.059 1104.35c-79.109 14.57-147.657 17.97-200.973 9.36-53.324-8.62-91.318-29.23-109.483-62.59-18.164-33.37-14.858-76.464 6.845-125.928 21.699-49.456 61.754-105.188 116.925-163.726C367.712 644.394 538.43 516.181 743.378 404.595c204.947-111.586 405.282-185.399 563.492-214.543 79.11-14.572 147.66-17.971 200.98-9.357 53.32 8.615 91.32 29.227 109.48 62.589Z" stroke="url(#h)" shape-rendering="crispEdges"/></g><defs><radialGradient id="b" cx="0" cy="0" r="1" gradientUnits="userSpaceOnUse" gradientTransform="matrix(-414.80057 65.36404 -32.17823 -204.20323 875.468 647.2)"><stop stop-color="#fff"/><stop offset="1" stop-color="#fff" stop-opacity="0"/></radialGradient><radialGradient id="d" cx="0" cy="0" r="1" gradientUnits="userSpaceOnUse" gradientTransform="matrix(-635.5121 100.14364 -49.2999 -312.8575 875.466 647.201)"><stop stop-color="#fff"/><stop offset="1" stop-color="#fff" stop-opacity="0"/></radialGradient><radialGradient id="f" cx="0" cy="0" r="1" gradientUnits="userSpaceOnUse" gradientTransform="matrix(-884.61528 139.39718 -68.62416 -435.48928 875.468 647.2)"><stop stop-color="#fff"/><stop offset="1" stop-color="#fff" stop-opacity="0"/></radialGradient><radialGradient id="h" cx="0" cy="0" r="1" gradientUnits="userSpaceOnUse" gradientTransform="matrix(-1130.92494 178.21052 -87.73173 -556.74603 875.467 647.2)"><stop stop-color="#fff"/><stop offset="1" stop-color="#fff" stop-opacity="0"/></radialGradient><filter id="a" x="548.868" y="424.198" width="653.201" height="446.003" filterUnits="userSpaceOnUse" color-interpolation-filters="sRGB"><feFlood flood-opacity="0" result="BackgroundImageFix"/><feGaussianBlur in="BackgroundImageFix" stdDeviation="25"/><feComposite in2="SourceAlpha" operator="in" result="effect1_backgroundBlur_0_1849"/><feColorMatrix in="SourceAlpha" values="0 0 0 0 0 0 0 0 0 0 0 0 0 0 0 0 0 0 127 0" result="hardAlpha"/><feOffset dy="2"/><feGaussianBlur stdDeviation="1"/><feComposite in2="hardAlpha" operator="out"/><feColorMatrix values="0 0 0 0 0 0 0 0 0 0 0 0 0 0 0 0 0 0 0.25 0"/><feBlend in2="effect1_backgroundBlur_0_1849" result="effect2_dropShadow_0_1849"/><feBlend in="SourceGraphic" in2="effect2_dropShadow_0_1849" result="shape"/></filter><filter id="c" x="401.689" y="332.147" width="947.553" height="630.107" filterUnits="userSpaceOnUse" color-interpolation-filters="sRGB"><feFlood flood-opacity="0" result="BackgroundImageFix"/><feGaussianBlur in="BackgroundImageFix" stdDeviation="25"/><feComposite in2="SourceAlpha" operator="in" result="effect1_backgroundBlur_0_1849"/><feColorMatrix in="SourceAlpha" values="0 0 0 0 0 0 0 0 0 0 0 0 0 0 0 0 0 0 127 0" result="hardAlpha"/><feOffset dy="2"/><feGaussianBlur stdDeviation="1"/><feComposite in2="hardAlpha" operator="out"/><feColorMatrix values="0 0 0 0 0 0 0 0 0 0 0 0 0 0 0 0 0 0 0.25 0"/><feBlend in2="effect1_backgroundBlur_0_1849" result="effect2_dropShadow_0_1849"/><feBlend in="SourceGraphic" in2="effect2_dropShadow_0_1849" result="shape"/></filter><filter id="e" x="235.582" y="228.252" width="1279.77" height="837.896" filterUnits="userSpaceOnUse" color-interpolation-filters="sRGB"><feFlood flood-opacity="0" result="BackgroundImageFix"/><feGaussianBlur in="BackgroundImageFix" stdDeviation="25"/><feComposite in2="SourceAlpha" operator="in" result="effect1_backgroundBlur_0_1849"/><feColorMatrix in="SourceAlpha" values="0 0 0 0 0 0 0 0 0 0 0 0 0 0 0 0 0 0 127 0" result="hardAlpha"/><feOffset dy="2"/><feGaussianBlur stdDeviation="1"/><feComposite in2="hardAlpha" operator="out"/><feColorMatrix values="0 0 0 0 0 0 0 0 0 0 0 0 0 0 0 0 0 0 0.25 0"/><feBlend in2="effect1_backgroundBlur_0_1849" result="effect2_dropShadow_0_1849"/><feBlend in="SourceGraphic" in2="effect2_dropShadow_0_1849" result="shape"/></filter><filter id="g" x="71.334" y="125.523" width="1608.27" height="1043.35" filterUnits="userSpaceOnUse" color-interpolation-filters="sRGB"><feFlood flood-opacity="0" result="BackgroundImageFix"/><feGaussianBlur in="BackgroundImageFix" stdDeviation="25"/><feComposite in2="SourceAlpha" operator="in" result="effect1_backgroundBlur_0_1849"/><feColorMatrix in="SourceAlpha" values="0 0 0 0 0 0 0 0 0 0 0 0 0 0 0 0 0 0 127 0" result="hardAlpha"/><feOffset dy="2"/><feGaussianBlur stdDeviation="1"/><feComposite in2="hardAlpha" operator="out"/><feColorMatrix values="0 0 0 0 0 0 0 0 0 0 0 0 0 0 0 0 0 0 0.25 0"/><feBlend in2="effect1_backgroundBlur_0_1849" result="effect2_dropShadow_0_1849"/><feBlend in="SourceGraphic" in2="effect2_dropShadow_0_1849" result="shape"/></filter></defs></svg>