<svg width="1041" height="1295" fill="none" xmlns="http://www.w3.org/2000/svg"><g opacity=".5" filter="url(#a)"><path d="M437.454 499.203c6.595 12.112 5.42 27.806-2.522 45.908-7.939 18.093-22.604 38.504-42.826 59.961-40.441 42.909-103.028 89.916-178.177 130.832-75.15 40.916-148.597 67.975-206.585 78.657-28.997 5.341-54.1 6.582-73.605 3.431-19.514-3.153-33.334-10.683-39.929-22.796-6.594-12.112-5.419-27.806 2.523-45.907 7.938-18.094 22.603-38.505 42.826-59.962 40.441-42.909 103.028-89.916 178.177-130.832 75.15-40.916 148.597-67.975 206.585-78.656 28.997-5.342 54.099-6.582 73.605-3.431 19.514 3.152 33.334 10.682 39.928 22.795Z" stroke="url(#b)" shape-rendering="crispEdges"/></g><g opacity=".5" filter="url(#c)"><path d="M582.827 420.372c10.161 18.661 8.329 42.801-3.854 70.569-12.18 27.76-34.67 59.057-65.664 91.942-61.983 65.766-157.896 137.801-273.05 200.497C125.106 846.077 12.551 887.546-76.327 903.917c-44.441 8.187-82.934 10.092-112.86 5.258-29.934-4.836-51.204-16.398-61.365-35.06-10.16-18.661-8.329-42.801 3.854-70.569 12.18-27.759 34.67-59.056 65.664-91.942 61.984-65.766 157.897-137.801 273.05-200.497C207.17 448.41 319.725 406.941 408.602 390.57c44.442-8.187 82.934-10.092 112.86-5.258 29.935 4.836 51.205 16.398 61.365 35.06Z" stroke="url(#d)" shape-rendering="crispEdges"/></g><g opacity=".5" filter="url(#e)"><path d="M746.333 331.349c14.185 26.054 11.612 59.726-5.357 98.403-16.967 38.669-48.289 82.253-91.44 128.037-86.297 91.564-219.823 191.845-380.127 279.125-160.304 87.279-316.997 145.011-440.737 167.806-61.873 11.4-115.479 14.05-157.166 7.32-41.695-6.74-71.374-22.851-85.559-48.904-14.185-26.053-11.612-59.726 5.358-98.403 16.966-38.669 48.288-82.252 91.439-128.036 86.297-91.564 219.824-191.846 380.127-279.126C223.175 370.292 379.868 312.56 503.61 289.767c61.873-11.397 115.478-14.054 157.165-7.319 41.695 6.736 71.374 22.848 85.559 48.901Z" stroke="url(#f)" shape-rendering="crispEdges"/></g><g opacity=".5" filter="url(#g)"><path d="M907.494 243.284c18.165 33.361 14.859 76.46-6.844 125.924-21.699 49.456-61.754 105.188-116.925 163.726C673.386 650.006 502.668 778.219 297.72 889.805 92.772 1001.39-107.564 1075.2-265.777 1104.35c-79.108 14.57-147.657 17.97-200.973 9.36-53.324-8.62-91.318-29.23-109.482-62.59-18.165-33.37-14.859-76.464 6.844-125.928 21.699-49.456 61.754-105.188 116.925-163.726 110.339-117.072 281.057-245.285 486.005-356.871C238.49 293.009 438.826 219.196 597.038 190.052c79.109-14.572 147.658-17.971 200.974-9.357 53.324 8.615 91.318 29.227 109.482 62.589Z" stroke="url(#h)" shape-rendering="crispEdges"/></g><defs><radialGradient id="b" cx="0" cy="0" r="1" gradientUnits="userSpaceOnUse" gradientTransform="matrix(-414.80057 65.36404 -32.17823 -204.20323 165.632 647.2)"><stop stop-color="#fff"/><stop offset="1" stop-color="#fff" stop-opacity="0"/></radialGradient><radialGradient id="d" cx="0" cy="0" r="1" gradientUnits="userSpaceOnUse" gradientTransform="matrix(-635.5121 100.14364 -49.2999 -312.8575 166.138 647.244)"><stop stop-color="#fff"/><stop offset="1" stop-color="#fff" stop-opacity="0"/></radialGradient><radialGradient id="f" cx="0" cy="0" r="1" gradientUnits="userSpaceOnUse" gradientTransform="matrix(-884.61528 139.39718 -68.62416 -435.48928 166.14 647.243)"><stop stop-color="#fff"/><stop offset="1" stop-color="#fff" stop-opacity="0"/></radialGradient><radialGradient id="h" cx="0" cy="0" r="1" gradientUnits="userSpaceOnUse" gradientTransform="matrix(-1130.92494 178.21052 -87.73173 -556.74603 165.631 647.2)"><stop stop-color="#fff"/><stop offset="1" stop-color="#fff" stop-opacity="0"/></radialGradient><filter id="a" x="-160.968" y="424.198" width="653.201" height="446.003" filterUnits="userSpaceOnUse" color-interpolation-filters="sRGB"><feFlood flood-opacity="0" result="BackgroundImageFix"/><feGaussianBlur in="BackgroundImageFix" stdDeviation="25"/><feComposite in2="SourceAlpha" operator="in" result="effect1_backgroundBlur_0_1843"/><feColorMatrix in="SourceAlpha" values="0 0 0 0 0 0 0 0 0 0 0 0 0 0 0 0 0 0 127 0" result="hardAlpha"/><feOffset dy="2"/><feGaussianBlur stdDeviation="1"/><feComposite in2="hardAlpha" operator="out"/><feColorMatrix values="0 0 0 0 0 0 0 0 0 0 0 0 0 0 0 0 0 0 0.25 0"/><feBlend in2="effect1_backgroundBlur_0_1843" result="effect2_dropShadow_0_1843"/><feBlend in="SourceGraphic" in2="effect2_dropShadow_0_1843" result="shape"/></filter><filter id="c" x="-307.639" y="332.19" width="947.553" height="630.107" filterUnits="userSpaceOnUse" color-interpolation-filters="sRGB"><feFlood flood-opacity="0" result="BackgroundImageFix"/><feGaussianBlur in="BackgroundImageFix" stdDeviation="25"/><feComposite in2="SourceAlpha" operator="in" result="effect1_backgroundBlur_0_1843"/><feColorMatrix in="SourceAlpha" values="0 0 0 0 0 0 0 0 0 0 0 0 0 0 0 0 0 0 127 0" result="hardAlpha"/><feOffset dy="2"/><feGaussianBlur stdDeviation="1"/><feComposite in2="hardAlpha" operator="out"/><feColorMatrix values="0 0 0 0 0 0 0 0 0 0 0 0 0 0 0 0 0 0 0.25 0"/><feBlend in2="effect1_backgroundBlur_0_1843" result="effect2_dropShadow_0_1843"/><feBlend in="SourceGraphic" in2="effect2_dropShadow_0_1843" result="shape"/></filter><filter id="e" x="-473.746" y="228.295" width="1279.77" height="837.896" filterUnits="userSpaceOnUse" color-interpolation-filters="sRGB"><feFlood flood-opacity="0" result="BackgroundImageFix"/><feGaussianBlur in="BackgroundImageFix" stdDeviation="25"/><feComposite in2="SourceAlpha" operator="in" result="effect1_backgroundBlur_0_1843"/><feColorMatrix in="SourceAlpha" values="0 0 0 0 0 0 0 0 0 0 0 0 0 0 0 0 0 0 127 0" result="hardAlpha"/><feOffset dy="2"/><feGaussianBlur stdDeviation="1"/><feComposite in2="hardAlpha" operator="out"/><feColorMatrix values="0 0 0 0 0 0 0 0 0 0 0 0 0 0 0 0 0 0 0.25 0"/><feBlend in2="effect1_backgroundBlur_0_1843" result="effect2_dropShadow_0_1843"/><feBlend in="SourceGraphic" in2="effect2_dropShadow_0_1843" result="shape"/></filter><filter id="g" x="-638.502" y="125.523" width="1608.27" height="1043.35" filterUnits="userSpaceOnUse" color-interpolation-filters="sRGB"><feFlood flood-opacity="0" result="BackgroundImageFix"/><feGaussianBlur in="BackgroundImageFix" stdDeviation="25"/><feComposite in2="SourceAlpha" operator="in" result="effect1_backgroundBlur_0_1843"/><feColorMatrix in="SourceAlpha" values="0 0 0 0 0 0 0 0 0 0 0 0 0 0 0 0 0 0 127 0" result="hardAlpha"/><feOffset dy="2"/><feGaussianBlur stdDeviation="1"/><feComposite in2="hardAlpha" operator="out"/><feColorMatrix values="0 0 0 0 0 0 0 0 0 0 0 0 0 0 0 0 0 0 0.25 0"/><feBlend in2="effect1_backgroundBlur_0_1843" result="effect2_dropShadow_0_1843"/><feBlend in="SourceGraphic" in2="effect2_dropShadow_0_1843" result="shape"/></filter></defs></svg>