<svg width="20" height="20" viewBox="0 0 20 20" fill="none" xmlns="http://www.w3.org/2000/svg">
<path d="M6.00146 6.00147C6.66152 5.88432 7.43385 5.83333 8.33363 5.83333C12.8704 5.83333 14.1667 7.12963 14.1667 11.6667C14.1667 12.5652 14.1139 13.3365 13.9944 13.996M6.00146 6.00147C6.33674 4.11246 7.21389 3.14319 8.98815 2.73816C9.7201 2.57107 10.6047 2.5 11.667 2.5C16.2037 2.5 17.5 3.7963 17.5 8.33333C17.5 9.39383 17.4265 10.2773 17.2564 11.0085C16.8444 12.7806 15.8658 13.6586 13.9944 13.996M6.00146 6.00147C5.88228 6.02263 5.76676 6.04594 5.65482 6.07149C3.26068 6.61803 2.5 8.19194 2.5 11.6667C2.5 16.2037 3.84675 17.5 8.33363 17.5C11.7717 17.5 13.3658 16.7389 13.9231 14.3418C13.9491 14.2301 13.9728 14.1148 13.9944 13.996" stroke="#FCFCFD" stroke-width="1.6" stroke-linecap="round" stroke-linejoin="round"/>
</svg>
