<svg width="40" height="40" viewBox="0 0 40 40" fill="none" xmlns="http://www.w3.org/2000/svg">
<path d="M13.8493 24.529C18.6331 26.3959 22.7042 26.7595 27.3175 23.8536C27.2837 23.9043 26.3711 25.2563 23.9713 25.9492C24.4783 26.6421 25.1712 27.4363 25.1712 27.4363C26.7091 27.4363 28.2132 26.9969 29.5144 26.152C30.5284 25.4759 31.103 24.3099 30.9847 23.0931C30.7819 21.0144 30.2918 18.9865 29.5313 17.0431C28.5681 14.5081 26.2528 12.7505 23.5658 12.497C23.3291 12.4801 23.1602 12.4801 23.0588 12.4801L22.7884 12.7505C25.881 13.6293 27.4189 14.9981 27.4527 15.0489C22.7039 12.6491 17.0932 12.6153 12.3105 14.9475C12.3105 14.9475 13.8315 13.4434 17.1945 12.6491L16.9918 12.4463C16.6368 12.4463 16.2988 12.4801 15.944 12.5308C13.4597 12.9533 11.3811 14.6601 10.4854 17.0092C9.70798 19.0372 9.201 21.1665 9.01512 23.3297C8.91372 24.4788 9.45451 25.6112 10.4009 26.2703C11.6515 27.0983 13.1386 27.5377 14.6427 27.5377C14.6427 27.5377 15.2511 26.7434 15.8595 26.0336C13.578 25.3576 12.6485 24.0057 12.6316 23.955L13.061 24.1742C13.3177 24.3054 13.5808 24.4242 13.8493 24.529ZM16.5017 23.0593C15.4032 23.0255 14.5413 22.096 14.5751 20.9806C14.6089 19.9329 15.4539 19.0879 16.5017 19.0541C17.6002 19.0879 18.4621 20.0173 18.4282 21.1327C18.3775 22.1806 17.5495 23.0255 16.5017 23.0593ZM23.3967 23.0593C22.2982 23.0255 21.4363 22.096 21.4702 20.9806C21.504 19.9329 22.349 19.0879 23.3967 19.0541C24.4952 19.0879 25.3571 20.0173 25.3233 21.1327C25.2895 22.1806 24.4445 23.0255 23.3967 23.0593Z" fill="#B1B5C3"/>
</svg>
