<svg width="40" height="40" viewBox="0 0 40 40" fill="none" xmlns="http://www.w3.org/2000/svg">
<g clip-path="url(#clip0_122_413)">
<path d="M24.254 15.7456C23.1746 14.6662 21.6508 13.9678 20 13.9678C18.3492 13.9678 16.8254 14.6344 15.746 15.7456C14.6667 16.8249 13.9683 18.3487 13.9683 19.9995C13.9683 21.6503 14.6667 23.1741 15.746 24.2535C16.8254 25.3329 18.3492 26.0313 20 26.0313C21.6508 26.0313 23.1746 25.3646 24.254 24.2535C25.3333 23.1741 26.0318 21.6503 26.0318 19.9995C26.0318 18.3487 25.3651 16.8249 24.254 15.7456ZM23.1111 23.1106C22.3175 23.9043 21.2064 24.3805 20 24.3805C18.7937 24.3805 17.6825 23.9043 16.8889 23.1106C16.0952 22.317 15.6191 21.2059 15.6191 19.9995C15.6191 18.7932 16.0952 17.6821 16.8889 16.8884C17.6825 16.0948 18.7937 15.6186 20 15.6186C21.2064 15.6186 22.3175 16.0948 23.1111 16.8884C23.9048 17.6821 24.381 18.7932 24.381 19.9995C24.381 21.2059 23.9048 22.317 23.1111 23.1106Z" fill="#777E90"/>
<path d="M31.1746 19.1748H28.7302C28.2857 19.1748 27.9048 19.5558 27.9048 20.0002C27.9048 20.4446 28.2857 20.8256 28.7302 20.8256H31.1746C31.6191 20.8256 32 20.4446 32 20.0002C32 19.5558 31.6191 19.1748 31.1746 19.1748Z" fill="#777E90"/>
<path d="M20.0002 27.9043C19.5558 27.9043 19.1748 28.2853 19.1748 28.7297V31.1742C19.1748 31.6186 19.5558 31.9995 20.0002 31.9995C20.4446 31.9995 20.8256 31.6186 20.8256 31.1742V28.7297C20.8256 28.2853 20.4446 27.9043 20.0002 27.9043Z" fill="#777E90"/>
<path d="M28.4761 27.3337L26.7301 25.5877C26.4444 25.2702 25.9047 25.2702 25.5872 25.5877C25.2698 25.9052 25.2698 26.4131 25.5872 26.7306L27.3332 28.4766C27.6507 28.7941 28.1586 28.7941 28.4761 28.4766C28.7936 28.1591 28.7936 27.6512 28.4761 27.3337Z" fill="#777E90"/>
<path d="M20.0002 8C19.5558 8 19.1748 8.38095 19.1748 8.8254V11.2698C19.1748 11.7143 19.5558 12.0952 20.0002 12.0952C20.4446 12.0952 20.8256 11.7143 20.8256 11.2698V8.8254C20.8256 8.38095 20.4446 8 20.0002 8Z" fill="#777E90"/>
<path d="M28.5078 11.5242C28.1904 11.2068 27.6824 11.2068 27.365 11.5242L25.619 13.2703C25.3015 13.5877 25.3015 14.0957 25.619 14.4131C25.9047 14.7306 26.4444 14.7306 26.7618 14.4131L28.5078 12.6671C28.8253 12.3496 28.8253 11.8417 28.5078 11.5242Z" fill="#777E90"/>
<path d="M11.2698 19.1748H8.8254C8.38095 19.1748 8 19.5558 8 20.0002C8 20.4446 8.34921 20.8256 8.8254 20.8256H11.2698C11.7143 20.8256 12.0952 20.4446 12.0952 20.0002C12.0952 19.5558 11.7143 19.1748 11.2698 19.1748Z" fill="#777E90"/>
<path d="M14.3809 25.5877C14.0952 25.2702 13.5555 25.2702 13.238 25.5877L11.492 27.3337C11.1745 27.6512 11.1745 28.1591 11.492 28.4766C11.8095 28.7941 12.3174 28.7941 12.6349 28.4766L14.3809 26.7306C14.6984 26.4131 14.6984 25.9052 14.3809 25.5877Z" fill="#777E90"/>
<path d="M14.3809 13.2703L12.6349 11.5242C12.3174 11.2068 11.8095 11.2068 11.492 11.5242C11.1745 11.8417 11.1745 12.3496 11.492 12.6671L13.238 14.4131C13.5555 14.7306 14.0634 14.7306 14.3809 14.4131C14.6984 14.0957 14.6984 13.5877 14.3809 13.2703Z" fill="#777E90"/>
</g>
<defs>
<clipPath id="clip0_122_413">
<rect width="24" height="24" fill="white" transform="translate(8 8)"/>
</clipPath>
</defs>
</svg>
