<svg width="78" height="32" viewBox="0 0 78 32" fill="none" xmlns="http://www.w3.org/2000/svg">
<g clip-path="url(#clip0_14_887)">
<path d="M10.0696 27.119C5.40097 27.119 1.2381 19.7288 1.2381 19.7288L1.58277 17.043C1.58277 17.043 0.647243 15.2167 0.714386 15.0153C0.781529 14.8139 1.72601 14.9258 1.72601 14.9258C1.01877 12.3564 0.781529 9.06197 0.781529 9.06197C0.848672 8.41739 2.0662 9.60359 2.80925 9.97511C3.5523 10.3466 3.53887 0.96452 4.4162 0.0513751C5.29354 -0.86177 7.7644 10.7003 7.7644 10.7003C7.7644 10.7003 10.1144 9.38425 12.3749 10.7003C12.3749 10.7003 14.8413 -0.86177 15.7231 0.0513751C16.6049 0.96452 16.587 10.3466 17.33 9.97511C18.0731 9.60359 19.2906 8.41739 19.3578 9.06197C19.3578 9.06197 19.1205 12.352 18.4133 14.9213C18.4133 14.9213 19.3578 14.8094 19.4249 15.0108C19.492 15.2123 18.5565 17.0386 18.5565 17.0386L18.9012 19.7243C18.9012 19.7332 14.7383 27.119 10.0696 27.119Z" fill="url(#paint0_linear_14_887)"/>
</g>
<path d="M40.4 8H42.46V22H40.18V12.2L35.76 18.84H34.4L29.98 12.18V22H27.7V8H29.76L35.08 16.02L40.4 8ZM46.4241 17.7C46.1174 16.8467 45.9641 15.9467 45.9641 15C45.9641 14.0533 46.1174 13.1533 46.4241 12.3C46.7441 11.4467 47.1974 10.68 47.7841 10C48.3707 9.30667 49.1441 8.76 50.1041 8.36C51.0641 7.94667 52.1374 7.74 53.3241 7.74C54.5107 7.74 55.5774 7.94667 56.5241 8.36C57.4841 8.76 58.2574 9.30667 58.8441 10C59.4441 10.68 59.8974 11.4467 60.2041 12.3C60.5241 13.1533 60.6841 14.0533 60.6841 15C60.6841 15.9467 60.5241 16.8467 60.2041 17.7C59.8974 18.5533 59.4441 19.3267 58.8441 20.02C58.2574 20.7 57.4841 21.2467 56.5241 21.66C55.5774 22.06 54.5107 22.26 53.3241 22.26C52.1374 22.26 51.0641 22.06 50.1041 21.66C49.1441 21.2467 48.3707 20.7 47.7841 20.02C47.1974 19.3267 46.7441 18.5533 46.4241 17.7ZM57.0441 18.64C57.9241 17.6533 58.3641 16.44 58.3641 15C58.3641 13.56 57.9241 12.3467 57.0441 11.36C56.1774 10.3733 54.9374 9.88 53.3241 9.88C51.7241 9.88 50.4841 10.3733 49.6041 11.36C48.7241 12.3467 48.2841 13.56 48.2841 15C48.2841 16.44 48.7241 17.6533 49.6041 18.64C50.4841 19.6267 51.7241 20.12 53.3241 20.12C54.9374 20.12 56.1774 19.6267 57.0441 18.64ZM66.4722 22H64.1922V8H66.3322L73.8722 18.24C73.8589 17.92 73.8522 17.4067 73.8522 16.7V8H76.1322V22H73.9922L66.4522 11.76C66.4655 12.08 66.4722 12.5867 66.4722 13.28V22Z" fill="#FCFCFD"/>
<defs>
<linearGradient id="paint0_linear_14_887" x1="0.710937" y1="13.5595" x2="19.4284" y2="13.5595" gradientUnits="userSpaceOnUse">
<stop stop-color="#CF64FF"/>
<stop offset="1" stop-color="#FF6F26"/>
</linearGradient>
<clipPath id="clip0_14_887">
<rect width="19.0385" height="27.5" fill="white" transform="translate(0.384766)"/>
</clipPath>
</defs>
</svg>
