<svg width="1077" height="1077" viewBox="0 0 1077 1077" fill="none" xmlns="http://www.w3.org/2000/svg">
<circle cx="538.2" cy="538.2" r="275.919" transform="rotate(-150 538.2 538.2)" stroke="url(#paint0_linear_0_3538)" stroke-width="1.26279"/>
<circle cx="538.2" cy="538.2" r="393.358" transform="rotate(-30 538.2 538.2)" stroke="url(#paint1_linear_0_3538)" stroke-width="1.26279"/>
<rect x="287" y="165" width="145" height="42" rx="21" fill="url(#paint2_linear_0_3538)"/>
<path d="M314.48 175C314.369 175.004 314.261 175.037 314.164 175.097C314.066 175.156 313.983 175.241 313.921 175.344L308.322 184.56C308.265 184.653 308.227 184.758 308.21 184.869C308.193 184.979 308.197 185.093 308.222 185.201C308.247 185.31 308.293 185.411 308.356 185.498C308.419 185.586 308.497 185.657 308.587 185.707L314.186 188.845C314.283 188.899 314.391 188.928 314.499 188.928C314.608 188.928 314.715 188.899 314.812 188.845L320.412 185.707C320.501 185.657 320.58 185.586 320.643 185.498C320.706 185.411 320.751 185.31 320.776 185.201C320.802 185.093 320.806 184.979 320.789 184.869C320.771 184.758 320.733 184.653 320.677 184.56L315.078 175.344C315.012 175.235 314.922 175.147 314.818 175.087C314.714 175.026 314.597 174.997 314.48 175ZM314.499 177.179V182.857L319.062 184.708L314.499 187.264V182.857L310.003 184.58L314.499 177.179ZM308.874 187.571C308.744 187.576 308.618 187.622 308.51 187.703C308.403 187.784 308.317 187.897 308.263 188.029C308.209 188.162 308.189 188.308 308.205 188.453C308.22 188.598 308.272 188.734 308.353 188.848L313.952 196.705C314.018 196.797 314.101 196.871 314.196 196.922C314.291 196.973 314.394 197 314.499 197C314.604 197 314.708 196.973 314.803 196.922C314.897 196.871 314.98 196.797 315.046 196.705L320.645 188.848C320.745 188.708 320.8 188.534 320.799 188.355C320.799 188.176 320.744 188.002 320.644 187.863C320.543 187.723 320.403 187.626 320.247 187.589C320.091 187.551 319.928 187.574 319.786 187.654L314.499 190.622L309.213 187.654C309.108 187.595 308.991 187.566 308.874 187.571ZM311.438 190.66L314.186 192.202C314.283 192.257 314.391 192.285 314.499 192.285V194.955L311.438 190.66Z" fill="#FCFCFD"/>
<path d="M332.59 193V180.04H340.87V181.813H334.471V185.449H339.79V187.222H334.471V191.227H340.87V193H332.59ZM348.593 193C347.981 193.12 347.381 193.171 346.793 193.153C346.205 193.135 345.68 193.021 345.218 192.811C344.756 192.601 344.408 192.271 344.174 191.821C343.964 191.419 343.85 191.011 343.832 190.597C343.82 190.177 343.814 189.703 343.814 189.175V180.58H345.704V189.085C345.704 189.475 345.707 189.814 345.713 190.102C345.725 190.39 345.788 190.633 345.902 190.831C346.118 191.203 346.46 191.416 346.928 191.47C347.402 191.518 347.957 191.497 348.593 191.407V193ZM341.951 184.792V183.28H348.593V184.792H341.951ZM357.465 193V188.221C357.465 187.843 357.432 187.456 357.366 187.06C357.306 186.658 357.186 186.286 357.006 185.944C356.832 185.602 356.583 185.326 356.259 185.116C355.941 184.906 355.524 184.801 355.008 184.801C354.672 184.801 354.354 184.858 354.054 184.972C353.754 185.08 353.49 185.257 353.262 185.503C353.04 185.749 352.863 186.073 352.731 186.475C352.605 186.877 352.542 187.366 352.542 187.942L351.372 187.501C351.372 186.619 351.537 185.842 351.867 185.17C352.197 184.492 352.671 183.964 353.289 183.586C353.907 183.208 354.654 183.019 355.53 183.019C356.202 183.019 356.766 183.127 357.222 183.343C357.678 183.559 358.047 183.844 358.329 184.198C358.617 184.546 358.836 184.927 358.986 185.341C359.136 185.755 359.238 186.16 359.292 186.556C359.346 186.952 359.373 187.3 359.373 187.6V193H357.465ZM350.634 193V180.04H352.317V187.033H352.542V193H350.634ZM366.028 193.27C365.062 193.27 364.213 193.06 363.481 192.64C362.755 192.214 362.188 191.623 361.78 190.867C361.378 190.105 361.177 189.223 361.177 188.221C361.177 187.159 361.375 186.238 361.771 185.458C362.173 184.678 362.731 184.075 363.445 183.649C364.159 183.223 364.99 183.01 365.938 183.01C366.928 183.01 367.771 183.241 368.467 183.703C369.163 184.159 369.682 184.81 370.024 185.656C370.372 186.502 370.51 187.507 370.438 188.671H368.557V187.987C368.545 186.859 368.329 186.025 367.909 185.485C367.495 184.945 366.862 184.675 366.01 184.675C365.068 184.675 364.36 184.972 363.886 185.566C363.412 186.16 363.175 187.018 363.175 188.14C363.175 189.208 363.412 190.036 363.886 190.624C364.36 191.206 365.044 191.497 365.938 191.497C366.526 191.497 367.033 191.365 367.459 191.101C367.891 190.831 368.227 190.447 368.467 189.949L370.312 190.534C369.934 191.404 369.361 192.079 368.593 192.559C367.825 193.033 366.97 193.27 366.028 193.27ZM362.563 188.671V187.204H369.502V188.671H362.563ZM372.457 193V183.28H374.131V185.638L373.897 185.332C374.017 185.02 374.173 184.735 374.365 184.477C374.557 184.213 374.779 183.997 375.031 183.829C375.277 183.649 375.55 183.511 375.85 183.415C376.156 183.313 376.468 183.253 376.786 183.235C377.104 183.211 377.41 183.226 377.704 183.28V185.044C377.386 184.96 377.032 184.936 376.642 184.972C376.258 185.008 375.904 185.131 375.58 185.341C375.274 185.539 375.031 185.779 374.851 186.061C374.677 186.343 374.551 186.658 374.473 187.006C374.395 187.348 374.356 187.711 374.356 188.095V193H372.457ZM383.553 193.27C382.587 193.27 381.738 193.06 381.006 192.64C380.28 192.214 379.713 191.623 379.305 190.867C378.903 190.105 378.702 189.223 378.702 188.221C378.702 187.159 378.9 186.238 379.296 185.458C379.698 184.678 380.256 184.075 380.97 183.649C381.684 183.223 382.515 183.01 383.463 183.01C384.453 183.01 385.296 183.241 385.992 183.703C386.688 184.159 387.207 184.81 387.549 185.656C387.897 186.502 388.035 187.507 387.963 188.671H386.082V187.987C386.07 186.859 385.854 186.025 385.434 185.485C385.02 184.945 384.387 184.675 383.535 184.675C382.593 184.675 381.885 184.972 381.411 185.566C380.937 186.16 380.7 187.018 380.7 188.14C380.7 189.208 380.937 190.036 381.411 190.624C381.885 191.206 382.569 191.497 383.463 191.497C384.051 191.497 384.558 191.365 384.984 191.101C385.416 190.831 385.752 190.447 385.992 189.949L387.837 190.534C387.459 191.404 386.886 192.079 386.118 192.559C385.35 193.033 384.495 193.27 383.553 193.27ZM380.088 188.671V187.204H387.027V188.671H380.088ZM393.646 193.261C392.974 193.261 392.41 193.153 391.954 192.937C391.498 192.721 391.126 192.439 390.838 192.091C390.556 191.737 390.34 191.353 390.19 190.939C390.04 190.525 389.938 190.12 389.884 189.724C389.83 189.328 389.803 188.98 389.803 188.68V183.28H391.711V188.059C391.711 188.437 391.741 188.827 391.801 189.229C391.867 189.625 391.987 189.994 392.161 190.336C392.341 190.678 392.59 190.954 392.908 191.164C393.232 191.374 393.652 191.479 394.168 191.479C394.504 191.479 394.822 191.425 395.122 191.317C395.422 191.203 395.683 191.023 395.905 190.777C396.133 190.531 396.31 190.207 396.436 189.805C396.568 189.403 396.634 188.914 396.634 188.338L397.804 188.779C397.804 189.661 397.639 190.441 397.309 191.119C396.979 191.791 396.505 192.316 395.887 192.694C395.269 193.072 394.522 193.261 393.646 193.261ZM396.859 193V190.192H396.634V183.28H398.533V193H396.859ZM412.703 193L412.712 186.943C412.712 186.241 412.532 185.695 412.172 185.305C411.812 184.909 411.338 184.711 410.75 184.711C410.39 184.711 410.06 184.795 409.76 184.963C409.466 185.125 409.226 185.371 409.04 185.701C408.86 186.025 408.77 186.433 408.77 186.925L407.861 186.466C407.849 185.782 407.993 185.182 408.293 184.666C408.599 184.15 409.013 183.751 409.535 183.469C410.057 183.181 410.642 183.037 411.29 183.037C412.34 183.037 413.153 183.352 413.729 183.982C414.305 184.612 414.593 185.449 414.593 186.493L414.584 193H412.703ZM401.048 193V183.28H402.722V186.088H402.938V193H401.048ZM406.88 193L406.889 186.979C406.889 186.271 406.709 185.716 406.349 185.314C405.995 184.912 405.518 184.711 404.918 184.711C404.324 184.711 403.844 184.915 403.478 185.323C403.118 185.731 402.938 186.265 402.938 186.925L402.038 186.349C402.038 185.713 402.191 185.146 402.497 184.648C402.803 184.15 403.217 183.757 403.739 183.469C404.261 183.181 404.852 183.037 405.512 183.037C406.202 183.037 406.79 183.184 407.276 183.478C407.762 183.766 408.131 184.171 408.383 184.693C408.641 185.215 408.77 185.821 408.77 186.511L408.761 193H406.88Z" fill="#FCFCFD"/>
<rect x="649" y="160" width="96" height="42" rx="21" fill="url(#paint3_linear_0_3538)" fill-opacity="0.9"/>
<path d="M677.18 176.74L679.967 179.527C680.067 179.627 680.229 179.627 680.33 179.527L681.798 178.058C681.899 177.957 681.899 177.795 681.798 177.695L677.18 173.075C677.08 172.975 676.917 172.975 676.817 173.075L672.2 177.693C672.1 177.793 672.1 177.956 672.2 178.056L673.669 179.525C673.769 179.625 673.932 179.625 674.032 179.525L676.817 176.74C676.917 176.639 677.08 176.639 677.18 176.74Z" fill="#23262F"/>
<path d="M670.544 179.35L669.075 180.819C668.975 180.919 668.975 181.081 669.075 181.182L670.544 182.651C670.644 182.751 670.807 182.751 670.907 182.651L672.376 181.182C672.476 181.081 672.476 180.919 672.376 180.819L670.907 179.35C670.807 179.249 670.644 179.249 670.544 179.35Z" fill="#23262F"/>
<path d="M677.182 188.925L681.802 184.305C681.902 184.205 681.902 184.042 681.801 183.942L680.332 182.474C680.232 182.373 680.069 182.373 679.969 182.474L677.182 185.261C677.082 185.361 676.92 185.361 676.819 185.261L674.034 182.475C673.934 182.375 673.772 182.375 673.671 182.475L672.2 183.942C672.1 184.042 672.1 184.205 672.2 184.305L676.819 188.925C676.92 189.025 677.082 189.025 677.182 188.925Z" fill="#23262F"/>
<path d="M683.091 179.351L681.622 180.82C681.522 180.92 681.522 181.082 681.622 181.183L683.091 182.652C683.191 182.752 683.354 182.752 683.454 182.652L684.923 181.183C685.023 181.082 685.023 180.92 684.923 180.82L683.454 179.351C683.354 179.25 683.191 179.25 683.091 179.351Z" fill="#23262F"/>
<path d="M678.678 180.818L677.181 179.321C677.081 179.221 676.918 179.221 676.818 179.321L675.321 180.818C675.221 180.919 675.221 181.081 675.321 181.181L676.818 182.678C676.918 182.779 677.081 182.779 677.181 182.678L678.678 181.181C678.778 181.081 678.778 180.919 678.678 180.818Z" fill="#23262F"/>
<path d="M694.656 188V175.04H699.75C700.572 175.04 701.262 175.208 701.82 175.544C702.378 175.88 702.798 176.315 703.08 176.849C703.362 177.377 703.503 177.935 703.503 178.523C703.503 179.237 703.326 179.849 702.972 180.359C702.624 180.869 702.153 181.217 701.559 181.403L701.541 180.962C702.369 181.166 703.005 181.565 703.449 182.159C703.893 182.747 704.115 183.434 704.115 184.22C704.115 184.982 703.962 185.645 703.656 186.209C703.356 186.773 702.915 187.214 702.333 187.532C701.757 187.844 701.058 188 700.236 188H694.656ZM696.564 186.209H699.948C700.374 186.209 700.755 186.128 701.091 185.966C701.433 185.804 701.7 185.573 701.892 185.273C702.09 184.967 702.189 184.604 702.189 184.184C702.189 183.794 702.102 183.443 701.928 183.131C701.76 182.813 701.514 182.564 701.19 182.384C700.872 182.198 700.497 182.105 700.065 182.105H696.564V186.209ZM696.564 180.332H699.723C700.071 180.332 700.383 180.263 700.659 180.125C700.941 179.981 701.163 179.777 701.325 179.513C701.493 179.243 701.577 178.919 701.577 178.541C701.577 178.037 701.409 177.623 701.073 177.299C700.737 176.975 700.287 176.813 699.723 176.813H696.564V180.332ZM705.906 188V175.04H707.814L714.195 184.67V175.04H716.103V188H714.195L707.814 178.361V188H705.906ZM718.614 188V175.04H723.708C724.53 175.04 725.22 175.208 725.778 175.544C726.336 175.88 726.756 176.315 727.038 176.849C727.32 177.377 727.461 177.935 727.461 178.523C727.461 179.237 727.284 179.849 726.93 180.359C726.582 180.869 726.111 181.217 725.517 181.403L725.499 180.962C726.327 181.166 726.963 181.565 727.407 182.159C727.851 182.747 728.073 183.434 728.073 184.22C728.073 184.982 727.92 185.645 727.614 186.209C727.314 186.773 726.873 187.214 726.291 187.532C725.715 187.844 725.016 188 724.194 188H718.614ZM720.522 186.209H723.906C724.332 186.209 724.713 186.128 725.049 185.966C725.391 185.804 725.658 185.573 725.85 185.273C726.048 184.967 726.147 184.604 726.147 184.184C726.147 183.794 726.06 183.443 725.886 183.131C725.718 182.813 725.472 182.564 725.148 182.384C724.83 182.198 724.455 182.105 724.023 182.105H720.522V186.209ZM720.522 180.332H723.681C724.029 180.332 724.341 180.263 724.617 180.125C724.899 179.981 725.121 179.777 725.283 179.513C725.451 179.243 725.535 178.919 725.535 178.541C725.535 178.037 725.367 177.623 725.031 177.299C724.695 176.975 724.245 176.813 723.681 176.813H720.522V180.332Z" fill="#23262F"/>
<rect x="192" y="403" width="137" height="42" rx="21" fill="url(#paint4_linear_0_3538)"/>
<path d="M223.12 423.295C222.854 422.866 222.848 422.325 223.105 421.89C223.619 421.017 224.872 420.994 225.42 421.846L227.74 425.459C228.153 426.103 228.373 426.851 228.374 427.615L228.374 427.684L228.361 419.156C228.351 418.948 228.24 418.757 228.063 418.644L220.599 414.351C220.425 414.265 220.203 414.266 220.029 414.353C220.005 414.365 219.983 414.378 219.962 414.392L219.936 414.408L212.691 418.607L212.662 418.62C212.626 418.636 212.59 418.658 212.555 418.682C212.418 418.781 212.327 418.926 212.297 419.09C212.293 419.115 212.29 419.14 212.288 419.165C212.291 421.211 214.958 421.994 216.067 420.275L216.161 420.129C216.647 419.335 217.707 419.08 218.69 419.093C219.201 419.107 219.504 419.67 219.234 420.104L213.296 429.626C213.158 429.847 213.231 430.138 213.456 430.267C213.673 430.392 213.949 430.321 214.078 430.107L220.346 419.764C220.583 419.373 221.006 419.134 221.463 419.132C222.481 419.129 223.115 420.234 222.598 421.11L218.581 427.924C217.658 429.489 218.191 431.507 219.766 432.412L220.107 432.609C220.398 432.727 220.705 432.539 220.976 432.382L228.138 428.232C227.332 428.699 226.301 428.44 225.811 427.648L223.12 423.295ZM224.554 430.308C223.839 430.722 222.924 430.499 222.48 429.802L220.895 427.314C220.582 426.824 220.571 426.2 220.867 425.699C221.453 424.704 222.884 424.68 223.503 425.656L225.083 428.147C225.553 428.887 225.312 429.869 224.554 430.308Z" fill="url(#paint5_linear_0_3538)"/>
<path d="M220.386 426.515L223.275 431.05L225.944 429.503L222.149 423.522L220.386 426.515Z" fill="#FCFCFD"/>
<path d="M228.375 427.683L228.373 426.444L224.227 419.986L222.688 422.596L226.691 429.069L228.138 428.231C228.28 428.116 228.366 427.946 228.375 427.764L228.375 427.683Z" fill="#FCFCFD"/>
<path d="M211 428.852L213.044 430.03L219.844 419.124L218.69 419.093C217.707 419.079 216.648 419.335 216.161 420.129L212.299 426.114L211 428.111V428.852H211Z" fill="#FCFCFD"/>
<path d="M223.77 419.123L220.728 419.134L213.846 430.491L216.251 431.876L216.905 430.766L223.77 419.123Z" fill="#FCFCFD"/>
<path d="M229.656 419.108C229.63 418.472 229.286 417.89 228.746 417.551L221.184 413.202C220.65 412.933 219.984 412.933 219.449 413.202C219.386 413.233 212.095 417.462 212.095 417.462C211.994 417.51 211.897 417.568 211.805 417.633C211.324 417.979 211.03 418.515 211 419.104V428.111L212.299 426.114L212.288 419.165C212.289 419.14 212.293 419.115 212.297 419.09C212.326 418.927 212.418 418.781 212.555 418.682C212.59 418.658 220.005 414.365 220.029 414.353C220.203 414.266 220.424 414.265 220.599 414.351L228.063 418.644C228.24 418.757 228.351 418.948 228.36 419.156V427.764C228.351 427.947 228.279 428.116 228.137 428.232L226.69 429.07L225.943 429.503L223.275 431.049L220.568 432.618C220.422 432.671 220.252 432.668 220.107 432.609L216.905 430.767L216.251 431.877L219.128 433.533C219.224 433.588 219.308 433.635 219.378 433.675C219.486 433.735 219.559 433.775 219.585 433.788C219.79 433.887 220.084 433.945 220.349 433.945C220.592 433.945 220.829 433.9 221.054 433.813L228.915 429.26C229.366 428.91 229.632 428.383 229.656 427.812V419.108Z" fill="#FCFCFD"/>
<path d="M236.839 431L241.051 418.04H243.76L247.972 431H246.019L242.14 419.174H242.626L238.792 431H236.839ZM239.026 428.075V426.311H245.794V428.075H239.026ZM249.586 431V421.28H251.26V423.638L251.026 423.332C251.146 423.02 251.302 422.735 251.494 422.477C251.686 422.213 251.908 421.997 252.16 421.829C252.406 421.649 252.679 421.511 252.979 421.415C253.285 421.313 253.597 421.253 253.915 421.235C254.233 421.211 254.539 421.226 254.833 421.28V423.044C254.515 422.96 254.161 422.936 253.771 422.972C253.387 423.008 253.033 423.131 252.709 423.341C252.403 423.539 252.16 423.779 251.98 424.061C251.806 424.343 251.68 424.658 251.602 425.006C251.524 425.348 251.485 425.711 251.485 426.095V431H249.586ZM261.11 431.27C260.18 431.27 259.4 431.045 258.77 430.595C258.14 430.139 257.663 429.524 257.339 428.75C257.015 427.976 256.853 427.103 256.853 426.131C256.853 425.159 257.012 424.286 257.33 423.512C257.654 422.738 258.128 422.129 258.752 421.685C259.382 421.235 260.156 421.01 261.074 421.01C261.986 421.01 262.772 421.235 263.432 421.685C264.098 422.129 264.611 422.738 264.971 423.512C265.331 424.28 265.511 425.153 265.511 426.131C265.511 427.103 265.331 427.979 264.971 428.759C264.617 429.533 264.11 430.145 263.45 430.595C262.796 431.045 262.016 431.27 261.11 431.27ZM256.538 431V418.04H258.428V424.007H258.212V431H256.538ZM260.849 429.569C261.449 429.569 261.944 429.416 262.334 429.11C262.73 428.804 263.024 428.393 263.216 427.877C263.414 427.355 263.513 426.773 263.513 426.131C263.513 425.495 263.414 424.919 263.216 424.403C263.024 423.887 262.727 423.476 262.325 423.17C261.923 422.864 261.41 422.711 260.786 422.711C260.198 422.711 259.712 422.855 259.328 423.143C258.95 423.431 258.668 423.833 258.482 424.349C258.302 424.865 258.212 425.459 258.212 426.131C258.212 426.803 258.302 427.397 258.482 427.913C258.662 428.429 258.947 428.834 259.337 429.128C259.727 429.422 260.231 429.569 260.849 429.569ZM267.678 419.687V417.86H269.559V419.687H267.678ZM267.678 431V421.28H269.559V431H267.678ZM277.824 431C277.212 431.12 276.612 431.171 276.024 431.153C275.436 431.135 274.911 431.021 274.449 430.811C273.987 430.601 273.639 430.271 273.405 429.821C273.195 429.419 273.081 429.011 273.063 428.597C273.051 428.177 273.045 427.703 273.045 427.175V418.58H274.935V427.085C274.935 427.475 274.938 427.814 274.944 428.102C274.956 428.39 275.019 428.633 275.133 428.831C275.349 429.203 275.691 429.416 276.159 429.47C276.633 429.518 277.188 429.497 277.824 429.407V431ZM271.182 422.792V421.28H277.824V422.792H271.182ZM279.873 431V421.28H281.547V423.638L281.313 423.332C281.433 423.02 281.589 422.735 281.781 422.477C281.973 422.213 282.195 421.997 282.447 421.829C282.693 421.649 282.966 421.511 283.266 421.415C283.572 421.313 283.884 421.253 284.202 421.235C284.52 421.211 284.826 421.226 285.12 421.28V423.044C284.802 422.96 284.448 422.936 284.058 422.972C283.674 423.008 283.32 423.131 282.996 423.341C282.69 423.539 282.447 423.779 282.267 424.061C282.093 424.343 281.967 424.658 281.889 425.006C281.811 425.348 281.772 425.711 281.772 426.095V431H279.873ZM290.497 431.261C289.825 431.261 289.261 431.153 288.805 430.937C288.349 430.721 287.977 430.439 287.689 430.091C287.407 429.737 287.191 429.353 287.041 428.939C286.891 428.525 286.789 428.12 286.735 427.724C286.681 427.328 286.654 426.98 286.654 426.68V421.28H288.562V426.059C288.562 426.437 288.592 426.827 288.652 427.229C288.718 427.625 288.838 427.994 289.012 428.336C289.192 428.678 289.441 428.954 289.759 429.164C290.083 429.374 290.503 429.479 291.019 429.479C291.355 429.479 291.673 429.425 291.973 429.317C292.273 429.203 292.534 429.023 292.756 428.777C292.984 428.531 293.161 428.207 293.287 427.805C293.419 427.403 293.485 426.914 293.485 426.338L294.655 426.779C294.655 427.661 294.49 428.441 294.16 429.119C293.83 429.791 293.356 430.316 292.738 430.694C292.12 431.072 291.373 431.261 290.497 431.261ZM293.71 431V428.192H293.485V421.28H295.384V431H293.71ZM309.554 431L309.563 424.943C309.563 424.241 309.383 423.695 309.023 423.305C308.663 422.909 308.189 422.711 307.601 422.711C307.241 422.711 306.911 422.795 306.611 422.963C306.317 423.125 306.077 423.371 305.891 423.701C305.711 424.025 305.621 424.433 305.621 424.925L304.712 424.466C304.7 423.782 304.844 423.182 305.144 422.666C305.45 422.15 305.864 421.751 306.386 421.469C306.908 421.181 307.493 421.037 308.141 421.037C309.191 421.037 310.004 421.352 310.58 421.982C311.156 422.612 311.444 423.449 311.444 424.493L311.435 431H309.554ZM297.899 431V421.28H299.573V424.088H299.789V431H297.899ZM303.731 431L303.74 424.979C303.74 424.271 303.56 423.716 303.2 423.314C302.846 422.912 302.369 422.711 301.769 422.711C301.175 422.711 300.695 422.915 300.329 423.323C299.969 423.731 299.789 424.265 299.789 424.925L298.889 424.349C298.889 423.713 299.042 423.146 299.348 422.648C299.654 422.15 300.068 421.757 300.59 421.469C301.112 421.181 301.703 421.037 302.363 421.037C303.053 421.037 303.641 421.184 304.127 421.478C304.613 421.766 304.982 422.171 305.234 422.693C305.492 423.215 305.621 423.821 305.621 424.511L305.612 431H303.731Z" fill="#FCFCFD"/>
<rect x="720" y="282" width="149" height="42" rx="21" fill="url(#paint6_linear_0_3538)"/>
<g clip-path="url(#clip0_0_3538)">
<path d="M757 293.664H738.984V310.038H757V293.664Z" fill="#FCFCFD"/>
<path fill-rule="evenodd" clip-rule="evenodd" d="M762 303C762 310.732 755.732 317 748 317C740.268 317 734 310.732 734 303C734 295.268 740.268 289 748 289C755.732 289 762 295.268 762 303ZM744.033 308.571H741.316C740.745 308.571 740.463 308.571 740.291 308.461C740.105 308.341 739.992 308.141 739.978 307.921C739.968 307.718 740.109 307.471 740.391 306.975L747.099 295.151C747.385 294.648 747.529 294.397 747.711 294.305C747.907 294.205 748.141 294.205 748.337 294.305C748.52 294.397 748.664 294.648 748.95 295.151L750.329 297.558L750.336 297.57C750.644 298.109 750.8 298.382 750.869 298.669C750.944 298.982 750.944 299.312 750.869 299.625C750.8 299.914 750.645 300.189 750.332 300.736L746.808 306.965L746.799 306.981C746.489 307.524 746.332 307.8 746.114 308.007C745.876 308.234 745.591 308.399 745.278 308.492C744.992 308.571 744.673 308.571 744.033 308.571ZM750.894 308.571H754.787C755.362 308.571 755.651 308.571 755.823 308.458C756.008 308.338 756.125 308.135 756.136 307.915C756.146 307.718 756.008 307.48 755.737 307.014C755.728 306.998 755.719 306.982 755.709 306.965L753.759 303.629L753.737 303.592C753.463 303.128 753.324 302.894 753.147 302.804C752.951 302.704 752.72 302.704 752.524 302.804C752.345 302.897 752.201 303.141 751.916 303.633L749.972 306.969L749.966 306.98C749.681 307.471 749.539 307.717 749.549 307.918C749.563 308.138 749.677 308.341 749.862 308.461C750.031 308.571 750.32 308.571 750.894 308.571Z" fill="#E84142"/>
</g>
<path d="M764.598 310L768.81 297.04H771.519L775.731 310H773.778L769.899 298.174H770.385L766.551 310H764.598ZM766.785 307.075V305.311H773.553V307.075H766.785ZM779.253 310L775.725 300.28H777.624L780.207 307.642L782.79 300.28H784.689L781.161 310H779.253ZM788.511 310.27C787.791 310.27 787.188 310.138 786.702 309.874C786.216 309.604 785.847 309.25 785.595 308.812C785.349 308.368 785.226 307.882 785.226 307.354C785.226 306.862 785.313 306.43 785.487 306.058C785.661 305.686 785.919 305.371 786.261 305.113C786.603 304.849 787.023 304.636 787.521 304.474C787.953 304.348 788.442 304.237 788.988 304.141C789.534 304.045 790.107 303.955 790.707 303.871C791.313 303.787 791.913 303.703 792.507 303.619L791.823 303.997C791.835 303.235 791.673 302.671 791.337 302.305C791.007 301.933 790.437 301.747 789.627 301.747C789.117 301.747 788.649 301.867 788.223 302.107C787.797 302.341 787.5 302.731 787.332 303.277L785.577 302.737C785.817 301.903 786.273 301.24 786.945 300.748C787.623 300.256 788.523 300.01 789.645 300.01C790.515 300.01 791.271 300.16 791.913 300.46C792.561 300.754 793.035 301.222 793.335 301.864C793.491 302.182 793.587 302.518 793.623 302.872C793.659 303.226 793.677 303.607 793.677 304.015V310H792.012V307.777L792.336 308.065C791.934 308.809 791.421 309.364 790.797 309.73C790.179 310.09 789.417 310.27 788.511 310.27ZM788.844 308.731C789.378 308.731 789.837 308.638 790.221 308.452C790.605 308.26 790.914 308.017 791.148 307.723C791.382 307.429 791.535 307.123 791.607 306.805C791.709 306.517 791.766 306.193 791.778 305.833C791.796 305.473 791.805 305.185 791.805 304.969L792.417 305.194C791.823 305.284 791.283 305.365 790.797 305.437C790.311 305.509 789.87 305.581 789.474 305.653C789.084 305.719 788.736 305.8 788.43 305.896C788.172 305.986 787.941 306.094 787.737 306.22C787.539 306.346 787.38 306.499 787.26 306.679C787.146 306.859 787.089 307.078 787.089 307.336C787.089 307.588 787.152 307.822 787.278 308.038C787.404 308.248 787.596 308.416 787.854 308.542C788.112 308.668 788.442 308.731 788.844 308.731ZM796.194 310V296.77H798.075V310H796.194ZM803.523 310.27C802.803 310.27 802.2 310.138 801.714 309.874C801.228 309.604 800.859 309.25 800.607 308.812C800.361 308.368 800.238 307.882 800.238 307.354C800.238 306.862 800.325 306.43 800.499 306.058C800.673 305.686 800.931 305.371 801.273 305.113C801.615 304.849 802.035 304.636 802.533 304.474C802.965 304.348 803.454 304.237 804 304.141C804.546 304.045 805.119 303.955 805.719 303.871C806.325 303.787 806.925 303.703 807.519 303.619L806.835 303.997C806.847 303.235 806.685 302.671 806.349 302.305C806.019 301.933 805.449 301.747 804.639 301.747C804.129 301.747 803.661 301.867 803.235 302.107C802.809 302.341 802.512 302.731 802.344 303.277L800.589 302.737C800.829 301.903 801.285 301.24 801.957 300.748C802.635 300.256 803.535 300.01 804.657 300.01C805.527 300.01 806.283 300.16 806.925 300.46C807.573 300.754 808.047 301.222 808.347 301.864C808.503 302.182 808.599 302.518 808.635 302.872C808.671 303.226 808.689 303.607 808.689 304.015V310H807.024V307.777L807.348 308.065C806.946 308.809 806.433 309.364 805.809 309.73C805.191 310.09 804.429 310.27 803.523 310.27ZM803.856 308.731C804.39 308.731 804.849 308.638 805.233 308.452C805.617 308.26 805.926 308.017 806.16 307.723C806.394 307.429 806.547 307.123 806.619 306.805C806.721 306.517 806.778 306.193 806.79 305.833C806.808 305.473 806.817 305.185 806.817 304.969L807.429 305.194C806.835 305.284 806.295 305.365 805.809 305.437C805.323 305.509 804.882 305.581 804.486 305.653C804.096 305.719 803.748 305.8 803.442 305.896C803.184 305.986 802.953 306.094 802.749 306.22C802.551 306.346 802.392 306.499 802.272 306.679C802.158 306.859 802.101 307.078 802.101 307.336C802.101 307.588 802.164 307.822 802.29 308.038C802.416 308.248 802.608 308.416 802.866 308.542C803.124 308.668 803.454 308.731 803.856 308.731ZM817.848 310V305.221C817.848 304.843 817.815 304.456 817.749 304.06C817.689 303.658 817.569 303.286 817.389 302.944C817.215 302.602 816.966 302.326 816.642 302.116C816.324 301.906 815.907 301.801 815.391 301.801C815.055 301.801 814.737 301.858 814.437 301.972C814.137 302.08 813.873 302.257 813.645 302.503C813.423 302.749 813.246 303.073 813.114 303.475C812.988 303.877 812.925 304.366 812.925 304.942L811.755 304.501C811.755 303.619 811.92 302.842 812.25 302.17C812.58 301.492 813.054 300.964 813.672 300.586C814.29 300.208 815.037 300.019 815.913 300.019C816.585 300.019 817.149 300.127 817.605 300.343C818.061 300.559 818.43 300.844 818.712 301.198C819 301.546 819.219 301.927 819.369 302.341C819.519 302.755 819.621 303.16 819.675 303.556C819.729 303.952 819.756 304.3 819.756 304.6V310H817.848ZM811.017 310V300.28H812.7V303.088H812.925V310H811.017ZM826.135 310.27C825.139 310.27 824.293 310.048 823.597 309.604C822.901 309.16 822.367 308.551 821.995 307.777C821.629 307.003 821.443 306.124 821.437 305.14C821.443 304.138 821.635 303.253 822.013 302.485C822.391 301.711 822.931 301.105 823.633 300.667C824.335 300.229 825.178 300.01 826.162 300.01C827.224 300.01 828.13 300.274 828.88 300.802C829.636 301.33 830.134 302.053 830.374 302.971L828.502 303.511C828.316 302.965 828.01 302.542 827.584 302.242C827.164 301.936 826.681 301.783 826.135 301.783C825.517 301.783 825.01 301.93 824.614 302.224C824.218 302.512 823.924 302.908 823.732 303.412C823.54 303.916 823.441 304.492 823.435 305.14C823.441 306.142 823.669 306.952 824.119 307.57C824.575 308.188 825.247 308.497 826.135 308.497C826.741 308.497 827.23 308.359 827.602 308.083C827.98 307.801 828.268 307.399 828.466 306.877L830.374 307.327C830.056 308.275 829.531 309.004 828.799 309.514C828.067 310.018 827.179 310.27 826.135 310.27ZM839.029 310V305.221C839.029 304.843 838.996 304.456 838.93 304.06C838.87 303.658 838.75 303.286 838.57 302.944C838.396 302.602 838.147 302.326 837.823 302.116C837.505 301.906 837.088 301.801 836.572 301.801C836.236 301.801 835.918 301.858 835.618 301.972C835.318 302.08 835.054 302.257 834.826 302.503C834.604 302.749 834.427 303.073 834.295 303.475C834.169 303.877 834.106 304.366 834.106 304.942L832.936 304.501C832.936 303.619 833.101 302.842 833.431 302.17C833.761 301.492 834.235 300.964 834.853 300.586C835.471 300.208 836.218 300.019 837.094 300.019C837.766 300.019 838.33 300.127 838.786 300.343C839.242 300.559 839.611 300.844 839.893 301.198C840.181 301.546 840.4 301.927 840.55 302.341C840.7 302.755 840.802 303.16 840.856 303.556C840.91 303.952 840.937 304.3 840.937 304.6V310H839.029ZM832.198 310V297.04H833.881V304.033H834.106V310H832.198ZM847.592 310.27C846.626 310.27 845.777 310.06 845.045 309.64C844.319 309.214 843.752 308.623 843.344 307.867C842.942 307.105 842.741 306.223 842.741 305.221C842.741 304.159 842.939 303.238 843.335 302.458C843.737 301.678 844.295 301.075 845.009 300.649C845.723 300.223 846.554 300.01 847.502 300.01C848.492 300.01 849.335 300.241 850.031 300.703C850.727 301.159 851.246 301.81 851.588 302.656C851.936 303.502 852.074 304.507 852.002 305.671H850.121V304.987C850.109 303.859 849.893 303.025 849.473 302.485C849.059 301.945 848.426 301.675 847.574 301.675C846.632 301.675 845.924 301.972 845.45 302.566C844.976 303.16 844.739 304.018 844.739 305.14C844.739 306.208 844.976 307.036 845.45 307.624C845.924 308.206 846.608 308.497 847.502 308.497C848.09 308.497 848.597 308.365 849.023 308.101C849.455 307.831 849.791 307.447 850.031 306.949L851.876 307.534C851.498 308.404 850.925 309.079 850.157 309.559C849.389 310.033 848.534 310.27 847.592 310.27ZM844.127 305.671V304.204H851.066V305.671H844.127Z" fill="#FCFCFD"/>
<rect x="235" y="663" width="125" height="42" rx="21" fill="url(#paint7_linear_0_3538)"/>
<g clip-path="url(#clip1_0_3538)">
<path fill-rule="evenodd" clip-rule="evenodd" d="M264 681.548L267 679.859V683.236L264 681.548ZM267 688.784L263 691.035L259 688.784V684.844L263 687.095L267 684.844V688.784ZM259 679.859L262 681.548L259 683.236V679.859ZM263.5 682.352L266.5 684.04L263.5 685.729V682.352ZM262.5 685.729L259.5 684.04L262.5 682.352V685.729ZM266.5 679.055L263 680.985L259.5 679.055L263 677.045L266.5 679.055ZM258 678.734V689.266L263 692L268 689.266V678.734L263 676L258 678.734Z" fill="#FCFCFD"/>
</g>
<path d="M280.618 691V678.04H288.295V679.921H282.499V683.575H287.215V685.465H282.499V691H280.618ZM292.311 691.27C291.591 691.27 290.988 691.138 290.502 690.874C290.016 690.604 289.647 690.25 289.395 689.812C289.149 689.368 289.026 688.882 289.026 688.354C289.026 687.862 289.113 687.43 289.287 687.058C289.461 686.686 289.719 686.371 290.061 686.113C290.403 685.849 290.823 685.636 291.321 685.474C291.753 685.348 292.242 685.237 292.788 685.141C293.334 685.045 293.907 684.955 294.507 684.871C295.113 684.787 295.713 684.703 296.307 684.619L295.623 684.997C295.635 684.235 295.473 683.671 295.137 683.305C294.807 682.933 294.237 682.747 293.427 682.747C292.917 682.747 292.449 682.867 292.023 683.107C291.597 683.341 291.3 683.731 291.132 684.277L289.377 683.737C289.617 682.903 290.073 682.24 290.745 681.748C291.423 681.256 292.323 681.01 293.445 681.01C294.315 681.01 295.071 681.16 295.713 681.46C296.361 681.754 296.835 682.222 297.135 682.864C297.291 683.182 297.387 683.518 297.423 683.872C297.459 684.226 297.477 684.607 297.477 685.015V691H295.812V688.777L296.136 689.065C295.734 689.809 295.221 690.364 294.597 690.73C293.979 691.09 293.217 691.27 292.311 691.27ZM292.644 689.731C293.178 689.731 293.637 689.638 294.021 689.452C294.405 689.26 294.714 689.017 294.948 688.723C295.182 688.429 295.335 688.123 295.407 687.805C295.509 687.517 295.566 687.193 295.578 686.833C295.596 686.473 295.605 686.185 295.605 685.969L296.217 686.194C295.623 686.284 295.083 686.365 294.597 686.437C294.111 686.509 293.67 686.581 293.274 686.653C292.884 686.719 292.536 686.8 292.23 686.896C291.972 686.986 291.741 687.094 291.537 687.22C291.339 687.346 291.18 687.499 291.06 687.679C290.946 687.859 290.889 688.078 290.889 688.336C290.889 688.588 290.952 688.822 291.078 689.038C291.204 689.248 291.396 689.416 291.654 689.542C291.912 689.668 292.242 689.731 292.644 689.731ZM306.636 691V686.221C306.636 685.843 306.603 685.456 306.537 685.06C306.477 684.658 306.357 684.286 306.177 683.944C306.003 683.602 305.754 683.326 305.43 683.116C305.112 682.906 304.695 682.801 304.179 682.801C303.843 682.801 303.525 682.858 303.225 682.972C302.925 683.08 302.661 683.257 302.433 683.503C302.211 683.749 302.034 684.073 301.902 684.475C301.776 684.877 301.713 685.366 301.713 685.942L300.543 685.501C300.543 684.619 300.708 683.842 301.038 683.17C301.368 682.492 301.842 681.964 302.46 681.586C303.078 681.208 303.825 681.019 304.701 681.019C305.373 681.019 305.937 681.127 306.393 681.343C306.849 681.559 307.218 681.844 307.5 682.198C307.788 682.546 308.007 682.927 308.157 683.341C308.307 683.755 308.409 684.16 308.463 684.556C308.517 684.952 308.544 685.3 308.544 685.6V691H306.636ZM299.805 691V681.28H301.488V684.088H301.713V691H299.805ZM316.45 691C315.838 691.12 315.238 691.171 314.65 691.153C314.062 691.135 313.537 691.021 313.075 690.811C312.613 690.601 312.265 690.271 312.031 689.821C311.821 689.419 311.707 689.011 311.689 688.597C311.677 688.177 311.671 687.703 311.671 687.175V678.58H313.561V687.085C313.561 687.475 313.564 687.814 313.57 688.102C313.582 688.39 313.645 688.633 313.759 688.831C313.975 689.203 314.317 689.416 314.785 689.47C315.259 689.518 315.814 689.497 316.45 689.407V691ZM309.808 682.792V681.28H316.45V682.792H309.808ZM322.281 691.27C321.309 691.27 320.466 691.051 319.752 690.613C319.038 690.175 318.486 689.572 318.096 688.804C317.712 688.03 317.52 687.139 317.52 686.131C317.52 685.117 317.718 684.226 318.114 683.458C318.51 682.684 319.065 682.084 319.779 681.658C320.493 681.226 321.327 681.01 322.281 681.01C323.253 681.01 324.096 681.229 324.81 681.667C325.524 682.105 326.076 682.708 326.466 683.476C326.856 684.244 327.051 685.129 327.051 686.131C327.051 687.145 326.853 688.039 326.457 688.813C326.067 689.581 325.515 690.184 324.801 690.622C324.087 691.054 323.247 691.27 322.281 691.27ZM322.281 689.497C323.211 689.497 323.904 689.185 324.36 688.561C324.822 687.931 325.053 687.121 325.053 686.131C325.053 685.117 324.819 684.307 324.351 683.701C323.889 683.089 323.199 682.783 322.281 682.783C321.651 682.783 321.132 682.927 320.724 683.215C320.316 683.497 320.013 683.89 319.815 684.394C319.617 684.892 319.518 685.471 319.518 686.131C319.518 687.151 319.752 687.967 320.22 688.579C320.688 689.191 321.375 689.497 322.281 689.497ZM340.675 691L340.684 684.943C340.684 684.241 340.504 683.695 340.144 683.305C339.784 682.909 339.31 682.711 338.722 682.711C338.362 682.711 338.032 682.795 337.732 682.963C337.438 683.125 337.198 683.371 337.012 683.701C336.832 684.025 336.742 684.433 336.742 684.925L335.833 684.466C335.821 683.782 335.965 683.182 336.265 682.666C336.571 682.15 336.985 681.751 337.507 681.469C338.029 681.181 338.614 681.037 339.262 681.037C340.312 681.037 341.125 681.352 341.701 681.982C342.277 682.612 342.565 683.449 342.565 684.493L342.556 691H340.675ZM329.02 691V681.28H330.694V684.088H330.91V691H329.02ZM334.852 691L334.861 684.979C334.861 684.271 334.681 683.716 334.321 683.314C333.967 682.912 333.49 682.711 332.89 682.711C332.296 682.711 331.816 682.915 331.45 683.323C331.09 683.731 330.91 684.265 330.91 684.925L330.01 684.349C330.01 683.713 330.163 683.146 330.469 682.648C330.775 682.15 331.189 681.757 331.711 681.469C332.233 681.181 332.824 681.037 333.484 681.037C334.174 681.037 334.762 681.184 335.248 681.478C335.734 681.766 336.103 682.171 336.355 682.693C336.613 683.215 336.742 683.821 336.742 684.511L336.733 691H334.852Z" fill="#FCFCFD"/>
<rect x="106" y="517" width="130" height="42" rx="21" fill="url(#paint8_linear_0_3538)"/>
<g clip-path="url(#clip2_0_3538)">
<path d="M138.083 535.25C137.792 535.083 137.417 535.083 137.083 535.25L134.75 536.625L133.167 537.5L130.875 538.875C130.583 539.041 130.208 539.041 129.875 538.875L128.083 537.791C127.792 537.625 127.583 537.291 127.583 536.916V534.833C127.583 534.5 127.75 534.166 128.083 533.958L129.875 532.916C130.167 532.75 130.542 532.75 130.875 532.916L132.667 534C132.958 534.166 133.167 534.5 133.167 534.875V536.25L134.75 535.333V533.916C134.75 533.583 134.583 533.25 134.25 533.041L130.917 531.083C130.625 530.916 130.25 530.916 129.917 531.083L126.5 533.083C126.167 533.25 126 533.583 126 533.916V537.833C126 538.166 126.167 538.5 126.5 538.708L129.875 540.666C130.167 540.833 130.542 540.833 130.875 540.666L133.167 539.333L134.75 538.416L137.042 537.083C137.333 536.916 137.708 536.916 138.042 537.083L139.833 538.125C140.125 538.291 140.333 538.625 140.333 539V541.083C140.333 541.416 140.167 541.75 139.833 541.958L138.083 543C137.792 543.166 137.417 543.166 137.083 543L135.292 541.958C135 541.791 134.792 541.458 134.792 541.083V539.75L133.208 540.666V542.041C133.208 542.375 133.375 542.708 133.708 542.916L137.083 544.875C137.375 545.041 137.75 545.041 138.083 544.875L141.458 542.916C141.75 542.75 141.958 542.416 141.958 542.041V538.083C141.958 537.75 141.792 537.416 141.458 537.208L138.083 535.25Z" fill="#FCFCFD"/>
</g>
<path d="M151.526 545V532.04H156.764C156.89 532.04 157.046 532.046 157.232 532.058C157.418 532.064 157.595 532.082 157.763 532.112C158.483 532.226 159.083 532.472 159.563 532.85C160.049 533.228 160.412 533.705 160.652 534.281C160.892 534.857 161.012 535.493 161.012 536.189C161.012 536.891 160.892 537.53 160.652 538.106C160.412 538.682 160.049 539.159 159.563 539.537C159.083 539.915 158.483 540.161 157.763 540.275C157.595 540.299 157.415 540.317 157.223 540.329C157.037 540.341 156.884 540.347 156.764 540.347H153.407V545H151.526ZM153.407 538.565H156.692C156.812 538.565 156.944 538.559 157.088 538.547C157.238 538.535 157.379 538.514 157.511 538.484C157.895 538.394 158.204 538.229 158.438 537.989C158.672 537.743 158.84 537.461 158.942 537.143C159.044 536.825 159.095 536.507 159.095 536.189C159.095 535.871 159.044 535.556 158.942 535.244C158.84 534.926 158.672 534.647 158.438 534.407C158.204 534.161 157.895 533.993 157.511 533.903C157.379 533.867 157.238 533.843 157.088 533.831C156.944 533.819 156.812 533.813 156.692 533.813H153.407V538.565ZM166.909 545.27C165.937 545.27 165.094 545.051 164.38 544.613C163.666 544.175 163.114 543.572 162.724 542.804C162.34 542.03 162.148 541.139 162.148 540.131C162.148 539.117 162.346 538.226 162.742 537.458C163.138 536.684 163.693 536.084 164.407 535.658C165.121 535.226 165.955 535.01 166.909 535.01C167.881 535.01 168.724 535.229 169.438 535.667C170.152 536.105 170.704 536.708 171.094 537.476C171.484 538.244 171.679 539.129 171.679 540.131C171.679 541.145 171.481 542.039 171.085 542.813C170.695 543.581 170.143 544.184 169.429 544.622C168.715 545.054 167.875 545.27 166.909 545.27ZM166.909 543.497C167.839 543.497 168.532 543.185 168.988 542.561C169.45 541.931 169.681 541.121 169.681 540.131C169.681 539.117 169.447 538.307 168.979 537.701C168.517 537.089 167.827 536.783 166.909 536.783C166.279 536.783 165.76 536.927 165.352 537.215C164.944 537.497 164.641 537.89 164.443 538.394C164.245 538.892 164.146 539.471 164.146 540.131C164.146 541.151 164.38 541.967 164.848 542.579C165.316 543.191 166.003 543.497 166.909 543.497ZM173.836 545V531.77H175.717V545H173.836ZM179.734 549.32L181.615 544.199L181.642 545.711L177.403 535.28H179.365L182.533 543.335H181.957L184.981 535.28H186.889L181.525 549.32H179.734ZM192.005 549.59C191.483 549.59 190.976 549.509 190.484 549.347C189.998 549.185 189.554 548.945 189.152 548.627C188.75 548.315 188.417 547.928 188.153 547.466L189.89 546.584C190.1 546.998 190.4 547.301 190.79 547.493C191.18 547.685 191.591 547.781 192.023 547.781C192.557 547.781 193.013 547.685 193.391 547.493C193.769 547.307 194.054 547.025 194.246 546.647C194.444 546.269 194.54 545.801 194.534 545.243V542.525H194.759V535.28H196.424V545.261C196.424 545.519 196.415 545.765 196.397 545.999C196.379 546.233 196.346 546.467 196.298 546.701C196.16 547.355 195.896 547.895 195.506 548.321C195.122 548.747 194.63 549.065 194.03 549.275C193.436 549.485 192.761 549.59 192.005 549.59ZM191.861 545.27C190.955 545.27 190.172 545.045 189.512 544.595C188.858 544.145 188.351 543.533 187.991 542.759C187.637 541.979 187.46 541.103 187.46 540.131C187.46 539.153 187.64 538.28 188 537.512C188.36 536.738 188.87 536.129 189.53 535.685C190.196 535.235 190.985 535.01 191.897 535.01C192.815 535.01 193.586 535.235 194.21 535.685C194.84 536.129 195.314 536.738 195.632 537.512C195.956 538.286 196.118 539.159 196.118 540.131C196.118 541.103 195.956 541.976 195.632 542.75C195.308 543.524 194.831 544.139 194.201 544.595C193.571 545.045 192.791 545.27 191.861 545.27ZM192.122 543.569C192.74 543.569 193.244 543.422 193.634 543.128C194.024 542.834 194.309 542.429 194.489 541.913C194.669 541.397 194.759 540.803 194.759 540.131C194.759 539.459 194.666 538.865 194.48 538.349C194.3 537.833 194.018 537.431 193.634 537.143C193.256 536.855 192.773 536.711 192.185 536.711C191.561 536.711 191.048 536.864 190.646 537.17C190.244 537.476 189.944 537.887 189.746 538.403C189.554 538.919 189.458 539.495 189.458 540.131C189.458 540.773 189.554 541.355 189.746 541.877C189.944 542.393 190.238 542.804 190.628 543.11C191.024 543.416 191.522 543.569 192.122 543.569ZM203.172 545.27C202.2 545.27 201.357 545.051 200.643 544.613C199.929 544.175 199.377 543.572 198.987 542.804C198.603 542.03 198.411 541.139 198.411 540.131C198.411 539.117 198.609 538.226 199.005 537.458C199.401 536.684 199.956 536.084 200.67 535.658C201.384 535.226 202.218 535.01 203.172 535.01C204.144 535.01 204.987 535.229 205.701 535.667C206.415 536.105 206.967 536.708 207.357 537.476C207.747 538.244 207.942 539.129 207.942 540.131C207.942 541.145 207.744 542.039 207.348 542.813C206.958 543.581 206.406 544.184 205.692 544.622C204.978 545.054 204.138 545.27 203.172 545.27ZM203.172 543.497C204.102 543.497 204.795 543.185 205.251 542.561C205.713 541.931 205.944 541.121 205.944 540.131C205.944 539.117 205.71 538.307 205.242 537.701C204.78 537.089 204.09 536.783 203.172 536.783C202.542 536.783 202.023 536.927 201.615 537.215C201.207 537.497 200.904 537.89 200.706 538.394C200.508 538.892 200.409 539.471 200.409 540.131C200.409 541.151 200.643 541.967 201.111 542.579C201.579 543.191 202.266 543.497 203.172 543.497ZM216.742 545V540.221C216.742 539.843 216.709 539.456 216.643 539.06C216.583 538.658 216.463 538.286 216.283 537.944C216.109 537.602 215.86 537.326 215.536 537.116C215.218 536.906 214.801 536.801 214.285 536.801C213.949 536.801 213.631 536.858 213.331 536.972C213.031 537.08 212.767 537.257 212.539 537.503C212.317 537.749 212.14 538.073 212.008 538.475C211.882 538.877 211.819 539.366 211.819 539.942L210.649 539.501C210.649 538.619 210.814 537.842 211.144 537.17C211.474 536.492 211.948 535.964 212.566 535.586C213.184 535.208 213.931 535.019 214.807 535.019C215.479 535.019 216.043 535.127 216.499 535.343C216.955 535.559 217.324 535.844 217.606 536.198C217.894 536.546 218.113 536.927 218.263 537.341C218.413 537.755 218.515 538.16 218.569 538.556C218.623 538.952 218.65 539.3 218.65 539.6V545H216.742ZM209.911 545V535.28H211.594V538.088H211.819V545H209.911Z" fill="#FCFCFD"/>
<g filter="url(#filter0_bd_0_3538)">
<circle cx="216" cy="311" r="12" transform="rotate(-180 216 311)" fill="url(#paint9_linear_0_3538)" fill-opacity="0.04" shape-rendering="crispEdges"/>
<circle cx="216" cy="311" r="11.5" transform="rotate(-180 216 311)" stroke="url(#paint10_radial_0_3538)" shape-rendering="crispEdges"/>
</g>
<g filter="url(#filter1_bd_0_3538)">
<circle cx="256.697" cy="817.697" r="12" transform="rotate(15 256.697 817.697)" fill="url(#paint11_linear_0_3538)" fill-opacity="0.04" shape-rendering="crispEdges"/>
<circle cx="256.697" cy="817.697" r="11.5" transform="rotate(15 256.697 817.697)" stroke="url(#paint12_radial_0_3538)" stroke-opacity="0.5" shape-rendering="crispEdges"/>
</g>
<g opacity="0.5" filter="url(#filter2_bd_0_3538)">
<circle cx="751" cy="716" r="8" fill="url(#paint13_linear_0_3538)" fill-opacity="0.04" shape-rendering="crispEdges"/>
<circle cx="751" cy="716" r="7.5" stroke="url(#paint14_radial_0_3538)" stroke-opacity="0.5" shape-rendering="crispEdges"/>
</g>
<g filter="url(#filter3_bd_0_3538)">
<circle cx="693.199" cy="310" r="8" fill="url(#paint15_linear_0_3538)" fill-opacity="0.04" shape-rendering="crispEdges"/>
<circle cx="693.199" cy="310" r="7.5" stroke="url(#paint16_radial_0_3538)" stroke-opacity="0.5" shape-rendering="crispEdges"/>
</g>
<defs>
<filter id="filter0_bd_0_3538" x="154" y="249" width="124" height="124" filterUnits="userSpaceOnUse" color-interpolation-filters="sRGB">
<feFlood flood-opacity="0" result="BackgroundImageFix"/>
<feGaussianBlur in="BackgroundImageFix" stdDeviation="25"/>
<feComposite in2="SourceAlpha" operator="in" result="effect1_backgroundBlur_0_3538"/>
<feColorMatrix in="SourceAlpha" type="matrix" values="0 0 0 0 0 0 0 0 0 0 0 0 0 0 0 0 0 0 127 0" result="hardAlpha"/>
<feOffset dy="2"/>
<feGaussianBlur stdDeviation="1"/>
<feComposite in2="hardAlpha" operator="out"/>
<feColorMatrix type="matrix" values="0 0 0 0 0 0 0 0 0 0 0 0 0 0 0 0 0 0 0.25 0"/>
<feBlend mode="normal" in2="effect1_backgroundBlur_0_3538" result="effect2_dropShadow_0_3538"/>
<feBlend mode="normal" in="SourceGraphic" in2="effect2_dropShadow_0_3538" result="shape"/>
</filter>
<filter id="filter1_bd_0_3538" x="194.694" y="755.694" width="124.006" height="124.006" filterUnits="userSpaceOnUse" color-interpolation-filters="sRGB">
<feFlood flood-opacity="0" result="BackgroundImageFix"/>
<feGaussianBlur in="BackgroundImageFix" stdDeviation="25"/>
<feComposite in2="SourceAlpha" operator="in" result="effect1_backgroundBlur_0_3538"/>
<feColorMatrix in="SourceAlpha" type="matrix" values="0 0 0 0 0 0 0 0 0 0 0 0 0 0 0 0 0 0 127 0" result="hardAlpha"/>
<feOffset dy="2"/>
<feGaussianBlur stdDeviation="1"/>
<feComposite in2="hardAlpha" operator="out"/>
<feColorMatrix type="matrix" values="0 0 0 0 0 0 0 0 0 0 0 0 0 0 0 0 0 0 0.25 0"/>
<feBlend mode="normal" in2="effect1_backgroundBlur_0_3538" result="effect2_dropShadow_0_3538"/>
<feBlend mode="normal" in="SourceGraphic" in2="effect2_dropShadow_0_3538" result="shape"/>
</filter>
<filter id="filter2_bd_0_3538" x="693" y="658" width="116" height="116" filterUnits="userSpaceOnUse" color-interpolation-filters="sRGB">
<feFlood flood-opacity="0" result="BackgroundImageFix"/>
<feGaussianBlur in="BackgroundImageFix" stdDeviation="25"/>
<feComposite in2="SourceAlpha" operator="in" result="effect1_backgroundBlur_0_3538"/>
<feColorMatrix in="SourceAlpha" type="matrix" values="0 0 0 0 0 0 0 0 0 0 0 0 0 0 0 0 0 0 127 0" result="hardAlpha"/>
<feOffset dy="2"/>
<feGaussianBlur stdDeviation="1"/>
<feComposite in2="hardAlpha" operator="out"/>
<feColorMatrix type="matrix" values="0 0 0 0 0 0 0 0 0 0 0 0 0 0 0 0 0 0 0.25 0"/>
<feBlend mode="normal" in2="effect1_backgroundBlur_0_3538" result="effect2_dropShadow_0_3538"/>
<feBlend mode="normal" in="SourceGraphic" in2="effect2_dropShadow_0_3538" result="shape"/>
</filter>
<filter id="filter3_bd_0_3538" x="635.199" y="252" width="116" height="116" filterUnits="userSpaceOnUse" color-interpolation-filters="sRGB">
<feFlood flood-opacity="0" result="BackgroundImageFix"/>
<feGaussianBlur in="BackgroundImageFix" stdDeviation="25"/>
<feComposite in2="SourceAlpha" operator="in" result="effect1_backgroundBlur_0_3538"/>
<feColorMatrix in="SourceAlpha" type="matrix" values="0 0 0 0 0 0 0 0 0 0 0 0 0 0 0 0 0 0 127 0" result="hardAlpha"/>
<feOffset dy="2"/>
<feGaussianBlur stdDeviation="1"/>
<feComposite in2="hardAlpha" operator="out"/>
<feColorMatrix type="matrix" values="0 0 0 0 0 0 0 0 0 0 0 0 0 0 0 0 0 0 0.25 0"/>
<feBlend mode="normal" in2="effect1_backgroundBlur_0_3538" result="effect2_dropShadow_0_3538"/>
<feBlend mode="normal" in="SourceGraphic" in2="effect2_dropShadow_0_3538" result="shape"/>
</filter>
<linearGradient id="paint0_linear_0_3538" x1="722.567" y1="323.253" x2="331.674" y2="806.329" gradientUnits="userSpaceOnUse">
<stop stop-color="#545454"/>
<stop offset="1" stop-color="#545454" stop-opacity="0"/>
</linearGradient>
<linearGradient id="paint1_linear_0_3538" x1="800.86" y1="231.974" x2="243.97" y2="920.193" gradientUnits="userSpaceOnUse">
<stop stop-color="#545454"/>
<stop offset="1" stop-color="#545454" stop-opacity="0"/>
</linearGradient>
<linearGradient id="paint2_linear_0_3538" x1="307.372" y1="92.6667" x2="391.191" y2="261.319" gradientUnits="userSpaceOnUse">
<stop stop-color="white"/>
<stop offset="1" stop-color="#AAAAAA" stop-opacity="0"/>
</linearGradient>
<linearGradient id="paint3_linear_0_3538" x1="639.4" y1="157.083" x2="753.858" y2="227.797" gradientUnits="userSpaceOnUse">
<stop stop-color="#FAFF00"/>
<stop offset="1" stop-color="#FF9900"/>
</linearGradient>
<linearGradient id="paint4_linear_0_3538" x1="471.219" y1="498.667" x2="200.954" y2="380.731" gradientUnits="userSpaceOnUse">
<stop stop-color="#28A0F0"/>
<stop offset="1" stop-color="#2D374B"/>
</linearGradient>
<linearGradient id="paint5_linear_0_3538" x1="245.073" y1="456.126" x2="207.808" y2="451.76" gradientUnits="userSpaceOnUse">
<stop stop-color="#28A0F0"/>
<stop offset="1" stop-color="#2D374B"/>
</linearGradient>
<linearGradient id="paint6_linear_0_3538" x1="720" y1="282" x2="861.881" y2="345.012" gradientUnits="userSpaceOnUse">
<stop stop-color="#E84142"/>
<stop offset="1" stop-color="#E84B41"/>
</linearGradient>
<linearGradient id="paint7_linear_0_3538" x1="239.089" y1="667.083" x2="409.004" y2="734.322" gradientUnits="userSpaceOnUse">
<stop stop-color="#0083FF"/>
<stop offset="1"/>
</linearGradient>
<linearGradient id="paint8_linear_0_3538" x1="106" y1="517" x2="235.904" y2="559.294" gradientUnits="userSpaceOnUse">
<stop stop-color="#9757D7"/>
<stop offset="1" stop-color="#BD00FF"/>
</linearGradient>
<linearGradient id="paint9_linear_0_3538" x1="221.595" y1="306.067" x2="217.789" y2="339.338" gradientUnits="userSpaceOnUse">
<stop stop-color="#A4C8FF"/>
<stop offset="1" stop-color="#A4C8FF" stop-opacity="0"/>
</linearGradient>
<radialGradient id="paint10_radial_0_3538" cx="0" cy="0" r="1" gradientUnits="userSpaceOnUse" gradientTransform="translate(216 311) rotate(-132.581) scale(22.6298 17.5552)">
<stop stop-color="white"/>
<stop offset="1" stop-color="white" stop-opacity="0"/>
</radialGradient>
<linearGradient id="paint11_linear_0_3538" x1="262.292" y1="812.764" x2="258.486" y2="846.035" gradientUnits="userSpaceOnUse">
<stop stop-color="#A4C8FF"/>
<stop offset="1" stop-color="#A4C8FF" stop-opacity="0"/>
</linearGradient>
<radialGradient id="paint12_radial_0_3538" cx="0" cy="0" r="1" gradientUnits="userSpaceOnUse" gradientTransform="translate(256.697 817.697) rotate(-132.581) scale(22.6298 17.5552)">
<stop stop-color="white"/>
<stop offset="1" stop-color="white" stop-opacity="0"/>
</radialGradient>
<linearGradient id="paint13_linear_0_3538" x1="754.73" y1="712.711" x2="752.193" y2="734.892" gradientUnits="userSpaceOnUse">
<stop stop-color="#A4C8FF"/>
<stop offset="1" stop-color="#A4C8FF" stop-opacity="0"/>
</linearGradient>
<radialGradient id="paint14_radial_0_3538" cx="0" cy="0" r="1" gradientUnits="userSpaceOnUse" gradientTransform="translate(751 716) rotate(-132.581) scale(15.0865 11.7035)">
<stop stop-color="white"/>
<stop offset="1" stop-color="white" stop-opacity="0"/>
</radialGradient>
<linearGradient id="paint15_linear_0_3538" x1="696.929" y1="306.711" x2="694.392" y2="328.892" gradientUnits="userSpaceOnUse">
<stop stop-color="#A4C8FF"/>
<stop offset="1" stop-color="#A4C8FF" stop-opacity="0"/>
</linearGradient>
<radialGradient id="paint16_radial_0_3538" cx="0" cy="0" r="1" gradientUnits="userSpaceOnUse" gradientTransform="translate(693.199 310) rotate(-132.581) scale(15.0865 11.7035)">
<stop stop-color="white"/>
<stop offset="1" stop-color="white" stop-opacity="0"/>
</radialGradient>
<clipPath id="clip0_0_3538">
<rect width="24" height="24" fill="white" transform="translate(736 291)"/>
</clipPath>
<clipPath id="clip1_0_3538">
<rect width="16" height="16" fill="white" transform="translate(255 676)"/>
</clipPath>
<clipPath id="clip2_0_3538">
<rect width="16" height="13.9583" fill="white" transform="translate(126 531)"/>
</clipPath>
</defs>
</svg>
