<svg width="40" height="40" viewBox="0 0 40 40" fill="none" xmlns="http://www.w3.org/2000/svg">
<g clip-path="url(#clip0_18_1630)">
<path d="M21.5373 19.9997C21.5373 23.7636 18.5069 26.8148 14.7687 26.8148C11.0304 26.8148 8 23.7636 8 19.9997C8 16.2358 11.0304 13.1846 14.7687 13.1846C18.5068 13.1846 21.5373 16.2358 21.5373 19.9997Z" fill="#B1B5C3"/>
<path d="M28.9625 19.9992C28.9625 23.5422 27.4473 26.4144 25.5782 26.4144C23.7091 26.4144 22.1938 23.5422 22.1938 19.9992C22.1938 16.4562 23.7091 13.584 25.5782 13.584C27.4473 13.584 28.9625 16.4562 28.9625 19.9992Z" fill="#B1B5C3"/>
<path d="M32.0002 19.9997C32.0002 23.1741 31.4673 25.7475 30.8099 25.7475C30.1525 25.7475 29.6196 23.1741 29.6196 19.9997C29.6196 16.8253 30.1525 14.252 30.8099 14.252C31.4673 14.252 32.0002 16.8253 32.0002 19.9997Z" fill="#B1B5C3"/>
</g>
<defs>
<clipPath id="clip0_18_1630">
<rect width="24" height="24" fill="white" transform="translate(8 8)"/>
</clipPath>
</defs>
</svg>
