<svg width="40" height="40" viewBox="0 0 40 40" fill="none" xmlns="http://www.w3.org/2000/svg">
<g clip-path="url(#clip0_122_858)">
<path d="M31.4327 21.6528C31.1873 21.5914 30.9419 21.6528 30.7272 21.8061C29.9298 22.4809 29.0097 23.033 27.9975 23.401C27.0467 23.7691 26.0039 23.9531 24.8997 23.9531C22.4154 23.9531 20.1457 22.9409 18.5202 21.3154C16.8946 19.6898 15.8825 17.4202 15.8825 14.9358C15.8825 13.893 16.0665 12.8808 16.3732 11.9607C16.7106 10.9792 17.2013 10.0898 17.8454 9.32301C18.1214 8.98563 18.0601 8.49489 17.7227 8.21885C17.508 8.0655 17.2626 8.00416 17.0173 8.0655C14.4102 8.77093 12.1406 10.3352 10.515 12.4208C8.9508 14.4757 8 17.0214 8 19.8125C8 23.1556 9.34953 26.1921 11.5578 28.4004C13.7662 30.6087 16.8026 31.9582 20.1457 31.9582C22.9675 31.9582 25.5745 30.9767 27.6601 29.3512C29.7764 27.6949 31.31 25.3333 31.9541 22.6342C32.1074 22.1742 31.8621 21.7448 31.4327 21.6528ZM26.74 28.063C24.9611 29.4739 22.6914 30.3327 20.2071 30.3327C17.2933 30.3327 14.6556 29.1365 12.754 27.2349C10.8524 25.3333 9.65624 22.6956 9.65624 19.7818C9.65624 17.3588 10.4537 15.1505 11.8339 13.3716C12.7847 12.1447 13.9808 11.1326 15.361 10.4272C15.2077 10.7645 15.0543 11.1019 14.9317 11.47C14.5329 12.5741 14.3489 13.7396 14.3489 14.9665C14.3489 17.8802 15.5451 20.5486 17.4467 22.4502C19.3483 24.3518 22.0167 25.548 24.9304 25.548C26.2186 25.548 27.4454 25.3333 28.5803 24.9039C28.979 24.7505 29.3777 24.5972 29.7458 24.4131C29.0097 25.824 27.9975 27.0815 26.74 28.063Z" fill="#B1B5C3"/>
</g>
<defs>
<clipPath id="clip0_122_858">
<rect width="24" height="24" fill="white" transform="translate(8 8)"/>
</clipPath>
</defs>
</svg>
