<svg width="80" height="83" viewBox="0 0 80 83" fill="none" xmlns="http://www.w3.org/2000/svg">
<g filter="url(#filter0_d_0_4751)">
<path d="M19.668 45.865C15.4331 34.4767 21.2321 21.8115 32.6204 17.5766L36.3696 16.1824C42.5814 13.8725 49.4897 17.0356 51.7996 23.2474L56.6793 36.3695C58.9892 42.5813 55.8262 49.4896 49.6143 51.7995L36.4922 56.6792C30.2804 58.9891 23.3722 55.826 21.0622 49.6142L19.668 45.865Z" fill="#FFB028"/>
</g>
<path d="M34.9157 46.8924L32.1334 45.6315L40.9596 26.1552L43.7503 27.4385L34.9157 46.8924ZM45.8244 43.1721C45.0831 43.451 44.3379 43.5263 43.5887 43.398C42.8442 43.2593 42.1743 42.9557 41.5792 42.4873C40.9813 42.0114 40.5415 41.3991 40.2597 40.6503C39.9836 39.9166 39.9172 39.1723 40.0606 38.4174C40.2039 37.6626 40.5135 36.9862 40.9894 36.3883C41.4654 35.7903 42.0627 35.3561 42.7815 35.0857C43.5228 34.8067 44.2694 34.7352 45.0214 34.871C45.7706 34.9994 46.4405 35.303 47.0309 35.7817C47.626 36.2501 48.0644 36.8587 48.3462 37.6074C48.6279 38.3562 48.7009 39.1066 48.565 39.8586C48.4338 40.6003 48.1303 41.2701 47.6544 41.8681C47.1756 42.4585 46.5657 42.8932 45.8244 43.1721ZM44.8524 40.5889C45.1144 40.4903 45.3287 40.3328 45.4951 40.1163C45.669 39.897 45.7825 39.6534 45.8355 39.3856C45.8858 39.1102 45.8616 38.8415 45.763 38.5795C45.6644 38.3174 45.5068 38.1032 45.2904 37.9368C45.0711 37.7628 44.8237 37.6508 44.5484 37.6005C44.2806 37.5475 44.0156 37.5702 43.7535 37.6688C43.4915 37.7674 43.2735 37.9264 43.0996 38.1457C42.9332 38.3622 42.8248 38.6081 42.7746 38.8834C42.7215 39.1513 42.7443 39.4162 42.8429 39.6783C42.9415 39.9404 43.1005 40.1583 43.3198 40.3323C43.5362 40.4987 43.7784 40.6084 44.0463 40.6615C44.3216 40.7117 44.5903 40.6875 44.8524 40.5889ZM33.0938 37.9618C32.3525 38.2408 31.6073 38.3161 30.8581 38.1877C30.106 38.0518 29.4325 37.7497 28.8374 37.2813C28.2469 36.8026 27.8108 36.1888 27.5291 35.4401C27.253 34.7063 27.1866 33.962 27.3299 33.2071C27.4733 32.4523 27.7829 31.7759 28.2588 31.178C28.7347 30.5801 29.3321 30.1459 30.0509 29.8754C30.7921 29.5965 31.535 29.5263 32.2796 29.665C33.0288 29.7934 33.7023 30.0955 34.3003 30.5714C34.8954 31.0398 35.3338 31.6484 35.6155 32.3972C35.8973 33.1459 35.9702 33.8963 35.8344 34.6483C35.6957 35.3929 35.3884 36.0641 34.9125 36.662C34.4413 37.2496 33.835 37.6829 33.0938 37.9618ZM32.1217 35.3787C32.3838 35.2801 32.598 35.1225 32.7644 34.906C32.9384 34.6867 33.0518 34.4432 33.1049 34.1753C33.1552 33.9 33.131 33.6313 33.0324 33.3692C32.9337 33.1072 32.7762 32.8929 32.5597 32.7265C32.3404 32.5526 32.0931 32.4405 31.8178 32.3903C31.5499 32.3372 31.285 32.36 31.0229 32.4586C30.7608 32.5572 30.5429 32.7161 30.3689 32.9354C30.2025 33.1519 30.0942 33.3978 30.0439 33.6732C29.9909 33.941 30.0136 34.206 30.1123 34.468C30.2109 34.7301 30.3698 34.9481 30.5891 35.122C30.8056 35.2884 31.0478 35.3982 31.3156 35.4512C31.591 35.5015 31.8597 35.4773 32.1217 35.3787Z" fill="#23262F"/>
<g filter="url(#filter1_d_0_4751)">
<path d="M30.4764 18.4766C24.9766 20.9766 18.4766 27.4766 18.4766 35.4766C27.4766 34.4766 33.9764 22.9766 30.4764 18.4766Z" fill="url(#paint0_linear_0_4751)"/>
</g>
<defs>
<filter id="filter0_d_0_4751" x="0.282227" y="0.426758" width="79.1528" height="82.0083" filterUnits="userSpaceOnUse" color-interpolation-filters="sRGB">
<feFlood flood-opacity="0" result="BackgroundImageFix"/>
<feColorMatrix in="SourceAlpha" type="matrix" values="0 0 0 0 0 0 0 0 0 0 0 0 0 0 0 0 0 0 127 0" result="hardAlpha"/>
<feOffset dx="2" dy="5"/>
<feGaussianBlur stdDeviation="10"/>
<feColorMatrix type="matrix" values="0 0 0 0 0.886275 0 0 0 0 0.704 0 0 0 0 0.235294 0 0 0 0.46 0"/>
<feBlend mode="normal" in2="BackgroundImageFix" result="effect1_dropShadow_0_4751"/>
<feBlend mode="normal" in="SourceGraphic" in2="effect1_dropShadow_0_4751" result="shape"/>
</filter>
<filter id="filter1_d_0_4751" x="14.4766" y="18.4766" width="20.9634" height="25" filterUnits="userSpaceOnUse" color-interpolation-filters="sRGB">
<feFlood flood-opacity="0" result="BackgroundImageFix"/>
<feColorMatrix in="SourceAlpha" type="matrix" values="0 0 0 0 0 0 0 0 0 0 0 0 0 0 0 0 0 0 127 0" result="hardAlpha"/>
<feOffset dy="4"/>
<feGaussianBlur stdDeviation="2"/>
<feColorMatrix type="matrix" values="0 0 0 0 0 0 0 0 0 0 0 0 0 0 0 0 0 0 0.25 0"/>
<feBlend mode="normal" in2="BackgroundImageFix" result="effect1_dropShadow_0_4751"/>
<feBlend mode="normal" in="SourceGraphic" in2="effect1_dropShadow_0_4751" result="shape"/>
</filter>
<linearGradient id="paint0_linear_0_4751" x1="9.97657" y1="23.9766" x2="27.4766" y2="32.9766" gradientUnits="userSpaceOnUse">
<stop stop-color="#A3A3A3"/>
<stop offset="1" stop-color="white"/>
</linearGradient>
</defs>
</svg>
