<svg width="24" height="24" viewBox="0 0 24 24" fill="none" xmlns="http://www.w3.org/2000/svg">
<g clip-path="url(#clip0_122_414)">
<path d="M16.254 7.74555C15.1746 6.66619 13.6508 5.96777 12 5.96777C10.3492 5.96777 8.8254 6.63444 7.74604 7.74555C6.66667 8.82492 5.96826 10.3487 5.96826 11.9995C5.96826 13.6503 6.66667 15.1741 7.74604 16.2535C8.8254 17.3329 10.3492 18.0313 12 18.0313C13.6508 18.0313 15.1746 17.3646 16.254 16.2535C17.3333 15.1741 18.0318 13.6503 18.0318 11.9995C18.0318 10.3487 17.3651 8.82492 16.254 7.74555ZM15.1111 15.1106C14.3175 15.9043 13.2064 16.3805 12 16.3805C10.7937 16.3805 9.68255 15.9043 8.8889 15.1106C8.09525 14.317 7.61906 13.2059 7.61906 11.9995C7.61906 10.7932 8.09525 9.68206 8.8889 8.88841C9.68255 8.09476 10.7937 7.61857 12 7.61857C13.2064 7.61857 14.3175 8.09476 15.1111 8.88841C15.9048 9.68206 16.381 10.7932 16.381 11.9995C16.381 13.2059 15.9048 14.317 15.1111 15.1106Z" fill="#777E90"/>
<path d="M23.1746 11.1748H20.7302C20.2857 11.1748 19.9048 11.5558 19.9048 12.0002C19.9048 12.4446 20.2857 12.8256 20.7302 12.8256H23.1746C23.6191 12.8256 24 12.4446 24 12.0002C24 11.5558 23.6191 11.1748 23.1746 11.1748Z" fill="#777E90"/>
<path d="M12.0002 19.9043C11.5558 19.9043 11.1748 20.2853 11.1748 20.7297V23.1742C11.1748 23.6186 11.5558 23.9995 12.0002 23.9995C12.4446 23.9995 12.8256 23.6186 12.8256 23.1742V20.7297C12.8256 20.2853 12.4446 19.9043 12.0002 19.9043Z" fill="#777E90"/>
<path d="M20.4761 19.3337L18.7301 17.5877C18.4444 17.2702 17.9047 17.2702 17.5872 17.5877C17.2698 17.9052 17.2698 18.4131 17.5872 18.7306L19.3332 20.4766C19.6507 20.7941 20.1586 20.7941 20.4761 20.4766C20.7936 20.1591 20.7936 19.6512 20.4761 19.3337Z" fill="#777E90"/>
<path d="M12.0002 0C11.5558 0 11.1748 0.380952 11.1748 0.825396V3.26984C11.1748 3.71428 11.5558 4.09523 12.0002 4.09523C12.4446 4.09523 12.8256 3.71428 12.8256 3.26984V0.825396C12.8256 0.380952 12.4446 0 12.0002 0Z" fill="#777E90"/>
<path d="M20.5078 3.52423C20.1904 3.20677 19.6824 3.20677 19.365 3.52423L17.619 5.27026C17.3015 5.58772 17.3015 6.09566 17.619 6.41312C17.9047 6.73058 18.4444 6.73058 18.7618 6.41312L20.5078 4.66709C20.8253 4.34963 20.8253 3.84169 20.5078 3.52423Z" fill="#777E90"/>
<path d="M3.26984 11.1748H0.825396C0.380952 11.1748 0 11.5558 0 12.0002C0 12.4446 0.349206 12.8256 0.825396 12.8256H3.26984C3.71428 12.8256 4.09523 12.4446 4.09523 12.0002C4.09523 11.5558 3.71428 11.1748 3.26984 11.1748Z" fill="#777E90"/>
<path d="M6.38089 17.5877C6.09518 17.2702 5.55549 17.2702 5.23803 17.5877L3.492 19.3337C3.17454 19.6512 3.17454 20.1591 3.492 20.4766C3.80946 20.7941 4.3174 20.7941 4.63486 20.4766L6.38089 18.7306C6.69835 18.4131 6.69835 17.9052 6.38089 17.5877Z" fill="#777E90"/>
<path d="M6.38089 5.27026L4.63486 3.52423C4.3174 3.20677 3.80946 3.20677 3.492 3.52423C3.17454 3.84169 3.17454 4.34963 3.492 4.66709L5.23803 6.41312C5.55549 6.73058 6.06343 6.73058 6.38089 6.41312C6.69835 6.09566 6.69835 5.58772 6.38089 5.27026Z" fill="#777E90"/>
</g>
<defs>
<clipPath id="clip0_122_414">
<rect width="24" height="24" fill="white"/>
</clipPath>
</defs>
</svg>
