<svg width="40" height="40" viewBox="0 0 40 40" fill="none" xmlns="http://www.w3.org/2000/svg">
<rect width="40" height="40" rx="8" fill="#23262F"/>
<path d="M31.0769 13.1309C30.2531 13.4923 29.3752 13.7318 28.46 13.8482C29.4015 13.286 30.1202 12.4026 30.458 11.3378C29.5802 11.8612 28.6109 12.2309 27.578 12.4372C26.7445 11.5497 25.5565 11 24.2605 11C21.746 11 19.7217 13.0409 19.7217 15.5429C19.7217 15.9029 19.7522 16.2491 19.8269 16.5786C16.0511 16.3945 12.71 14.5848 10.4655 11.828C10.0737 12.5078 9.84385 13.286 9.84385 14.1237C9.84385 15.6966 10.6538 17.0909 11.8612 17.8982C11.1315 17.8843 10.4157 17.6725 9.80923 17.3388C9.80923 17.3526 9.80923 17.3706 9.80923 17.3886C9.80923 19.5957 11.3835 21.4289 13.448 21.8512C13.0783 21.9523 12.6754 22.0008 12.2572 22.0008C11.9665 22.0008 11.6729 21.9842 11.3974 21.9232C11.9858 23.7218 13.6557 25.0442 15.6412 25.0871C14.096 26.2958 12.134 27.0242 10.01 27.0242C9.63754 27.0242 9.28031 27.0075 8.92308 26.9618C10.9349 28.2592 13.3192 29 15.8905 29C24.248 29 28.8172 22.0769 28.8172 16.076C28.8172 15.8752 28.8103 15.6814 28.8006 15.4889C29.702 14.8492 30.4594 14.0503 31.0769 13.1309Z" fill="#1D9BF0"/>
</svg>
