<svg width="71" height="73" viewBox="0 0 71 73" fill="none" xmlns="http://www.w3.org/2000/svg">
<mask id="mask0_0_3320" style="mask-type:alpha" maskUnits="userSpaceOnUse" x="4" y="14" width="59" height="49">
<mask id="mask1_0_3320" style="mask-type:alpha" maskUnits="userSpaceOnUse" x="4" y="14" width="59" height="49">
<path d="M21.4623 62.4561C18.1983 62.4561 15.3183 61.7628 12.8223 60.3761C10.3263 58.9681 8.37425 57.0161 6.96625 54.5201C5.57958 52.0241 4.88625 49.1441 4.88625 45.8801V31.0321C4.88625 27.7681 5.57958 24.8881 6.96625 22.3921C8.37425 19.8961 10.3263 17.9548 12.8223 16.5681C15.3183 15.1601 18.1983 14.4561 21.4623 14.4561C24.7263 14.4561 27.5956 15.1601 30.0703 16.5681C32.5663 17.9548 34.5183 19.8961 35.9263 22.3921C37.3343 24.8881 38.0382 27.7681 38.0382 31.0321V45.8801C38.0382 49.1441 37.3343 52.0241 35.9263 54.5201C34.5183 57.0161 32.5663 58.9681 30.0703 60.3761C27.5956 61.7628 24.7263 62.4561 21.4623 62.4561ZM21.4623 55.1281C23.0836 55.1281 24.5556 54.7441 25.8783 53.9761C27.2009 53.1868 28.2463 52.1414 29.0143 50.8401C29.7823 49.5174 30.1663 48.0454 30.1663 46.4241V30.4561C30.1663 28.8134 29.7823 27.3414 29.0143 26.0401C28.2463 24.7174 27.2009 23.6721 25.8783 22.9041C24.5556 22.1148 23.0836 21.7201 21.4623 21.7201C19.8409 21.7201 18.3689 22.1148 17.0463 22.9041C15.7236 23.6721 14.6783 24.7174 13.9103 26.0401C13.1423 27.3414 12.7583 28.8134 12.7583 30.4561V46.4241C12.7583 48.0454 13.1423 49.5174 13.9103 50.8401C14.6783 52.1414 15.7236 53.1868 17.0463 53.9761C18.3689 54.7441 19.8409 55.1281 21.4623 55.1281ZM55.0113 61.4961V23.8321L46.3713 29.1121V20.6001L55.0113 15.4161H62.8833V61.4961H55.0113Z" fill="url(#paint0_linear_0_3320)"/>
</mask>
<g mask="url(#mask1_0_3320)">
<path d="M65.0256 -81.9824C32.4831 -94.1109 -42.0646 3.79886 -42.9545 5.68701C-82.9821 73.4541 32.2981 39.5342 35.6094 38.9071C-7.73098 -36.2207 66.9647 -56.086 65.0256 -81.9824Z" fill="#3B37FF"/>
<path d="M90.2102 -57.8134C59.2704 -68.2051 -7.94177 25.8438 -8.72315 27.641C-44.3691 92.3873 53.5161 82.2499 56.6102 81.5622C35.1737 15.8907 59.8564 -15.5851 90.2102 -57.8134Z" fill="#37E7FF"/>
<path d="M70.5587 -50.7033C28.222 -33.218 16.8631 26.2285 25.9356 43.7081C59.3695 77.3379 107.495 133.642 72.0024 65.9832C32.2415 -9.8133 134.156 -76.9691 70.5587 -50.7033Z" fill="#FF37D3"/>
<path d="M77.2676 -42.7064C71.8975 -56.2276 26.4895 -3.26922 12.6316 30.787C4.45957 87.8556 55.5487 114.781 53.143 55.478C52.4144 37.5167 39.8763 15.2889 67.2781 -17.4008C73.2004 -24.4659 78.7138 -39.0652 77.2676 -42.7064Z" fill="#23262F"/>
<g style="mix-blend-mode:color-dodge">
<path d="M85.9644 -81.2654C59.845 -76.9282 -47.0543 79.3323 -78.9385 52.6199C-140.067 156.111 35.9842 104.31 41.0412 103.352C50.7545 130.642 142.56 1.3714 85.9644 -81.2654Z" fill="#3B37FF"/>
<path d="M70.0861 -65.6826C39.1463 -76.0742 -28.0658 17.9747 -28.8472 19.7719C-64.4931 84.5182 33.3921 74.3807 36.4862 73.693C15.0497 8.02156 39.7324 -23.4542 70.0861 -65.6826Z" fill="#37E7FF"/>
<path d="M83.4752 7.16393C41.1385 24.6492 29.7796 84.0957 38.8521 101.575C72.286 135.205 120.411 191.509 84.9189 123.85C45.158 48.0539 147.072 -19.102 83.4752 7.16393Z" fill="#FF37D3"/>
</g>
</g>
</mask>
<g mask="url(#mask0_0_3320)">
<rect x="-12" y="3" width="83" height="64" fill="#2955BF"/>
</g>
<defs>
<linearGradient id="paint0_linear_0_3320" x1="2.34989e-07" y1="28.9996" x2="73.9526" y2="97.3254" gradientUnits="userSpaceOnUse">
<stop stop-color="#FF3CEF"/>
<stop offset="0.585302" stop-color="#3E2DF7"/>
<stop offset="0.677083" stop-color="#002560"/>
<stop offset="1" stop-color="#1A2545"/>
</linearGradient>
</defs>
</svg>
