<svg width="81" height="73" viewBox="0 0 81 73" fill="none" xmlns="http://www.w3.org/2000/svg">
<mask id="mask0_0_3337" style="mask-type:alpha" maskUnits="userSpaceOnUse" x="4" y="14" width="74" height="49">
<mask id="mask1_0_3337" style="mask-type:alpha" maskUnits="userSpaceOnUse" x="4" y="14" width="74" height="49">
<path d="M21.431 62.5108C18.167 62.5108 15.287 61.8174 12.791 60.4308C10.295 59.0228 8.343 57.0708 6.935 54.5748C5.54833 52.0788 4.855 49.1988 4.855 45.9348V31.0868C4.855 27.8228 5.54833 24.9428 6.935 22.4468C8.343 19.9508 10.295 18.0094 12.791 16.6228C15.287 15.2148 18.167 14.5108 21.431 14.5108C24.695 14.5108 27.5643 15.2148 30.039 16.6228C32.535 18.0094 34.487 19.9508 35.895 22.4468C37.303 24.9428 38.007 27.8228 38.007 31.0868V45.9348C38.007 49.1988 37.303 52.0788 35.895 54.5748C34.487 57.0708 32.535 59.0228 30.039 60.4308C27.5643 61.8174 24.695 62.5108 21.431 62.5108ZM21.431 55.1828C23.0523 55.1828 24.5243 54.7988 25.847 54.0308C27.1697 53.2414 28.215 52.1961 28.983 50.8948C29.751 49.5721 30.135 48.1001 30.135 46.4788V30.5108C30.135 28.8681 29.751 27.3961 28.983 26.0948C28.215 24.7721 27.1697 23.7268 25.847 22.9588C24.5243 22.1694 23.0523 21.7748 21.431 21.7748C19.8097 21.7748 18.3377 22.1694 17.015 22.9588C15.6923 23.7268 14.647 24.7721 13.879 26.0948C13.111 27.3961 12.727 28.8681 12.727 30.5108V46.4788C12.727 48.1001 13.111 49.5721 13.879 50.8948C14.647 52.1961 15.6923 53.2414 17.015 54.0308C18.3377 54.7988 19.8097 55.1828 21.431 55.1828ZM45.7 61.4868V54.7668L65.412 37.1988C66.948 35.8334 68.0147 34.5428 68.612 33.3268C69.2093 32.1108 69.508 30.9374 69.508 29.8068C69.508 28.2708 69.1773 26.9054 68.516 25.7108C67.8547 24.4948 66.9373 23.5348 65.764 22.8308C64.612 22.1268 63.2787 21.7748 61.764 21.7748C60.164 21.7748 58.7453 22.1481 57.508 22.8948C56.292 23.6201 55.3427 24.5908 54.66 25.8068C53.9773 27.0228 53.6573 28.3348 53.7 29.7428H45.764C45.764 26.6708 46.4467 23.9934 47.812 21.7108C49.1987 19.4281 51.0973 17.6574 53.508 16.3988C55.94 15.1401 58.7453 14.5108 61.924 14.5108C64.868 14.5108 67.5133 15.1721 69.86 16.4948C72.2067 17.7961 74.052 19.6094 75.396 21.9348C76.74 24.2388 77.412 26.8948 77.412 29.9028C77.412 32.1001 77.1133 33.9454 76.516 35.4388C75.9187 36.9321 75.0227 38.3081 73.828 39.5668C72.6547 40.8254 71.1933 42.2228 69.444 43.7588L55.46 56.1428L54.756 54.2228H77.412V61.4868H45.7Z" fill="url(#paint0_linear_0_3337)"/>
</mask>
<g mask="url(#mask1_0_3337)">
<path d="M89.6763 -55.1641C65.3736 -64.2216 9.70145 8.89732 9.03686 10.3074C-20.8558 60.9158 65.2354 35.5844 67.7084 35.1162C35.3417 -20.9893 91.1245 -35.8247 89.6763 -55.1641Z" fill="#3B37FF"/>
<path d="M108.484 -37.1143C85.3782 -44.8748 35.1842 25.3608 34.6007 26.703C7.98033 75.0555 81.081 67.4848 83.3916 66.9713C67.3829 17.9278 85.8159 -5.57827 108.484 -37.1143Z" fill="#37E7FF"/>
<path d="M93.8082 -31.8045C62.1912 -18.7465 53.7083 25.6481 60.4837 38.7019C85.4521 63.8166 121.392 105.864 94.8864 55.3369C65.1929 -1.26789 141.303 -51.4198 93.8082 -31.8045Z" fill="#FF37D3"/>
<path d="M98.8186 -25.8327C94.8082 -35.9303 60.8975 3.61899 50.5484 29.0522C44.4456 71.671 82.5989 91.779 80.8024 47.4914C80.2582 34.0779 70.8948 17.4782 91.3585 -6.9345C95.7812 -12.2107 99.8986 -23.1134 98.8186 -25.8327Z" fill="#23262F"/>
<g style="mix-blend-mode:color-dodge">
<path d="M105.314 -54.628C85.808 -51.389 5.97561 65.3063 -17.8355 45.3575C-63.4864 122.645 67.9887 83.9596 71.7653 83.2444C79.0191 103.625 147.58 7.08511 105.314 -54.628Z" fill="#3B37FF"/>
<path d="M93.4562 -42.9908C70.3504 -50.7513 20.1564 19.4844 19.5729 20.8265C-7.04749 69.1791 66.0531 61.6084 68.3638 61.0948C52.355 12.0514 70.7881 -11.4547 93.4562 -42.9908Z" fill="#37E7FF"/>
<path d="M103.455 11.4108C71.8382 24.4688 63.3553 68.8634 70.1307 81.9172C95.0991 107.032 131.039 149.08 104.533 98.5522C74.8399 41.9474 150.95 -8.20451 103.455 11.4108Z" fill="#FF37D3"/>
</g>
<rect x="-29.8125" y="-72.1221" width="166" height="217.027" fill="#141416" fill-opacity="0.05"/>
</g>
</mask>
<g mask="url(#mask0_0_3337)">
<rect x="-2" y="5" width="83" height="64" fill="#2955BF"/>
</g>
<defs>
<linearGradient id="paint0_linear_0_3337" x1="2.68086e-07" y1="29.0543" x2="74.0817" y2="107.139" gradientUnits="userSpaceOnUse">
<stop stop-color="#FF3CEF"/>
<stop offset="0.585302" stop-color="#3E2DF7"/>
<stop offset="0.677083" stop-color="#002560"/>
<stop offset="1" stop-color="#1A2545"/>
</linearGradient>
</defs>
</svg>
