<svg width="81" height="73" viewBox="0 0 81 73" fill="none" xmlns="http://www.w3.org/2000/svg">
<mask id="mask0_0_3902" style="mask-type:alpha" maskUnits="userSpaceOnUse" x="4" y="14" width="74" height="49">
<path d="M21.431 62.5108C18.167 62.5108 15.287 61.8174 12.791 60.4308C10.295 59.0228 8.343 57.0708 6.935 54.5748C5.54833 52.0788 4.855 49.1988 4.855 45.9348V31.0868C4.855 27.8228 5.54833 24.9428 6.935 22.4468C8.343 19.9508 10.295 18.0094 12.791 16.6228C15.287 15.2148 18.167 14.5108 21.431 14.5108C24.695 14.5108 27.5643 15.2148 30.039 16.6228C32.535 18.0094 34.487 19.9508 35.895 22.4468C37.303 24.9428 38.007 27.8228 38.007 31.0868V45.9348C38.007 49.1988 37.303 52.0788 35.895 54.5748C34.487 57.0708 32.535 59.0228 30.039 60.4308C27.5643 61.8174 24.695 62.5108 21.431 62.5108ZM21.431 55.1828C23.0523 55.1828 24.5243 54.7988 25.847 54.0308C27.1697 53.2414 28.215 52.1961 28.983 50.8948C29.751 49.5721 30.135 48.1001 30.135 46.4788V30.5108C30.135 28.8681 29.751 27.3961 28.983 26.0948C28.215 24.7721 27.1697 23.7268 25.847 22.9588C24.5243 22.1694 23.0523 21.7748 21.431 21.7748C19.8097 21.7748 18.3377 22.1694 17.015 22.9588C15.6923 23.7268 14.647 24.7721 13.879 26.0948C13.111 27.3961 12.727 28.8681 12.727 30.5108V46.4788C12.727 48.1001 13.111 49.5721 13.879 50.8948C14.647 52.1961 15.6923 53.2414 17.015 54.0308C18.3377 54.7988 19.8097 55.1828 21.431 55.1828ZM45.7 61.4868V54.7668L65.412 37.1988C66.948 35.8334 68.0147 34.5428 68.612 33.3268C69.2093 32.1108 69.508 30.9374 69.508 29.8068C69.508 28.2708 69.1773 26.9054 68.516 25.7108C67.8547 24.4948 66.9373 23.5348 65.764 22.8308C64.612 22.1268 63.2787 21.7748 61.764 21.7748C60.164 21.7748 58.7453 22.1481 57.508 22.8948C56.292 23.6201 55.3427 24.5908 54.66 25.8068C53.9773 27.0228 53.6573 28.3348 53.7 29.7428H45.764C45.764 26.6708 46.4467 23.9934 47.812 21.7108C49.1987 19.4281 51.0973 17.6574 53.508 16.3988C55.94 15.1401 58.7453 14.5108 61.924 14.5108C64.868 14.5108 67.5133 15.1721 69.86 16.4948C72.2067 17.7961 74.052 19.6094 75.396 21.9348C76.74 24.2388 77.412 26.8948 77.412 29.9028C77.412 32.1001 77.1133 33.9454 76.516 35.4388C75.9187 36.9321 75.0227 38.3081 73.828 39.5668C72.6547 40.8254 71.1933 42.2228 69.444 43.7588L55.46 56.1428L54.756 54.2228H77.412V61.4868H45.7Z" fill="url(#paint0_linear_0_3902)"/>
</mask>
<g mask="url(#mask0_0_3902)">
<g filter="url(#filter0_f_0_3902)">
<path d="M89.6714 -55.1641C65.3687 -64.2216 9.69657 8.89732 9.03198 10.3074C-20.8606 60.9158 65.2305 35.5844 67.7035 35.1162C35.3369 -20.9893 91.1196 -35.8247 89.6714 -55.1641Z" fill="#3B37FF"/>
<path d="M108.479 -37.1139C85.3733 -44.8744 35.1793 25.3613 34.5958 26.7035C7.97545 75.056 81.0761 67.4853 83.3867 66.9718C67.378 17.9283 85.811 -5.57778 108.479 -37.1139Z" fill="#37E7FF"/>
<path d="M93.8033 -31.8035C62.1863 -18.7455 53.7035 25.6491 60.4788 38.7028C85.4473 63.8176 121.387 105.865 94.8815 55.3379C65.188 -1.26691 141.298 -51.4189 93.8033 -31.8035Z" fill="#FF37D3"/>
<path d="M98.8137 -25.8317C94.8033 -35.9294 60.8927 3.61996 50.5436 29.0531C44.4407 71.672 82.5941 91.78 80.7975 47.4924C80.2533 34.0789 70.8899 17.4791 91.3536 -6.93353C95.7763 -12.2097 99.8937 -23.1125 98.8137 -25.8317Z" fill="#FCFCFD"/>
</g>
<g style="mix-blend-mode:color-dodge" filter="url(#filter1_f_0_3902)">
<path d="M105.313 -54.628C85.8074 -51.389 5.975 65.3063 -17.8361 45.3575C-63.487 122.645 67.9881 83.9596 71.7647 83.2444C79.0185 103.625 147.579 7.08511 105.313 -54.628Z" fill="#3B37FF"/>
<path d="M93.4556 -42.9908C70.3498 -50.7513 20.1558 19.4844 19.5723 20.8265C-7.0481 69.1791 66.0525 61.6084 68.3632 61.0948C52.3544 12.0514 70.7875 -11.4547 93.4556 -42.9908Z" fill="#37E7FF"/>
<path d="M103.456 11.4108C71.8385 24.4688 63.3557 68.8634 70.1311 81.9172C95.0995 107.032 131.039 149.08 104.534 98.5522C74.8403 41.9474 150.95 -8.20451 103.456 11.4108Z" fill="#FF37D3"/>
</g>
<g filter="url(#filter2_b_0_3902)">
<rect x="-29.8125" y="-72.1221" width="166" height="217.027" fill="#141416" fill-opacity="0.05"/>
</g>
</g>
<defs>
<filter id="filter0_f_0_3902" x="-8.09117" y="-66.7662" width="128.749" height="156.667" filterUnits="userSpaceOnUse" color-interpolation-filters="sRGB">
<feFlood flood-opacity="0" result="BackgroundImageFix"/>
<feBlend mode="normal" in="SourceGraphic" in2="BackgroundImageFix" result="shape"/>
<feGaussianBlur stdDeviation="5.41265" result="effect1_foregroundBlur_0_3902"/>
</filter>
<filter id="filter1_f_0_3902" x="-38.2794" y="-65.4532" width="168.59" height="198.569" filterUnits="userSpaceOnUse" color-interpolation-filters="sRGB">
<feFlood flood-opacity="0" result="BackgroundImageFix"/>
<feBlend mode="normal" in="SourceGraphic" in2="BackgroundImageFix" result="shape"/>
<feGaussianBlur stdDeviation="5.41265" result="effect1_foregroundBlur_0_3902"/>
</filter>
<filter id="filter2_b_0_3902" x="-56.8125" y="-99.1221" width="220" height="271.026" filterUnits="userSpaceOnUse" color-interpolation-filters="sRGB">
<feFlood flood-opacity="0" result="BackgroundImageFix"/>
<feGaussianBlur in="BackgroundImageFix" stdDeviation="13.5"/>
<feComposite in2="SourceAlpha" operator="in" result="effect1_backgroundBlur_0_3902"/>
<feBlend mode="normal" in="SourceGraphic" in2="effect1_backgroundBlur_0_3902" result="shape"/>
</filter>
<linearGradient id="paint0_linear_0_3902" x1="2.68086e-07" y1="29.0543" x2="74.0817" y2="107.139" gradientUnits="userSpaceOnUse">
<stop stop-color="#FF3CEF"/>
<stop offset="0.585302" stop-color="#3E2DF7"/>
<stop offset="0.677083" stop-color="#002560"/>
<stop offset="1" stop-color="#1A2545"/>
</linearGradient>
</defs>
</svg>
