<svg width="80" height="73" viewBox="0 0 80 73" fill="none" xmlns="http://www.w3.org/2000/svg">
<mask id="mask0_0_3887" style="mask-type:alpha" maskUnits="userSpaceOnUse" x="4" y="14" width="72" height="49">
<path d="M21.3998 62.5655C18.1358 62.5655 15.2558 61.8721 12.7598 60.4855C10.2638 59.0775 8.31175 57.1255 6.90375 54.6295C5.51708 52.1335 4.82375 49.2535 4.82375 45.9895V31.1415C4.82375 27.8775 5.51708 24.9975 6.90375 22.5015C8.31175 20.0055 10.2638 18.0641 12.7598 16.6775C15.2558 15.2695 18.1358 14.5655 21.3998 14.5655C24.6638 14.5655 27.5331 15.2695 30.0078 16.6775C32.5038 18.0641 34.4558 20.0055 35.8638 22.5015C37.2718 24.9975 37.9757 27.8775 37.9757 31.1415V45.9895C37.9757 49.2535 37.2718 52.1335 35.8638 54.6295C34.4558 57.1255 32.5038 59.0775 30.0078 60.4855C27.5331 61.8721 24.6638 62.5655 21.3998 62.5655ZM21.3998 55.2375C23.0211 55.2375 24.4931 54.8535 25.8158 54.0855C27.1384 53.2961 28.1838 52.2508 28.9518 50.9495C29.7198 49.6268 30.1038 48.1548 30.1038 46.5335V30.5655C30.1038 28.9228 29.7198 27.4508 28.9518 26.1495C28.1838 24.8268 27.1384 23.7815 25.8158 23.0135C24.4931 22.2241 23.0211 21.8295 21.3998 21.8295C19.7784 21.8295 18.3064 22.2241 16.9838 23.0135C15.6611 23.7815 14.6158 24.8268 13.8478 26.1495C13.0798 27.4508 12.6958 28.9228 12.6958 30.5655V46.5335C12.6958 48.1548 13.0798 49.6268 13.8478 50.9495C14.6158 52.2508 15.6611 53.2961 16.9838 54.0855C18.3064 54.8535 19.7784 55.2375 21.3998 55.2375ZM60.1328 62.4695C57.8288 62.4695 55.6528 62.0215 53.6048 61.1255C51.5568 60.2295 49.7754 58.9601 48.2608 57.3175C46.7674 55.6748 45.6901 53.7335 45.0288 51.4935L52.4848 49.4775C53.0181 51.3121 53.9888 52.7308 55.3968 53.7335C56.8261 54.7148 58.3941 55.1948 60.1007 55.1735C61.6154 55.1735 62.9701 54.8215 64.1648 54.1175C65.3594 53.4135 66.2981 52.4641 66.9808 51.2695C67.6634 50.0535 68.0048 48.6988 68.0048 47.2055C68.0048 44.9228 67.2688 43.0135 65.7968 41.4775C64.3248 39.9415 62.4261 39.1735 60.1007 39.1735C59.3968 39.1735 58.7034 39.2695 58.0208 39.4615C57.3594 39.6535 56.7194 39.9201 56.1008 40.2615L52.5808 34.1815L68.0688 20.9335L68.7408 22.7895H46.8208V15.5255H75.0768V22.8215L62.6288 34.7895L62.5648 32.5175C65.3594 32.7095 67.7381 33.4881 69.7008 34.8535C71.6848 36.2188 73.1994 37.9788 74.2448 40.1335C75.3114 42.2881 75.8448 44.6455 75.8448 47.2055C75.8448 50.1068 75.1301 52.7095 73.7008 55.0135C72.2928 57.3175 70.3941 59.1415 68.0048 60.4855C65.6368 61.8081 63.0128 62.4695 60.1328 62.4695Z" fill="url(#paint0_linear_0_3887)"/>
</mask>
<g mask="url(#mask0_0_3887)">
<g filter="url(#filter0_f_0_3887)">
<path d="M89.6714 -55.1641C65.3687 -64.2216 9.69657 8.89732 9.03198 10.3074C-20.8606 60.9158 65.2305 35.5844 67.7035 35.1162C35.3369 -20.9893 91.1196 -35.8247 89.6714 -55.1641Z" fill="#3B37FF"/>
<path d="M108.479 -37.1139C85.3733 -44.8744 35.1793 25.3613 34.5958 26.7035C7.97545 75.056 81.0761 67.4853 83.3867 66.9718C67.378 17.9283 85.811 -5.57778 108.479 -37.1139Z" fill="#37E7FF"/>
<path d="M93.8033 -31.8035C62.1863 -18.7455 53.7035 25.6491 60.4788 38.7028C85.4473 63.8176 121.387 105.865 94.8815 55.3379C65.188 -1.26691 141.298 -51.4189 93.8033 -31.8035Z" fill="#FF37D3"/>
<path d="M98.8137 -25.8317C94.8033 -35.9294 60.8927 3.61996 50.5436 29.0531C44.4407 71.672 82.5941 91.78 80.7975 47.4924C80.2533 34.0789 70.8899 17.4791 91.3536 -6.93353C95.7763 -12.2097 99.8937 -23.1125 98.8137 -25.8317Z" fill="#FCFCFD"/>
</g>
<g style="mix-blend-mode:color-dodge" filter="url(#filter1_f_0_3887)">
<path d="M105.313 -54.628C85.8075 -51.389 5.97512 65.3063 -17.836 45.3575C-63.4868 122.645 67.9883 83.9596 71.7648 83.2444C79.0187 103.625 147.579 7.08511 105.313 -54.628Z" fill="#3B37FF"/>
<path d="M93.4557 -42.9908C70.3499 -50.7513 20.1559 19.4844 19.5724 20.8265C-7.04798 69.1791 66.0527 61.6084 68.3633 61.0948C52.3545 12.0514 70.7876 -11.4547 93.4557 -42.9908Z" fill="#37E7FF"/>
<path d="M103.456 11.4108C71.8386 24.4688 63.3558 68.8634 70.1312 81.9172C95.0996 107.032 131.039 149.08 104.534 98.5522C74.8404 41.9474 150.95 -8.20451 103.456 11.4108Z" fill="#FF37D3"/>
</g>
<g filter="url(#filter2_b_0_3887)">
<rect x="-29.8125" y="-72.1221" width="166" height="217.027" fill="#141416" fill-opacity="0.05"/>
</g>
</g>
<defs>
<filter id="filter0_f_0_3887" x="-8.09117" y="-66.7662" width="128.749" height="156.667" filterUnits="userSpaceOnUse" color-interpolation-filters="sRGB">
<feFlood flood-opacity="0" result="BackgroundImageFix"/>
<feBlend mode="normal" in="SourceGraphic" in2="BackgroundImageFix" result="shape"/>
<feGaussianBlur stdDeviation="5.41265" result="effect1_foregroundBlur_0_3887"/>
</filter>
<filter id="filter1_f_0_3887" x="-38.2792" y="-65.4532" width="168.59" height="198.569" filterUnits="userSpaceOnUse" color-interpolation-filters="sRGB">
<feFlood flood-opacity="0" result="BackgroundImageFix"/>
<feBlend mode="normal" in="SourceGraphic" in2="BackgroundImageFix" result="shape"/>
<feGaussianBlur stdDeviation="5.41265" result="effect1_foregroundBlur_0_3887"/>
</filter>
<filter id="filter2_b_0_3887" x="-56.8125" y="-99.1221" width="220" height="271.026" filterUnits="userSpaceOnUse" color-interpolation-filters="sRGB">
<feFlood flood-opacity="0" result="BackgroundImageFix"/>
<feGaussianBlur in="BackgroundImageFix" stdDeviation="13.5"/>
<feComposite in2="SourceAlpha" operator="in" result="effect1_backgroundBlur_0_3887"/>
<feBlend mode="normal" in="SourceGraphic" in2="effect1_backgroundBlur_0_3887" result="shape"/>
</filter>
<linearGradient id="paint0_linear_0_3887" x1="-17" y1="25.1085" x2="62.9739" y2="92.7458" gradientUnits="userSpaceOnUse">
<stop stop-color="#1600FF"/>
<stop offset="1" stop-color="#FF3CEF"/>
</linearGradient>
</defs>
</svg>
