<svg width="219" height="34" viewBox="0 0 219 34" fill="none" xmlns="http://www.w3.org/2000/svg">
<path d="M42.4031 26.2633C41.8559 26.2633 41.5823 26.1266 41.3087 25.9898C41.1719 25.7162 41.0352 25.4426 41.0352 25.0322V9.71166C41.0352 9.30129 41.1719 8.89092 41.3087 8.75413C41.5823 8.48054 41.8559 8.34375 42.4031 8.34375H48.8322C51.2945 8.34375 53.0728 8.89092 54.3039 9.84845C55.3982 10.9428 56.0821 12.4475 56.0821 14.4993C56.0821 16.5512 55.535 18.0559 54.3039 19.1502C53.2095 20.1078 51.2945 20.6549 48.8322 20.6549H46.37V24.8954C46.37 25.3058 46.2332 25.7162 46.0964 25.853C45.8228 26.1266 45.5493 26.1266 45.0021 26.1266H42.4031V26.2633ZM48.4219 16.8248C49.1058 16.8248 49.653 16.688 50.0633 16.2776C50.4737 15.8672 50.6105 15.3201 50.6105 14.4993C50.6105 13.6786 50.4737 13.1314 50.0633 12.7211C49.653 12.3107 49.1058 12.1739 48.4219 12.1739H46.37V16.8248H48.4219Z" fill="#FCFCFD"/>
<path d="M62.2373 26.6741C60.5958 26.6741 59.2279 26.127 58.2703 25.0326C57.3128 23.9383 56.7656 22.4336 56.7656 20.5185C56.7656 19.0138 57.0392 17.7827 57.7232 16.6884C58.4071 15.5941 59.3646 14.7733 60.5958 14.0894C61.8269 13.5422 63.3316 13.1318 64.8363 13.1318C66.2042 13.1318 67.2985 13.2686 68.3928 13.5422C69.4872 13.8158 70.3079 14.2262 71.2655 14.7733V25.3062C71.2655 25.5798 71.2655 25.8534 71.1287 25.9902C70.9919 26.127 70.7183 26.127 70.4447 26.127H67.7089C67.5721 26.127 67.2985 26.127 67.2985 25.9902C67.1617 25.8534 67.1617 25.8534 67.0249 25.7166L66.6146 24.8958C66.0674 25.443 65.5202 25.8534 64.8363 26.127C64.1523 26.5373 63.1948 26.6741 62.2373 26.6741ZM64.1523 23.1176C64.8363 23.1176 65.3834 22.9808 65.7938 22.5704C66.2042 22.2968 66.341 21.7497 66.341 21.2025V17.0988C66.0674 16.962 65.5202 16.8252 65.1099 16.8252C64.1523 16.8252 63.4684 17.0988 62.9212 17.7827C62.374 18.4667 62.1005 19.2874 62.1005 20.5185C62.1005 22.16 62.7844 23.1176 64.1523 23.1176Z" fill="#FCFCFD"/>
<path d="M74.9617 26.2637C74.4145 26.2637 74.1409 26.1269 73.8673 25.9901C73.5937 25.7165 73.5938 25.4429 73.5938 25.0326V14.3629C73.5938 14.0893 73.5937 13.8157 73.7305 13.6789C73.8673 13.5421 74.1409 13.5421 74.4145 13.5421H77.1503C77.4239 13.5421 77.5607 13.5421 77.5607 13.6789C77.6975 13.6789 77.6975 13.8157 77.8343 13.9525L77.9711 14.7733C78.5182 14.2261 79.0654 13.9525 79.8861 13.6789C80.7069 13.4053 81.5276 13.2686 82.6219 13.2686C83.9899 13.2686 85.221 13.6789 86.0417 14.4997C86.8625 15.3204 87.4096 16.4147 87.4096 18.0562V25.0326C87.4096 25.4429 87.2728 25.8533 87.136 25.9901C86.9992 26.2637 86.5889 26.2637 86.0417 26.2637H83.4427C82.8955 26.2637 82.6219 26.1269 82.3484 25.9901C82.0748 25.7165 82.0748 25.4429 82.0748 25.0326V18.3298C82.0748 17.7827 81.938 17.3723 81.6644 17.2355C81.3908 16.9619 81.1172 16.8251 80.5701 16.8251C80.0229 16.8251 79.6125 16.9619 79.339 17.2355C79.0654 17.5091 78.9286 17.9194 78.9286 18.3298V24.8958C78.9286 25.3061 78.7918 25.7165 78.655 25.8533C78.5182 26.1269 78.1078 26.1269 77.5607 26.1269H74.9617V26.2637Z" fill="#FCFCFD"/>
<path d="M96.7072 26.6741C94.245 26.6741 92.3299 26.1269 90.962 24.8958C89.5941 23.8014 88.9102 22.16 88.9102 19.9713C88.9102 18.6034 89.1837 17.5091 89.8677 16.4147C90.4149 15.4572 91.3724 14.6365 92.4667 14.0893C93.6978 13.5421 95.0657 13.2686 96.5704 13.2686C97.8016 13.2686 98.7591 13.4053 99.5798 13.6789C100.401 13.9525 101.221 14.2261 101.768 14.7733C101.905 14.91 102.042 15.0468 102.042 15.1836C102.042 15.3204 101.905 15.4572 101.768 15.7308L100.674 17.6459C100.537 17.9194 100.401 18.0562 100.264 18.0562C100.127 18.0562 99.9902 17.9194 99.7166 17.7827C99.3063 17.5091 98.7591 17.2355 98.3487 17.0987C97.9384 16.9619 97.3912 16.8251 96.844 16.8251C96.0233 16.8251 95.2025 17.0987 94.6554 17.6459C94.1082 18.193 93.8346 19.0138 93.8346 19.9713C93.8346 20.9288 94.1082 21.7496 94.6554 22.2967C95.2025 22.8439 95.8865 23.1175 96.844 23.1175C97.3912 23.1175 97.9384 22.9807 98.3487 22.8439C98.7591 22.7071 99.3063 22.4335 99.7166 22.16C99.9902 22.0232 100.127 21.8864 100.264 21.8864C100.401 21.8864 100.537 22.0232 100.674 22.2967L101.905 24.3486C102.042 24.4854 102.042 24.6222 102.042 24.759C102.042 24.8958 101.905 25.0326 101.768 25.1694C101.085 25.5797 100.264 25.9901 99.3063 26.2637C98.8959 26.5373 97.9383 26.6741 96.7072 26.6741Z" fill="#FCFCFD"/>
<path d="M109.159 26.6741C107.518 26.6741 106.15 26.127 105.192 25.0326C104.235 23.9383 103.688 22.4336 103.688 20.5185C103.688 19.0138 103.961 17.7827 104.645 16.6884C105.329 15.5941 106.287 14.7733 107.518 14.0894C108.749 13.5422 110.253 13.1318 111.758 13.1318C113.126 13.1318 114.22 13.2686 115.315 13.5422C116.409 13.8158 117.23 14.2262 118.187 14.7733V25.3062C118.187 25.5798 118.187 25.8534 118.051 25.9902C117.914 26.127 117.64 26.127 117.367 26.127H114.631C114.494 26.127 114.22 26.127 114.22 25.9902C114.084 25.8534 114.084 25.8534 113.947 25.7166L113.536 24.8958C112.989 25.443 112.442 25.8534 111.758 26.127C111.074 26.5373 110.253 26.6741 109.159 26.6741ZM111.211 23.1176C111.895 23.1176 112.442 22.9808 112.852 22.5704C113.263 22.2968 113.4 21.7497 113.4 21.2025V17.0988C113.126 16.962 112.579 16.8252 112.169 16.8252C111.211 16.8252 110.527 17.0988 109.98 17.7827C109.433 18.4667 109.159 19.2874 109.159 20.5185C109.022 22.16 109.706 23.1176 111.211 23.1176Z" fill="#FCFCFD"/>
<path d="M134.875 25.3058C135.012 25.4426 135.012 25.5794 135.012 25.7162C135.012 25.853 135.012 25.9898 134.875 26.1266C134.738 26.2633 134.601 26.2633 134.464 26.2633H130.361C130.087 26.2633 129.95 26.2633 129.813 26.2633C129.677 26.2633 129.54 26.1266 129.403 25.9898L125.847 21.0653V24.8954C125.847 25.3058 125.71 25.7162 125.573 25.853C125.299 26.1266 125.026 26.1266 124.479 26.1266H121.88C121.332 26.1266 121.059 25.9898 120.785 25.853C120.649 25.5794 120.512 25.3058 120.512 24.8954V9.71166C120.512 9.30129 120.649 8.89092 120.785 8.75413C121.059 8.48054 121.332 8.34375 121.88 8.34375H124.479C125.026 8.34375 125.299 8.48054 125.573 8.75413C125.847 9.02771 125.847 9.30129 125.847 9.71166V18.4663L129.266 13.9522C129.403 13.8154 129.54 13.6786 129.677 13.6786C129.814 13.6786 129.95 13.5418 130.224 13.5418H134.328C134.464 13.5418 134.601 13.5418 134.738 13.6786C134.875 13.8154 134.875 13.9522 134.875 14.089C134.875 14.2258 134.875 14.3625 134.738 14.4993L130.224 19.6974L134.875 25.3058Z" fill="#FCFCFD"/>
<path d="M143.352 26.673C141.847 26.673 140.616 26.3994 139.385 25.9891C138.29 25.4419 137.333 24.7579 136.649 23.8004C135.965 22.8429 135.691 21.6117 135.691 20.2438C135.691 18.0552 136.375 16.2769 137.606 15.1826C138.838 13.9515 140.753 13.4043 143.078 13.4043C145.404 13.4043 147.182 13.9515 148.276 15.1826C149.507 16.2769 150.054 17.9184 150.054 19.9703C150.054 20.791 149.644 21.3382 148.96 21.3382H140.753C140.753 22.1589 141.026 22.7061 141.573 23.1164C142.121 23.5268 143.078 23.6636 144.172 23.6636C144.856 23.6636 145.54 23.6636 145.951 23.5268C146.498 23.39 146.908 23.1164 147.455 22.9797C147.729 22.8429 147.866 22.8429 147.866 22.8429C148.003 22.8429 148.139 22.9797 148.276 23.1164L149.234 24.7579C149.37 24.8947 149.37 25.0315 149.37 25.1683C149.37 25.3051 149.234 25.4419 149.097 25.5787C148.413 25.9891 147.592 26.3994 146.635 26.673C145.54 26.5362 144.583 26.673 143.352 26.673ZM145.404 18.4656C145.404 17.7816 145.267 17.2344 144.856 16.9609C144.446 16.5505 143.899 16.4137 143.078 16.4137C142.257 16.4137 141.71 16.5505 141.3 16.9609C140.889 17.3712 140.753 17.7816 140.753 18.4656H145.404Z" fill="#FCFCFD"/>
<path d="M159.223 26.6738C157.718 26.6738 156.35 26.537 154.982 26.2634C153.614 25.9898 152.657 25.4427 151.836 24.8955C151.563 24.7587 151.426 24.4851 151.426 24.3484C151.426 24.2116 151.426 24.0748 151.563 23.938L152.794 21.8861C152.93 21.6125 153.067 21.6125 153.204 21.6125C153.341 21.6125 153.478 21.6125 153.614 21.7493C154.298 22.1597 154.982 22.4333 155.803 22.7069C156.624 22.9804 157.445 23.1172 158.265 23.1172C159.086 23.1172 159.633 22.9804 160.044 22.7069C160.454 22.4333 160.591 22.0229 160.591 21.4757C160.591 20.9286 160.317 20.5182 159.907 20.2446C159.496 19.971 158.676 19.5607 157.445 19.1503C155.666 18.4663 154.298 17.7824 153.341 16.9616C152.383 16.1409 151.836 14.9098 151.836 13.5419C151.836 11.7636 152.52 10.5325 153.751 9.57494C154.982 8.6174 156.624 8.20703 158.676 8.20703C160.18 8.20703 161.412 8.34382 162.369 8.6174C163.463 8.89098 164.284 9.30136 164.968 9.71173C165.242 9.98531 165.378 10.1221 165.378 10.3957C165.378 10.5325 165.378 10.6693 165.242 10.8061L164.011 12.8579C163.874 13.1315 163.737 13.1315 163.6 13.1315C163.463 13.1315 163.327 13.1315 163.19 12.9947C162.232 12.3108 161.001 12.0372 159.496 12.0372C158.676 12.0372 158.129 12.174 157.718 12.4475C157.308 12.7211 157.171 13.1315 157.171 13.6787C157.171 14.089 157.308 14.3626 157.445 14.6362C157.718 14.9098 157.992 15.0466 158.265 15.3202C158.676 15.4569 159.223 15.7305 159.907 16.0041L160.454 16.1409C161.685 16.6881 162.779 17.0984 163.463 17.6456C164.284 18.056 164.831 18.7399 165.242 19.4239C165.652 20.1078 165.789 20.9286 165.789 21.8861C165.789 23.3908 165.242 24.7587 164.011 25.5795C163.19 26.1266 161.412 26.6738 159.223 26.6738Z" fill="#FCFCFD"/>
<path d="M171.67 26.2626C171.397 26.2626 171.26 26.2626 171.123 26.1258C170.986 25.989 170.849 25.8522 170.849 25.5786L167.43 14.225C167.43 14.0882 167.43 14.0882 167.43 13.9514C167.43 13.6778 167.566 13.541 167.977 13.541H171.397C171.67 13.541 171.807 13.541 171.944 13.6778C172.081 13.8146 172.081 13.8146 172.217 14.0882L173.585 20.107L175.364 15.3193C175.5 15.0457 175.5 14.9089 175.637 14.9089C175.774 14.7721 175.911 14.7721 176.184 14.7721H177.826C178.099 14.7721 178.236 14.7721 178.373 14.9089C178.51 15.0457 178.51 15.1825 178.647 15.3193L180.425 20.107L181.93 14.0882C181.93 13.9514 182.066 13.8146 182.203 13.6778C182.34 13.541 182.477 13.541 182.613 13.541H186.17C186.58 13.541 186.717 13.6778 186.717 13.9514C186.717 13.9514 186.717 14.0882 186.717 14.225L183.297 25.5786C183.161 25.8522 183.161 25.989 183.024 26.1258C182.887 26.2626 182.75 26.2626 182.477 26.2626H179.878C179.604 26.2626 179.467 26.2626 179.331 26.1258C179.194 25.989 179.057 25.8522 179.057 25.5786L177.279 20.7909L175.5 25.5786C175.364 25.8522 175.364 25.989 175.227 26.1258C175.09 26.2626 174.953 26.2626 174.68 26.2626H171.67Z" fill="#FCFCFD"/>
<path d="M193.011 26.6741C191.369 26.6741 190.001 26.127 189.044 25.0326C188.086 23.9383 187.539 22.4336 187.539 20.5185C187.539 19.0138 187.813 17.7827 188.497 16.6884C189.181 15.5941 190.138 14.7733 191.369 14.0894C192.6 13.5422 194.105 13.1318 195.61 13.1318C196.978 13.1318 198.072 13.2686 199.166 13.5422C200.261 13.8158 201.081 14.2262 202.039 14.7733V25.3062C202.039 25.5798 202.039 25.8534 201.902 25.9902C201.765 26.127 201.492 26.127 201.218 26.127H198.482C198.346 26.127 198.209 26.127 198.072 25.9902C197.935 25.8534 197.935 25.8534 197.798 25.7166L197.388 24.8958C196.841 25.443 196.294 25.8534 195.61 26.127C194.926 26.5373 194.105 26.6741 193.011 26.6741ZM195.063 23.1176C195.747 23.1176 196.294 22.9808 196.704 22.5704C197.114 22.2968 197.251 21.7497 197.251 21.2025V17.0988C196.978 16.962 196.43 16.8252 196.02 16.8252C195.063 16.8252 194.379 17.0988 193.831 17.7827C193.284 18.4667 193.011 19.2874 193.011 20.5185C192.874 22.16 193.558 23.1176 195.063 23.1176Z" fill="#FCFCFD"/>
<path d="M205.727 31.5975C205.18 31.5975 204.907 31.4607 204.633 31.3239C204.496 31.0503 204.359 30.7767 204.359 30.3664V15.3194C205.18 14.7722 206.138 14.225 207.369 13.9515C208.6 13.5411 209.831 13.4043 211.062 13.4043C216.397 13.4043 218.996 15.593 218.996 20.107C218.996 22.1589 218.449 23.8004 217.355 25.0315C216.26 26.2626 214.619 26.8098 212.567 26.8098C212.02 26.8098 211.473 26.673 210.925 26.5362C210.378 26.3994 209.968 26.2626 209.557 25.9891V30.3664C209.557 30.7767 209.421 31.1871 209.284 31.3239C209.01 31.5975 208.737 31.5975 208.19 31.5975H205.727ZM211.473 23.1164C212.293 23.1164 212.84 22.8429 213.114 22.2957C213.524 21.7485 213.661 20.9278 213.661 19.9703C213.661 18.8759 213.388 18.0552 212.977 17.508C212.567 17.0976 211.883 16.8241 210.925 16.8241C210.378 16.8241 209.831 16.9609 209.557 17.0977V21.2014C209.557 21.7485 209.694 22.2957 210.105 22.5693C210.378 22.9797 210.925 23.1164 211.473 23.1164Z" fill="#FCFCFD"/>
<path fill-rule="evenodd" clip-rule="evenodd" d="M6.15559 5.33484C5.60842 2.59903 7.79708 0 10.5329 0C12.9951 0 15.047 2.05186 15.047 4.5141V9.98573C15.7309 9.98573 16.2781 9.98573 16.9621 9.98573C17.5092 9.98573 18.1932 9.98573 18.7403 9.98573V4.5141C18.7403 2.05186 20.7922 0 23.2544 0C25.9903 0 28.1789 2.59903 27.6318 5.33484L26.4006 11.764C30.5044 13.5423 33.6505 16.6885 33.6505 20.6554V22.9809C33.6505 26.2638 31.4619 28.9997 28.4525 30.7779C25.4431 32.693 21.3394 33.7873 16.8253 33.7873C12.3112 33.7873 8.20745 32.693 5.19805 30.7779C2.18865 28.9997 0 26.2638 0 22.9809V20.6554C0 16.6885 3.14619 13.5423 7.24991 11.764L6.15559 5.33484ZM24.8959 12.7215L26.2638 5.19805C26.6742 3.28298 25.1695 1.5047 23.2544 1.5047C21.4762 1.5047 20.1083 2.87261 20.1083 4.65089V11.6272C19.6979 11.6272 19.1507 11.4904 18.7403 11.4904C18.1932 11.4904 17.5092 11.4904 16.9621 11.4904C16.2781 11.4904 15.7309 11.4904 15.047 11.6272C14.6366 11.6272 14.0895 11.764 13.6791 11.764V4.78768C13.6791 3.0094 12.3112 1.64149 10.5329 1.64149C8.61782 1.64149 7.11312 3.41977 7.5235 5.33484L8.8914 12.9951C4.5141 14.6366 1.5047 17.646 1.5047 21.0658V23.3912C1.5047 28.5893 8.34424 32.8298 16.8253 32.8298C25.3063 32.8298 32.1458 28.5893 32.1458 23.3912V21.0658C32.2826 17.3724 29.2732 14.363 24.8959 12.7215Z" fill="#633001"/>
<path d="M32.2818 23.1184C32.2818 28.3165 25.4422 32.557 16.9612 32.557C8.48017 32.557 1.64062 28.3165 1.64062 23.1184V20.793H32.4186V23.1184H32.2818Z" fill="#FEDC90"/>
<path fill-rule="evenodd" clip-rule="evenodd" d="M7.52646 5.06054C7.11609 3.14547 8.62079 1.36719 10.5359 1.36719C12.3141 1.36719 13.6821 2.73509 13.6821 4.51338V11.6265C14.7764 11.4897 15.8707 11.3529 16.965 11.3529C18.0594 11.3529 19.1537 11.4897 20.1112 11.4897V4.51338C20.1112 2.73509 21.4791 1.36719 23.2574 1.36719C25.1725 1.36719 26.6772 3.14547 26.2668 5.06054L24.8989 12.584C29.413 14.2255 32.4224 17.2349 32.4224 20.6547C32.4224 25.8527 25.5829 30.0933 17.1018 30.0933C8.62079 30.0933 1.78125 25.8527 1.78125 20.6547C1.78125 17.2349 4.79065 14.2255 9.16796 12.584L7.52646 5.06054Z" fill="#D1884F"/>
<path d="M12.7205 20.1078C12.7205 21.4757 11.8997 22.7068 11.079 22.7068C10.2582 22.7068 9.4375 21.6125 9.4375 20.1078C9.4375 18.7399 10.2582 17.5088 11.079 17.5088C11.8997 17.5088 12.7205 18.6031 12.7205 20.1078Z" fill="#633001"/>
<path d="M24.4861 20.1078C24.4861 21.4757 23.6654 22.7068 22.8446 22.7068C21.8871 22.7068 21.2031 21.6125 21.2031 20.1078C21.2031 18.7399 22.0239 17.5088 22.8446 17.5088C23.6654 17.5088 24.4861 18.6031 24.4861 20.1078Z" fill="#633001"/>
</svg>
