<svg width="140" height="34" viewBox="0 0 140 34" fill="none" xmlns="http://www.w3.org/2000/svg">
<g clip-path="url(#clip0_0_3649)">
<path fill-rule="evenodd" clip-rule="evenodd" d="M29.5607 5.24704L29.7363 6.33783C29.868 7.34135 29.9338 8.34488 29.9119 9.37022C29.9119 11.6172 29.6485 13.8425 29.1217 16.024C28.4194 18.9692 27.1902 21.7834 25.5002 24.314C23.5467 27.1937 20.7153 30.0079 16.6109 32.3204L16.1061 32.604L15.6013 32.3204C11.4969 30.0516 8.66547 27.2155 6.71203 24.314C5.00002 21.7834 3.79284 18.991 3.09048 16.024C2.56371 13.8425 2.30032 11.6172 2.30032 9.37022C2.30032 8.3667 2.34422 7.34135 2.47592 6.33783L2.62956 5.24704C2.6515 5.15978 2.6515 5.07251 2.62956 4.98525C2.60761 4.89799 2.58566 4.81072 2.51981 4.74528C2.47591 4.67983 2.41007 4.61438 2.34422 4.57075C2.27838 4.52712 2.19058 4.5053 2.12473 4.48349C2.03694 4.46167 1.94914 4.46167 1.86135 4.48349C1.77355 4.5053 1.68576 4.54894 1.61991 4.59257C1.55407 4.6362 1.48822 4.70165 1.44432 4.76709C1.40042 4.85436 1.37848 4.94162 1.35653 5.02888L1.18094 6.11967C1.04925 7.18864 0.983398 8.27943 0.983398 9.37022C0.983398 11.7263 1.26873 14.0606 1.81745 16.3513C2.19058 17.9002 2.6954 19.4273 3.33192 20.8889C3.96843 22.3506 4.73664 23.7468 5.63654 25.0776C7.69972 28.1318 10.6848 31.1205 14.9867 33.4766L15.7988 33.9348C15.9086 33.9784 16.0183 34.0002 16.128 34.0002C16.2378 34.0002 16.3475 33.9784 16.4573 33.9348L17.2694 33.4766C21.5494 31.0987 24.5564 28.11 26.6196 25.0776C28.4194 22.416 29.7143 19.4491 30.4386 16.3513C30.9874 14.0606 31.2507 11.7263 31.2507 9.37022C31.2507 8.27943 31.1849 7.18865 31.0532 6.09786L30.8776 5.00707C30.8557 4.91981 30.8337 4.83254 30.7898 4.74528C30.7459 4.67983 30.6801 4.61438 30.6142 4.57075C30.5484 4.52712 30.4606 4.48349 30.3728 4.46167C30.285 4.43986 30.1972 4.43986 30.1094 4.46167C30.0216 4.48349 29.9338 4.5053 29.846 4.54894C29.7802 4.59257 29.7143 4.65802 29.6704 4.72346C29.6265 4.78891 29.5826 4.87617 29.5607 4.96343V5.24704Z" fill="#F7F7F7"/>
<path fill-rule="evenodd" clip-rule="evenodd" d="M6.31354 4.50496L16.1466 1.42893L26.1772 4.57041C26.2649 4.59223 26.3527 4.59223 26.4405 4.59223C26.5283 4.59223 26.6161 4.57041 26.7039 4.52678C26.7917 4.48315 26.8576 4.43952 26.9234 4.35225C26.9893 4.28681 27.0332 4.19954 27.0332 4.11228C27.0551 4.02502 27.0551 3.93775 27.0551 3.85049C27.0551 3.76323 27.0332 3.67596 26.9893 3.5887C26.9454 3.50144 26.9015 3.43599 26.8356 3.37054C26.7698 3.3051 26.682 3.26146 26.5942 3.26146L16.3441 0.0327237C16.2124 -0.0109079 16.0807 -0.0109079 15.949 0.0327237L5.94042 3.1742C5.85262 3.19601 5.78677 3.23965 5.69898 3.28328C5.63313 3.34873 5.56729 3.41417 5.54534 3.50144C5.50144 3.5887 5.47949 3.67596 5.47949 3.76323C5.47949 3.85049 5.47949 3.93775 5.50144 4.02502C5.52339 4.11228 5.56729 4.19954 5.61118 4.26499C5.65508 4.33044 5.74288 4.39588 5.83067 4.43952C5.89652 4.48315 5.98431 4.50496 6.09406 4.50496C6.13795 4.52678 6.22575 4.52678 6.31354 4.50496Z" fill="#F7F7F7"/>
<path fill-rule="evenodd" clip-rule="evenodd" d="M1.467 5.44397L15.5362 33.6299C15.5801 33.739 15.6679 33.8262 15.7556 33.8917C15.9751 34.0226 16.2385 34.0226 16.458 33.8917C16.5678 33.8262 16.6555 33.739 16.7214 33.6299L25.3034 17.159L25.3253 17.1372L30.8125 5.42215C30.8564 5.33489 30.8783 5.24763 30.8783 5.16036C30.8783 5.0731 30.8783 4.98584 30.8344 4.89857C30.8125 4.81131 30.7686 4.72405 30.7028 4.6586C30.6589 4.59315 30.5711 4.52771 30.5052 4.48407C30.4394 4.44044 30.3516 4.41863 30.2418 4.41863C30.154 4.41863 30.0662 4.41863 29.9784 4.44044C29.8907 4.46226 29.8029 4.50589 29.737 4.57134C29.6712 4.63679 29.6053 4.70223 29.5834 4.7895L24.0962 16.5045L16.1068 31.841L2.63029 4.7895C2.58639 4.72405 2.52054 4.63679 2.47665 4.57134C2.4108 4.50589 2.323 4.46226 2.23521 4.44044C2.14741 4.39681 2.05962 4.39681 1.97182 4.41863C1.88403 4.41863 1.79624 4.44044 1.70844 4.48407C1.64259 4.52771 1.5548 4.59315 1.5109 4.6586C1.467 4.72405 1.42311 4.81131 1.40116 4.89857C1.37921 4.98584 1.35726 5.0731 1.37921 5.16036C1.40116 5.26944 1.4231 5.35671 1.467 5.44397Z" fill="#F7F7F7"/>
<path fill-rule="evenodd" clip-rule="evenodd" d="M8.20353 18.0091H23.875C23.9627 18.0091 24.0505 17.9873 24.1383 17.9655C24.2261 17.9437 24.292 17.8782 24.3359 17.8128C24.4017 17.7473 24.4456 17.6819 24.4676 17.5946C24.5334 17.4201 24.5334 17.2456 24.4676 17.071C24.4456 16.9838 24.3798 16.9183 24.3359 16.8529C24.27 16.7874 24.2042 16.7438 24.1383 16.7002C24.0505 16.6784 23.9627 16.6565 23.875 16.6565H8.20353C8.11573 16.6565 8.02794 16.6784 7.94014 16.7002C7.85234 16.722 7.7865 16.7874 7.7426 16.8529C7.67676 16.9183 7.63286 16.9838 7.61091 17.071C7.54506 17.2456 7.54506 17.4201 7.61091 17.5946C7.63286 17.6819 7.67676 17.7473 7.7426 17.8128C7.80845 17.8782 7.87429 17.9219 7.94014 17.9655C8.02794 17.9873 8.11573 17.9873 8.20353 18.0091ZM51.8816 12.1407H41.6974C41.6096 12.1407 41.5218 12.1625 41.434 12.1843C41.3462 12.2061 41.2803 12.2716 41.2364 12.337C41.1706 12.4025 41.1267 12.4679 41.1047 12.5552C41.0828 12.6424 41.0609 12.7297 41.0609 12.817V21.216C41.0609 21.3033 41.0828 21.3906 41.1047 21.4778C41.1267 21.5651 41.1706 21.6305 41.2364 21.696C41.3023 21.7614 41.3681 21.8051 41.434 21.8487C41.5218 21.8705 41.6096 21.8923 41.6974 21.8923H51.8816V23.3103H41.6974C41.5657 23.3103 41.434 23.2885 41.3023 23.2667C41.1706 23.2449 41.0389 23.2013 40.9072 23.1576C40.7755 23.114 40.6658 23.0486 40.556 22.9831C40.4463 22.8958 40.3585 22.8086 40.2487 22.7213C40.0512 22.525 39.9195 22.3068 39.8098 22.0668C39.7659 21.936 39.722 21.8051 39.7 21.6742C39.6781 21.5433 39.6561 21.4124 39.6561 21.2815V12.8388C39.6561 12.7079 39.6781 12.577 39.7 12.4461C39.722 12.3152 39.7659 12.1843 39.8098 12.0534C39.8537 11.9225 39.9195 11.7916 39.9854 11.6826C40.0512 11.5735 40.139 11.4644 40.2487 11.3771C40.3365 11.2899 40.4463 11.2026 40.556 11.1153C40.6658 11.0499 40.7755 10.9844 40.9072 10.9408C41.0389 10.8972 41.1706 10.8536 41.3023 10.8317C41.434 10.8099 41.5657 10.7881 41.6974 10.7881H51.8816V12.1407ZM70.999 10.7227V12.1407H61.1879V16.3075H69.0675V17.7473H61.1879V21.9141H70.999V23.3322H59.8271V10.7227H70.999Z" fill="#F7F7F7"/>
<path d="M91.2112 12.8603V16.5471C91.2112 16.678 91.1893 16.8089 91.1673 16.9398C91.1454 17.0707 91.1015 17.2016 91.0576 17.3325C91.0137 17.4634 90.9478 17.5943 90.882 17.7034C90.7942 17.8124 90.7283 17.9215 90.6186 18.0088C90.5308 18.0961 90.4211 18.1833 90.3113 18.2706C90.2016 18.336 90.0918 18.4015 89.9601 18.4451C89.8284 18.4887 89.6967 18.5324 89.5651 18.576C89.4334 18.5978 89.3017 18.6196 89.17 18.6196H87.3043L91.1454 23.31H89.3017L85.4826 18.6196H81.0051C80.7856 18.6196 80.5661 18.5978 80.3466 18.5542V23.31H78.9639V10.7441H89.1919C89.3236 10.7441 89.4553 10.766 89.587 10.7878C89.7187 10.8096 89.8504 10.8532 89.9821 10.8969C90.1138 10.9405 90.2235 11.0059 90.3333 11.0932C90.5527 11.2459 90.7283 11.4422 90.882 11.6604C90.9478 11.7695 91.0137 11.9004 91.0576 12.0313C91.1015 12.1622 91.1454 12.2931 91.1673 12.424C91.1893 12.5767 91.2112 12.7294 91.2112 12.8603ZM80.9831 17.2234H89.17C89.2578 17.2234 89.3456 17.2016 89.4334 17.1798C89.5212 17.158 89.587 17.1143 89.6309 17.0271C89.6967 16.9616 89.7406 16.8962 89.7626 16.8089C89.7845 16.7217 89.8065 16.6344 89.8065 16.5471V12.8603C89.8065 12.6857 89.7406 12.5112 89.6309 12.3803C89.5212 12.2494 89.3456 12.1622 89.17 12.1622H80.9831C80.8953 12.1622 80.8076 12.184 80.7198 12.2058C80.632 12.2276 80.5661 12.2931 80.5222 12.3585C80.4564 12.424 80.4125 12.4894 80.3905 12.5767C80.3686 12.6639 80.3466 12.7512 80.3466 12.8385V16.5253C80.3466 16.6998 80.4125 16.8744 80.5661 17.0053C80.6539 17.1362 80.8295 17.2234 80.9831 17.2234Z" fill="#F7F7F7"/>
<path fill-rule="evenodd" clip-rule="evenodd" d="M98.542 10.7227H110.789V12.1407H105.368V23.3103H103.985V12.1407H98.542V10.7227ZM118.252 23.3322V10.7445H119.635V23.3322H118.252ZM138.05 10.7227H139.828L134.714 17.0274L139.85 23.3322H138.05L133.484 17.7473H129.534V23.3322H128.151V10.7445H129.556V16.3293H133.506L138.05 10.7227Z" fill="#F7F7F7"/>
</g>
<defs>
<clipPath id="clip0_0_3649">
<rect width="139" height="34" fill="white" transform="translate(0.996094)"/>
</clipPath>
</defs>
</svg>
