<svg width="200" height="34" fill="none" xmlns="http://www.w3.org/2000/svg"><g clip-path="url(#a)"><path d="M29.45 20.328c-.6.362-1.3.428-1.834.131-.666-.395-1.067-1.285-1.067-2.504v-3.722c0-1.78-.7-3.064-1.9-3.394-2.032-.593-3.565 1.878-4.132 2.8l-3.6 5.7v-7.017c-.033-1.615-.566-2.57-1.566-2.867-.666-.197-1.666-.098-2.633 1.351l-8.03 12.717A13.927 13.927 0 0 1 3.053 17c0-7.676 6.233-13.903 13.865-13.903 7.632 0 13.864 6.227 13.864 13.903v.066c.067 1.483-.4 2.669-1.333 3.262ZM33.847 17v-.066C33.815 7.61 26.216 0 16.918 0 7.586 0-.012 7.61-.012 17c0 9.357 7.598 17 16.93 17 4.3 0 8.365-1.614 11.498-4.547a1.51 1.51 0 0 0 .067-2.174c-.567-.626-1.534-.659-2.167-.099l-.033.033a13.861 13.861 0 0 1-9.432 3.723c-4.1 0-7.765-1.779-10.298-4.612l7.232-11.466v5.305c0 2.537 1 3.36 1.833 3.59.833.232 2.1.067 3.466-2.075l3.966-6.358c.133-.198.233-.396.367-.527v3.228c0 2.372.966 4.283 2.633 5.206 1.5.856 3.4.758 4.965-.198 1.934-1.252 2.967-3.426 2.833-6.029Zm23.596-5.798c.4.23.767.79.767 1.284 0 .791-.667 1.45-1.433 1.45-.2 0-.367-.066-.533-.099-.9-.659-2.033-1.087-3.233-1.087-2.833 0-4.766 2.273-4.766 5.107 0 2.833 1.966 5.073 4.766 5.073 1.4 0 2.666-.56 3.6-1.45a1.47 1.47 0 0 1 .832-.263c.767 0 1.367.593 1.367 1.35 0 .495-.3.923-.667 1.154-1.366 1.153-3.2 1.91-5.099 1.91-4.333 0-7.865-3.524-7.865-7.873 0-4.35 3.532-7.874 7.865-7.874a7.595 7.595 0 0 1 4.4 1.318Zm7.932 3.294c2.967 0 5.433 2.471 5.433 5.535 0 3.031-2.5 5.634-5.433 5.634-3.1 0-5.665-2.57-5.665-5.634 0-3.064 2.566-5.535 5.665-5.535Zm-.033 8.434c1.3 0 2.4-1.219 2.4-2.866s-1.1-2.702-2.4-2.702c-1.4 0-2.566 1.022-2.566 2.702 0 1.614 1.166 2.866 2.566 2.866Zm7.332 1.021v-7.775c0-.856.667-1.548 1.533-1.548.834 0 1.533.692 1.533 1.548v7.776c0 .856-.7 1.548-1.533 1.548s-1.533-.725-1.533-1.549Zm-.233-12.255c0-1.022.8-1.812 1.766-1.812 1 0 1.8.823 1.8 1.812 0 .988-.8 1.779-1.8 1.779-1-.033-1.766-.824-1.766-1.78Zm9.165 8.039v4.216c0 .857-.7 1.549-1.533 1.549a1.549 1.549 0 0 1-1.533-1.549v-8.137c0-.659.533-1.186 1.2-1.186.666 0 1.166.56 1.166 1.186 1.233-1.153 2.333-1.318 3.366-1.318 3.066 0 4.433 2.273 4.433 4.876v4.58c0 .856-.7 1.548-1.533 1.548a1.549 1.549 0 0 1-1.533-1.549v-4.216c0-1.318-.167-2.438-2.1-2.438-1.366 0-1.933 1.12-1.933 2.438Zm17.03 1.614c-.366 0-.6-.165-.8-.396l-3.565-3.821v6.82c0 .856-.7 1.548-1.534 1.548a1.549 1.549 0 0 1-1.533-1.549V10.444c.1-.23.334-.396.567-.396.267 0 .5.231.667.396l5.699 6.325c.166.198.366.297.5.297.1 0 .333-.099.5-.297l5.699-6.325c.166-.165.366-.396.666-.396.267 0 .5.165.567.396V23.95c0 .857-.667 1.549-1.533 1.549a1.549 1.549 0 0 1-1.534-1.549v-6.82l-3.566 3.822c-.266.231-.5.396-.8.396Zm14.731 1.581c1.367 0 2.533-1.219 2.533-2.866s-1.199-2.735-2.533-2.735c-1.333 0-2.433 1.12-2.433 2.735 0 1.581 1.067 2.866 2.433 2.866Zm3.267 1.384-.067-.363c-.6 1.154-2.5 1.68-3.7 1.68-2.866 0-4.999-2.569-4.999-5.633 0-3.03 2.167-5.535 5.166-5.535.5 0 2.233.132 3.566 1.68l.067-.362c0-.659.5-1.186 1.166-1.186.667 0 1.2.56 1.2 1.186v8.5c0 .659-.533 1.186-1.2 1.186-.7.033-1.199-.527-1.199-1.153Zm10.831-7.017h-.333c-1.933.098-2.3 1.186-2.3 2.438v4.216c0 .857-.7 1.549-1.533 1.549a1.549 1.549 0 0 1-1.533-1.549v-8.137c0-.659.533-1.186 1.2-1.186.666 0 1.166.56 1.166 1.186 1.133-1.054 2.067-1.285 3-1.318h.3c.733 0 1.4.626 1.4 1.417.033.725-.634 1.384-1.367 1.384Zm11.831 5.93c.134.23.234.461.234.724 0 .791-.733 1.516-1.533 1.516-.534 0-1-.395-1.367-.857l-3.533-4.052v3.36a1.55 1.55 0 0 1-1.533 1.55 1.549 1.549 0 0 1-1.533-1.55V11.565c0-.857.667-1.549 1.533-1.549.867 0 1.533.692 1.533 1.549v7.71l3.533-3.855c.367-.396.8-.824 1.333-.824.767 0 1.467.692 1.467 1.482 0 .231-.067.495-.2.692l-2.8 3.031 2.866 3.427Zm5.999-5.898c-.833 0-2.199.429-2.199 1.714h4.432c-.033-1.285-1.433-1.713-2.233-1.713Zm4 3.657h-6.199c0 1.813 1.766 2.109 2.533 2.109.566 0 1.366-.099 1.999-.395.2-.132.5-.231.8-.231.667 0 1.233.56 1.233 1.252 0 .461-.3.857-.666 1.087-.933.692-2.167.857-3.333.857-3.099 0-5.666-1.648-5.666-5.502 0-3.031 1.567-5.667 5.233-5.667 2.966 0 5.199 1.911 5.266 5.304a1.21 1.21 0 0 1-1.2 1.186Zm8.532 4.646h-.834c-2.332 0-3.699-1.022-3.699-4.613v-3.722h-.8c-.733 0-1.366-.66-1.366-1.384 0-.79.666-1.417 1.366-1.417h.8V11.63c0-.857.667-1.549 1.533-1.549.833 0 1.533.692 1.533 1.549v2.866h1.267c.733 0 1.366.626 1.366 1.417 0 .725-.666 1.384-1.366 1.384h-1.267v3.13c0 2.075.1 2.503 1.033 2.503h.434c.733 0 1.366.593 1.366 1.351 0 .725-.633 1.35-1.366 1.35Zm14.831-14.43c.399.23.766.79.766 1.284 0 .791-.667 1.45-1.433 1.45-.2 0-.367-.066-.533-.099-.9-.659-2.033-1.087-3.233-1.087-2.833 0-4.766 2.273-4.766 5.107 0 2.833 1.966 5.073 4.766 5.073 1.4 0 2.666-.56 3.599-1.45a1.48 1.48 0 0 1 .834-.263c.766 0 1.366.593 1.366 1.35 0 .495-.3.923-.667 1.154-1.366 1.153-3.199 1.91-5.099 1.91-4.332 0-7.865-3.524-7.865-7.873 0-4.35 3.533-7.874 7.865-7.874a7.525 7.525 0 0 1 4.4 1.318Zm7.765 11.728c1.366 0 2.533-1.219 2.533-2.866s-1.2-2.735-2.533-2.735c-1.367 0-2.433 1.12-2.433 2.735 0 1.581 1.1 2.866 2.433 2.866Zm3.266 1.384-.067-.363c-.6 1.154-2.499 1.68-3.699 1.68-2.866 0-4.999-2.569-4.999-5.633 0-3.03 2.166-5.535 5.166-5.535.5 0 2.233.132 3.566 1.68l.066-.362c0-.659.5-1.186 1.167-1.186.666 0 1.2.56 1.2 1.186v8.5c0 .659-.534 1.186-1.2 1.186-.7.033-1.2-.527-1.2-1.153Zm10.765-1.384c1.366 0 2.433-1.285 2.433-2.866 0-1.647-1.1-2.735-2.433-2.735-1.367 0-2.533 1.088-2.533 2.735 0 1.647 1.166 2.866 2.533 2.866Zm-2.533 1.812v3.855c0 .856-.7 1.548-1.533 1.548a1.549 1.549 0 0 1-1.533-1.548V15.814c0-.659.533-1.186 1.2-1.186.666 0 1.166.56 1.166 1.318 1.133-1.153 2.533-1.45 3.599-1.45 2.967 0 5.166 2.471 5.166 5.535 0 3.031-2.099 5.634-4.999 5.634-.9-.033-2.233-.297-3.066-.923Z" fill="#23262F"/></g><defs><clipPath id="a"><path fill="#fff" d="M0 0h200v34H0z"/></clipPath></defs></svg>