<svg width="219" height="34" fill="none" xmlns="http://www.w3.org/2000/svg"><path d="M42.403 26.263c-.547 0-.82-.136-1.094-.273-.137-.274-.274-.547-.274-.958V9.712c0-.41.137-.821.274-.958.273-.273.547-.41 1.094-.41h6.43c2.462 0 4.24.547 5.47 1.504 1.095 1.095 1.78 2.6 1.78 4.651 0 2.052-.548 3.557-1.78 4.651-1.093.958-3.008 1.505-5.47 1.505H46.37v4.24c0 .41-.137.821-.274.958-.273.274-.547.274-1.094.274h-2.599v.136Zm6.019-9.438c.684 0 1.231-.137 1.641-.547.41-.41.547-.958.547-1.779 0-.82-.136-1.368-.547-1.778-.41-.41-.957-.547-1.641-.547H46.37v4.65h2.052Zm13.815 9.849c-1.641 0-3.01-.547-3.967-1.641-.957-1.095-1.504-2.6-1.504-4.515 0-1.504.273-2.735.957-3.83.684-1.094 1.642-1.915 2.873-2.599 1.23-.547 2.736-.957 4.24-.957 1.368 0 2.463.137 3.557.41 1.094.274 1.915.684 2.873 1.231v10.533c0 .274 0 .547-.137.684s-.41.137-.684.137h-2.736c-.137 0-.41 0-.41-.137l-.274-.273-.41-.821c-.548.547-1.095.957-1.779 1.231-.684.41-1.641.547-2.599.547Zm1.915-3.556c.684 0 1.231-.137 1.642-.548.41-.273.547-.82.547-1.367v-4.104c-.274-.137-.82-.274-1.231-.274-.958 0-1.642.274-2.189.958-.547.684-.82 1.504-.82 2.735 0 1.642.683 2.6 2.051 2.6Zm10.81 3.146c-.547 0-.821-.137-1.095-.274-.273-.273-.273-.547-.273-.957v-10.67c0-.274 0-.547.137-.684.136-.137.41-.137.684-.137h2.735c.274 0 .41 0 .41.137.138 0 .138.137.274.274l.137.82c.547-.547 1.094-.82 1.915-1.094.82-.274 1.642-.41 2.736-.41 1.368 0 2.599.41 3.42 1.23.82.821 1.368 1.916 1.368 3.557v6.977c0 .41-.137.82-.274.957-.137.274-.547.274-1.094.274h-2.6c-.546 0-.82-.137-1.094-.274-.273-.273-.273-.547-.273-.957V18.33c0-.547-.137-.958-.41-1.095-.274-.273-.548-.41-1.095-.41-.547 0-.957.137-1.231.41-.274.274-.41.684-.41 1.095v6.566c0 .41-.137.82-.274.957-.137.274-.547.274-1.094.274h-2.6v.137Zm21.745.41c-2.462 0-4.377-.547-5.745-1.778-1.368-1.095-2.052-2.736-2.052-4.925 0-1.368.274-2.462.958-3.556.547-.958 1.504-1.778 2.599-2.326 1.23-.547 2.599-.82 4.103-.82 1.232 0 2.19.136 3.01.41.821.274 1.641.547 2.188 1.094.137.137.274.274.274.41 0 .137-.137.274-.274.548l-1.094 1.915c-.137.273-.273.41-.41.41-.137 0-.274-.137-.547-.273a6.387 6.387 0 0 0-1.368-.684c-.41-.137-.958-.274-1.505-.274-.82 0-1.641.274-2.189.82-.547.548-.82 1.369-.82 2.326 0 .958.273 1.779.82 2.326.547.547 1.231.82 2.189.82.547 0 1.094-.136 1.505-.273.41-.137.957-.41 1.368-.684.273-.137.41-.274.547-.274.137 0 .273.137.41.41l1.231 2.053c.137.136.137.273.137.41 0 .137-.137.274-.274.41-.683.41-1.504.821-2.462 1.095-.41.273-1.368.41-2.599.41Zm12.452 0c-1.641 0-3.009-.547-3.967-1.641-.957-1.095-1.504-2.6-1.504-4.515 0-1.504.273-2.735.957-3.83.684-1.094 1.642-1.915 2.873-2.599 1.231-.547 2.735-.957 4.24-.957 1.368 0 2.462.137 3.557.41 1.094.274 1.915.684 2.872 1.231v10.533c0 .274 0 .547-.136.684-.137.137-.411.137-.684.137h-2.736c-.137 0-.411 0-.411-.137l-.273-.273-.411-.821c-.547.547-1.094.957-1.778 1.231-.684.41-1.505.547-2.599.547Zm2.052-3.556c.684 0 1.231-.137 1.641-.548.411-.273.548-.82.548-1.367v-4.104c-.274-.137-.821-.274-1.231-.274-.958 0-1.642.274-2.189.958-.547.684-.821 1.504-.821 2.735-.137 1.642.547 2.6 2.052 2.6Zm23.664 2.188c.137.137.137.273.137.41 0 .137 0 .274-.137.41-.137.137-.274.137-.411.137h-4.651c-.136 0-.273-.136-.41-.273l-3.556-4.925v3.83c0 .41-.137.821-.274.958-.274.274-.547.274-1.094.274h-2.599c-.548 0-.821-.137-1.095-.274-.136-.274-.273-.547-.273-.958V9.712c0-.41.137-.821.273-.958.274-.273.547-.41 1.095-.41h2.599c.547 0 .82.137 1.094.41.274.274.274.547.274.958v8.754l3.419-4.514c.137-.137.274-.273.411-.273.137 0 .273-.137.547-.137h4.104c.136 0 .273 0 .41.137.137.136.137.273.137.41 0 .137 0 .274-.137.41l-4.514 5.198 4.651 5.609Zm8.477 1.367c-1.505 0-2.736-.274-3.967-.684-1.095-.547-2.052-1.231-2.736-2.189-.684-.957-.958-2.188-.958-3.556 0-2.189.684-3.967 1.915-5.061 1.232-1.232 3.147-1.779 5.472-1.779 2.326 0 4.104.547 5.198 1.779 1.231 1.094 1.778 2.735 1.778 4.787 0 .821-.41 1.368-1.094 1.368h-8.207c0 .82.273 1.368.82 1.778.548.41 1.505.548 2.599.548.684 0 1.368 0 1.779-.137.547-.137.957-.41 1.504-.547.274-.137.411-.137.411-.137.137 0 .273.137.41.273l.958 1.642c.136.137.136.274.136.41 0 .137-.136.274-.273.41-.684.411-1.505.821-2.462 1.095-1.095-.137-2.052 0-3.283 0Zm2.052-8.207c0-.684-.137-1.232-.548-1.505-.41-.41-.957-.547-1.778-.547-.821 0-1.368.136-1.778.547-.411.41-.547.82-.547 1.505h4.651Zm13.819 8.208a21.24 21.24 0 0 1-4.241-.41c-1.368-.274-2.325-.821-3.146-1.369-.273-.136-.41-.41-.41-.547 0-.136 0-.273.137-.41l1.231-2.052c.136-.273.273-.273.41-.273.137 0 .274 0 .41.136.684.41 1.368.684 2.189.958.821.273 1.642.41 2.462.41.821 0 1.368-.137 1.779-.41.41-.274.547-.684.547-1.231s-.274-.958-.684-1.231c-.411-.274-1.231-.684-2.462-1.095-1.779-.684-3.147-1.368-4.104-2.188-.958-.821-1.505-2.052-1.505-3.42 0-1.778.684-3.01 1.915-3.967 1.231-.958 2.873-1.368 4.925-1.368 1.504 0 2.736.137 3.693.41a9.28 9.28 0 0 1 2.599 1.095c.274.273.41.41.41.684 0 .136 0 .273-.136.41l-1.231 2.052c-.137.274-.274.274-.411.274-.137 0-.273 0-.41-.137-.958-.684-2.189-.958-3.694-.958-.82 0-1.367.137-1.778.41-.41.274-.547.685-.547 1.232 0 .41.137.684.274.957.273.274.547.41.82.684.411.137.958.41 1.642.684l.547.137c1.231.547 2.325.957 3.009 1.505.821.41 1.368 1.094 1.779 1.778.41.684.547 1.505.547 2.462 0 1.505-.547 2.873-1.778 3.694-.821.547-2.599 1.094-4.788 1.094Zm12.447-.411c-.273 0-.41 0-.547-.137-.137-.137-.274-.274-.274-.547l-3.419-11.354v-.274c0-.273.136-.41.547-.41h3.42c.273 0 .41 0 .547.137.137.137.137.137.273.41l1.368 6.019 1.779-4.788c.136-.273.136-.41.273-.41.137-.137.274-.137.547-.137h1.642c.273 0 .41 0 .547.137.137.137.137.273.274.41l1.778 4.788 1.505-6.019c0-.137.136-.273.273-.41.137-.137.274-.137.41-.137h3.557c.41 0 .547.137.547.41v.274l-3.42 11.354c-.136.273-.136.41-.273.547-.137.137-.274.137-.547.137h-2.599c-.274 0-.411 0-.547-.137-.137-.137-.274-.274-.274-.547l-1.778-4.788-1.779 4.788c-.136.273-.136.41-.273.547-.137.137-.274.137-.547.137h-3.01Zm21.341.411c-1.642 0-3.01-.547-3.967-1.641-.958-1.095-1.505-2.6-1.505-4.515 0-1.504.274-2.735.958-3.83.684-1.094 1.641-1.915 2.872-2.599 1.231-.547 2.736-.957 4.241-.957 1.368 0 2.462.137 3.556.41 1.095.274 1.915.684 2.873 1.231v10.533c0 .274 0 .547-.137.684s-.41.137-.684.137h-2.736c-.136 0-.273 0-.41-.137l-.274-.273-.41-.821c-.547.547-1.094.957-1.778 1.231-.684.41-1.505.547-2.599.547Zm2.052-3.556c.684 0 1.231-.137 1.641-.548.41-.273.547-.82.547-1.367v-4.104c-.273-.137-.821-.274-1.231-.274-.957 0-1.641.274-2.189.958-.547.684-.82 1.504-.82 2.735-.137 1.642.547 2.6 2.052 2.6Zm10.664 8.48c-.547 0-.82-.137-1.094-.274-.137-.274-.274-.547-.274-.958V15.32c.821-.547 1.779-1.094 3.01-1.368 1.231-.41 2.462-.547 3.693-.547 5.335 0 7.934 2.189 7.934 6.703 0 2.052-.547 3.693-1.641 4.925-1.095 1.23-2.736 1.778-4.788 1.778-.547 0-1.094-.137-1.642-.274-.547-.137-.957-.273-1.368-.547v4.377c0 .41-.136.821-.273.958-.274.273-.547.273-1.094.273h-2.463Zm5.746-8.482c.82 0 1.367-.273 1.641-.82.41-.547.547-1.368.547-2.326 0-1.094-.273-1.915-.684-2.462-.41-.41-1.094-.684-2.052-.684-.547 0-1.094.137-1.368.274V21.2c0 .547.137 1.095.548 1.368.273.41.82.547 1.368.547Z" fill="#23262F"/><path fill-rule="evenodd" clip-rule="evenodd" d="M6.156 5.335C5.608 2.599 7.797 0 10.533 0c2.462 0 4.514 2.052 4.514 4.514v5.472h3.693V4.514C18.74 2.052 20.792 0 23.254 0c2.736 0 4.925 2.599 4.378 5.335L26.4 11.764c4.103 1.778 7.25 4.925 7.25 8.891v2.326c0 3.283-2.19 6.019-5.199 7.797-3.009 1.915-7.113 3.01-11.627 3.01s-8.618-1.095-11.627-3.01C2.188 29 0 26.264 0 22.98v-2.326c0-3.966 3.146-7.113 7.25-8.891l-1.094-6.43Zm18.74 7.387 1.368-7.524c.41-1.915-1.095-3.693-3.01-3.693-1.778 0-3.146 1.368-3.146 3.146v6.976c-.41 0-.957-.137-1.368-.137h-1.778c-.684 0-1.231 0-1.915.137-.41 0-.958.137-1.368.137V4.788c0-1.779-1.368-3.147-3.146-3.147-1.915 0-3.42 1.779-3.01 3.694l1.368 7.66c-4.377 1.642-7.386 4.651-7.386 8.07v2.326c0 5.198 6.84 9.439 15.32 9.439 8.481 0 15.32-4.24 15.32-9.439v-2.325c.138-3.694-2.872-6.703-7.25-8.344Z" fill="#633001"/><path d="M32.282 23.118c0 5.199-6.84 9.439-15.32 9.439-8.482 0-15.321-4.24-15.321-9.439v-2.325h30.778v2.325h-.137Z" fill="#FEDC90"/><path fill-rule="evenodd" clip-rule="evenodd" d="M7.526 5.06c-.41-1.915 1.095-3.693 3.01-3.693 1.778 0 3.146 1.368 3.146 3.146v7.114c1.094-.137 2.189-.274 3.283-.274 1.094 0 2.189.137 3.146.137V4.513c0-1.778 1.368-3.146 3.146-3.146 1.915 0 3.42 1.778 3.01 3.694l-1.368 7.523c4.514 1.642 7.523 4.65 7.523 8.07 0 5.199-6.84 9.44-15.32 9.44-8.481 0-15.32-4.241-15.32-9.44 0-3.42 3.009-6.428 7.386-8.07L7.526 5.061Z" fill="#D1884F"/><path d="M12.72 20.108c0 1.368-.82 2.599-1.641 2.599-.82 0-1.642-1.095-1.642-2.6 0-1.367.821-2.598 1.642-2.598.82 0 1.641 1.094 1.641 2.599Zm11.766 0c0 1.368-.82 2.599-1.641 2.599-.958 0-1.642-1.095-1.642-2.6 0-1.367.82-2.598 1.642-2.598.82 0 1.641 1.094 1.641 2.599Z" fill="#633001"/></svg>