<svg width="139" height="34" fill="none" xmlns="http://www.w3.org/2000/svg"><g clip-path="url(#a)" fill="#23262F"><path fill-rule="evenodd" clip-rule="evenodd" d="m28.565 5.247.175 1.09a19.92 19.92 0 0 1 .176 3.033c0 2.247-.264 4.473-.79 6.654a25.67 25.67 0 0 1-3.622 8.29c-1.953 2.88-4.785 5.694-8.89 8.006l-.504.284-.505-.284c-4.104-2.268-6.936-5.105-8.89-8.006a25.008 25.008 0 0 1-3.62-8.29 28.293 28.293 0 0 1-.79-6.654c0-1.003.043-2.029.175-3.032l.153-1.091a.529.529 0 0 0 0-.262.469.469 0 0 0-.11-.24.666.666 0 0 0-.175-.174c-.066-.044-.154-.066-.22-.088a.538.538 0 0 0-.263 0 .814.814 0 0 0-.241.11.666.666 0 0 0-.176.174c-.044.087-.066.175-.088.262l-.175 1.09A26.65 26.65 0 0 0-.013 9.37c0 2.356.286 4.69.834 6.981a27.543 27.543 0 0 0 1.515 4.538 25.982 25.982 0 0 0 2.304 4.189c2.064 3.054 5.049 6.043 9.35 8.399l.813.458a.9.9 0 0 0 .329.065c.11 0 .22-.022.33-.065l.811-.458c4.28-2.378 7.287-5.367 9.35-8.4a26.289 26.289 0 0 0 3.82-8.726 29.9 29.9 0 0 0 .812-6.98c0-1.092-.066-2.182-.198-3.273l-.175-1.09a1.222 1.222 0 0 0-.088-.263.665.665 0 0 0-.176-.174.813.813 0 0 0-.241-.11.538.538 0 0 0-.264 0c-.087.022-.175.044-.263.088a.667.667 0 0 0-.176.174.805.805 0 0 0-.11.24v.284Z"/><path fill-rule="evenodd" clip-rule="evenodd" d="m5.317 4.505 9.834-3.076L25.18 4.57c.088.022.176.022.263.022a.587.587 0 0 0 .264-.065.556.556 0 0 0 .22-.175.35.35 0 0 0 .11-.24c.021-.087.021-.174.021-.262a.578.578 0 0 0-.066-.261.783.783 0 0 0-.153-.218.353.353 0 0 0-.242-.11L15.348.033a.613.613 0 0 0-.395 0L4.944 3.174c-.087.022-.153.066-.241.11-.066.065-.132.13-.154.217a.578.578 0 0 0-.066.262c0 .087 0 .175.022.262a.804.804 0 0 0 .11.24c.044.065.132.13.22.175a.47.47 0 0 0 .263.065c.044.022.132.022.22 0Z"/><path fill-rule="evenodd" clip-rule="evenodd" d="M.47 5.444 14.54 33.63a.647.647 0 0 0 .22.262.68.68 0 0 0 .702 0 .754.754 0 0 0 .263-.262l8.582-16.471.022-.022 5.487-11.715a.578.578 0 0 0 .066-.262c0-.087 0-.174-.044-.261a.52.52 0 0 0-.131-.24.755.755 0 0 0-.198-.175.47.47 0 0 0-.263-.065c-.088 0-.176 0-.264.021a.525.525 0 0 0-.241.131c-.066.066-.132.131-.154.219L23.1 16.505 15.11 31.84 1.635 4.789c-.044-.065-.11-.152-.153-.218a.524.524 0 0 0-.242-.13.37.37 0 0 0-.263-.022.587.587 0 0 0-.264.065.756.756 0 0 0-.197.175.804.804 0 0 0-.11.24c-.022.087-.044.174-.022.261.022.11.044.197.088.284Z"/><path fill-rule="evenodd" clip-rule="evenodd" d="M7.207 18.01H22.88c.088 0 .175-.023.263-.045a.35.35 0 0 0 .198-.152.453.453 0 0 0 .131-.218.72.72 0 0 0 0-.524c-.021-.087-.087-.153-.131-.218a1.2 1.2 0 0 0-.198-.153 1.086 1.086 0 0 0-.263-.043H7.207c-.087 0-.175.021-.263.043a.35.35 0 0 0-.197.153.452.452 0 0 0-.132.218.719.719 0 0 0 0 .524.452.452 0 0 0 .132.218c.065.065.131.109.197.152.088.022.176.022.263.044Zm43.678-5.87H40.702c-.087 0-.175.022-.263.044a.35.35 0 0 0-.198.153.452.452 0 0 0-.131.218 1.086 1.086 0 0 0-.044.262v8.399c0 .087.022.175.044.262a.452.452 0 0 0 .131.218 1.2 1.2 0 0 0 .198.153c.088.021.175.043.263.043h10.184v1.418H40.702c-.131 0-.263-.021-.395-.043a2.657 2.657 0 0 1-.395-.11 1.751 1.751 0 0 1-.351-.174c-.11-.087-.198-.174-.307-.262a2.145 2.145 0 0 1-.44-.654 2.627 2.627 0 0 1-.11-.393c-.021-.13-.043-.262-.043-.392v-8.443c0-.131.022-.262.044-.393.022-.13.066-.262.11-.393.044-.13.11-.261.175-.37.066-.11.154-.219.264-.306.087-.087.197-.174.307-.262.11-.065.22-.13.351-.174a2.81 2.81 0 0 1 .395-.11c.132-.021.264-.043.395-.043h10.184v1.353Zm19.118-1.417v1.418h-9.811v4.167h7.88v1.44h-7.88v4.166h9.81v1.418h-11.17v-12.61h11.172Z"/><path d="M90.215 12.86v3.687a2.388 2.388 0 0 1-.154.785 1.92 1.92 0 0 1-.175.371c-.088.11-.154.219-.263.306-.088.087-.198.174-.308.262-.11.065-.22.13-.351.174l-.395.131c-.132.022-.263.044-.395.044h-1.866l3.841 4.69h-1.843l-3.82-4.69H80.01c-.22 0-.439-.022-.659-.066v4.756h-1.382V10.744h10.228c.132 0 .263.022.395.044s.263.065.395.109c.132.043.241.109.351.196.22.153.395.35.549.567.066.11.132.24.175.371.044.131.088.262.11.393.022.153.044.305.044.436Zm-10.228 4.363h8.187c.088 0 .175-.021.263-.043a.279.279 0 0 0 .198-.153.452.452 0 0 0 .131-.218c.022-.087.044-.175.044-.262V12.86a.76.76 0 0 0-.175-.48.619.619 0 0 0-.461-.218h-8.187c-.088 0-.175.022-.263.044a.35.35 0 0 0-.198.152.453.453 0 0 0-.132.219c-.022.087-.044.174-.044.261v3.687c0 .175.066.35.22.48a.53.53 0 0 0 .417.218Z"/><path fill-rule="evenodd" clip-rule="evenodd" d="M97.546 10.723h12.247v1.418h-5.421v11.17h-1.383V12.14h-5.443v-1.418Zm19.71 12.61V10.744h1.383v12.587h-1.383Zm19.798-12.61h1.778l-5.115 6.304 5.137 6.305h-1.8l-4.566-5.585h-3.95v5.585h-1.383V10.744h1.405v5.585h3.95l4.544-5.606Z"/></g><defs><clipPath id="a"><path fill="#fff" d="M0 0h139v34H0z"/></clipPath></defs></svg>