<svg width="139" height="34" viewBox="0 0 139 34" fill="none" xmlns="http://www.w3.org/2000/svg">
<g clip-path="url(#clip0_0_4536)">
<path fill-rule="evenodd" clip-rule="evenodd" d="M28.5646 5.24704L28.7402 6.33783C28.8719 7.34135 28.9377 8.34488 28.9158 9.37022C28.9158 11.6172 28.6524 13.8425 28.1256 16.024C27.4233 18.9692 26.1941 21.7834 24.5041 24.314C22.5506 27.1937 19.7192 30.0079 15.6148 32.3204L15.11 32.604L14.6052 32.3204C10.5008 30.0516 7.66937 27.2155 5.71593 24.314C4.00393 21.7834 2.79675 18.991 2.09439 16.024C1.56762 13.8425 1.30423 11.6172 1.30423 9.37022C1.30423 8.3667 1.34813 7.34135 1.47982 6.33783L1.63346 5.24704C1.65541 5.15978 1.65541 5.07251 1.63346 4.98525C1.61151 4.89799 1.58956 4.81072 1.52372 4.74528C1.47982 4.67983 1.41397 4.61438 1.34813 4.57075C1.28228 4.52712 1.19449 4.5053 1.12864 4.48349C1.04084 4.46167 0.953051 4.46167 0.865255 4.48349C0.77746 4.5053 0.689666 4.54894 0.623819 4.59257C0.557973 4.6362 0.492126 4.70165 0.448229 4.76709C0.404331 4.85436 0.382382 4.94162 0.360433 5.02888L0.184844 6.11967C0.0531513 7.18864 -0.0126953 8.27943 -0.0126953 9.37022C-0.0126953 11.7263 0.272639 14.0606 0.821359 16.3513C1.19449 17.9002 1.69931 19.4273 2.33582 20.8889C2.97234 22.3506 3.74054 23.7468 4.64044 25.0776C6.70363 28.1318 9.68866 31.1205 13.9906 33.4766L14.8027 33.9348C14.9125 33.9784 15.0222 34.0002 15.132 34.0002C15.2417 34.0002 15.3514 33.9784 15.4612 33.9348L16.2733 33.4766C20.5533 31.0987 23.5603 28.11 25.6235 25.0776C27.4233 22.416 28.7182 19.4491 29.4426 16.3513C29.9913 14.0606 30.2547 11.7263 30.2547 9.37022C30.2547 8.27943 30.1888 7.18865 30.0571 6.09786L29.8815 5.00707C29.8596 4.91981 29.8376 4.83254 29.7937 4.74528C29.7498 4.67983 29.684 4.61438 29.6181 4.57075C29.5523 4.52712 29.4645 4.48349 29.3767 4.46167C29.2889 4.43986 29.2011 4.43986 29.1133 4.46167C29.0255 4.48349 28.9377 4.5053 28.8499 4.54894C28.7841 4.59257 28.7182 4.65802 28.6743 4.72346C28.6304 4.78891 28.5866 4.87617 28.5646 4.96343V5.24704Z" fill="#23262F"/>
<path fill-rule="evenodd" clip-rule="evenodd" d="M5.31745 4.50496L15.1505 1.42893L25.1811 4.57041C25.2689 4.59223 25.3566 4.59223 25.4444 4.59223C25.5322 4.59223 25.62 4.57041 25.7078 4.52678C25.7956 4.48315 25.8615 4.43952 25.9273 4.35225C25.9932 4.28681 26.0371 4.19954 26.0371 4.11228C26.059 4.02502 26.059 3.93775 26.059 3.85049C26.059 3.76323 26.0371 3.67596 25.9932 3.5887C25.9493 3.50144 25.9054 3.43599 25.8395 3.37054C25.7737 3.3051 25.6859 3.26146 25.5981 3.26146L15.348 0.0327237C15.2163 -0.0109079 15.0846 -0.0109079 14.9529 0.0327237L4.94432 3.1742C4.85653 3.19601 4.79068 3.23965 4.70289 3.28328C4.63704 3.34873 4.57119 3.41417 4.54925 3.50144C4.50535 3.5887 4.4834 3.67596 4.4834 3.76323C4.4834 3.85049 4.4834 3.93775 4.50535 4.02502C4.5273 4.11228 4.57119 4.19954 4.61509 4.26499C4.65899 4.33044 4.74678 4.39588 4.83458 4.43952C4.90042 4.48315 4.98822 4.50496 5.09796 4.50496C5.14186 4.52678 5.22966 4.52678 5.31745 4.50496Z" fill="#23262F"/>
<path fill-rule="evenodd" clip-rule="evenodd" d="M0.470909 5.44397L14.5401 33.6299C14.584 33.739 14.6718 33.8262 14.7596 33.8917C14.979 34.0226 15.2424 34.0226 15.4619 33.8917C15.5717 33.8262 15.6595 33.739 15.7253 33.6299L24.3073 17.159L24.3292 17.1372L29.8164 5.42215C29.8603 5.33489 29.8823 5.24763 29.8823 5.16036C29.8823 5.0731 29.8823 4.98584 29.8384 4.89857C29.8164 4.81131 29.7725 4.72405 29.7067 4.6586C29.6628 4.59315 29.575 4.52771 29.5091 4.48407C29.4433 4.44044 29.3555 4.41863 29.2457 4.41863C29.1579 4.41863 29.0701 4.41863 28.9824 4.44044C28.8946 4.46226 28.8068 4.50589 28.7409 4.57134C28.6751 4.63679 28.6092 4.70223 28.5873 4.7895L23.1001 16.5045L15.1107 31.841L1.63419 4.7895C1.5903 4.72405 1.52445 4.63679 1.48055 4.57134C1.41471 4.50589 1.32691 4.46226 1.23912 4.44044C1.15132 4.39681 1.06353 4.39681 0.975731 4.41863C0.887936 4.41863 0.800141 4.44044 0.712346 4.48407C0.6465 4.52771 0.558705 4.59315 0.514807 4.6586C0.47091 4.72405 0.427012 4.81131 0.405063 4.89857C0.383115 4.98584 0.361166 5.0731 0.383115 5.16036C0.405064 5.26944 0.427011 5.35671 0.470909 5.44397Z" fill="#23262F"/>
<path fill-rule="evenodd" clip-rule="evenodd" d="M7.20743 18.0091H22.8789C22.9667 18.0091 23.0545 17.9873 23.1422 17.9655C23.23 17.9437 23.2959 17.8782 23.3398 17.8128C23.4056 17.7473 23.4495 17.6819 23.4715 17.5946C23.5373 17.4201 23.5373 17.2456 23.4715 17.071C23.4495 16.9838 23.3837 16.9183 23.3398 16.8529C23.2739 16.7874 23.2081 16.7438 23.1422 16.7002C23.0545 16.6784 22.9667 16.6565 22.8789 16.6565H7.20743C7.11964 16.6565 7.03184 16.6784 6.94405 16.7002C6.85625 16.722 6.79041 16.7874 6.74651 16.8529C6.68066 16.9183 6.63676 16.9838 6.61481 17.071C6.54897 17.2456 6.54897 17.4201 6.61481 17.5946C6.63676 17.6819 6.68066 17.7473 6.74651 17.8128C6.81235 17.8782 6.8782 17.9219 6.94405 17.9655C7.03184 17.9873 7.11964 17.9873 7.20743 18.0091ZM50.8855 12.1407H40.7013C40.6135 12.1407 40.5257 12.1625 40.4379 12.1843C40.3501 12.2061 40.2842 12.2716 40.2403 12.337C40.1745 12.4025 40.1306 12.4679 40.1087 12.5552C40.0867 12.6424 40.0648 12.7297 40.0648 12.817V21.216C40.0648 21.3033 40.0867 21.3906 40.1087 21.4778C40.1306 21.5651 40.1745 21.6305 40.2403 21.696C40.3062 21.7614 40.372 21.8051 40.4379 21.8487C40.5257 21.8705 40.6135 21.8923 40.7013 21.8923H50.8855V23.3103H40.7013C40.5696 23.3103 40.4379 23.2885 40.3062 23.2667C40.1745 23.2449 40.0428 23.2013 39.9111 23.1576C39.7794 23.114 39.6697 23.0486 39.5599 22.9831C39.4502 22.8958 39.3624 22.8086 39.2527 22.7213C39.0551 22.525 38.9234 22.3068 38.8137 22.0668C38.7698 21.936 38.7259 21.8051 38.7039 21.6742C38.682 21.5433 38.66 21.4124 38.66 21.2815V12.8388C38.66 12.7079 38.682 12.577 38.7039 12.4461C38.7259 12.3152 38.7698 12.1843 38.8137 12.0534C38.8576 11.9225 38.9234 11.7916 38.9893 11.6826C39.0551 11.5735 39.1429 11.4644 39.2527 11.3771C39.3404 11.2899 39.4502 11.2026 39.5599 11.1153C39.6697 11.0499 39.7794 10.9844 39.9111 10.9408C40.0428 10.8972 40.1745 10.8536 40.3062 10.8317C40.4379 10.8099 40.5696 10.7881 40.7013 10.7881H50.8855V12.1407ZM70.0029 10.7227V12.1407H60.1918V16.3075H68.0714V17.7473H60.1918V21.9141H70.0029V23.3322H58.831V10.7227H70.0029Z" fill="#23262F"/>
<path d="M90.2151 12.8603V16.5471C90.2151 16.678 90.1932 16.8089 90.1712 16.9398C90.1493 17.0707 90.1054 17.2016 90.0615 17.3325C90.0176 17.4634 89.9517 17.5943 89.8859 17.7034C89.7981 17.8124 89.7322 17.9215 89.6225 18.0088C89.5347 18.0961 89.425 18.1833 89.3152 18.2706C89.2055 18.336 89.0957 18.4015 88.964 18.4451C88.8323 18.4887 88.7007 18.5324 88.569 18.576C88.4373 18.5978 88.3056 18.6196 88.1739 18.6196H86.3082L90.1493 23.31H88.3056L84.4865 18.6196H80.009C79.7895 18.6196 79.57 18.5978 79.3505 18.5542V23.31H77.9678V10.7441H88.1958C88.3275 10.7441 88.4592 10.766 88.5909 10.7878C88.7226 10.8096 88.8543 10.8532 88.986 10.8969C89.1177 10.9405 89.2274 11.0059 89.3372 11.0932C89.5567 11.2459 89.7322 11.4422 89.8859 11.6604C89.9517 11.7695 90.0176 11.9004 90.0615 12.0313C90.1054 12.1622 90.1493 12.2931 90.1712 12.424C90.1932 12.5767 90.2151 12.7294 90.2151 12.8603ZM79.987 17.2234H88.1739C88.2617 17.2234 88.3495 17.2016 88.4373 17.1798C88.5251 17.158 88.5909 17.1143 88.6348 17.0271C88.7007 16.9616 88.7445 16.8962 88.7665 16.8089C88.7884 16.7217 88.8104 16.6344 88.8104 16.5471V12.8603C88.8104 12.6857 88.7445 12.5112 88.6348 12.3803C88.5251 12.2494 88.3495 12.1622 88.1739 12.1622H79.987C79.8993 12.1622 79.8115 12.184 79.7237 12.2058C79.6359 12.2276 79.57 12.2931 79.5261 12.3585C79.4603 12.424 79.4164 12.4894 79.3944 12.5767C79.3725 12.6639 79.3505 12.7512 79.3505 12.8385V16.5253C79.3505 16.6998 79.4164 16.8744 79.57 17.0053C79.6578 17.1362 79.8334 17.2234 79.987 17.2234Z" fill="#23262F"/>
<path fill-rule="evenodd" clip-rule="evenodd" d="M97.5459 10.7227H109.793V12.1407H104.372V23.3103H102.989V12.1407H97.5459V10.7227ZM117.256 23.3322V10.7445H118.639V23.3322H117.256ZM137.054 10.7227H138.832L133.717 17.0274L138.854 23.3322H137.054L132.488 17.7473H128.538V23.3322H127.155V10.7445H128.56V16.3293H132.51L137.054 10.7227Z" fill="#23262F"/>
</g>
<defs>
<clipPath id="clip0_0_4536">
<rect width="139" height="34" fill="white"/>
</clipPath>
</defs>
</svg>
