<svg width="129" height="34" viewBox="0 0 129 34" fill="none" xmlns="http://www.w3.org/2000/svg">
<g clip-path="url(#clip0_0_4513)">
<path d="M53.3118 13.3531C52.9429 11.9884 52.0761 10.9915 50.361 10.9915C47.8086 10.9915 46.7426 13.2354 46.7426 15.5123C46.7426 17.7893 47.8086 20.0368 50.361 20.0368C52.2052 20.0368 53.2306 18.6574 53.3966 16.9285H55.4326C55.2666 19.772 53.2491 21.7326 50.3684 21.7326C46.7979 21.7326 44.666 18.9039 44.666 15.5123C44.666 12.1208 46.7832 9.27734 50.3425 9.27734C53.0277 9.27734 55.1375 10.7745 55.3957 13.3236L53.3118 13.3531Z" fill="#23262F"/>
<path d="M56.6455 17.138C56.6455 14.5116 58.2279 12.6172 60.9979 12.6172C63.7679 12.6172 65.3503 14.5116 65.3503 17.138C65.3503 19.7644 63.7679 21.6772 60.9979 21.6772C58.2279 21.6772 56.6455 19.7828 56.6455 17.138ZM63.447 17.138C63.447 15.6666 62.7093 14.1107 60.9979 14.1107C59.2864 14.1107 58.5488 15.6556 58.5488 17.138C58.5488 18.6204 59.2864 20.1838 60.9979 20.1838C62.7093 20.1838 63.447 18.6352 63.447 17.138Z" fill="#23262F"/>
<path d="M66.9844 9.57129H68.8839V11.3664H66.9844V9.57129ZM66.9844 12.8488H68.8839V21.4454H66.9844V12.8488Z" fill="#23262F"/>
<path d="M70.9531 12.849H72.7531V14.1144L72.7863 14.1475C73.0594 13.6794 73.4514 13.2915 73.9229 13.0229C74.3943 12.7542 74.9285 12.6143 75.4715 12.6172C77.3378 12.6172 78.5218 13.6141 78.5218 15.56V21.4639H76.6223V16.0419C76.5891 14.6956 76.0543 14.1144 74.9403 14.1144C73.6715 14.1144 72.8564 15.1112 72.8564 16.3766V21.4492H70.9568L70.9531 12.849Z" fill="#23262F"/>
<path d="M91.1812 21.4457H89.8459L89.5287 20.0479C88.4222 21.3133 87.3931 21.7253 85.9472 21.7253C82.3805 21.7253 80.2412 18.8928 80.2412 15.505C80.2412 12.1171 82.3805 9.27734 85.9472 9.27734C88.5292 9.27734 90.7422 10.6568 91.0484 13.3236H89.0123C88.8132 11.7603 87.4448 10.9621 85.9435 10.9621C83.3911 10.9621 82.3252 13.2059 82.3252 15.4829C82.3252 17.7599 83.3911 20.0074 85.9435 20.0074C88.0755 20.0405 89.2447 18.7604 89.2632 16.7483H86.0948V15.1702H91.159L91.1812 21.4457Z" fill="#23262F"/>
<path d="M94.6669 17.6382C94.6669 18.9845 95.4046 20.1837 96.9833 20.1837C98.0898 20.1837 98.75 19.7018 99.082 18.7528H100.886C100.469 20.6325 98.8681 21.6956 96.9833 21.6956C94.2833 21.6956 92.7637 19.8159 92.7637 17.1711C92.7637 14.7249 94.3682 12.6318 96.9316 12.6318C99.65 12.6318 101.317 15.0743 100.989 17.6529L94.6669 17.6382ZM99.0931 16.3912C99.0267 15.192 98.2078 14.1143 96.9242 14.1143C96.6246 14.1123 96.3275 14.1699 96.0504 14.2838C95.7733 14.3977 95.5218 14.5656 95.3106 14.7777C95.0993 14.9897 94.9327 15.2416 94.8202 15.5187C94.7078 15.7957 94.6519 16.0924 94.6558 16.3912H99.0931Z" fill="#23262F"/>
<path d="M108.273 15.7253C108.122 14.6769 107.354 14.1141 106.303 14.1141C105.315 14.1141 103.935 14.6291 103.935 17.2408C103.935 18.6717 104.57 20.1836 106.218 20.1836C107.325 20.1836 108.085 19.4479 108.269 18.2192H110.169C109.8 20.4484 108.439 21.677 106.215 21.677C103.515 21.677 102.028 19.7642 102.028 17.2371C102.028 14.6438 103.445 12.6133 106.281 12.6133C108.284 12.6133 109.97 13.6101 110.169 15.7216L108.273 15.7253Z" fill="#23262F"/>
<path d="M111.781 9.57129H113.68V16.3249L117.114 12.8488H119.446L116.126 16.0086L119.744 21.4491H117.421L114.787 17.274L113.655 18.3775V21.4564H111.759L111.781 9.57129Z" fill="#23262F"/>
<path d="M120.283 17.138C120.283 14.5116 121.866 12.6172 124.636 12.6172C127.406 12.6172 128.988 14.5116 128.988 17.138C128.988 19.7644 127.402 21.6772 124.636 21.6772C121.869 21.6772 120.283 19.7828 120.283 17.138ZM127.088 17.138C127.088 15.6666 126.351 14.1107 124.636 14.1107C122.92 14.1107 122.186 15.6556 122.186 17.138C122.186 18.6204 122.924 20.1838 124.636 20.1838C126.347 20.1838 127.085 18.6352 127.085 17.138H127.088Z" fill="#23262F"/>
<path d="M34.0832 16.9279C34.0992 20.2908 33.1148 23.5829 31.2546 26.3879C29.3944 29.1928 26.7418 31.3846 23.6325 32.6859C20.5231 33.9873 17.0966 34.3398 13.7863 33.6989C10.476 33.058 7.4307 31.4524 5.03547 29.0853C2.64023 26.7182 1.00271 23.6958 0.329997 20.4005C-0.342717 17.1051 -0.0203942 13.6848 1.2562 10.5722C2.53279 7.45954 4.7063 4.79438 7.50183 2.91377C10.2974 1.03316 13.5893 0.021586 16.9614 0.00699617C21.4815 -0.0125612 25.8245 1.75897 29.0352 4.93205C32.246 8.10514 34.0617 12.42 34.0832 16.9279Z" fill="#8DC63F"/>
<path d="M32.8041 16.9323C32.818 20.0415 31.907 23.0851 30.1865 25.678C28.466 28.271 26.0131 30.297 23.1381 31.4998C20.2631 32.7026 17.095 33.0281 14.0344 32.4354C10.9739 31.8426 8.15827 30.3581 5.94366 28.1695C3.72905 25.981 2.21488 23.1867 1.5926 20.1399C0.970316 17.0932 1.26787 13.9309 2.44765 11.0528C3.62742 8.17471 5.63642 5.71012 8.22064 3.97066C10.8049 2.23121 13.8482 1.29501 16.9659 1.28043C21.1473 1.26185 25.1648 2.90034 28.135 5.83553C31.1051 8.77073 32.7846 12.7623 32.8041 16.9323Z" fill="#F9E988"/>
<path d="M17.3271 2.28753C18.3299 2.10989 19.3563 2.10989 20.359 2.28753C21.3714 2.44729 22.35 2.77425 23.2545 3.25497C24.1232 3.77603 24.943 4.37438 25.7036 5.04269C26.4782 5.66803 27.2454 6.31177 27.9794 7.01435C28.7269 7.70527 29.3793 8.49195 29.9195 9.35385C30.4752 10.2089 30.9307 11.1247 31.2769 12.0833C31.9568 14.0142 32.1481 16.0826 31.8338 18.1049H31.7379C31.4459 16.1848 30.9513 14.3008 30.2626 12.4842C29.9317 11.5868 29.5424 10.7119 29.097 9.86516C28.6321 9.01927 28.1198 8.20013 27.5626 7.41162C26.9964 6.61351 26.3023 5.91383 25.5081 5.34065C24.6934 4.80712 23.8165 4.37477 22.8967 4.05319C22.0078 3.68534 21.1226 3.33957 20.1931 3.07473C19.2636 2.80988 18.3193 2.60756 17.3345 2.41628L17.3271 2.28753Z" fill="#F4F5F6"/>
<path d="M25.0208 11.3852C23.8773 11.0542 22.6897 10.587 21.4909 10.1125C21.3212 9.65531 21.0164 9.26027 20.6168 8.9795C19.8311 8.29899 18.3594 8.31738 17.0869 8.61166C15.7401 8.24589 14.3255 8.20428 12.9595 8.49026C2.05645 11.4845 8.2383 18.7899 4.23633 26.1469C4.80435 27.3534 10.9456 34.3829 19.8274 32.4959C19.8274 32.4959 16.7881 25.2162 23.645 21.7217C29.2108 18.8709 33.2276 13.6107 25.0208 11.3852Z" fill="#8BC53F"/>
<path d="M26.3781 16.1626C26.3788 16.2928 26.3408 16.4203 26.2688 16.529C26.1969 16.6377 26.0943 16.7227 25.9739 16.7732C25.8535 16.8237 25.7209 16.8374 25.5927 16.8128C25.4644 16.7881 25.3465 16.726 25.2536 16.6344C25.1608 16.5429 25.0972 16.4259 25.071 16.2983C25.0448 16.1707 25.0572 16.0383 25.1065 15.9177C25.1558 15.7971 25.2398 15.6938 25.348 15.6208C25.4561 15.5479 25.5836 15.5086 25.7141 15.5078C25.8009 15.5073 25.8868 15.5239 25.9671 15.5565C26.0474 15.5892 26.1204 15.6373 26.1821 15.6981C26.2437 15.7589 26.2928 15.8312 26.3264 15.9109C26.36 15.9906 26.3776 16.0761 26.3781 16.1626Z" fill="#F4F5F6"/>
<path d="M17.0947 8.6151C17.8877 8.67028 20.761 9.60093 21.5024 10.1086C20.8865 8.32083 18.8062 8.0854 17.0947 8.6151Z" fill="#009345"/>
<path d="M17.8507 13.1322C17.8514 13.734 17.6731 14.3225 17.3384 14.8233C17.0037 15.324 16.5275 15.7145 15.9702 15.9453C15.4129 16.1761 14.7995 16.2369 14.2075 16.1199C13.6156 16.003 13.0717 15.7135 12.6447 15.2882C12.2178 14.8629 11.9269 14.3209 11.8089 13.7307C11.6909 13.1405 11.7511 12.5286 11.9818 11.9725C12.2126 11.4164 12.6036 10.9411 13.1053 10.6067C13.607 10.2723 14.1969 10.0938 14.8004 10.0938C15.2008 10.0933 15.5973 10.1715 15.9674 10.324C16.3375 10.4765 16.6738 10.7002 16.9571 10.9824C17.2404 11.2646 17.4651 11.5997 17.6184 11.9686C17.7718 12.3374 17.8507 12.7328 17.8507 13.1322Z" fill="#F4F5F6"/>
<path d="M16.9471 13.1577C16.9471 13.5804 16.8214 13.9936 16.586 14.3451C16.3505 14.6965 16.0158 14.9704 15.6242 15.1322C15.2326 15.294 14.8018 15.3363 14.3861 15.2538C13.9704 15.1713 13.5885 14.9678 13.2888 14.6689C12.9891 14.37 12.785 13.9892 12.7023 13.5746C12.6196 13.1601 12.6621 12.7303 12.8243 12.3398C12.9865 11.9493 13.2611 11.6155 13.6136 11.3807C13.966 11.1458 14.3803 11.0205 14.8041 11.0205C15.3725 11.0205 15.9176 11.2457 16.3195 11.6465C16.7213 12.0473 16.9471 12.5909 16.9471 13.1577Z" fill="#58595B"/>
<path d="M28.8496 17.5052C26.3783 19.2414 23.5714 20.5583 19.5842 20.5583C17.7178 20.5583 17.3416 18.5867 16.1096 19.5504C15.4752 20.0507 13.229 21.1689 11.4511 21.0843C9.67329 20.9997 6.78524 19.9587 5.98115 16.1699C5.66395 19.9587 5.49796 22.7507 4.07422 25.951C6.91433 30.4865 13.69 33.9884 19.8387 32.4802C19.1784 27.8785 23.2099 23.3724 25.482 21.077C26.3451 20.2052 27.9902 18.778 28.8533 17.5163L28.8496 17.5052Z" fill="#8BC53F"/>
<path d="M28.7505 17.6158C27.9641 18.2917 27.0862 18.8539 26.1428 19.2859C25.2021 19.731 24.2216 20.0869 23.2141 20.3489C22.2017 20.6496 21.1448 20.774 20.09 20.7168C19.0126 20.6731 17.9916 20.2251 17.2314 19.4624L17.2646 19.4256C18.1255 19.9447 19.1136 20.2158 20.1195 20.2091C21.1264 20.2397 22.1336 20.157 23.1219 19.9627C24.1204 19.7549 25.0972 19.4544 26.0395 19.0651C26.9972 18.7031 27.8988 18.2077 28.7173 17.5938L28.7505 17.6158Z" fill="#58595B"/>
</g>
<defs>
<clipPath id="clip0_0_4513">
<rect width="129" height="34" fill="white"/>
</clipPath>
</defs>
</svg>
