<svg width="200" height="34" viewBox="0 0 200 34" fill="none" xmlns="http://www.w3.org/2000/svg">
<g clip-path="url(#clip0_0_4533)">
<path d="M29.4491 20.3275C28.8492 20.6899 28.1493 20.7558 27.616 20.4593C26.9495 20.064 26.5495 19.1744 26.5495 17.9554V14.2326C26.5495 12.4535 25.8497 11.1686 24.6499 10.8391C22.6169 10.2461 21.0838 12.7171 20.5172 13.6395L16.9178 19.3391V12.3217C16.8845 10.7074 16.3512 9.75194 15.3514 9.45543C14.6849 9.25775 13.685 9.35659 12.7185 10.8062L4.68652 23.5233C3.62003 21.5136 3.05346 19.2733 3.05346 17C3.05346 9.32364 9.28576 3.0969 16.9178 3.0969C24.5499 3.0969 30.7822 9.32364 30.7822 17V17.0329V17.0659C30.8488 18.5485 30.3822 19.7345 29.4491 20.3275ZM33.8483 17V16.9671V16.9341C33.815 7.61047 26.2163 0 16.9178 0C7.58604 0 -0.0126953 7.61046 -0.0126953 17C-0.0126953 26.3566 7.58604 34 16.9178 34C21.2171 34 25.2831 32.3857 28.4159 29.4535C29.0491 28.8605 29.0825 27.905 28.4826 27.2791C27.916 26.6531 26.9495 26.6202 26.3162 27.1802C26.3162 27.1802 26.3162 27.1802 26.2829 27.2132C23.75 29.5853 20.3506 30.936 16.8512 30.936C12.7518 30.936 9.08579 29.157 6.55288 26.3236L13.785 14.8585V20.1628C13.785 22.6996 14.7848 23.5233 15.618 23.7539C16.4512 23.9845 17.7177 23.8198 19.0841 21.6783L23.0501 15.3198C23.1834 15.1221 23.2834 14.9244 23.4167 14.7926V18.0213C23.4167 20.3934 24.3832 22.3043 26.0496 23.2267C27.5494 24.0833 29.4491 23.9845 31.0155 23.0291C32.9485 21.7771 33.9816 19.6027 33.8483 17ZM57.4444 11.2016C57.8443 11.4322 58.2109 11.9922 58.2109 12.4864C58.2109 13.2771 57.5444 13.936 56.7778 13.936C56.5779 13.936 56.4112 13.8702 56.2446 13.8372C55.3447 13.1783 54.2116 12.75 53.0118 12.75C50.1789 12.75 48.2459 15.0233 48.2459 17.8566C48.2459 20.6899 50.2123 22.9302 53.0118 22.9302C54.4116 22.9302 55.678 22.3702 56.6112 21.4806C56.8445 21.3159 57.1444 21.2171 57.4444 21.2171C58.2109 21.2171 58.8108 21.8101 58.8108 22.5678C58.8108 23.062 58.5109 23.4903 58.1443 23.7209C56.7778 24.874 54.9448 25.6318 53.0451 25.6318C48.7125 25.6318 45.1798 22.1066 45.1798 17.7578C45.1798 13.4089 48.7125 9.88372 53.0451 9.88372C54.6449 9.85078 56.1779 10.345 57.4444 11.2016ZM65.3764 14.4961C68.3426 14.4961 70.8088 16.9671 70.8088 20.031C70.8088 23.062 68.3092 25.6647 65.3764 25.6647C62.2769 25.6647 59.7107 23.095 59.7107 20.031C59.7107 16.9671 62.2769 14.4961 65.3764 14.4961ZM65.3431 22.9302C66.6429 22.9302 67.7427 21.7112 67.7427 20.064C67.7427 18.4167 66.6429 17.3624 65.3431 17.3624C63.9433 17.3624 62.7768 18.3837 62.7768 20.064C62.7768 21.6783 63.9433 22.9302 65.3431 22.9302ZM72.6752 23.9515V16.1764C72.6752 15.3198 73.3417 14.6279 74.2083 14.6279C75.0415 14.6279 75.7413 15.3198 75.7413 16.1764V23.9515C75.7413 24.8081 75.0415 25.5 74.2083 25.5C73.3751 25.5 72.6752 24.7752 72.6752 23.9515ZM72.4419 11.6957C72.4419 10.6744 73.2418 9.88372 74.2083 9.88372C75.2081 9.88372 76.008 10.7074 76.008 11.6957C76.008 12.6841 75.2081 13.4748 74.2083 13.4748C73.2084 13.4419 72.4419 12.6512 72.4419 11.6957ZM81.607 19.7345V23.9515C81.607 24.8081 80.9072 25.5 80.074 25.5C79.2408 25.5 78.5409 24.8081 78.5409 23.9515V15.814C78.5409 15.155 79.0741 14.6279 79.7407 14.6279C80.4072 14.6279 80.9072 15.188 80.9072 15.814C82.1403 14.6609 83.2401 14.4961 84.2733 14.4961C87.3394 14.4961 88.7059 16.7694 88.7059 19.3721V23.9515C88.7059 24.8081 88.006 25.5 87.1728 25.5C86.3396 25.5 85.6397 24.8081 85.6397 23.9515V19.7345C85.6397 18.4167 85.4731 17.2965 83.54 17.2965C82.1736 17.2965 81.607 18.4167 81.607 19.7345ZM98.6375 21.3488C98.2709 21.3488 98.0376 21.1841 97.8377 20.9535L94.2716 17.1318V23.9515C94.2716 24.8081 93.5717 25.5 92.7385 25.5C91.9053 25.5 91.2054 24.8081 91.2054 23.9515V10.4438C91.3054 10.2132 91.5387 10.0484 91.772 10.0484C92.0386 10.0484 92.2719 10.2791 92.4386 10.4438L98.1376 16.7694C98.3043 16.9671 98.5042 17.0659 98.6375 17.0659C98.7375 17.0659 98.9708 16.9671 99.1375 16.7694L104.837 10.4438C105.003 10.2791 105.203 10.0484 105.503 10.0484C105.77 10.0484 106.003 10.2132 106.07 10.4438V23.9515C106.07 24.8081 105.403 25.5 104.537 25.5C103.703 25.5 103.003 24.8081 103.003 23.9515V17.1318L99.4374 20.9535C99.1708 21.1841 98.9375 21.3488 98.6375 21.3488ZM113.368 22.9302C114.735 22.9302 115.901 21.7112 115.901 20.064C115.901 18.4167 114.702 17.3295 113.368 17.3295C112.035 17.3295 110.935 18.4496 110.935 20.064C110.935 21.6453 112.002 22.9302 113.368 22.9302ZM116.635 24.314L116.568 23.9515C115.968 25.1047 114.068 25.6318 112.868 25.6318C110.002 25.6318 107.869 23.062 107.869 19.9981C107.869 16.9671 110.036 14.4632 113.035 14.4632C113.535 14.4632 115.268 14.595 116.601 16.1434L116.668 15.781C116.668 15.1221 117.168 14.595 117.834 14.595C118.501 14.595 119.034 15.155 119.034 15.781V24.281C119.034 24.9399 118.501 25.4671 117.834 25.4671C117.134 25.5 116.635 24.9399 116.635 24.314ZM127.466 17.2965H127.133C125.2 17.3953 124.833 18.4826 124.833 19.7345V23.9515C124.833 24.8081 124.133 25.5 123.3 25.5C122.467 25.5 121.767 24.8081 121.767 23.9515V15.814C121.767 15.155 122.3 14.6279 122.967 14.6279C123.633 14.6279 124.133 15.188 124.133 15.814C125.266 14.7597 126.2 14.5291 127.133 14.4961H127.433C128.166 14.4961 128.833 15.1221 128.833 15.9128C128.866 16.6376 128.199 17.2965 127.466 17.2965ZM139.297 23.2267C139.431 23.4574 139.531 23.688 139.531 23.9515C139.531 24.7422 138.798 25.4671 137.998 25.4671C137.464 25.4671 136.998 25.0717 136.631 24.6105L133.098 20.5581V23.9186C133.098 24.7752 132.399 25.4671 131.565 25.4671C130.732 25.4671 130.032 24.7752 130.032 23.9186V11.564C130.032 10.7074 130.699 10.0155 131.565 10.0155C132.432 10.0155 133.098 10.7074 133.098 11.564V19.2733L136.631 15.4186C136.998 15.0233 137.431 14.595 137.964 14.595C138.731 14.595 139.431 15.2868 139.431 16.0775C139.431 16.3081 139.364 16.5717 139.231 16.7694L136.431 19.8004L139.297 23.2267ZM145.296 17.3295C144.463 17.3295 143.097 17.7578 143.097 19.0426H147.529C147.496 17.7578 146.096 17.3295 145.296 17.3295ZM149.296 20.9864H143.097C143.097 22.7985 144.863 23.095 145.63 23.095C146.196 23.095 146.996 22.9961 147.629 22.6996C147.829 22.5678 148.129 22.469 148.429 22.469C149.096 22.469 149.662 23.0291 149.662 23.7209C149.662 24.1822 149.362 24.5775 148.996 24.8081C148.063 25.5 146.829 25.6647 145.663 25.6647C142.564 25.6647 139.997 24.0174 139.997 20.1628C139.997 17.1318 141.564 14.4961 145.23 14.4961C148.196 14.4961 150.429 16.407 150.496 19.8004C150.496 20.4264 149.962 20.9864 149.296 20.9864ZM157.828 25.6318H156.994C154.662 25.6318 153.295 24.6105 153.295 21.0194V17.2965H152.495C151.762 17.2965 151.129 16.6376 151.129 15.9128C151.129 15.1221 151.795 14.4961 152.495 14.4961H153.295V11.6298C153.295 10.7733 153.962 10.0814 154.828 10.0814C155.661 10.0814 156.361 10.7733 156.361 11.6298V14.4961H157.628C158.361 14.4961 158.994 15.1221 158.994 15.9128C158.994 16.6376 158.328 17.2965 157.628 17.2965H156.361V20.4264C156.361 22.5019 156.461 22.9302 157.394 22.9302H157.828C158.561 22.9302 159.194 23.5233 159.194 24.281C159.194 25.0058 158.561 25.6318 157.828 25.6318ZM172.659 11.2016C173.058 11.4322 173.425 11.9922 173.425 12.4864C173.425 13.2771 172.758 13.936 171.992 13.936C171.792 13.936 171.625 13.8702 171.459 13.8372C170.559 13.1783 169.426 12.75 168.226 12.75C165.393 12.75 163.46 15.0233 163.46 17.8566C163.46 20.6899 165.426 22.9302 168.226 22.9302C169.626 22.9302 170.892 22.3702 171.825 21.4806C172.059 21.3159 172.359 21.2171 172.659 21.2171C173.425 21.2171 174.025 21.8101 174.025 22.5678C174.025 23.062 173.725 23.4903 173.358 23.7209C171.992 24.874 170.159 25.6318 168.259 25.6318C163.927 25.6318 160.394 22.1066 160.394 17.7578C160.394 13.4089 163.927 9.88372 168.259 9.88372C169.859 9.85078 171.425 10.345 172.659 11.2016ZM180.424 22.9302C181.79 22.9302 182.957 21.7112 182.957 20.064C182.957 18.4167 181.757 17.3295 180.424 17.3295C179.057 17.3295 177.991 18.4496 177.991 20.064C177.991 21.6453 179.091 22.9302 180.424 22.9302ZM183.69 24.314L183.623 23.9515C183.023 25.1047 181.124 25.6318 179.924 25.6318C177.058 25.6318 174.925 23.062 174.925 19.9981C174.925 16.9671 177.091 14.4632 180.091 14.4632C180.591 14.4632 182.324 14.595 183.657 16.1434L183.723 15.781C183.723 15.1221 184.223 14.595 184.89 14.595C185.556 14.595 186.09 15.155 186.09 15.781V24.281C186.09 24.9399 185.556 25.4671 184.89 25.4671C184.19 25.5 183.69 24.9399 183.69 24.314ZM194.455 22.9302C195.821 22.9302 196.888 21.6453 196.888 20.064C196.888 18.4167 195.788 17.3295 194.455 17.3295C193.088 17.3295 191.922 18.4167 191.922 20.064C191.922 21.7112 193.088 22.9302 194.455 22.9302ZM191.922 24.7422V28.5969C191.922 29.4535 191.222 30.1453 190.389 30.1453C189.556 30.1453 188.856 29.4535 188.856 28.5969V15.814C188.856 15.155 189.389 14.6279 190.056 14.6279C190.722 14.6279 191.222 15.188 191.222 15.9457C192.355 14.7926 193.755 14.4961 194.821 14.4961C197.788 14.4961 199.987 16.9671 199.987 20.031C199.987 23.062 197.888 25.6647 194.988 25.6647C194.088 25.6318 192.755 25.3682 191.922 24.7422Z" fill="#23262F"/>
</g>
<defs>
<clipPath id="clip0_0_4533">
<rect width="200" height="34" fill="white"/>
</clipPath>
</defs>
</svg>
