<svg width="149" height="42" fill="none" xmlns="http://www.w3.org/2000/svg"><rect width="149" height="42" rx="21" fill="url(#a)"/><g clip-path="url(#b)"><path d="M37 11.664H18.984v16.374H37V11.664Z" fill="#FCFCFD"/><path fill-rule="evenodd" clip-rule="evenodd" d="M42 21c0 7.732-6.268 14-14 14s-14-6.268-14-14S20.268 7 28 7s14 6.268 14 14Zm-17.967 5.571h-2.717c-.571 0-.853 0-1.025-.11a.69.69 0 0 1-.313-.54c-.01-.203.13-.45.413-.945l6.708-11.825c.286-.502.43-.754.612-.846.197-.1.43-.1.626 0 .183.092.327.344.613.846l1.379 2.407.007.012c.308.539.464.812.533 1.099a2.06 2.06 0 0 1 0 .956c-.07.289-.224.564-.537 1.11l-3.524 6.23-.009.016c-.31.543-.468.818-.685 1.026a2.051 2.051 0 0 1-.836.485c-.286.08-.605.08-1.245.08Zm6.861 0h3.893c.575 0 .864 0 1.036-.113a.689.689 0 0 0 .313-.543c.01-.197-.128-.435-.399-.901a8.152 8.152 0 0 1-.028-.049l-1.95-3.336-.022-.037c-.274-.464-.413-.698-.59-.788a.685.685 0 0 0-.623 0c-.178.093-.323.337-.608.829l-1.944 3.336-.006.011c-.285.491-.427.737-.417.938.014.22.128.423.313.543.169.11.458.11 1.032.11Z" fill="#E84142"/></g><path d="m44.598 28 4.212-12.96h2.71L55.73 28h-1.953L49.9 16.174h.486L46.551 28h-1.953Zm2.187-2.925v-1.764h6.768v1.764h-6.768ZM59.253 28l-3.528-9.72h1.9l2.582 7.362 2.583-7.362h1.9L61.16 28h-1.908Zm9.258.27c-.72 0-1.323-.132-1.81-.396a2.821 2.821 0 0 1-1.106-1.062 2.958 2.958 0 0 1-.37-1.458c0-.492.088-.924.262-1.296.174-.372.432-.687.774-.945a4.14 4.14 0 0 1 1.26-.639c.432-.126.92-.237 1.467-.333a49.86 49.86 0 0 1 1.719-.27l1.8-.252-.684.378c.012-.762-.15-1.326-.486-1.692-.33-.372-.9-.558-1.71-.558-.51 0-.978.12-1.404.36-.426.234-.723.624-.891 1.17l-1.755-.54c.24-.834.696-1.497 1.368-1.989.678-.492 1.578-.738 2.7-.738.87 0 1.626.15 2.268.45a2.797 2.797 0 0 1 1.422 1.404c.156.318.252.654.288 1.008.036.354.054.735.054 1.143V28h-1.665v-2.223l.324.288c-.402.744-.915 1.299-1.54 1.665-.617.36-1.38.54-2.285.54Zm.333-1.539c.534 0 .993-.093 1.377-.279a2.71 2.71 0 0 0 .927-.729c.234-.294.387-.6.459-.918.102-.288.159-.612.17-.972.019-.36.028-.648.028-.864l.612.225-1.62.243c-.486.072-.927.144-1.323.216-.39.066-.738.147-1.044.243-.258.09-.49.198-.693.324a1.587 1.587 0 0 0-.477.459c-.114.18-.171.399-.171.657 0 .252.063.486.189.702.126.21.318.378.576.504.258.126.588.189.99.189ZM76.194 28V14.77h1.88V28h-1.88Zm7.329.27c-.72 0-1.323-.132-1.81-.396a2.821 2.821 0 0 1-1.106-1.062 2.958 2.958 0 0 1-.37-1.458c0-.492.088-.924.262-1.296.174-.372.432-.687.774-.945a4.14 4.14 0 0 1 1.26-.639c.432-.126.92-.237 1.467-.333a49.86 49.86 0 0 1 1.719-.27l1.8-.252-.684.378c.012-.762-.15-1.326-.486-1.692-.33-.372-.9-.558-1.71-.558-.51 0-.978.12-1.404.36-.426.234-.723.624-.891 1.17l-1.755-.54c.24-.834.696-1.497 1.368-1.989.678-.492 1.578-.738 2.7-.738.87 0 1.626.15 2.268.45a2.797 2.797 0 0 1 1.422 1.404c.156.318.252.654.288 1.008.036.354.054.735.054 1.143V28h-1.665v-2.223l.324.288c-.402.744-.915 1.299-1.54 1.665-.617.36-1.38.54-2.285.54Zm.333-1.539c.534 0 .993-.093 1.377-.279a2.71 2.71 0 0 0 .927-.729c.234-.294.387-.6.459-.918.102-.288.159-.612.17-.972.019-.36.028-.648.028-.864l.612.225-1.62.243c-.486.072-.927.144-1.323.216-.39.066-.738.147-1.044.243-.258.09-.49.198-.693.324a1.587 1.587 0 0 0-.477.459c-.114.18-.171.399-.171.657 0 .252.063.486.189.702.126.21.318.378.576.504.258.126.588.189.99.189ZM97.848 28v-4.779c0-.378-.033-.765-.1-1.161a3.48 3.48 0 0 0-.36-1.116 2.112 2.112 0 0 0-.746-.828c-.318-.21-.735-.315-1.251-.315-.336 0-.654.057-.954.171-.3.108-.564.285-.792.531-.222.246-.4.57-.531.972-.126.402-.19.891-.19 1.467l-1.17-.441c0-.882.166-1.659.496-2.331a3.72 3.72 0 0 1 1.422-1.584c.618-.378 1.365-.567 2.24-.567.673 0 1.237.108 1.693.324.456.216.825.501 1.107.855.288.348.507.729.657 1.143.15.414.252.819.306 1.215.054.396.08.744.08 1.044V28h-1.907Zm-6.831 0v-9.72H92.7v2.808h.225V28h-1.908Zm15.118.27c-.996 0-1.842-.222-2.538-.666a4.354 4.354 0 0 1-1.602-1.827c-.366-.774-.552-1.653-.558-2.637.006-1.002.198-1.887.576-2.655a4.333 4.333 0 0 1 1.62-1.818c.702-.438 1.545-.657 2.529-.657 1.062 0 1.968.264 2.718.792.756.528 1.254 1.251 1.494 2.169l-1.872.54c-.186-.546-.492-.969-.918-1.269a2.397 2.397 0 0 0-1.449-.459c-.618 0-1.125.147-1.521.441-.396.288-.69.684-.882 1.188-.192.504-.291 1.08-.297 1.728.006 1.002.234 1.812.684 2.43.456.618 1.128.927 2.016.927.606 0 1.095-.138 1.467-.414.378-.282.666-.684.864-1.206l1.908.45c-.318.948-.843 1.677-1.575 2.187-.732.504-1.62.756-2.664.756Zm12.894-.27v-4.779c0-.378-.033-.765-.099-1.161a3.48 3.48 0 0 0-.36-1.116 2.112 2.112 0 0 0-.747-.828c-.318-.21-.735-.315-1.251-.315-.336 0-.654.057-.954.171-.3.108-.564.285-.792.531-.222.246-.399.57-.531.972-.126.402-.189.891-.189 1.467l-1.17-.441c0-.882.165-1.659.495-2.331a3.72 3.72 0 0 1 1.422-1.584c.618-.378 1.365-.567 2.241-.567.672 0 1.236.108 1.692.324.456.216.825.501 1.107.855.288.348.507.729.657 1.143.15.414.252.819.306 1.215.054.396.081.744.081 1.044V28h-1.908Zm-6.831 0V15.04h1.683v6.993h.225V28h-1.908Zm15.394.27c-.966 0-1.815-.21-2.547-.63a4.48 4.48 0 0 1-1.701-1.773c-.402-.762-.603-1.644-.603-2.646 0-1.062.198-1.983.594-2.763.402-.78.96-1.383 1.674-1.809.714-.426 1.545-.639 2.493-.639.99 0 1.833.231 2.529.693.696.456 1.215 1.107 1.557 1.953.348.846.486 1.851.414 3.015h-1.881v-.684c-.012-1.128-.228-1.962-.648-2.502-.414-.54-1.047-.81-1.899-.81-.942 0-1.65.297-2.124.891-.474.594-.711 1.452-.711 2.574 0 1.068.237 1.896.711 2.484.474.582 1.158.873 2.052.873.588 0 1.095-.132 1.521-.396.432-.27.768-.654 1.008-1.152l1.845.585c-.378.87-.951 1.545-1.719 2.025a4.786 4.786 0 0 1-2.565.711Zm-3.465-4.599v-1.467h6.939v1.467h-6.939Z" fill="#FCFCFD"/><defs><linearGradient id="a" x1="0" y1="0" x2="141.881" y2="63.012" gradientUnits="userSpaceOnUse"><stop stop-color="#E84142"/><stop offset="1" stop-color="#E84B41"/></linearGradient><clipPath id="b"><path fill="#fff" transform="translate(16 9)" d="M0 0h24v24H0z"/></clipPath></defs></svg>