<svg width="145" height="42" fill="none" xmlns="http://www.w3.org/2000/svg"><rect width="145" height="42" rx="21" fill="url(#a)"/><path d="M27.48 10a.641.641 0 0 0-.316.097.736.736 0 0 0-.243.247l-5.6 9.217a.88.88 0 0 0-.1.64c.026.109.072.21.135.297a.723.723 0 0 0 .23.209l5.6 3.138a.639.639 0 0 0 .626 0l5.6-3.138a.723.723 0 0 0 .23-.209.828.828 0 0 0 .134-.297.88.88 0 0 0-.1-.64l-5.599-9.217a.733.733 0 0 0-.26-.258.637.637 0 0 0-.337-.086Zm.02 2.18v5.677l4.562 1.85-4.563 2.557v-4.407l-4.496 1.723 4.496-7.4Zm-5.627 10.39a.65.65 0 0 0-.363.132.769.769 0 0 0-.248.326.872.872 0 0 0 .09.819l5.6 7.857a.72.72 0 0 0 .243.217.637.637 0 0 0 .607 0 .72.72 0 0 0 .243-.217l5.6-7.857c.1-.14.154-.314.153-.493a.847.847 0 0 0-.155-.492.694.694 0 0 0-.397-.274.632.632 0 0 0-.461.065l-5.287 2.968-5.286-2.968a.638.638 0 0 0-.34-.083Zm2.565 3.09 2.747 1.541a.638.638 0 0 0 .313.083v2.67l-3.06-4.295ZM45.59 28V15.04h8.28v1.773h-6.399v3.636h5.32v1.773h-5.32v4.005h6.4V28h-8.28Zm16.003 0a8.053 8.053 0 0 1-1.8.153 4.074 4.074 0 0 1-1.575-.342c-.462-.21-.81-.54-1.044-.99a2.895 2.895 0 0 1-.341-1.224c-.012-.42-.018-.894-.018-1.422V15.58h1.89v8.505c0 .39.003.729.009 1.017.011.288.075.531.189.729.215.372.558.585 1.026.639.474.048 1.029.027 1.664-.063V28Zm-6.642-8.208V18.28h6.642v1.512h-6.642ZM70.466 28v-4.779c0-.378-.033-.765-.1-1.161a3.48 3.48 0 0 0-.36-1.116 2.112 2.112 0 0 0-.746-.828c-.318-.21-.735-.315-1.251-.315-.336 0-.654.057-.954.171-.3.108-.564.285-.792.531-.222.246-.4.57-.531.972-.126.402-.19.891-.19 1.467l-1.17-.441c0-.882.166-1.659.496-2.331a3.72 3.72 0 0 1 1.422-1.584c.618-.378 1.365-.567 2.24-.567.673 0 1.237.108 1.693.324.456.216.825.501 1.107.855.288.348.507.729.657 1.143.15.414.252.819.306 1.215.054.396.08.744.08 1.044V28h-1.907Zm-6.831 0V15.04h1.683v6.993h.225V28h-1.908Zm15.394.27c-.966 0-1.815-.21-2.547-.63a4.48 4.48 0 0 1-1.701-1.773c-.402-.762-.603-1.644-.603-2.646 0-1.062.198-1.983.594-2.763.402-.78.96-1.383 1.674-1.809.714-.426 1.545-.639 2.493-.639.99 0 1.833.231 2.529.693.696.456 1.215 1.107 1.557 1.953.348.846.486 1.851.414 3.015h-1.881v-.684c-.012-1.128-.228-1.962-.648-2.502-.414-.54-1.047-.81-1.899-.81-.942 0-1.65.297-2.124.891-.474.594-.711 1.452-.711 2.574 0 1.068.237 1.896.711 2.484.474.582 1.158.873 2.052.873.588 0 1.095-.132 1.521-.396.432-.27.768-.654 1.008-1.152l1.845.585c-.378.87-.951 1.545-1.719 2.025a4.786 4.786 0 0 1-2.565.711Zm-3.465-4.599v-1.467h6.939v1.467h-6.939ZM85.457 28v-9.72h1.674v2.358l-.234-.306c.12-.312.276-.597.468-.855.192-.264.414-.48.666-.648.246-.18.52-.318.82-.414.305-.102.617-.162.935-.18.318-.024.624-.009.918.045v1.764a3.049 3.049 0 0 0-1.062-.072 2.324 2.324 0 0 0-1.062.369 2.386 2.386 0 0 0-.729.72c-.174.282-.3.597-.378.945a4.887 4.887 0 0 0-.117 1.089V28h-1.899Zm11.096.27c-.966 0-1.815-.21-2.547-.63a4.48 4.48 0 0 1-1.7-1.773c-.403-.762-.604-1.644-.604-2.646 0-1.062.198-1.983.594-2.763.402-.78.96-1.383 1.674-1.809.714-.426 1.545-.639 2.493-.639.99 0 1.833.231 2.53.693.695.456 1.214 1.107 1.556 1.953.348.846.486 1.851.414 3.015h-1.88v-.684c-.013-1.128-.229-1.962-.649-2.502-.414-.54-1.047-.81-1.899-.81-.942 0-1.65.297-2.124.891-.474.594-.71 1.452-.71 2.574 0 1.068.236 1.896.71 2.484.474.582 1.158.873 2.052.873.588 0 1.095-.132 1.521-.396.432-.27.768-.654 1.008-1.152l1.845.585c-.378.87-.95 1.545-1.719 2.025a4.786 4.786 0 0 1-2.565.711Zm-3.465-4.599v-1.467h6.939v1.467h-6.939Zm13.558 4.59c-.672 0-1.236-.108-1.692-.324a3.2 3.2 0 0 1-1.116-.846 4.058 4.058 0 0 1-.648-1.152 5.913 5.913 0 0 1-.306-1.215 7.844 7.844 0 0 1-.081-1.044v-5.4h1.908v4.779c0 .378.03.768.09 1.17.066.396.186.765.36 1.107.18.342.429.618.747.828.324.21.744.315 1.26.315.336 0 .654-.054.954-.162a2 2 0 0 0 .783-.54c.228-.246.405-.57.531-.972.132-.402.198-.891.198-1.467l1.17.441c0 .882-.165 1.662-.495 2.34a3.73 3.73 0 0 1-1.422 1.575c-.618.378-1.365.567-2.241.567Zm3.213-.261v-2.808h-.225V18.28h1.899V28h-1.674Zm15.844 0 .009-6.057c0-.702-.18-1.248-.54-1.638-.36-.396-.834-.594-1.422-.594-.36 0-.69.084-.99.252a1.855 1.855 0 0 0-.72.738c-.18.324-.27.732-.27 1.224l-.909-.459c-.012-.684.132-1.284.432-1.8.306-.516.72-.915 1.242-1.197a3.572 3.572 0 0 1 1.755-.432c1.05 0 1.863.315 2.439.945.576.63.864 1.467.864 2.511L127.584 28h-1.881Zm-11.655 0v-9.72h1.674v2.808h.216V28h-1.89Zm5.832 0 .009-6.021c0-.708-.18-1.263-.54-1.665-.354-.402-.831-.603-1.431-.603-.594 0-1.074.204-1.44.612-.36.408-.54.942-.54 1.602l-.9-.576c0-.636.153-1.203.459-1.701.306-.498.72-.891 1.242-1.179.522-.288 1.113-.432 1.773-.432.69 0 1.278.147 1.764.441.486.288.855.693 1.107 1.215.258.522.387 1.128.387 1.818L121.761 28h-1.881Z" fill="#23262F"/><defs><linearGradient id="a" x1="20.372" y1="-72.333" x2="104.191" y2="96.319" gradientUnits="userSpaceOnUse"><stop stop-color="#fff"/><stop offset="1" stop-color="#AAA" stop-opacity="0"/></linearGradient></defs></svg>