<svg width="96" height="42" fill="none" xmlns="http://www.w3.org/2000/svg"><rect width="96" height="42" rx="21" fill="url(#a)" fill-opacity=".9"/><path d="m28.18 16.74 2.787 2.787c.1.1.262.1.363 0l1.468-1.47c.1-.1.1-.262 0-.362l-4.618-4.62c-.1-.1-.263-.1-.363 0L23.2 17.693c-.1.1-.1.263 0 .363l1.469 1.469c.1.1.263.1.363 0l2.785-2.785c.1-.1.263-.1.363 0Zm-6.636 2.61-1.469 1.469c-.1.1-.1.262 0 .363l1.469 1.469c.1.1.263.1.363 0l1.469-1.47c.1-.1.1-.262 0-.362l-1.47-1.47c-.1-.1-.262-.1-.362 0Zm6.638 9.575 4.62-4.62c.1-.1.1-.263 0-.363l-1.47-1.468c-.1-.1-.263-.1-.363 0l-2.787 2.787c-.1.1-.262.1-.363 0l-2.785-2.786c-.1-.1-.262-.1-.363 0l-1.47 1.467a.255.255 0 0 0 0 .363l4.618 4.62c.1.1.263.1.363 0Zm5.908-9.575-1.468 1.47c-.1.1-.1.262 0 .363l1.469 1.469c.1.1.263.1.363 0l1.469-1.47c.1-.1.1-.262 0-.362l-1.47-1.47c-.1-.1-.262-.1-.362 0Z" fill="#23262F"/><path d="m29.678 20.818-1.497-1.497c-.1-.1-.263-.1-.363 0l-1.497 1.497c-.1.1-.1.263 0 .363l1.497 1.497c.1.1.263.1.363 0l1.497-1.497c.1-.1.1-.262 0-.363ZM45.656 28V15.04h5.093c.822 0 1.512.168 2.07.504.558.336.978.771 1.26 1.305.282.528.423 1.086.423 1.674 0 .714-.177 1.326-.53 1.836-.349.51-.82.858-1.413 1.044l-.018-.441c.828.204 1.464.603 1.908 1.197.444.588.666 1.275.666 2.061 0 .762-.154 1.425-.46 1.989a3.195 3.195 0 0 1-1.322 1.323c-.576.312-1.276.468-2.097.468h-5.58Zm1.907-1.791h3.384a2.6 2.6 0 0 0 1.143-.243c.342-.162.61-.393.801-.693.199-.306.297-.669.297-1.089 0-.39-.087-.741-.26-1.053a1.806 1.806 0 0 0-.738-.747c-.319-.186-.694-.279-1.125-.279h-3.502v4.104Zm0-5.877h3.16c.348 0 .66-.069.935-.207a1.64 1.64 0 0 0 .666-.612c.169-.27.253-.594.253-.972 0-.504-.169-.918-.505-1.242-.336-.324-.786-.486-1.35-.486h-3.159v3.519ZM56.906 28V15.04h1.907l6.382 9.63v-9.63h1.908V28h-1.908l-6.381-9.639V28h-1.908Zm12.709 0V15.04h5.094c.822 0 1.511.168 2.07.504.558.336.978.771 1.26 1.305.281.528.422 1.086.422 1.674 0 .714-.177 1.326-.53 1.836-.349.51-.82.858-1.413 1.044l-.019-.441c.829.204 1.465.603 1.909 1.197.444.588.665 1.275.665 2.061 0 .762-.152 1.425-.458 1.989a3.195 3.195 0 0 1-1.323 1.323c-.576.312-1.276.468-2.097.468h-5.58Zm1.907-1.791h3.384a2.6 2.6 0 0 0 1.143-.243c.342-.162.61-.393.801-.693.199-.306.297-.669.297-1.089 0-.39-.087-.741-.26-1.053a1.806 1.806 0 0 0-.739-.747c-.317-.186-.692-.279-1.124-.279h-3.502v4.104Zm0-5.877h3.16c.347 0 .66-.069.936-.207a1.64 1.64 0 0 0 .666-.612c.167-.27.251-.594.251-.972 0-.504-.167-.918-.504-1.242-.336-.324-.785-.486-1.35-.486h-3.159v3.519Z" fill="#23262F"/><defs><linearGradient id="a" x1="-9.6" y1="-2.917" x2="104.858" y2="67.797" gradientUnits="userSpaceOnUse"><stop stop-color="#FAFF00"/><stop offset="1" stop-color="#F90"/></linearGradient></defs></svg>