<svg width="125" height="42" fill="none" xmlns="http://www.w3.org/2000/svg"><rect width="125" height="42" rx="21" fill="url(#a)" fill-opacity=".8"/><g clip-path="url(#b)"><path fill-rule="evenodd" clip-rule="evenodd" d="m29 18.548 3-1.689v3.377l-3-1.688Zm3 7.236-4 2.251-4-2.251v-3.94l4 2.252 4-2.252v3.94Zm-8-8.925 3 1.689-3 1.688V16.86Zm4.5 2.493 3 1.688-3 1.689v-3.377Zm-1 3.377-3-1.689 3-1.688v3.377Zm4-6.674-3.5 1.93-3.5-1.93 3.5-2.01 3.5 2.01Zm-8.5-.321v10.532L28 29l5-2.734V15.734L28 13l-5 2.734Z" fill="#F4F5F6"/></g><path d="M45.618 28V15.04h7.677v1.881H47.5v3.654h4.716v1.89H47.5V28h-1.88Zm11.693.27c-.72 0-1.323-.132-1.81-.396a2.821 2.821 0 0 1-1.106-1.062 2.958 2.958 0 0 1-.37-1.458c0-.492.088-.924.262-1.296.174-.372.432-.687.774-.945a4.14 4.14 0 0 1 1.26-.639c.432-.126.92-.237 1.467-.333a49.86 49.86 0 0 1 1.719-.27l1.8-.252-.684.378c.012-.762-.15-1.326-.486-1.692-.33-.372-.9-.558-1.71-.558-.51 0-.978.12-1.404.36-.426.234-.723.624-.891 1.17l-1.755-.54c.24-.834.696-1.497 1.368-1.989.678-.492 1.578-.738 2.7-.738.87 0 1.626.15 2.268.45a2.797 2.797 0 0 1 1.422 1.404c.156.318.252.654.288 1.008.036.354.054.735.054 1.143V28h-1.665v-2.223l.324.288c-.402.744-.915 1.299-1.54 1.665-.617.36-1.38.54-2.285.54Zm.333-1.539c.534 0 .993-.093 1.377-.279a2.71 2.71 0 0 0 .927-.729c.234-.294.387-.6.459-.918.102-.288.159-.612.17-.972.019-.36.028-.648.028-.864l.612.225-1.62.243c-.486.072-.927.144-1.323.216-.39.066-.738.147-1.044.243-.258.09-.49.198-.693.324a1.587 1.587 0 0 0-.477.459c-.114.18-.171.399-.171.657 0 .252.063.486.189.702.126.21.318.378.576.504.258.126.588.189.99.189ZM71.636 28v-4.779c0-.378-.033-.765-.1-1.161a3.48 3.48 0 0 0-.36-1.116 2.112 2.112 0 0 0-.746-.828c-.318-.21-.735-.315-1.251-.315-.336 0-.654.057-.954.171-.3.108-.564.285-.792.531-.222.246-.4.57-.531.972-.126.402-.19.891-.19 1.467l-1.17-.441c0-.882.166-1.659.496-2.331a3.72 3.72 0 0 1 1.422-1.584c.618-.378 1.365-.567 2.24-.567.673 0 1.237.108 1.693.324.456.216.825.501 1.107.855.288.348.507.729.657 1.143.15.414.252.819.306 1.215.054.396.08.744.08 1.044V28h-1.907Zm-6.831 0v-9.72h1.683v2.808h.225V28h-1.908Zm16.645 0a8.053 8.053 0 0 1-1.8.153 4.074 4.074 0 0 1-1.575-.342c-.462-.21-.81-.54-1.044-.99a2.895 2.895 0 0 1-.342-1.224c-.012-.42-.018-.894-.018-1.422V15.58h1.89v8.505c0 .39.003.729.009 1.017.012.288.075.531.189.729.216.372.558.585 1.026.639.474.048 1.029.027 1.665-.063V28Zm-6.642-8.208V18.28h6.642v1.512h-6.642ZM87.28 28.27c-.972 0-1.815-.219-2.53-.657a4.428 4.428 0 0 1-1.655-1.809c-.384-.774-.576-1.665-.576-2.673 0-1.014.198-1.905.594-2.673a4.354 4.354 0 0 1 1.665-1.8c.714-.432 1.548-.648 2.502-.648.972 0 1.815.219 2.529.657a4.428 4.428 0 0 1 1.656 1.809c.39.768.585 1.653.585 2.655 0 1.014-.198 1.908-.594 2.682a4.428 4.428 0 0 1-1.656 1.809c-.714.432-1.554.648-2.52.648Zm0-1.773c.93 0 1.623-.312 2.079-.936.462-.63.693-1.44.693-2.43 0-1.014-.234-1.824-.702-2.43-.462-.612-1.152-.918-2.07-.918-.63 0-1.15.144-1.557.432a2.503 2.503 0 0 0-.91 1.179c-.197.498-.296 1.077-.296 1.737 0 1.02.234 1.836.702 2.448.468.612 1.155.918 2.06.918ZM105.675 28l.009-6.057c0-.702-.18-1.248-.54-1.638-.36-.396-.834-.594-1.422-.594-.36 0-.69.084-.99.252a1.855 1.855 0 0 0-.72.738c-.18.324-.27.732-.27 1.224l-.909-.459c-.012-.684.132-1.284.432-1.8.306-.516.72-.915 1.242-1.197a3.572 3.572 0 0 1 1.755-.432c1.05 0 1.863.315 2.439.945.576.63.864 1.467.864 2.511L107.556 28h-1.881ZM94.02 28v-9.72h1.674v2.808h.216V28h-1.89Zm5.832 0 .009-6.021c0-.708-.18-1.263-.54-1.665-.354-.402-.831-.603-1.431-.603-.594 0-1.074.204-1.44.612-.36.408-.54.942-.54 1.602l-.9-.576c0-.636.153-1.203.459-1.701.306-.498.72-.891 1.242-1.179.522-.288 1.113-.432 1.773-.432.69 0 1.278.147 1.764.441.486.288.855.693 1.107 1.215.258.522.387 1.128.387 1.818L101.733 28h-1.881Z" fill="#F4F5F6"/><defs><linearGradient id="a" x1="4.089" y1="4.083" x2="174.004" y2="71.322" gradientUnits="userSpaceOnUse"><stop stop-color="#0083FF"/><stop offset="1"/></linearGradient><clipPath id="b"><path fill="#fff" transform="translate(20 13)" d="M0 0h16v16H0z"/></clipPath></defs></svg>