<svg width="130" height="42" fill="none" xmlns="http://www.w3.org/2000/svg"><rect width="130" height="42" rx="21" fill="url(#a)"/><g clip-path="url(#b)"><path d="M32.083 18.25c-.291-.167-.666-.167-1 0l-2.333 1.375-1.583.875-2.292 1.375c-.292.166-.667.166-1 0l-1.792-1.084c-.291-.166-.5-.5-.5-.875v-2.083c0-.333.167-.667.5-.875l1.792-1.042c.292-.166.667-.166 1 0L26.667 17c.291.166.5.5.5.875v1.375l1.583-.917v-1.417a1.03 1.03 0 0 0-.5-.875l-3.333-1.958c-.292-.167-.667-.167-1 0l-3.417 2c-.333.167-.5.5-.5.833v3.917c0 .333.167.667.5.875l3.375 1.958c.292.167.667.167 1 0l2.292-1.333 1.583-.917 2.292-1.333c.291-.167.666-.167 1 0l1.791 1.042c.292.166.5.5.5.875v2.083c0 .333-.166.667-.5.875L32.083 26c-.291.166-.666.166-1 0l-1.791-1.042c-.292-.167-.5-.5-.5-.875V22.75l-1.584.916v1.375c0 .334.167.667.5.875l3.375 1.959c.292.166.667.166 1 0l3.375-1.959c.292-.166.5-.5.5-.875v-3.958c0-.333-.166-.667-.5-.875l-3.375-1.958Z" fill="#FCFCFD"/></g><path d="M45.526 28V15.04h5.238c.126 0 .282.006.468.018.186.006.363.024.53.054.72.114 1.32.36 1.8.738.487.378.85.855 1.09 1.431.24.576.36 1.212.36 1.908 0 .702-.12 1.341-.36 1.917a3.474 3.474 0 0 1-1.09 1.431c-.48.378-1.08.624-1.8.738a6.847 6.847 0 0 1-.54.054 7.393 7.393 0 0 1-.458.018h-3.357V28h-1.881Zm1.88-6.435h3.286c.12 0 .252-.006.396-.018.15-.012.29-.033.423-.063.384-.09.693-.255.927-.495a2.18 2.18 0 0 0 .504-.846 3.024 3.024 0 0 0 0-1.899 2.104 2.104 0 0 0-.504-.837c-.234-.246-.543-.414-.927-.504a2.304 2.304 0 0 0-.423-.072 4.798 4.798 0 0 0-.396-.018h-3.285v4.752ZM60.91 28.27c-.972 0-1.815-.219-2.53-.657a4.428 4.428 0 0 1-1.655-1.809c-.384-.774-.576-1.665-.576-2.673 0-1.014.198-1.905.594-2.673a4.354 4.354 0 0 1 1.665-1.8c.714-.432 1.548-.648 2.502-.648.972 0 1.815.219 2.529.657a4.428 4.428 0 0 1 1.656 1.809c.39.768.585 1.653.585 2.655 0 1.014-.198 1.908-.594 2.682a4.428 4.428 0 0 1-1.656 1.809c-.714.432-1.554.648-2.52.648Zm0-1.773c.93 0 1.623-.312 2.079-.936.462-.63.693-1.44.693-2.43 0-1.014-.234-1.824-.702-2.43-.462-.612-1.152-.918-2.07-.918-.63 0-1.15.144-1.557.432a2.503 2.503 0 0 0-.91 1.179c-.197.498-.296 1.077-.296 1.737 0 1.02.234 1.836.702 2.448.468.612 1.155.918 2.06.918ZM67.837 28V14.77h1.88V28h-1.88Zm5.897 4.32 1.881-5.121.027 1.512-4.239-10.431h1.962l3.168 8.055h-.576l3.024-8.055h1.908l-5.364 14.04h-1.79Zm12.271.27a4.832 4.832 0 0 1-1.52-.243 4.346 4.346 0 0 1-1.333-.72 3.9 3.9 0 0 1-.999-1.161l1.737-.882c.21.414.51.717.9.909.39.192.801.288 1.233.288.534 0 .99-.096 1.368-.288.378-.186.663-.468.855-.846.198-.378.294-.846.288-1.404v-2.718h.225V18.28h1.665v9.981c0 .258-.009.504-.027.738a5.645 5.645 0 0 1-.099.702c-.138.654-.402 1.194-.792 1.62-.384.426-.876.744-1.476.954-.594.21-1.269.315-2.025.315Zm-.144-4.32c-.906 0-1.689-.225-2.349-.675-.654-.45-1.16-1.062-1.52-1.836-.355-.78-.532-1.656-.532-2.628 0-.978.18-1.851.54-2.619.36-.774.87-1.383 1.53-1.827.666-.45 1.455-.675 2.367-.675.918 0 1.69.225 2.313.675.63.444 1.104 1.053 1.422 1.827.324.774.486 1.647.486 2.619 0 .972-.162 1.845-.486 2.619-.324.774-.8 1.389-1.43 1.845-.63.45-1.41.675-2.34.675Zm.261-1.701c.618 0 1.122-.147 1.512-.441.39-.294.675-.699.855-1.215.18-.516.27-1.11.27-1.782 0-.672-.093-1.266-.279-1.782-.18-.516-.462-.918-.846-1.206-.378-.288-.86-.432-1.449-.432-.624 0-1.137.153-1.539.459a2.744 2.744 0 0 0-.9 1.233 4.924 4.924 0 0 0-.288 1.728c0 .642.096 1.224.288 1.746.198.516.492.927.882 1.233.396.306.894.459 1.494.459Zm11.05 1.701c-.972 0-1.815-.219-2.529-.657a4.428 4.428 0 0 1-1.656-1.809c-.384-.774-.576-1.665-.576-2.673 0-1.014.198-1.905.594-2.673a4.354 4.354 0 0 1 1.665-1.8c.714-.432 1.548-.648 2.502-.648.972 0 1.815.219 2.53.657a4.43 4.43 0 0 1 1.655 1.809c.39.768.585 1.653.585 2.655 0 1.014-.198 1.908-.594 2.682a4.43 4.43 0 0 1-1.656 1.809c-.714.432-1.554.648-2.52.648Zm0-1.773c.93 0 1.623-.312 2.08-.936.461-.63.692-1.44.692-2.43 0-1.014-.234-1.824-.702-2.43-.462-.612-1.152-.918-2.07-.918-.63 0-1.149.144-1.557.432a2.503 2.503 0 0 0-.909 1.179c-.198.498-.297 1.077-.297 1.737 0 1.02.234 1.836.702 2.448.468.612 1.155.918 2.061.918ZM110.742 28v-4.779c0-.378-.033-.765-.099-1.161a3.48 3.48 0 0 0-.36-1.116 2.112 2.112 0 0 0-.747-.828c-.318-.21-.735-.315-1.251-.315-.336 0-.654.057-.954.171-.3.108-.564.285-.792.531-.222.246-.399.57-.531.972-.126.402-.189.891-.189 1.467l-1.17-.441c0-.882.165-1.659.495-2.331a3.72 3.72 0 0 1 1.422-1.584c.618-.378 1.365-.567 2.241-.567.672 0 1.236.108 1.692.324.456.216.825.501 1.107.855.288.348.507.729.657 1.143.15.414.252.819.306 1.215.054.396.081.744.081 1.044V28h-1.908Zm-6.831 0v-9.72h1.683v2.808h.225V28h-1.908Z" fill="#FCFCFD"/><defs><linearGradient id="a" x1="0" y1="0" x2="129.904" y2="42.294" gradientUnits="userSpaceOnUse"><stop stop-color="#9757D7"/><stop offset="1" stop-color="#BD00FF"/></linearGradient><clipPath id="b"><path fill="#fff" transform="translate(20 14)" d="M0 0h16v13.958H0z"/></clipPath></defs></svg>