<svg width="137" height="42" fill="none" xmlns="http://www.w3.org/2000/svg"><rect width="137" height="42" rx="21" fill="url(#a)"/><path d="M31.12 20.295a1.36 1.36 0 0 1 2.3-1.45l2.32 3.614c.413.644.633 1.392.634 2.156v.069l-.013-8.528a.642.642 0 0 0-.297-.512l-7.465-4.293a.658.658 0 0 0-.637.041l-.026.016-7.245 4.2-.029.012a.64.64 0 0 0-.374.545c.003 2.046 2.67 2.83 3.779 1.11l.094-.146c.486-.794 1.546-1.05 2.53-1.036a.66.66 0 0 1 .543 1.01l-5.938 9.523a.46.46 0 1 0 .783.481l6.267-10.343a1.312 1.312 0 0 1 2.252 1.346l-4.017 6.814a3.264 3.264 0 0 0 1.185 4.488l.341.197c.29.118.598-.07.869-.227l7.162-4.15a1.721 1.721 0 0 1-2.327-.584l-2.692-4.353Zm1.434 7.013a1.543 1.543 0 0 1-2.074-.506l-1.585-2.488a1.545 1.545 0 1 1 2.608-1.658l1.58 2.491c.47.74.23 1.722-.529 2.161Z" fill="url(#b)"/><path d="m28.386 23.515 2.889 4.535 2.669-1.547-3.795-5.98-1.763 2.992Zm7.989 1.168-.002-1.24-4.146-6.457-1.538 2.61 4.002 6.474 1.447-.84a.641.641 0 0 0 .237-.466v-.08ZM19 25.852l2.044 1.178 6.8-10.906-1.154-.03c-.983-.015-2.042.241-2.529 1.035L20.3 23.114 19 25.111v.741Zm12.77-9.729-3.042.011-6.882 11.357 2.405 1.385.654-1.11 6.865-11.643Z" fill="#FCFCFD"/><path d="M37.656 16.108a1.937 1.937 0 0 0-.91-1.558l-7.562-4.348a1.967 1.967 0 0 0-1.735 0c-.063.031-7.354 4.26-7.354 4.26A1.938 1.938 0 0 0 19 16.104v9.007l1.3-1.997-.012-6.949a.643.643 0 0 1 .267-.483c.035-.024 7.45-4.317 7.474-4.329a.658.658 0 0 1 .57-.002l7.464 4.293a.643.643 0 0 1 .297.512v8.609a.628.628 0 0 1-.223.466l-1.447.84-.747.432-2.668 1.546-2.707 1.569a.655.655 0 0 1-.46-.01l-3.203-1.84-.654 1.108 2.877 1.657a68.682 68.682 0 0 0 .457.255c.205.1.499.157.764.157.243 0 .48-.044.705-.132l7.861-4.553a1.92 1.92 0 0 0 .74-1.448v-8.704ZM44.839 28l4.212-12.96h2.709L55.972 28h-1.953l-3.88-11.826h.486L46.791 28H44.84Zm2.187-2.925v-1.764h6.767v1.764h-6.767ZM57.586 28v-9.72h1.674v2.358l-.234-.306c.12-.312.276-.597.468-.855.192-.264.414-.48.666-.648.246-.18.52-.318.82-.414.305-.102.617-.162.935-.18.318-.024.624-.009.918.045v1.764a3.049 3.049 0 0 0-1.062-.072 2.324 2.324 0 0 0-1.062.369 2.386 2.386 0 0 0-.729.72c-.174.282-.3.597-.378.945a4.887 4.887 0 0 0-.117 1.089V28h-1.899Zm11.524.27c-.93 0-1.71-.225-2.34-.675-.63-.456-1.107-1.071-1.43-1.845-.325-.774-.487-1.647-.487-2.619 0-.972.16-1.845.477-2.619.324-.774.798-1.383 1.422-1.827.63-.45 1.404-.675 2.322-.675.912 0 1.698.225 2.358.675.666.444 1.18 1.053 1.54 1.827.36.768.54 1.641.54 2.619 0 .972-.18 1.848-.54 2.628-.355.774-.862 1.386-1.522 1.836-.654.45-1.434.675-2.34.675ZM64.538 28V15.04h1.89v5.967h-.216V28h-1.674Zm4.311-1.431c.6 0 1.095-.153 1.485-.459.396-.306.69-.717.882-1.233a4.89 4.89 0 0 0 .297-1.746 4.79 4.79 0 0 0-.297-1.728 2.684 2.684 0 0 0-.89-1.233c-.403-.306-.916-.459-1.54-.459-.588 0-1.074.144-1.458.432-.378.288-.66.69-.846 1.206-.18.516-.27 1.11-.27 1.782 0 .672.09 1.266.27 1.782.18.516.465.921.855 1.215.39.294.894.441 1.512.441Zm6.83-9.882V14.86h1.88v1.827h-1.88Zm0 11.313v-9.72h1.88V28h-1.88Zm10.145 0a8.053 8.053 0 0 1-1.8.153 4.074 4.074 0 0 1-1.575-.342c-.462-.21-.81-.54-1.044-.99a2.895 2.895 0 0 1-.342-1.224c-.012-.42-.018-.894-.018-1.422V15.58h1.89v8.505c0 .39.003.729.009 1.017.012.288.075.531.189.729.216.372.558.585 1.026.639.474.048 1.029.027 1.665-.063V28Zm-6.642-8.208V18.28h6.642v1.512h-6.642ZM87.873 28v-9.72h1.674v2.358l-.234-.306c.12-.312.276-.597.468-.855.192-.264.414-.48.666-.648.246-.18.52-.318.82-.414.305-.102.617-.162.935-.18.318-.024.624-.009.918.045v1.764a3.049 3.049 0 0 0-1.062-.072 2.324 2.324 0 0 0-1.062.369 2.386 2.386 0 0 0-.729.72c-.174.282-.3.597-.378.945a4.887 4.887 0 0 0-.117 1.089V28h-1.899Zm10.624.261c-.672 0-1.236-.108-1.692-.324a3.2 3.2 0 0 1-1.116-.846 4.058 4.058 0 0 1-.648-1.152 5.913 5.913 0 0 1-.306-1.215 7.844 7.844 0 0 1-.08-1.044v-5.4h1.907v4.779c0 .378.03.768.09 1.17.066.396.186.765.36 1.107.18.342.43.618.747.828.324.21.744.315 1.26.315.336 0 .654-.054.954-.162a2 2 0 0 0 .783-.54c.228-.246.405-.57.531-.972.132-.402.198-.891.198-1.467l1.17.441c0 .882-.165 1.662-.495 2.34a3.73 3.73 0 0 1-1.422 1.575c-.618.378-1.365.567-2.24.567ZM101.71 28v-2.808h-.225V18.28h1.899V28h-1.674Zm15.844 0 .009-6.057c0-.702-.18-1.248-.54-1.638-.36-.396-.834-.594-1.422-.594-.36 0-.69.084-.99.252a1.855 1.855 0 0 0-.72.738c-.18.324-.27.732-.27 1.224l-.909-.459c-.012-.684.132-1.284.432-1.8.306-.516.72-.915 1.242-1.197a3.572 3.572 0 0 1 1.755-.432c1.05 0 1.863.315 2.439.945.576.63.864 1.467.864 2.511L119.435 28h-1.881Zm-11.655 0v-9.72h1.674v2.808h.216V28h-1.89Zm5.832 0 .009-6.021c0-.708-.18-1.263-.54-1.665-.354-.402-.831-.603-1.431-.603-.594 0-1.074.204-1.44.612-.36.408-.54.942-.54 1.602l-.9-.576c0-.636.153-1.203.459-1.701.306-.498.72-.891 1.242-1.179.522-.288 1.113-.432 1.773-.432.69 0 1.278.147 1.764.441.486.288.855.693 1.107 1.215.258.522.387 1.128.387 1.818L113.612 28h-1.881Z" fill="#FCFCFD"/><defs><linearGradient id="a" x1="279.219" y1="95.667" x2="8.954" y2="-22.269" gradientUnits="userSpaceOnUse"><stop stop-color="#28A0F0"/><stop offset="1" stop-color="#2D374B"/></linearGradient><linearGradient id="b" x1="53.073" y1="53.126" x2="15.808" y2="48.76" gradientUnits="userSpaceOnUse"><stop stop-color="#28A0F0"/><stop offset="1" stop-color="#2D374B"/></linearGradient></defs></svg>