<svg width="48" height="48" fill="none" xmlns="http://www.w3.org/2000/svg"><path d="M12.205 33.03c9.087 3.56 16.82 4.252 25.582-1.287-.065.097-1.798 2.674-6.356 3.995.963 1.32 2.279 2.834 2.279 2.834 2.921 0 5.778-.837 8.25-2.448 1.926-1.288 3.017-3.51 2.792-5.83a43.2 43.2 0 0 0-2.76-11.532 13.481 13.481 0 0 0-11.331-8.665c-.45-.032-.77-.032-.963-.032l-.514.515c5.874 1.675 8.795 4.284 8.86 4.38a32.263 32.263 0 0 0-28.762-.193s2.89-2.866 9.277-4.38L18.174 10c-.674 0-1.316.065-1.99.161a13.54 13.54 0 0 0-10.368 8.536c-1.477 3.866-2.44 7.925-2.793 12.048-.193 2.19.835 4.348 2.632 5.605a14.6 14.6 0 0 0 8.057 2.416s1.156-1.514 2.311-2.867c-4.333-1.289-6.099-3.866-6.13-3.962l.815.418c.487.25.987.476 1.497.676Zm5.038-2.8c-2.086-.065-3.723-1.837-3.66-3.963a3.795 3.795 0 0 1 3.66-3.672c2.087.065 3.724 1.836 3.66 3.962-.097 1.997-1.67 3.608-3.66 3.672Zm13.097 0c-2.087-.065-3.724-1.837-3.66-3.963a3.795 3.795 0 0 1 3.66-3.672c2.086.065 3.723 1.836 3.659 3.962a3.795 3.795 0 0 1-3.66 3.672Z" fill="#FCFCFD"/></svg>