<svg width="48" height="48" fill="none" xmlns="http://www.w3.org/2000/svg"><path d="M17.549 38.448c13.42 0 20.864-11.396 20.412-21.35a14.451 14.451 0 0 0 2.674-2.506.435.435 0 0 0-.475-.688c-.59.19-1.191.342-1.8.456a.218.218 0 0 1-.17-.388 7.202 7.202 0 0 0 1.898-2.281.43.43 0 0 0-.575-.579c-1.113.53-2.289.919-3.498 1.156a7.18 7.18 0 0 0-12.29 6.278.219.219 0 0 1-.228.26 20.365 20.365 0 0 1-13.612-6.454.869.869 0 0 0-1.474.319 6.974 6.974 0 0 0 2.181 7.784.214.214 0 0 1-.162.378 6.93 6.93 0 0 1-1.209-.276.865.865 0 0 0-.846.171.83.83 0 0 0-.276.819c1.521 5.855 5.64 5.109 5.64 5.552 0 .3-.815.3-1.907.303a.863.863 0 0 0-.761 1.26 7.244 7.244 0 0 0 5.527 3.565.216.216 0 0 1 .11.39 14.325 14.325 0 0 1-6.743 2.623.848.848 0 0 0-.27 1.622 20.077 20.077 0 0 0 7.854 1.586Z" fill="#FCFCFD"/></svg>