<svg width="48" height="48" viewBox="0 0 48 48" fill="none" xmlns="http://www.w3.org/2000/svg">
<path d="M12.2052 33.0307C21.2916 36.5892 29.0241 37.2823 37.7867 31.7434C37.7224 31.8401 35.9891 34.417 31.431 35.7377C32.3939 37.0584 33.71 38.5724 33.71 38.5724C36.6311 38.5724 39.488 37.7348 41.9595 36.1242C43.8856 34.8357 44.9769 32.6131 44.7522 30.2938C44.367 26.3317 43.4361 22.4662 41.9917 18.7618C40.162 13.93 35.7644 10.5799 30.6606 10.0967C30.2112 10.0645 29.8902 10.0645 29.6976 10.0645L29.1841 10.5798C35.0583 12.2549 37.9794 14.864 38.0435 14.9607C29.0235 10.3865 18.3666 10.3222 9.28239 14.7675C9.28239 14.7675 12.1714 11.9006 18.5591 10.3865L18.1739 10C17.4998 10 16.8578 10.0645 16.1838 10.161C11.4651 10.9663 7.51696 14.2198 5.81565 18.6973C4.33906 22.5628 3.3761 26.6215 3.02303 30.7447C2.83044 32.9351 3.85763 35.0934 5.65518 36.3497C8.0305 37.9281 10.8552 38.7656 13.7121 38.7656C13.7121 38.7656 14.8676 37.2516 16.0233 35.8987C11.6898 34.6102 9.9244 32.0332 9.89228 31.9366L10.7078 32.3545C11.1953 32.6044 11.6952 32.8309 12.2052 33.0307ZM17.2431 30.2294C15.1566 30.1649 13.5195 28.3933 13.5837 26.2672C13.648 24.2701 15.2529 22.6595 17.2431 22.595C19.3295 22.6595 20.9666 24.4311 20.9024 26.5572C20.806 28.5544 19.2332 30.165 17.2431 30.2294ZM30.3396 30.2294C28.2531 30.1649 26.616 28.3933 26.6802 26.2672C26.7444 24.2701 28.3494 22.6595 30.3396 22.595C32.426 22.6595 34.0631 24.4311 33.9989 26.5572C33.9347 28.5544 32.3297 30.165 30.3396 30.2294Z" fill="#FCFCFD"/>
</svg>
