<svg width="48" height="48" viewBox="0 0 48 48" fill="none" xmlns="http://www.w3.org/2000/svg">
<path d="M26.5485 23.855C26.5485 30.4024 21.277 35.7101 14.7742 35.7101C8.27149 35.7101 3 30.4024 3 23.855C3 17.3077 8.27149 12 14.7742 12C21.2769 12 26.5485 17.3077 26.5485 23.855Z" fill="#FCFCFD"/>
<path d="M39.4617 23.8547C39.4617 30.018 36.826 35.0142 33.5746 35.0142C30.3233 35.0142 27.6875 30.018 27.6875 23.8547C27.6875 17.6915 30.3233 12.6953 33.5746 12.6953C36.826 12.6953 39.4617 17.6915 39.4617 23.8547Z" fill="#FCFCFD"/>
<path d="M44.7504 23.8548C44.7504 29.3768 43.8234 33.8532 42.6798 33.8532C41.5362 33.8532 40.6094 29.3768 40.6094 23.8548C40.6094 18.3328 41.5362 13.8564 42.6798 13.8564C43.8234 13.8564 44.7504 18.3328 44.7504 23.8548Z" fill="#FCFCFD"/>
</svg>
