<svg width="48" height="48" viewBox="0 0 48 48" fill="none" xmlns="http://www.w3.org/2000/svg">
<path fill-rule="evenodd" clip-rule="evenodd" d="M38.1191 9.19866C38.5492 9.02107 39.0188 8.96102 39.4798 9.02466C39.9408 9.08831 40.3766 9.27335 40.7425 9.56084C41.1084 9.84834 41.3914 10.2279 41.5623 10.6608C41.7332 11.0936 41.786 11.5641 41.7153 12.024C40.6956 18.6557 38.8261 30.8077 37.8336 37.2582C37.765 37.7045 37.5823 38.1256 37.3033 38.4807C37.0243 38.8359 36.6584 39.113 36.2409 39.2853C35.8235 39.4577 35.3687 39.5194 34.9204 39.4646C34.4721 39.4097 34.0456 39.2402 33.682 38.9723C30.1713 36.3858 24.9079 32.5078 22.2355 30.5382C22.0293 30.3862 21.859 30.1908 21.7365 29.9658C21.6141 29.7407 21.5426 29.4916 21.527 29.2359C21.5114 28.9802 21.5521 28.7242 21.6463 28.4859C21.7405 28.2477 21.8858 28.0331 22.0721 27.8572C24.5208 25.5445 29.3978 20.9385 32.7534 17.7693C32.8324 17.6942 32.8806 17.5922 32.8884 17.4835C32.8962 17.3747 32.8631 17.267 32.7956 17.1813C32.7281 17.0957 32.631 17.0384 32.5235 17.0206C32.4159 17.0027 32.3055 17.0257 32.214 17.085C27.9116 19.8912 21.3223 24.1883 18.0928 26.2944C17.4876 26.6891 16.8074 26.9547 16.0948 27.0744C15.3822 27.1941 14.6526 27.1654 13.9516 26.99C12.1734 26.5455 9.6084 25.9042 7.32579 25.3337C6.96842 25.2444 6.64833 25.0446 6.41113 24.7628C6.17393 24.4809 6.0317 24.1315 6.00471 23.7641C5.97771 23.3967 6.06733 23.0302 6.2608 22.7167C6.45426 22.4033 6.74171 22.1589 7.08219 22.0183C15.0282 18.7362 30.5786 12.3137 38.1191 9.19866Z" fill="#FCFCFD"/>
</svg>
