<svg width="48" height="48" viewBox="0 0 48 48" fill="none" xmlns="http://www.w3.org/2000/svg">
<path d="M17.5485 38.448C30.9693 38.448 38.4129 27.052 37.9605 17.098C38.9549 16.3796 39.8537 15.5375 40.6354 14.592C40.6947 14.5189 40.7286 14.4285 40.7322 14.3345C40.7358 14.2404 40.7088 14.1477 40.6553 14.0703C40.6018 13.9928 40.5247 13.9348 40.4354 13.9049C40.3462 13.875 40.2497 13.8748 40.1603 13.9043C39.5702 14.0939 38.9688 14.2461 38.3595 14.3602C38.3113 14.3687 38.2617 14.3608 38.2185 14.3377C38.1754 14.3146 38.1413 14.2776 38.1217 14.2328C38.1021 14.1879 38.0981 14.1378 38.1105 14.0904C38.1228 14.043 38.1508 14.0012 38.1898 13.9717C38.9739 13.3513 39.6203 12.5744 40.0877 11.6905C40.1281 11.61 40.1421 11.5188 40.1279 11.4298C40.1136 11.3408 40.0718 11.2585 40.0083 11.1946C39.9447 11.1307 39.8627 11.0883 39.7738 11.0735C39.6849 11.0587 39.5936 11.0723 39.5128 11.1122C38.3997 11.6425 37.2244 12.0308 36.0145 12.268C35.0294 11.2179 33.7514 10.4881 32.3463 10.1735C30.9412 9.8589 29.474 9.97397 28.1351 10.5038C26.7963 11.0336 25.6476 11.9537 24.8383 13.1446C24.0289 14.3355 23.5963 15.7422 23.5965 17.182C23.5985 17.6397 23.6415 18.0962 23.7252 18.5462C23.7314 18.5789 23.73 18.6126 23.7212 18.6447C23.7124 18.6768 23.6963 18.7065 23.6743 18.7315C23.6523 18.7565 23.6248 18.7761 23.5941 18.7889C23.5633 18.8016 23.53 18.8072 23.4968 18.8052C18.3016 18.4729 13.4309 16.1637 9.8853 12.352C9.78285 12.2383 9.6522 12.1537 9.50656 12.1067C9.36092 12.0597 9.20545 12.0519 9.05586 12.0842C8.90627 12.1165 8.76785 12.1878 8.65461 12.2907C8.54137 12.3937 8.45731 12.5247 8.41093 12.6705C7.92099 14.0339 7.86778 15.5159 8.2587 16.9109C8.64961 18.3058 9.46524 19.5444 10.5923 20.4545C10.6289 20.4838 10.6548 20.5242 10.6662 20.5696C10.6776 20.6151 10.6737 20.6629 10.6552 20.706C10.6368 20.749 10.6047 20.7848 10.5639 20.8078C10.5231 20.8308 10.4759 20.8398 10.4295 20.8334C10.0193 20.7775 9.61489 20.685 9.22117 20.5569C9.07748 20.5089 8.92368 20.4994 8.77518 20.5295C8.62668 20.5596 8.4887 20.6282 8.37505 20.7284C8.25848 20.8264 8.1711 20.9545 8.12249 21.0988C8.07388 21.2431 8.0659 21.398 8.09943 21.5465C9.62018 27.402 13.7388 26.6557 13.7388 27.0993C13.7388 27.3994 12.9242 27.3994 11.8322 27.402C11.6844 27.4027 11.5392 27.4414 11.4107 27.5143C11.2821 27.5872 11.1745 27.692 11.0981 27.8185C11.0216 27.945 10.979 28.089 10.9742 28.2367C10.9695 28.3844 11.0028 28.5309 11.0709 28.662C11.6456 29.6502 12.446 30.4883 13.4067 31.1079C14.3674 31.7274 15.4611 32.1109 16.5983 32.2268C16.6425 32.2302 16.6846 32.247 16.7189 32.2751C16.7532 32.3032 16.778 32.3412 16.7901 32.3838C16.8021 32.4265 16.8007 32.4718 16.7861 32.5137C16.7716 32.5556 16.7445 32.5919 16.7085 32.6179C14.7221 34.0547 12.4002 34.9576 9.96492 35.2403C9.7764 35.2552 9.59828 35.3328 9.45891 35.4606C9.31955 35.5884 9.22695 35.7592 9.19586 35.9458C9.16477 36.1323 9.19697 36.3239 9.28734 36.49C9.37771 36.6562 9.52105 36.7873 9.69455 36.8625C12.1794 37.9133 14.8506 38.4526 17.5485 38.448Z" fill="#FCFCFD"/>
</svg>
