<svg width="96" height="42" viewBox="0 0 96 42" fill="none" xmlns="http://www.w3.org/2000/svg">
<rect width="96" height="42" rx="21" fill="url(#paint0_linear_0_4456)" fill-opacity="0.8"/>
<path d="M28.1799 16.7396L30.9666 19.5267C31.0668 19.627 31.2293 19.627 31.3295 19.5267L32.7983 18.0576C32.8985 17.9574 32.8985 17.7949 32.7983 17.6947L28.1799 13.0752C28.0797 12.9749 27.9171 12.9749 27.8169 13.0752L23.2002 17.693C23.0999 17.7932 23.0999 17.9557 23.2002 18.0559L24.6689 19.525C24.7692 19.6253 24.9317 19.6253 25.0319 19.525L27.8169 16.7396C27.9172 16.6393 28.0797 16.6393 28.1799 16.7396Z" fill="#23262F"/>
<path d="M21.544 19.3496L20.0752 20.8187C19.9749 20.9189 19.9749 21.0814 20.0752 21.1816L21.5439 22.6507C21.6441 22.751 21.8066 22.751 21.9068 22.6507L23.3757 21.1816C23.4759 21.0814 23.4759 20.9189 23.3757 20.8187L21.9069 19.3496C21.8068 19.2494 21.6443 19.2494 21.544 19.3496Z" fill="#23262F"/>
<path d="M28.1823 28.9251L32.8016 24.3048C32.9018 24.2045 32.9018 24.042 32.8014 23.9418L31.3318 22.4735C31.2316 22.3734 31.0691 22.3734 30.9689 22.4736L28.1823 25.2607C28.0821 25.361 27.9196 25.361 27.8194 25.2607L25.0341 22.475C24.934 22.3749 24.7717 22.3747 24.6714 22.4747L23.2004 23.9419C23.1 24.0421 23.0998 24.2047 23.2002 24.3051L27.8194 28.9251C27.9196 29.0253 28.0821 29.0253 28.1823 28.9251Z" fill="#23262F"/>
<path d="M34.0909 19.3505L32.622 20.8197C32.5218 20.9199 32.5218 21.0824 32.622 21.1826L34.0908 22.6517C34.191 22.752 34.3536 22.752 34.4538 22.6517L35.9226 21.1825C36.0228 21.0823 36.0228 20.9199 35.9226 20.8197L34.4538 19.3505C34.3536 19.2503 34.1911 19.2503 34.0909 19.3505Z" fill="#23262F"/>
<path d="M29.6776 20.8183L28.1809 19.3213C28.0807 19.221 27.9181 19.221 27.8179 19.3213L26.3212 20.8183C26.221 20.9185 26.221 21.081 26.3212 21.1812L27.8179 22.6783C27.9181 22.7786 28.0807 22.7786 28.1809 22.6783L29.6776 21.1812C29.7778 21.0809 29.7778 20.9185 29.6776 20.8183Z" fill="#23262F"/>
<path d="M45.6555 28V15.04H50.7495C51.5715 15.04 52.2615 15.208 52.8195 15.544C53.3775 15.88 53.7975 16.315 54.0795 16.849C54.3615 17.377 54.5025 17.935 54.5025 18.523C54.5025 19.237 54.3255 19.849 53.9715 20.359C53.6235 20.869 53.1525 21.217 52.5585 21.403L52.5405 20.962C53.3685 21.166 54.0045 21.565 54.4485 22.159C54.8925 22.747 55.1145 23.434 55.1145 24.22C55.1145 24.982 54.9615 25.645 54.6555 26.209C54.3555 26.773 53.9145 27.214 53.3325 27.532C52.7565 27.844 52.0575 28 51.2355 28H45.6555ZM47.5635 26.209H50.9475C51.3735 26.209 51.7545 26.128 52.0905 25.966C52.4325 25.804 52.6995 25.573 52.8915 25.273C53.0895 24.967 53.1885 24.604 53.1885 24.184C53.1885 23.794 53.1015 23.443 52.9275 23.131C52.7595 22.813 52.5135 22.564 52.1895 22.384C51.8715 22.198 51.4965 22.105 51.0645 22.105H47.5635V26.209ZM47.5635 20.332H50.7225C51.0705 20.332 51.3825 20.263 51.6585 20.125C51.9405 19.981 52.1625 19.777 52.3245 19.513C52.4925 19.243 52.5765 18.919 52.5765 18.541C52.5765 18.037 52.4085 17.623 52.0725 17.299C51.7365 16.975 51.2865 16.813 50.7225 16.813H47.5635V20.332ZM56.9055 28V15.04H58.8135L65.1945 24.67V15.04H67.1025V28H65.1945L58.8135 18.361V28H56.9055ZM69.6145 28V15.04H74.7085C75.5305 15.04 76.2205 15.208 76.7785 15.544C77.3365 15.88 77.7565 16.315 78.0385 16.849C78.3205 17.377 78.4615 17.935 78.4615 18.523C78.4615 19.237 78.2845 19.849 77.9305 20.359C77.5825 20.869 77.1115 21.217 76.5175 21.403L76.4995 20.962C77.3275 21.166 77.9635 21.565 78.4075 22.159C78.8515 22.747 79.0735 23.434 79.0735 24.22C79.0735 24.982 78.9205 25.645 78.6145 26.209C78.3145 26.773 77.8735 27.214 77.2915 27.532C76.7155 27.844 76.0165 28 75.1945 28H69.6145ZM71.5225 26.209H74.9065C75.3325 26.209 75.7135 26.128 76.0495 25.966C76.3915 25.804 76.6585 25.573 76.8505 25.273C77.0485 24.967 77.1475 24.604 77.1475 24.184C77.1475 23.794 77.0605 23.443 76.8865 23.131C76.7185 22.813 76.4725 22.564 76.1485 22.384C75.8305 22.198 75.4555 22.105 75.0235 22.105H71.5225V26.209ZM71.5225 20.332H74.6815C75.0295 20.332 75.3415 20.263 75.6175 20.125C75.8995 19.981 76.1215 19.777 76.2835 19.513C76.4515 19.243 76.5355 18.919 76.5355 18.541C76.5355 18.037 76.3675 17.623 76.0315 17.299C75.6955 16.975 75.2455 16.813 74.6815 16.813H71.5225V20.332Z" fill="#23262F"/>
<defs>
<linearGradient id="paint0_linear_0_4456" x1="-9.6" y1="-2.91667" x2="104.858" y2="67.797" gradientUnits="userSpaceOnUse">
<stop stop-color="#FAFF00"/>
<stop offset="1" stop-color="#FF9900"/>
</linearGradient>
</defs>
</svg>
