<svg width="130" height="42" viewBox="0 0 130 42" fill="none" xmlns="http://www.w3.org/2000/svg">
<rect width="130" height="42" rx="21" fill="url(#paint0_linear_0_3589)"/>
<g clip-path="url(#clip0_0_3589)">
<path d="M32.0833 18.2497C31.7917 18.083 31.4167 18.083 31.0833 18.2497L28.75 19.6247L27.1667 20.4997L24.875 21.8747C24.5833 22.0413 24.2083 22.0413 23.875 21.8747L22.0833 20.7913C21.7917 20.6247 21.5833 20.2913 21.5833 19.9163V17.833C21.5833 17.4997 21.75 17.1663 22.0833 16.958L23.875 15.9163C24.1667 15.7497 24.5417 15.7497 24.875 15.9163L26.6667 16.9997C26.9583 17.1663 27.1667 17.4997 27.1667 17.8747V19.2497L28.75 18.333V16.9163C28.75 16.583 28.5833 16.2497 28.25 16.0413L24.9167 14.083C24.625 13.9163 24.25 13.9163 23.9167 14.083L20.5 16.083C20.1667 16.2497 20 16.583 20 16.9163V20.833C20 21.1663 20.1667 21.4997 20.5 21.708L23.875 23.6663C24.1667 23.833 24.5417 23.833 24.875 23.6663L27.1667 22.333L28.75 21.4163L31.0417 20.083C31.3333 19.9163 31.7083 19.9163 32.0417 20.083L33.8333 21.1247C34.125 21.2913 34.3333 21.6247 34.3333 21.9997V24.083C34.3333 24.4163 34.1667 24.7497 33.8333 24.958L32.0833 25.9997C31.7917 26.1663 31.4167 26.1663 31.0833 25.9997L29.2917 24.958C29 24.7913 28.7917 24.458 28.7917 24.083V22.7497L27.2083 23.6663V25.0413C27.2083 25.3747 27.375 25.708 27.7083 25.9163L31.0833 27.8747C31.375 28.0413 31.75 28.0413 32.0833 27.8747L35.4583 25.9163C35.75 25.7497 35.9583 25.4163 35.9583 25.0413V21.083C35.9583 20.7497 35.7917 20.4163 35.4583 20.208L32.0833 18.2497Z" fill="#FCFCFD"/>
</g>
<path d="M45.5256 28V15.04H50.7636C50.8896 15.04 51.0456 15.046 51.2316 15.058C51.4176 15.064 51.5946 15.082 51.7626 15.112C52.4826 15.226 53.0826 15.472 53.5626 15.85C54.0486 16.228 54.4116 16.705 54.6516 17.281C54.8916 17.857 55.0116 18.493 55.0116 19.189C55.0116 19.891 54.8916 20.53 54.6516 21.106C54.4116 21.682 54.0486 22.159 53.5626 22.537C53.0826 22.915 52.4826 23.161 51.7626 23.275C51.5946 23.299 51.4146 23.317 51.2226 23.329C51.0366 23.341 50.8836 23.347 50.7636 23.347H47.4066V28H45.5256ZM47.4066 21.565H50.6916C50.8116 21.565 50.9436 21.559 51.0876 21.547C51.2376 21.535 51.3786 21.514 51.5106 21.484C51.8946 21.394 52.2036 21.229 52.4376 20.989C52.6716 20.743 52.8396 20.461 52.9416 20.143C53.0436 19.825 53.0946 19.507 53.0946 19.189C53.0946 18.871 53.0436 18.556 52.9416 18.244C52.8396 17.926 52.6716 17.647 52.4376 17.407C52.2036 17.161 51.8946 16.993 51.5106 16.903C51.3786 16.867 51.2376 16.843 51.0876 16.831C50.9436 16.819 50.8116 16.813 50.6916 16.813H47.4066V21.565ZM60.9087 28.27C59.9367 28.27 59.0937 28.051 58.3797 27.613C57.6657 27.175 57.1137 26.572 56.7237 25.804C56.3397 25.03 56.1477 24.139 56.1477 23.131C56.1477 22.117 56.3457 21.226 56.7417 20.458C57.1377 19.684 57.6927 19.084 58.4067 18.658C59.1207 18.226 59.9547 18.01 60.9087 18.01C61.8807 18.01 62.7237 18.229 63.4377 18.667C64.1517 19.105 64.7037 19.708 65.0937 20.476C65.4837 21.244 65.6787 22.129 65.6787 23.131C65.6787 24.145 65.4807 25.039 65.0847 25.813C64.6947 26.581 64.1427 27.184 63.4287 27.622C62.7147 28.054 61.8747 28.27 60.9087 28.27ZM60.9087 26.497C61.8387 26.497 62.5317 26.185 62.9877 25.561C63.4497 24.931 63.6807 24.121 63.6807 23.131C63.6807 22.117 63.4467 21.307 62.9787 20.701C62.5167 20.089 61.8267 19.783 60.9087 19.783C60.2787 19.783 59.7597 19.927 59.3517 20.215C58.9437 20.497 58.6407 20.89 58.4427 21.394C58.2447 21.892 58.1457 22.471 58.1457 23.131C58.1457 24.151 58.3797 24.967 58.8477 25.579C59.3157 26.191 60.0027 26.497 60.9087 26.497ZM67.8365 28V14.77H69.7175V28H67.8365ZM73.7342 32.32L75.6152 27.199L75.6422 28.711L71.4032 18.28H73.3652L76.5332 26.335H75.9572L78.9812 18.28H80.8892L75.5252 32.32H73.7342ZM86.0052 32.59C85.4832 32.59 84.9762 32.509 84.4842 32.347C83.9982 32.185 83.5542 31.945 83.1522 31.627C82.7502 31.315 82.4172 30.928 82.1532 30.466L83.8902 29.584C84.1002 29.998 84.4002 30.301 84.7902 30.493C85.1802 30.685 85.5912 30.781 86.0232 30.781C86.5572 30.781 87.0132 30.685 87.3912 30.493C87.7692 30.307 88.0542 30.025 88.2462 29.647C88.4442 29.269 88.5402 28.801 88.5342 28.243V25.525H88.7592V18.28H90.4242V28.261C90.4242 28.519 90.4152 28.765 90.3972 28.999C90.3792 29.233 90.3462 29.467 90.2982 29.701C90.1602 30.355 89.8962 30.895 89.5062 31.321C89.1222 31.747 88.6302 32.065 88.0302 32.275C87.4362 32.485 86.7612 32.59 86.0052 32.59ZM85.8612 28.27C84.9552 28.27 84.1722 28.045 83.5122 27.595C82.8582 27.145 82.3512 26.533 81.9912 25.759C81.6372 24.979 81.4602 24.103 81.4602 23.131C81.4602 22.153 81.6402 21.28 82.0002 20.512C82.3602 19.738 82.8702 19.129 83.5302 18.685C84.1962 18.235 84.9852 18.01 85.8972 18.01C86.8152 18.01 87.5862 18.235 88.2102 18.685C88.8402 19.129 89.3142 19.738 89.6322 20.512C89.9562 21.286 90.1182 22.159 90.1182 23.131C90.1182 24.103 89.9562 24.976 89.6322 25.75C89.3082 26.524 88.8312 27.139 88.2012 27.595C87.5712 28.045 86.7912 28.27 85.8612 28.27ZM86.1222 26.569C86.7402 26.569 87.2442 26.422 87.6342 26.128C88.0242 25.834 88.3092 25.429 88.4892 24.913C88.6692 24.397 88.7592 23.803 88.7592 23.131C88.7592 22.459 88.6662 21.865 88.4802 21.349C88.3002 20.833 88.0182 20.431 87.6342 20.143C87.2562 19.855 86.7732 19.711 86.1852 19.711C85.5612 19.711 85.0482 19.864 84.6462 20.17C84.2442 20.476 83.9442 20.887 83.7462 21.403C83.5542 21.919 83.4582 22.495 83.4582 23.131C83.4582 23.773 83.5542 24.355 83.7462 24.877C83.9442 25.393 84.2382 25.804 84.6282 26.11C85.0242 26.416 85.5222 26.569 86.1222 26.569ZM97.1724 28.27C96.2004 28.27 95.3574 28.051 94.6434 27.613C93.9294 27.175 93.3774 26.572 92.9874 25.804C92.6034 25.03 92.4114 24.139 92.4114 23.131C92.4114 22.117 92.6094 21.226 93.0054 20.458C93.4014 19.684 93.9564 19.084 94.6704 18.658C95.3844 18.226 96.2184 18.01 97.1724 18.01C98.1444 18.01 98.9874 18.229 99.7014 18.667C100.415 19.105 100.967 19.708 101.357 20.476C101.747 21.244 101.942 22.129 101.942 23.131C101.942 24.145 101.744 25.039 101.348 25.813C100.958 26.581 100.406 27.184 99.6924 27.622C98.9784 28.054 98.1384 28.27 97.1724 28.27ZM97.1724 26.497C98.1024 26.497 98.7954 26.185 99.2514 25.561C99.7134 24.931 99.9444 24.121 99.9444 23.131C99.9444 22.117 99.7104 21.307 99.2424 20.701C98.7804 20.089 98.0904 19.783 97.1724 19.783C96.5424 19.783 96.0234 19.927 95.6154 20.215C95.2074 20.497 94.9044 20.89 94.7064 21.394C94.5084 21.892 94.4094 22.471 94.4094 23.131C94.4094 24.151 94.6434 24.967 95.1114 25.579C95.5794 26.191 96.2664 26.497 97.1724 26.497ZM110.742 28V23.221C110.742 22.843 110.709 22.456 110.643 22.06C110.583 21.658 110.463 21.286 110.283 20.944C110.109 20.602 109.86 20.326 109.536 20.116C109.218 19.906 108.801 19.801 108.285 19.801C107.949 19.801 107.631 19.858 107.331 19.972C107.031 20.08 106.767 20.257 106.539 20.503C106.317 20.749 106.14 21.073 106.008 21.475C105.882 21.877 105.819 22.366 105.819 22.942L104.649 22.501C104.649 21.619 104.814 20.842 105.144 20.17C105.474 19.492 105.948 18.964 106.566 18.586C107.184 18.208 107.931 18.019 108.807 18.019C109.479 18.019 110.043 18.127 110.499 18.343C110.955 18.559 111.324 18.844 111.606 19.198C111.894 19.546 112.113 19.927 112.263 20.341C112.413 20.755 112.515 21.16 112.569 21.556C112.623 21.952 112.65 22.3 112.65 22.6V28H110.742ZM103.911 28V18.28H105.594V21.088H105.819V28H103.911Z" fill="#FCFCFD"/>
<defs>
<linearGradient id="paint0_linear_0_3589" x1="0" y1="0" x2="129.904" y2="42.2938" gradientUnits="userSpaceOnUse">
<stop stop-color="#9757D7"/>
<stop offset="1" stop-color="#BD00FF"/>
</linearGradient>
<clipPath id="clip0_0_3589">
<rect width="16" height="13.9583" fill="white" transform="translate(20 14)"/>
</clipPath>
</defs>
</svg>
