<svg width="149" height="42" viewBox="0 0 149 42" fill="none" xmlns="http://www.w3.org/2000/svg">
<rect width="149" height="42" rx="21" fill="url(#paint0_linear_0_3572)"/>
<g clip-path="url(#clip0_0_3572)">
<path d="M37 11.6641H18.9844V28.0381H37V11.6641Z" fill="#FCFCFD"/>
<path fill-rule="evenodd" clip-rule="evenodd" d="M42 21C42 28.7321 35.7321 35 28 35C20.268 35 14 28.7321 14 21C14 13.268 20.268 7 28 7C35.7321 7 42 13.268 42 21ZM24.0328 26.5713H21.3158C20.7449 26.5713 20.4629 26.5713 20.2909 26.4613C20.1052 26.3409 19.9917 26.1414 19.9779 25.9213C19.9676 25.7184 20.1086 25.4707 20.3906 24.9755L27.0993 13.1506C27.3847 12.6485 27.5292 12.3974 27.7114 12.3045C27.9075 12.2048 28.1414 12.2048 28.3374 12.3045C28.5197 12.3974 28.6641 12.6485 28.9496 13.1506L30.3287 15.5581L30.3358 15.5703C30.6441 16.109 30.8004 16.3822 30.8687 16.6689C30.9443 16.9819 30.9443 17.3121 30.8687 17.625C30.7999 17.9139 30.6451 18.1891 30.3322 18.7359L26.8083 24.9652L26.7992 24.9811C26.4888 25.5242 26.3315 25.7995 26.1136 26.0072C25.8763 26.2342 25.5908 26.3992 25.2778 26.4922C24.9923 26.5713 24.6725 26.5713 24.0328 26.5713ZM30.8941 26.5713H34.7873C35.3617 26.5713 35.6506 26.5713 35.8227 26.458C36.0083 26.3375 36.1252 26.1345 36.1357 25.9145C36.1455 25.7182 36.0076 25.4802 35.7373 25.0137C35.728 24.9978 35.7186 24.9817 35.7091 24.9652L33.759 21.6292L33.7368 21.5916C33.4628 21.1282 33.3245 20.8942 33.1468 20.8037C32.9509 20.704 32.7203 20.704 32.5243 20.8037C32.3455 20.8966 32.2011 21.1408 31.9156 21.6326L29.9724 24.9687L29.9658 24.9802C29.6813 25.4712 29.5391 25.7166 29.5494 25.9179C29.5632 26.1381 29.6766 26.3409 29.8624 26.4613C30.0309 26.5713 30.3198 26.5713 30.8941 26.5713Z" fill="#E84142"/>
</g>
<path d="M44.5983 28L48.8103 15.04H51.5193L55.7313 28H53.7783L49.8993 16.174H50.3853L46.5513 28H44.5983ZM46.7853 25.075V23.311H53.5533V25.075H46.7853ZM59.2532 28L55.7252 18.28H57.6242L60.2072 25.642L62.7902 18.28H64.6892L61.1612 28H59.2532ZM68.5109 28.27C67.7909 28.27 67.1879 28.138 66.7019 27.874C66.2159 27.604 65.8469 27.25 65.5949 26.812C65.3489 26.368 65.2259 25.882 65.2259 25.354C65.2259 24.862 65.3129 24.43 65.4869 24.058C65.6609 23.686 65.9189 23.371 66.2609 23.113C66.6029 22.849 67.0229 22.636 67.5209 22.474C67.9529 22.348 68.4419 22.237 68.9879 22.141C69.5339 22.045 70.1069 21.955 70.7069 21.871C71.3129 21.787 71.9129 21.703 72.5069 21.619L71.8229 21.997C71.8349 21.235 71.6729 20.671 71.3369 20.305C71.0069 19.933 70.4369 19.747 69.6269 19.747C69.1169 19.747 68.6489 19.867 68.2229 20.107C67.7969 20.341 67.4999 20.731 67.3319 21.277L65.5769 20.737C65.8169 19.903 66.2729 19.24 66.9449 18.748C67.6229 18.256 68.5229 18.01 69.6449 18.01C70.5149 18.01 71.2709 18.16 71.9129 18.46C72.5609 18.754 73.0349 19.222 73.3349 19.864C73.4909 20.182 73.5869 20.518 73.6229 20.872C73.6589 21.226 73.6769 21.607 73.6769 22.015V28H72.0119V25.777L72.3359 26.065C71.9339 26.809 71.4209 27.364 70.7969 27.73C70.1789 28.09 69.4169 28.27 68.5109 28.27ZM68.8439 26.731C69.3779 26.731 69.8369 26.638 70.2209 26.452C70.6049 26.26 70.9139 26.017 71.1479 25.723C71.3819 25.429 71.5349 25.123 71.6069 24.805C71.7089 24.517 71.7659 24.193 71.7779 23.833C71.7959 23.473 71.8049 23.185 71.8049 22.969L72.4169 23.194C71.8229 23.284 71.2829 23.365 70.7969 23.437C70.3109 23.509 69.8699 23.581 69.4739 23.653C69.0839 23.719 68.7359 23.8 68.4299 23.896C68.1719 23.986 67.9409 24.094 67.7369 24.22C67.5389 24.346 67.3799 24.499 67.2599 24.679C67.1459 24.859 67.0889 25.078 67.0889 25.336C67.0889 25.588 67.1519 25.822 67.2779 26.038C67.4039 26.248 67.5959 26.416 67.8539 26.542C68.1119 26.668 68.4419 26.731 68.8439 26.731ZM76.1939 28V14.77H78.0749V28H76.1939ZM83.5226 28.27C82.8026 28.27 82.1996 28.138 81.7136 27.874C81.2276 27.604 80.8586 27.25 80.6066 26.812C80.3606 26.368 80.2376 25.882 80.2376 25.354C80.2376 24.862 80.3246 24.43 80.4986 24.058C80.6726 23.686 80.9306 23.371 81.2726 23.113C81.6146 22.849 82.0346 22.636 82.5326 22.474C82.9646 22.348 83.4536 22.237 83.9996 22.141C84.5456 22.045 85.1186 21.955 85.7186 21.871C86.3246 21.787 86.9246 21.703 87.5186 21.619L86.8346 21.997C86.8466 21.235 86.6846 20.671 86.3486 20.305C86.0186 19.933 85.4486 19.747 84.6386 19.747C84.1286 19.747 83.6606 19.867 83.2346 20.107C82.8086 20.341 82.5116 20.731 82.3436 21.277L80.5886 20.737C80.8286 19.903 81.2846 19.24 81.9566 18.748C82.6346 18.256 83.5346 18.01 84.6566 18.01C85.5266 18.01 86.2826 18.16 86.9246 18.46C87.5726 18.754 88.0466 19.222 88.3466 19.864C88.5026 20.182 88.5986 20.518 88.6346 20.872C88.6706 21.226 88.6886 21.607 88.6886 22.015V28H87.0236V25.777L87.3476 26.065C86.9456 26.809 86.4326 27.364 85.8086 27.73C85.1906 28.09 84.4286 28.27 83.5226 28.27ZM83.8556 26.731C84.3896 26.731 84.8486 26.638 85.2326 26.452C85.6166 26.26 85.9256 26.017 86.1596 25.723C86.3936 25.429 86.5466 25.123 86.6186 24.805C86.7206 24.517 86.7776 24.193 86.7896 23.833C86.8076 23.473 86.8166 23.185 86.8166 22.969L87.4286 23.194C86.8346 23.284 86.2946 23.365 85.8086 23.437C85.3226 23.509 84.8816 23.581 84.4856 23.653C84.0956 23.719 83.7476 23.8 83.4416 23.896C83.1836 23.986 82.9526 24.094 82.7486 24.22C82.5506 24.346 82.3916 24.499 82.2716 24.679C82.1576 24.859 82.1006 25.078 82.1006 25.336C82.1006 25.588 82.1636 25.822 82.2896 26.038C82.4156 26.248 82.6076 26.416 82.8656 26.542C83.1236 26.668 83.4536 26.731 83.8556 26.731ZM97.8476 28V23.221C97.8476 22.843 97.8146 22.456 97.7486 22.06C97.6886 21.658 97.5686 21.286 97.3886 20.944C97.2146 20.602 96.9656 20.326 96.6416 20.116C96.3236 19.906 95.9066 19.801 95.3906 19.801C95.0546 19.801 94.7366 19.858 94.4366 19.972C94.1366 20.08 93.8726 20.257 93.6446 20.503C93.4226 20.749 93.2456 21.073 93.1136 21.475C92.9876 21.877 92.9246 22.366 92.9246 22.942L91.7546 22.501C91.7546 21.619 91.9196 20.842 92.2496 20.17C92.5796 19.492 93.0536 18.964 93.6716 18.586C94.2896 18.208 95.0366 18.019 95.9126 18.019C96.5846 18.019 97.1486 18.127 97.6046 18.343C98.0606 18.559 98.4296 18.844 98.7116 19.198C98.9996 19.546 99.2186 19.927 99.3686 20.341C99.5186 20.755 99.6206 21.16 99.6746 21.556C99.7286 21.952 99.7556 22.3 99.7556 22.6V28H97.8476ZM91.0166 28V18.28H92.6996V21.088H92.9246V28H91.0166ZM106.135 28.27C105.139 28.27 104.293 28.048 103.597 27.604C102.901 27.16 102.367 26.551 101.995 25.777C101.629 25.003 101.443 24.124 101.437 23.14C101.443 22.138 101.635 21.253 102.013 20.485C102.391 19.711 102.931 19.105 103.633 18.667C104.335 18.229 105.178 18.01 106.162 18.01C107.224 18.01 108.13 18.274 108.88 18.802C109.636 19.33 110.134 20.053 110.374 20.971L108.502 21.511C108.316 20.965 108.01 20.542 107.584 20.242C107.164 19.936 106.681 19.783 106.135 19.783C105.517 19.783 105.01 19.93 104.614 20.224C104.218 20.512 103.924 20.908 103.732 21.412C103.54 21.916 103.441 22.492 103.435 23.14C103.441 24.142 103.669 24.952 104.119 25.57C104.575 26.188 105.247 26.497 106.135 26.497C106.741 26.497 107.23 26.359 107.602 26.083C107.98 25.801 108.268 25.399 108.466 24.877L110.374 25.327C110.056 26.275 109.531 27.004 108.799 27.514C108.067 28.018 107.179 28.27 106.135 28.27ZM119.029 28V23.221C119.029 22.843 118.996 22.456 118.93 22.06C118.87 21.658 118.75 21.286 118.57 20.944C118.396 20.602 118.147 20.326 117.823 20.116C117.505 19.906 117.088 19.801 116.572 19.801C116.236 19.801 115.918 19.858 115.618 19.972C115.318 20.08 115.054 20.257 114.826 20.503C114.604 20.749 114.427 21.073 114.295 21.475C114.169 21.877 114.106 22.366 114.106 22.942L112.936 22.501C112.936 21.619 113.101 20.842 113.431 20.17C113.761 19.492 114.235 18.964 114.853 18.586C115.471 18.208 116.218 18.019 117.094 18.019C117.766 18.019 118.33 18.127 118.786 18.343C119.242 18.559 119.611 18.844 119.893 19.198C120.181 19.546 120.4 19.927 120.55 20.341C120.7 20.755 120.802 21.16 120.856 21.556C120.91 21.952 120.937 22.3 120.937 22.6V28H119.029ZM112.198 28V15.04H113.881V22.033H114.106V28H112.198ZM127.592 28.27C126.626 28.27 125.777 28.06 125.045 27.64C124.319 27.214 123.752 26.623 123.344 25.867C122.942 25.105 122.741 24.223 122.741 23.221C122.741 22.159 122.939 21.238 123.335 20.458C123.737 19.678 124.295 19.075 125.009 18.649C125.723 18.223 126.554 18.01 127.502 18.01C128.492 18.01 129.335 18.241 130.031 18.703C130.727 19.159 131.246 19.81 131.588 20.656C131.936 21.502 132.074 22.507 132.002 23.671H130.121V22.987C130.109 21.859 129.893 21.025 129.473 20.485C129.059 19.945 128.426 19.675 127.574 19.675C126.632 19.675 125.924 19.972 125.45 20.566C124.976 21.16 124.739 22.018 124.739 23.14C124.739 24.208 124.976 25.036 125.45 25.624C125.924 26.206 126.608 26.497 127.502 26.497C128.09 26.497 128.597 26.365 129.023 26.101C129.455 25.831 129.791 25.447 130.031 24.949L131.876 25.534C131.498 26.404 130.925 27.079 130.157 27.559C129.389 28.033 128.534 28.27 127.592 28.27ZM124.127 23.671V22.204H131.066V23.671H124.127Z" fill="#FCFCFD"/>
<defs>
<linearGradient id="paint0_linear_0_3572" x1="0" y1="0" x2="141.881" y2="63.0118" gradientUnits="userSpaceOnUse">
<stop stop-color="#E84142"/>
<stop offset="1" stop-color="#E84B41"/>
</linearGradient>
<clipPath id="clip0_0_3572">
<rect width="24" height="24" fill="white" transform="translate(16 9)"/>
</clipPath>
</defs>
</svg>
