<svg width="145" height="42" viewBox="0 0 145 42" fill="none" xmlns="http://www.w3.org/2000/svg">
<rect width="145" height="42" rx="21" fill="url(#paint0_linear_0_3543)"/>
<path d="M27.4801 10.0003C27.3693 10.0038 27.2609 10.0368 27.1637 10.0966C27.0665 10.1563 26.9833 10.2411 26.921 10.344L21.3216 19.5605C21.2652 19.6531 21.2272 19.7582 21.21 19.8688C21.1928 19.9793 21.1969 20.0927 21.222 20.2013C21.2472 20.3099 21.2927 20.4112 21.3556 20.4984C21.4186 20.5856 21.4974 20.6566 21.5868 20.7068L27.1862 23.8449C27.2834 23.8994 27.3906 23.9278 27.4992 23.9278C27.6079 23.9278 27.7151 23.8994 27.8123 23.8449L33.4117 20.7068C33.5011 20.6566 33.5799 20.5856 33.6429 20.4984C33.7058 20.4112 33.7513 20.3099 33.7765 20.2013C33.8016 20.0927 33.8057 19.9793 33.7885 19.8688C33.7713 19.7582 33.7333 19.6531 33.6769 19.5605L28.0775 10.344C28.0116 10.2351 27.9223 10.1466 27.8179 10.0865C27.7135 10.0264 27.5974 9.99679 27.4801 10.0003V10.0003ZM27.4992 12.1793V17.8571L32.0624 19.7078L27.4992 22.2643V17.8571L23.0031 19.5804L27.4992 12.1793ZM21.8739 22.5712C21.7442 22.5765 21.6184 22.6221 21.5105 22.703C21.4026 22.7839 21.3168 22.8969 21.2628 23.0293C21.2087 23.1618 21.1886 23.3084 21.2045 23.453C21.2205 23.5976 21.2719 23.7343 21.3531 23.848L26.9524 31.7048C27.018 31.7969 27.1012 31.8713 27.1959 31.9224C27.2905 31.9735 27.3942 32 27.4992 32C27.6043 32 27.708 31.9735 27.8026 31.9224C27.8973 31.8713 27.9805 31.7969 28.0461 31.7048L33.6454 23.848C33.7453 23.7081 33.7996 23.5341 33.7992 23.3549C33.7989 23.1756 33.744 23.0019 33.6436 22.8625C33.5432 22.7232 33.4034 22.6265 33.2473 22.5886C33.0912 22.5507 32.9283 22.5738 32.7856 22.6541L27.4992 25.6219L22.2129 22.6541C22.1079 22.595 21.9913 22.5665 21.8739 22.5712ZM24.4385 25.6603L27.1862 27.2025C27.2834 27.257 27.3906 27.2854 27.4992 27.2853V29.9554L24.4385 25.6603Z" fill="#23262F"/>
<path d="M45.5901 28V15.04H53.8701V16.813H47.4711V20.449H52.7901V22.222H47.4711V26.227H53.8701V28H45.5901ZM61.5935 28C60.9815 28.12 60.3815 28.171 59.7935 28.153C59.2055 28.135 58.6805 28.021 58.2185 27.811C57.7565 27.601 57.4085 27.271 57.1745 26.821C56.9645 26.419 56.8505 26.011 56.8325 25.597C56.8205 25.177 56.8145 24.703 56.8145 24.175V15.58H58.7045V24.085C58.7045 24.475 58.7075 24.814 58.7135 25.102C58.7255 25.39 58.7885 25.633 58.9025 25.831C59.1185 26.203 59.4605 26.416 59.9285 26.47C60.4025 26.518 60.9575 26.497 61.5935 26.407V28ZM54.9515 19.792V18.28H61.5935V19.792H54.9515ZM70.4648 28V23.221C70.4648 22.843 70.4318 22.456 70.3658 22.06C70.3058 21.658 70.1858 21.286 70.0058 20.944C69.8318 20.602 69.5828 20.326 69.2588 20.116C68.9408 19.906 68.5238 19.801 68.0078 19.801C67.6718 19.801 67.3538 19.858 67.0538 19.972C66.7538 20.08 66.4898 20.257 66.2618 20.503C66.0398 20.749 65.8628 21.073 65.7308 21.475C65.6048 21.877 65.5418 22.366 65.5418 22.942L64.3718 22.501C64.3718 21.619 64.5368 20.842 64.8668 20.17C65.1968 19.492 65.6708 18.964 66.2888 18.586C66.9068 18.208 67.6538 18.019 68.5298 18.019C69.2018 18.019 69.7658 18.127 70.2218 18.343C70.6778 18.559 71.0468 18.844 71.3288 19.198C71.6168 19.546 71.8358 19.927 71.9858 20.341C72.1358 20.755 72.2378 21.16 72.2918 21.556C72.3458 21.952 72.3728 22.3 72.3728 22.6V28H70.4648ZM63.6338 28V15.04H65.3168V22.033H65.5418V28H63.6338ZM79.028 28.27C78.062 28.27 77.213 28.06 76.481 27.64C75.755 27.214 75.188 26.623 74.78 25.867C74.378 25.105 74.177 24.223 74.177 23.221C74.177 22.159 74.375 21.238 74.771 20.458C75.173 19.678 75.731 19.075 76.445 18.649C77.159 18.223 77.99 18.01 78.938 18.01C79.928 18.01 80.771 18.241 81.467 18.703C82.163 19.159 82.682 19.81 83.024 20.656C83.372 21.502 83.51 22.507 83.438 23.671H81.557V22.987C81.545 21.859 81.329 21.025 80.909 20.485C80.495 19.945 79.862 19.675 79.01 19.675C78.068 19.675 77.36 19.972 76.886 20.566C76.412 21.16 76.175 22.018 76.175 23.14C76.175 24.208 76.412 25.036 76.886 25.624C77.36 26.206 78.044 26.497 78.938 26.497C79.526 26.497 80.033 26.365 80.459 26.101C80.891 25.831 81.227 25.447 81.467 24.949L83.312 25.534C82.934 26.404 82.361 27.079 81.593 27.559C80.825 28.033 79.97 28.27 79.028 28.27ZM75.563 23.671V22.204H82.502V23.671H75.563ZM85.4573 28V18.28H87.1313V20.638L86.8973 20.332C87.0173 20.02 87.1733 19.735 87.3653 19.477C87.5573 19.213 87.7793 18.997 88.0313 18.829C88.2773 18.649 88.5503 18.511 88.8503 18.415C89.1563 18.313 89.4683 18.253 89.7863 18.235C90.1043 18.211 90.4103 18.226 90.7043 18.28V20.044C90.3863 19.96 90.0323 19.936 89.6423 19.972C89.2583 20.008 88.9043 20.131 88.5803 20.341C88.2743 20.539 88.0313 20.779 87.8513 21.061C87.6773 21.343 87.5513 21.658 87.4733 22.006C87.3953 22.348 87.3563 22.711 87.3563 23.095V28H85.4573ZM96.5534 28.27C95.5874 28.27 94.7384 28.06 94.0064 27.64C93.2804 27.214 92.7134 26.623 92.3054 25.867C91.9034 25.105 91.7024 24.223 91.7024 23.221C91.7024 22.159 91.9004 21.238 92.2964 20.458C92.6984 19.678 93.2564 19.075 93.9704 18.649C94.6844 18.223 95.5154 18.01 96.4634 18.01C97.4534 18.01 98.2964 18.241 98.9924 18.703C99.6884 19.159 100.207 19.81 100.549 20.656C100.897 21.502 101.035 22.507 100.963 23.671H99.0824V22.987C99.0704 21.859 98.8544 21.025 98.4344 20.485C98.0204 19.945 97.3874 19.675 96.5354 19.675C95.5934 19.675 94.8854 19.972 94.4114 20.566C93.9374 21.16 93.7004 22.018 93.7004 23.14C93.7004 24.208 93.9374 25.036 94.4114 25.624C94.8854 26.206 95.5694 26.497 96.4634 26.497C97.0514 26.497 97.5584 26.365 97.9844 26.101C98.4164 25.831 98.7524 25.447 98.9924 24.949L100.837 25.534C100.459 26.404 99.8864 27.079 99.1184 27.559C98.3504 28.033 97.4954 28.27 96.5534 28.27ZM93.0884 23.671V22.204H100.027V23.671H93.0884ZM106.646 28.261C105.974 28.261 105.41 28.153 104.954 27.937C104.498 27.721 104.126 27.439 103.838 27.091C103.556 26.737 103.34 26.353 103.19 25.939C103.04 25.525 102.938 25.12 102.884 24.724C102.83 24.328 102.803 23.98 102.803 23.68V18.28H104.711V23.059C104.711 23.437 104.741 23.827 104.801 24.229C104.867 24.625 104.987 24.994 105.161 25.336C105.341 25.678 105.59 25.954 105.908 26.164C106.232 26.374 106.652 26.479 107.168 26.479C107.504 26.479 107.822 26.425 108.122 26.317C108.422 26.203 108.683 26.023 108.905 25.777C109.133 25.531 109.31 25.207 109.436 24.805C109.568 24.403 109.634 23.914 109.634 23.338L110.804 23.779C110.804 24.661 110.639 25.441 110.309 26.119C109.979 26.791 109.505 27.316 108.887 27.694C108.269 28.072 107.522 28.261 106.646 28.261ZM109.859 28V25.192H109.634V18.28H111.533V28H109.859ZM125.703 28L125.712 21.943C125.712 21.241 125.532 20.695 125.172 20.305C124.812 19.909 124.338 19.711 123.75 19.711C123.39 19.711 123.06 19.795 122.76 19.963C122.466 20.125 122.226 20.371 122.04 20.701C121.86 21.025 121.77 21.433 121.77 21.925L120.861 21.466C120.849 20.782 120.993 20.182 121.293 19.666C121.599 19.15 122.013 18.751 122.535 18.469C123.057 18.181 123.642 18.037 124.29 18.037C125.34 18.037 126.153 18.352 126.729 18.982C127.305 19.612 127.593 20.449 127.593 21.493L127.584 28H125.703ZM114.048 28V18.28H115.722V21.088H115.938V28H114.048ZM119.88 28L119.889 21.979C119.889 21.271 119.709 20.716 119.349 20.314C118.995 19.912 118.518 19.711 117.918 19.711C117.324 19.711 116.844 19.915 116.478 20.323C116.118 20.731 115.938 21.265 115.938 21.925L115.038 21.349C115.038 20.713 115.191 20.146 115.497 19.648C115.803 19.15 116.217 18.757 116.739 18.469C117.261 18.181 117.852 18.037 118.512 18.037C119.202 18.037 119.79 18.184 120.276 18.478C120.762 18.766 121.131 19.171 121.383 19.693C121.641 20.215 121.77 20.821 121.77 21.511L121.761 28H119.88Z" fill="#23262F"/>
<defs>
<linearGradient id="paint0_linear_0_3543" x1="20.3719" y1="-72.3333" x2="104.191" y2="96.3191" gradientUnits="userSpaceOnUse">
<stop stop-color="white"/>
<stop offset="1" stop-color="#AAAAAA" stop-opacity="0"/>
</linearGradient>
</defs>
</svg>
