<svg width="137" height="42" viewBox="0 0 137 42" fill="none" xmlns="http://www.w3.org/2000/svg">
<rect width="137" height="42" rx="21" fill="url(#paint0_linear_0_3560)"/>
<path d="M31.1195 20.295C30.8541 19.8658 30.8484 19.3248 31.1046 18.89V18.89C31.6188 18.0175 32.8724 17.9935 33.4195 18.8458L35.7397 22.4595C36.1527 23.1027 36.3728 23.8509 36.374 24.6153L36.3741 24.6838L36.3606 16.156C36.3508 15.9476 36.2401 15.7569 36.0635 15.6444L28.5991 11.3508C28.4245 11.265 28.2031 11.2659 28.0288 11.3535C28.0053 11.3653 27.9831 11.3781 27.962 11.3921L27.936 11.4084L20.6906 15.6071L20.6624 15.6199C20.6263 15.6365 20.5898 15.6576 20.5554 15.6822C20.4181 15.7807 20.3268 15.9264 20.2973 16.0898C20.2929 16.1146 20.2896 16.1398 20.2881 16.1652V16.1652C20.2914 18.2111 22.9578 18.9942 24.067 17.2751L24.1613 17.1289C24.6475 16.3352 25.7069 16.0795 26.6902 16.0934V16.0934C27.201 16.1069 27.5039 16.6701 27.2335 17.1037L21.2957 26.6263C21.1581 26.847 21.2309 27.1377 21.4563 27.2675V27.2675C21.6727 27.3921 21.9489 27.321 22.0784 27.1074L28.3462 16.7643C28.5831 16.3734 29.0064 16.134 29.4634 16.1323V16.1323C30.4808 16.1286 31.115 17.2341 30.5983 18.1104L26.5811 24.9245C25.6584 26.4895 26.1908 28.5066 27.7657 29.4124V29.4124L28.1074 29.609V29.609C28.3977 29.727 28.7046 29.5391 28.9757 29.3819L36.1375 25.2316V25.2316C35.3317 25.6985 34.3006 25.4397 33.8108 24.6476L31.1195 20.295ZM32.5544 27.308C31.8392 27.7225 30.9243 27.4994 30.4801 26.8022L28.8946 24.3139C28.5823 23.8237 28.5715 23.1997 28.8666 22.6989V22.6989C29.453 21.7038 30.884 21.6803 31.5028 22.6556L33.0835 25.147C33.5528 25.8869 33.3125 26.8686 32.5544 27.308V27.308Z" fill="url(#paint1_linear_0_3560)"/>
<path d="M28.3857 23.5152L31.2749 28.0497L33.9438 26.503L30.1494 20.5225L28.3857 23.5152Z" fill="#FCFCFD"/>
<path d="M36.3747 24.6832L36.3727 23.4439L32.2267 16.9863L30.6885 19.5963L34.6909 26.0695L36.1381 25.2309C36.28 25.1157 36.3659 24.9465 36.3749 24.7639L36.3747 24.6832Z" fill="#FCFCFD"/>
<path d="M19.0003 25.8524L21.0439 27.0299L27.8445 16.1238L26.6902 16.0933C25.7069 16.0794 24.6476 16.335 24.1613 17.1288L20.2995 23.1144L19.0002 25.1106V25.8524H19.0003Z" fill="#FCFCFD"/>
<path d="M31.7696 16.123L28.7278 16.1341L21.8457 27.4907L24.2512 28.8758L24.9053 27.7663L31.7696 16.123Z" fill="#FCFCFD"/>
<path d="M37.6557 16.1081C37.6303 15.472 37.2859 14.8896 36.7463 14.5505L29.1841 10.2017C28.6504 9.93295 27.9836 9.93263 27.4491 10.2015C27.3859 10.2334 20.0949 14.4619 20.0949 14.4619C19.994 14.5102 19.8969 14.5679 19.8054 14.6333C19.3238 14.9785 19.0302 15.5149 19 16.1042V25.1107L20.2992 23.1145L20.2878 16.1651C20.2894 16.1397 20.2926 16.1148 20.2971 16.0901C20.3264 15.9265 20.4177 15.7807 20.5552 15.6821C20.5895 15.6576 28.005 11.3652 28.0285 11.3534C28.2029 11.2658 28.4243 11.2649 28.5989 11.3507L36.0632 15.6444C36.2398 15.7568 36.3505 15.9475 36.3604 16.156V24.7645C36.3513 24.9471 36.2792 25.1162 36.1372 25.2315L34.6901 26.0701L33.9434 26.5028L31.2745 28.0495L28.5679 29.618C28.4221 29.6707 28.2517 29.6678 28.1071 29.6089L24.9048 27.7671L24.2507 28.8765L27.1285 30.5334C27.2237 30.5875 27.3085 30.6355 27.378 30.6746C27.4858 30.7351 27.5592 30.7754 27.5851 30.788C27.7897 30.8873 28.0839 30.9451 28.3491 30.9451C28.5923 30.9451 28.8293 30.9005 29.0537 30.8126L36.9151 26.2598C37.3664 25.9102 37.6318 25.383 37.6557 24.8119V16.1081Z" fill="#FCFCFD"/>
<path d="M44.8385 28L49.0505 15.04H51.7595L55.9715 28H54.0185L50.1395 16.174H50.6255L46.7915 28H44.8385ZM47.0255 25.075V23.311H53.7935V25.075H47.0255ZM57.5862 28V18.28H59.2602V20.638L59.0262 20.332C59.1462 20.02 59.3022 19.735 59.4942 19.477C59.6862 19.213 59.9082 18.997 60.1602 18.829C60.4062 18.649 60.6792 18.511 60.9792 18.415C61.2852 18.313 61.5972 18.253 61.9152 18.235C62.2332 18.211 62.5392 18.226 62.8332 18.28V20.044C62.5152 19.96 62.1612 19.936 61.7712 19.972C61.3872 20.008 61.0332 20.131 60.7092 20.341C60.4032 20.539 60.1602 20.779 59.9802 21.061C59.8062 21.343 59.6802 21.658 59.6022 22.006C59.5242 22.348 59.4852 22.711 59.4852 23.095V28H57.5862ZM69.1101 28.27C68.1801 28.27 67.4001 28.045 66.7701 27.595C66.1401 27.139 65.6631 26.524 65.3391 25.75C65.0151 24.976 64.8531 24.103 64.8531 23.131C64.8531 22.159 65.0121 21.286 65.3301 20.512C65.6541 19.738 66.1281 19.129 66.7521 18.685C67.3821 18.235 68.1561 18.01 69.0741 18.01C69.9861 18.01 70.7721 18.235 71.4321 18.685C72.0981 19.129 72.6111 19.738 72.9711 20.512C73.3311 21.28 73.5111 22.153 73.5111 23.131C73.5111 24.103 73.3311 24.979 72.9711 25.759C72.6171 26.533 72.1101 27.145 71.4501 27.595C70.7961 28.045 70.0161 28.27 69.1101 28.27ZM64.5381 28V15.04H66.4281V21.007H66.2121V28H64.5381ZM68.8491 26.569C69.4491 26.569 69.9441 26.416 70.3341 26.11C70.7301 25.804 71.0241 25.393 71.2161 24.877C71.4141 24.355 71.5131 23.773 71.5131 23.131C71.5131 22.495 71.4141 21.919 71.2161 21.403C71.0241 20.887 70.7271 20.476 70.3251 20.17C69.9231 19.864 69.4101 19.711 68.7861 19.711C68.1981 19.711 67.7121 19.855 67.3281 20.143C66.9501 20.431 66.6681 20.833 66.4821 21.349C66.3021 21.865 66.2121 22.459 66.2121 23.131C66.2121 23.803 66.3021 24.397 66.4821 24.913C66.6621 25.429 66.9471 25.834 67.3371 26.128C67.7271 26.422 68.2311 26.569 68.8491 26.569ZM75.6783 16.687V14.86H77.5593V16.687H75.6783ZM75.6783 28V18.28H77.5593V28H75.6783ZM85.824 28C85.212 28.12 84.612 28.171 84.024 28.153C83.436 28.135 82.911 28.021 82.449 27.811C81.987 27.601 81.639 27.271 81.405 26.821C81.195 26.419 81.081 26.011 81.063 25.597C81.051 25.177 81.045 24.703 81.045 24.175V15.58H82.935V24.085C82.935 24.475 82.938 24.814 82.944 25.102C82.956 25.39 83.019 25.633 83.133 25.831C83.349 26.203 83.691 26.416 84.159 26.47C84.633 26.518 85.188 26.497 85.824 26.407V28ZM79.182 19.792V18.28H85.824V19.792H79.182ZM87.8733 28V18.28H89.5473V20.638L89.3133 20.332C89.4333 20.02 89.5893 19.735 89.7813 19.477C89.9733 19.213 90.1953 18.997 90.4473 18.829C90.6933 18.649 90.9663 18.511 91.2663 18.415C91.5723 18.313 91.8843 18.253 92.2023 18.235C92.5203 18.211 92.8263 18.226 93.1203 18.28V20.044C92.8023 19.96 92.4483 19.936 92.0583 19.972C91.6743 20.008 91.3203 20.131 90.9963 20.341C90.6903 20.539 90.4473 20.779 90.2673 21.061C90.0933 21.343 89.9673 21.658 89.8893 22.006C89.8113 22.348 89.7723 22.711 89.7723 23.095V28H87.8733ZM98.4972 28.261C97.8252 28.261 97.2612 28.153 96.8052 27.937C96.3492 27.721 95.9772 27.439 95.6892 27.091C95.4072 26.737 95.1912 26.353 95.0412 25.939C94.8912 25.525 94.7892 25.12 94.7352 24.724C94.6812 24.328 94.6542 23.98 94.6542 23.68V18.28H96.5622V23.059C96.5622 23.437 96.5922 23.827 96.6522 24.229C96.7182 24.625 96.8382 24.994 97.0122 25.336C97.1922 25.678 97.4412 25.954 97.7592 26.164C98.0832 26.374 98.5032 26.479 99.0192 26.479C99.3552 26.479 99.6732 26.425 99.9732 26.317C100.273 26.203 100.534 26.023 100.756 25.777C100.984 25.531 101.161 25.207 101.287 24.805C101.419 24.403 101.485 23.914 101.485 23.338L102.655 23.779C102.655 24.661 102.49 25.441 102.16 26.119C101.83 26.791 101.356 27.316 100.738 27.694C100.12 28.072 99.3732 28.261 98.4972 28.261ZM101.71 28V25.192H101.485V18.28H103.384V28H101.71ZM117.554 28L117.563 21.943C117.563 21.241 117.383 20.695 117.023 20.305C116.663 19.909 116.189 19.711 115.601 19.711C115.241 19.711 114.911 19.795 114.611 19.963C114.317 20.125 114.077 20.371 113.891 20.701C113.711 21.025 113.621 21.433 113.621 21.925L112.712 21.466C112.7 20.782 112.844 20.182 113.144 19.666C113.45 19.15 113.864 18.751 114.386 18.469C114.908 18.181 115.493 18.037 116.141 18.037C117.191 18.037 118.004 18.352 118.58 18.982C119.156 19.612 119.444 20.449 119.444 21.493L119.435 28H117.554ZM105.899 28V18.28H107.573V21.088H107.789V28H105.899ZM111.731 28L111.74 21.979C111.74 21.271 111.56 20.716 111.2 20.314C110.846 19.912 110.369 19.711 109.769 19.711C109.175 19.711 108.695 19.915 108.329 20.323C107.969 20.731 107.789 21.265 107.789 21.925L106.889 21.349C106.889 20.713 107.042 20.146 107.348 19.648C107.654 19.15 108.068 18.757 108.59 18.469C109.112 18.181 109.703 18.037 110.363 18.037C111.053 18.037 111.641 18.184 112.127 18.478C112.613 18.766 112.982 19.171 113.234 19.693C113.492 20.215 113.621 20.821 113.621 21.511L113.612 28H111.731Z" fill="#FCFCFD"/>
<defs>
<linearGradient id="paint0_linear_0_3560" x1="279.219" y1="95.6667" x2="8.95412" y2="-22.2694" gradientUnits="userSpaceOnUse">
<stop stop-color="#28A0F0"/>
<stop offset="1" stop-color="#2D374B"/>
</linearGradient>
<linearGradient id="paint1_linear_0_3560" x1="53.073" y1="53.126" x2="15.8082" y2="48.7602" gradientUnits="userSpaceOnUse">
<stop stop-color="#28A0F0"/>
<stop offset="1" stop-color="#2D374B"/>
</linearGradient>
</defs>
</svg>
