<svg width="125" height="42" viewBox="0 0 125 42" fill="none" xmlns="http://www.w3.org/2000/svg">
<rect width="125" height="42" rx="21" fill="url(#paint0_linear_0_4486)" fill-opacity="0.8"/>
<g clip-path="url(#clip0_0_4486)">
<path fill-rule="evenodd" clip-rule="evenodd" d="M29 18.5477L32 16.8593V20.2362L29 18.5477ZM32 25.7839L28 28.0352L24 25.7839V21.8442L28 24.0955L32 21.8442V25.7839ZM24 16.8593L27 18.5477L24 20.2362V16.8593ZM28.5 19.3518L31.5 21.0402L28.5 22.7286V19.3518ZM27.5 22.7286L24.5 21.0402L27.5 19.3518V22.7286ZM31.5 16.0553L28 17.9849L24.5 16.0553L28 14.0452L31.5 16.0553ZM23 15.7337V26.2663L28 29L33 26.2663V15.7337L28 13L23 15.7337Z" fill="#F4F5F6"/>
</g>
<path d="M45.6184 28V15.04H53.2954V16.921H47.4994V20.575H52.2154V22.465H47.4994V28H45.6184ZM57.3107 28.27C56.5907 28.27 55.9877 28.138 55.5017 27.874C55.0157 27.604 54.6467 27.25 54.3947 26.812C54.1487 26.368 54.0257 25.882 54.0257 25.354C54.0257 24.862 54.1127 24.43 54.2867 24.058C54.4607 23.686 54.7187 23.371 55.0607 23.113C55.4027 22.849 55.8227 22.636 56.3207 22.474C56.7527 22.348 57.2417 22.237 57.7877 22.141C58.3337 22.045 58.9067 21.955 59.5067 21.871C60.1127 21.787 60.7127 21.703 61.3067 21.619L60.6227 21.997C60.6347 21.235 60.4727 20.671 60.1367 20.305C59.8067 19.933 59.2367 19.747 58.4267 19.747C57.9167 19.747 57.4487 19.867 57.0227 20.107C56.5967 20.341 56.2997 20.731 56.1317 21.277L54.3767 20.737C54.6167 19.903 55.0727 19.24 55.7447 18.748C56.4227 18.256 57.3227 18.01 58.4447 18.01C59.3147 18.01 60.0707 18.16 60.7127 18.46C61.3607 18.754 61.8347 19.222 62.1347 19.864C62.2907 20.182 62.3867 20.518 62.4227 20.872C62.4587 21.226 62.4767 21.607 62.4767 22.015V28H60.8117V25.777L61.1357 26.065C60.7337 26.809 60.2207 27.364 59.5967 27.73C58.9787 28.09 58.2167 28.27 57.3107 28.27ZM57.6437 26.731C58.1777 26.731 58.6367 26.638 59.0207 26.452C59.4047 26.26 59.7137 26.017 59.9477 25.723C60.1817 25.429 60.3347 25.123 60.4067 24.805C60.5087 24.517 60.5657 24.193 60.5777 23.833C60.5957 23.473 60.6047 23.185 60.6047 22.969L61.2167 23.194C60.6227 23.284 60.0827 23.365 59.5967 23.437C59.1107 23.509 58.6697 23.581 58.2737 23.653C57.8837 23.719 57.5357 23.8 57.2297 23.896C56.9717 23.986 56.7407 24.094 56.5367 24.22C56.3387 24.346 56.1797 24.499 56.0597 24.679C55.9457 24.859 55.8887 25.078 55.8887 25.336C55.8887 25.588 55.9517 25.822 56.0777 26.038C56.2037 26.248 56.3957 26.416 56.6537 26.542C56.9117 26.668 57.2417 26.731 57.6437 26.731ZM71.6357 28V23.221C71.6357 22.843 71.6027 22.456 71.5367 22.06C71.4767 21.658 71.3567 21.286 71.1767 20.944C71.0027 20.602 70.7537 20.326 70.4297 20.116C70.1117 19.906 69.6947 19.801 69.1787 19.801C68.8427 19.801 68.5247 19.858 68.2247 19.972C67.9247 20.08 67.6607 20.257 67.4327 20.503C67.2107 20.749 67.0337 21.073 66.9017 21.475C66.7757 21.877 66.7127 22.366 66.7127 22.942L65.5427 22.501C65.5427 21.619 65.7077 20.842 66.0377 20.17C66.3677 19.492 66.8417 18.964 67.4597 18.586C68.0777 18.208 68.8247 18.019 69.7007 18.019C70.3727 18.019 70.9367 18.127 71.3927 18.343C71.8487 18.559 72.2177 18.844 72.4997 19.198C72.7877 19.546 73.0067 19.927 73.1567 20.341C73.3067 20.755 73.4087 21.16 73.4627 21.556C73.5167 21.952 73.5437 22.3 73.5437 22.6V28H71.6357ZM64.8047 28V18.28H66.4877V21.088H66.7127V28H64.8047ZM81.4499 28C80.8379 28.12 80.2379 28.171 79.6499 28.153C79.0619 28.135 78.5369 28.021 78.0749 27.811C77.6129 27.601 77.2649 27.271 77.0309 26.821C76.8209 26.419 76.7069 26.011 76.6889 25.597C76.6769 25.177 76.6709 24.703 76.6709 24.175V15.58H78.5609V24.085C78.5609 24.475 78.5639 24.814 78.5699 25.102C78.5819 25.39 78.6449 25.633 78.7589 25.831C78.9749 26.203 79.3169 26.416 79.7849 26.47C80.2589 26.518 80.8139 26.497 81.4499 26.407V28ZM74.8079 19.792V18.28H81.4499V19.792H74.8079ZM87.2808 28.27C86.3088 28.27 85.4658 28.051 84.7518 27.613C84.0378 27.175 83.4858 26.572 83.0958 25.804C82.7118 25.03 82.5198 24.139 82.5198 23.131C82.5198 22.117 82.7178 21.226 83.1138 20.458C83.5098 19.684 84.0648 19.084 84.7788 18.658C85.4928 18.226 86.3268 18.01 87.2808 18.01C88.2528 18.01 89.0958 18.229 89.8098 18.667C90.5238 19.105 91.0758 19.708 91.4658 20.476C91.8558 21.244 92.0508 22.129 92.0508 23.131C92.0508 24.145 91.8528 25.039 91.4568 25.813C91.0668 26.581 90.5148 27.184 89.8008 27.622C89.0868 28.054 88.2468 28.27 87.2808 28.27ZM87.2808 26.497C88.2108 26.497 88.9038 26.185 89.3598 25.561C89.8218 24.931 90.0528 24.121 90.0528 23.131C90.0528 22.117 89.8188 21.307 89.3508 20.701C88.8888 20.089 88.1988 19.783 87.2808 19.783C86.6508 19.783 86.1318 19.927 85.7238 20.215C85.3158 20.497 85.0128 20.89 84.8148 21.394C84.6168 21.892 84.5178 22.471 84.5178 23.131C84.5178 24.151 84.7518 24.967 85.2198 25.579C85.6878 26.191 86.3748 26.497 87.2808 26.497ZM105.675 28L105.684 21.943C105.684 21.241 105.504 20.695 105.144 20.305C104.784 19.909 104.31 19.711 103.722 19.711C103.362 19.711 103.032 19.795 102.732 19.963C102.438 20.125 102.198 20.371 102.012 20.701C101.832 21.025 101.742 21.433 101.742 21.925L100.833 21.466C100.821 20.782 100.965 20.182 101.265 19.666C101.571 19.15 101.985 18.751 102.507 18.469C103.029 18.181 103.614 18.037 104.262 18.037C105.312 18.037 106.125 18.352 106.701 18.982C107.277 19.612 107.565 20.449 107.565 21.493L107.556 28H105.675ZM94.0196 28V18.28H95.6936V21.088H95.9096V28H94.0196ZM99.8516 28L99.8606 21.979C99.8606 21.271 99.6806 20.716 99.3206 20.314C98.9666 19.912 98.4896 19.711 97.8896 19.711C97.2956 19.711 96.8156 19.915 96.4496 20.323C96.0896 20.731 95.9096 21.265 95.9096 21.925L95.0096 21.349C95.0096 20.713 95.1626 20.146 95.4686 19.648C95.7746 19.15 96.1886 18.757 96.7106 18.469C97.2326 18.181 97.8236 18.037 98.4836 18.037C99.1736 18.037 99.7616 18.184 100.248 18.478C100.734 18.766 101.103 19.171 101.355 19.693C101.613 20.215 101.742 20.821 101.742 21.511L101.733 28H99.8516Z" fill="#F4F5F6"/>
<defs>
<linearGradient id="paint0_linear_0_4486" x1="4.08878" y1="4.08334" x2="174.004" y2="71.3216" gradientUnits="userSpaceOnUse">
<stop stop-color="#0083FF"/>
<stop offset="1"/>
</linearGradient>
<clipPath id="clip0_0_4486">
<rect width="16" height="16" fill="white" transform="translate(20 13)"/>
</clipPath>
</defs>
</svg>
